G04*
G04 #@! TF.GenerationSoftware,Altium Limited,Altium Designer,22.2.1 (43)*
G04*
G04 Layer_Color=32896*
%FSAX44Y44*%
%MOMM*%
G71*
G04*
G04 #@! TF.SameCoordinates,665A4EC2-3B2C-4E96-A3DF-A06100641636*
G04*
G04*
G04 #@! TF.FilePolarity,Positive*
G04*
G01*
G75*
%ADD11C,0.3810*%
%ADD14C,0.2540*%
%ADD21C,0.1270*%
%ADD155C,0.0254*%
G54D11*
X02363035Y01971040D02*
X02916616D01*
X02363035Y01986280D02*
X02916616D01*
X02363035Y01803400D02*
Y01986280D01*
Y01803400D02*
X02417634D01*
X02363035Y01818640D02*
X02417634D01*
X02363035Y01833880D02*
X02417634D01*
X02363035Y01849120D02*
X02417634D01*
X02363035Y01864360D02*
X02417634D01*
X02363035Y01879600D02*
X02417634D01*
X02363035Y01894840D02*
X02417634D01*
X02363035Y01910080D02*
X02417634D01*
X02363035Y01925320D02*
X02417634D01*
X02363035Y01940560D02*
X02417634D01*
X02363035Y01955800D02*
X02417634D01*
Y01803400D02*
Y01986280D01*
Y01803400D02*
X02538251D01*
X02417634Y01818640D02*
X02538251D01*
X02417634Y01833880D02*
X02538251D01*
X02417634Y01849120D02*
X02538251D01*
X02417634Y01864360D02*
X02538251D01*
X02417634Y01879600D02*
X02538251D01*
X02417634Y01894840D02*
X02538251D01*
X02417634Y01910080D02*
X02538251D01*
X02417634Y01925320D02*
X02538251D01*
X02417634Y01940560D02*
X02538251D01*
X02417634Y01955800D02*
X02538251D01*
Y01803400D02*
Y01986280D01*
Y01803400D02*
X02611894D01*
X02538251Y01818640D02*
X02611894D01*
X02538251Y01833880D02*
X02611894D01*
X02538251Y01849120D02*
X02611894D01*
X02538251Y01864360D02*
X02611894D01*
X02538251Y01879600D02*
X02611894D01*
X02538251Y01894840D02*
X02611894D01*
X02538251Y01910080D02*
X02611894D01*
X02538251Y01925320D02*
X02611894D01*
X02538251Y01940560D02*
X02611894D01*
X02538251Y01955800D02*
X02611894D01*
Y01803400D02*
Y01986280D01*
Y01803400D02*
X02696963D01*
X02611894Y01818640D02*
X02696963D01*
X02611894Y01833880D02*
X02696963D01*
X02611894Y01849120D02*
X02696963D01*
X02611894Y01864360D02*
X02696963D01*
X02611894Y01879600D02*
X02696963D01*
X02611894Y01894840D02*
X02696963D01*
X02611894Y01910080D02*
X02696963D01*
X02611894Y01925320D02*
X02696963D01*
X02611894Y01940560D02*
X02696963D01*
X02611894Y01955800D02*
X02696963D01*
Y01803400D02*
Y01986280D01*
Y01803400D02*
X02771876D01*
X02696963Y01818640D02*
X02771876D01*
X02696963Y01833880D02*
X02771876D01*
X02696963Y01849120D02*
X02771876D01*
X02696963Y01864360D02*
X02771876D01*
X02696963Y01879600D02*
X02771876D01*
X02696963Y01894840D02*
X02771876D01*
X02696963Y01910080D02*
X02771876D01*
X02696963Y01925320D02*
X02771876D01*
X02696963Y01940560D02*
X02771876D01*
X02696963Y01955800D02*
X02771876D01*
Y01803400D02*
Y01986280D01*
Y01803400D02*
X02916616D01*
X02771876Y01818640D02*
X02916616D01*
X02771876Y01833880D02*
X02916616D01*
X02771876Y01849120D02*
X02916616D01*
X02771876Y01864360D02*
X02916616D01*
X02771876Y01879600D02*
X02916616D01*
X02771876Y01894840D02*
X02916616D01*
X02771876Y01910080D02*
X02916616D01*
X02771876Y01925320D02*
X02916616D01*
X02771876Y01940560D02*
X02916616D01*
X02771876Y01955800D02*
X02916616D01*
Y01803400D02*
Y01986280D01*
G54D14*
X02373195Y01982467D02*
Y01974850D01*
X02378273D01*
X02382082Y01979928D02*
X02384621D01*
X02385891Y01978659D01*
Y01974850D01*
X02382082D01*
X02380813Y01976120D01*
X02382082Y01977389D01*
X02385891D01*
X02388430Y01979928D02*
Y01976120D01*
X02389700Y01974850D01*
X02393508D01*
Y01973580D01*
X02392239Y01972311D01*
X02390969D01*
X02393508Y01974850D02*
Y01979928D01*
X02399857Y01974850D02*
X02397317D01*
X02396048Y01976120D01*
Y01978659D01*
X02397317Y01979928D01*
X02399857D01*
X02401126Y01978659D01*
Y01977389D01*
X02396048D01*
X02403665Y01979928D02*
Y01974850D01*
Y01977389D01*
X02404935Y01978659D01*
X02406204Y01979928D01*
X02407474D01*
X02377004Y01837690D02*
Y01845307D01*
X02373195Y01841499D01*
X02378273D01*
X02373195Y01874518D02*
X02374465Y01875788D01*
X02377004D01*
X02378273Y01874518D01*
Y01873248D01*
X02377004Y01871979D01*
X02375734D01*
X02377004D01*
X02378273Y01870709D01*
Y01869440D01*
X02377004Y01868170D01*
X02374465D01*
X02373195Y01869440D01*
X02378273Y01898650D02*
X02373195D01*
X02378273Y01903728D01*
Y01904998D01*
X02377004Y01906268D01*
X02374465D01*
X02373195Y01904998D01*
Y01929130D02*
X02375734D01*
X02374465D01*
Y01936747D01*
X02373195Y01935478D01*
X02427794Y01974850D02*
Y01982467D01*
X02432872Y01974850D01*
Y01982467D01*
X02436681Y01979928D02*
X02439220D01*
X02440490Y01978659D01*
Y01974850D01*
X02436681D01*
X02435412Y01976120D01*
X02436681Y01977389D01*
X02440490D01*
X02443029Y01974850D02*
Y01979928D01*
X02444299D01*
X02445568Y01978659D01*
Y01974850D01*
Y01978659D01*
X02446838Y01979928D01*
X02448107Y01978659D01*
Y01974850D01*
X02454455D02*
X02451916D01*
X02450647Y01976120D01*
Y01978659D01*
X02451916Y01979928D01*
X02454455D01*
X02455725Y01978659D01*
Y01977389D01*
X02450647D01*
X02427794Y01814828D02*
Y01807210D01*
X02431603D01*
X02432872Y01808480D01*
Y01809749D01*
X02431603Y01811019D01*
X02427794D01*
X02431603D01*
X02432872Y01812288D01*
Y01813558D01*
X02431603Y01814828D01*
X02427794D01*
X02436681Y01807210D02*
X02439220D01*
X02440490Y01808480D01*
Y01811019D01*
X02439220Y01812288D01*
X02436681D01*
X02435412Y01811019D01*
Y01808480D01*
X02436681Y01807210D01*
X02444299Y01813558D02*
Y01812288D01*
X02443029D01*
X02445568D01*
X02444299D01*
Y01808480D01*
X02445568Y01807210D01*
X02450647Y01813558D02*
Y01812288D01*
X02449377D01*
X02451916D01*
X02450647D01*
Y01808480D01*
X02451916Y01807210D01*
X02456995D02*
X02459534D01*
X02460803Y01808480D01*
Y01811019D01*
X02459534Y01812288D01*
X02456995D01*
X02455725Y01811019D01*
Y01808480D01*
X02456995Y01807210D01*
X02463342D02*
Y01812288D01*
X02464612D01*
X02465882Y01811019D01*
Y01807210D01*
Y01811019D01*
X02467151Y01812288D01*
X02468421Y01811019D01*
Y01807210D01*
X02482386Y01814828D02*
X02479847D01*
X02478578Y01813558D01*
Y01808480D01*
X02479847Y01807210D01*
X02482386D01*
X02483656Y01808480D01*
Y01813558D01*
X02482386Y01814828D01*
X02486195Y01812288D02*
X02488734Y01807210D01*
X02491273Y01812288D01*
X02497621Y01807210D02*
X02495082D01*
X02493813Y01808480D01*
Y01811019D01*
X02495082Y01812288D01*
X02497621D01*
X02498891Y01811019D01*
Y01809749D01*
X02493813D01*
X02501430Y01812288D02*
Y01807210D01*
Y01809749D01*
X02502700Y01811019D01*
X02503969Y01812288D01*
X02505239D01*
X02509048Y01807210D02*
X02511587D01*
X02510317D01*
Y01814828D01*
X02509048D01*
X02516665Y01812288D02*
X02519204D01*
X02520474Y01811019D01*
Y01807210D01*
X02516665D01*
X02515396Y01808480D01*
X02516665Y01809749D01*
X02520474D01*
X02523013Y01812288D02*
Y01808480D01*
X02524283Y01807210D01*
X02528091D01*
Y01805940D01*
X02526822Y01804671D01*
X02525552D01*
X02528091Y01807210D02*
Y01812288D01*
X02427794Y01830067D02*
Y01822450D01*
X02431603D01*
X02432872Y01823720D01*
Y01824989D01*
X02431603Y01826259D01*
X02427794D01*
X02431603D01*
X02432872Y01827528D01*
Y01828798D01*
X02431603Y01830067D01*
X02427794D01*
X02436681Y01822450D02*
X02439220D01*
X02440490Y01823720D01*
Y01826259D01*
X02439220Y01827528D01*
X02436681D01*
X02435412Y01826259D01*
Y01823720D01*
X02436681Y01822450D01*
X02444299Y01828798D02*
Y01827528D01*
X02443029D01*
X02445568D01*
X02444299D01*
Y01823720D01*
X02445568Y01822450D01*
X02450647Y01828798D02*
Y01827528D01*
X02449377D01*
X02451916D01*
X02450647D01*
Y01823720D01*
X02451916Y01822450D01*
X02456995D02*
X02459534D01*
X02460803Y01823720D01*
Y01826259D01*
X02459534Y01827528D01*
X02456995D01*
X02455725Y01826259D01*
Y01823720D01*
X02456995Y01822450D01*
X02463342D02*
Y01827528D01*
X02464612D01*
X02465882Y01826259D01*
Y01822450D01*
Y01826259D01*
X02467151Y01827528D01*
X02468421Y01826259D01*
Y01822450D01*
X02483656Y01828798D02*
X02482386Y01830067D01*
X02479847D01*
X02478578Y01828798D01*
Y01827528D01*
X02479847Y01826259D01*
X02482386D01*
X02483656Y01824989D01*
Y01823720D01*
X02482386Y01822450D01*
X02479847D01*
X02478578Y01823720D01*
X02487465Y01822450D02*
X02490004D01*
X02491273Y01823720D01*
Y01826259D01*
X02490004Y01827528D01*
X02487465D01*
X02486195Y01826259D01*
Y01823720D01*
X02487465Y01822450D01*
X02493813D02*
X02496352D01*
X02495082D01*
Y01830067D01*
X02493813D01*
X02505239D02*
Y01822450D01*
X02501430D01*
X02500161Y01823720D01*
Y01826259D01*
X02501430Y01827528D01*
X02505239D01*
X02511587Y01822450D02*
X02509048D01*
X02507778Y01823720D01*
Y01826259D01*
X02509048Y01827528D01*
X02511587D01*
X02512856Y01826259D01*
Y01824989D01*
X02507778D01*
X02515396Y01827528D02*
Y01822450D01*
Y01824989D01*
X02516665Y01826259D01*
X02517935Y01827528D01*
X02519204D01*
X02427794Y01845307D02*
Y01837690D01*
X02431603D01*
X02432872Y01838960D01*
Y01840229D01*
X02431603Y01841499D01*
X02427794D01*
X02431603D01*
X02432872Y01842768D01*
Y01844038D01*
X02431603Y01845307D01*
X02427794D01*
X02436681Y01837690D02*
X02439220D01*
X02440490Y01838960D01*
Y01841499D01*
X02439220Y01842768D01*
X02436681D01*
X02435412Y01841499D01*
Y01838960D01*
X02436681Y01837690D01*
X02444299Y01844038D02*
Y01842768D01*
X02443029D01*
X02445568D01*
X02444299D01*
Y01838960D01*
X02445568Y01837690D01*
X02450647Y01844038D02*
Y01842768D01*
X02449377D01*
X02451916D01*
X02450647D01*
Y01838960D01*
X02451916Y01837690D01*
X02456995D02*
X02459534D01*
X02460803Y01838960D01*
Y01841499D01*
X02459534Y01842768D01*
X02456995D01*
X02455725Y01841499D01*
Y01838960D01*
X02456995Y01837690D01*
X02463342D02*
Y01842768D01*
X02464612D01*
X02465882Y01841499D01*
Y01837690D01*
Y01841499D01*
X02467151Y01842768D01*
X02468421Y01841499D01*
Y01837690D01*
X02478578Y01845307D02*
Y01837690D01*
X02483656D01*
X02487465Y01842768D02*
X02490004D01*
X02491273Y01841499D01*
Y01837690D01*
X02487465D01*
X02486195Y01838960D01*
X02487465Y01840229D01*
X02491273D01*
X02493813Y01842768D02*
Y01838960D01*
X02495082Y01837690D01*
X02498891D01*
Y01836420D01*
X02497621Y01835151D01*
X02496352D01*
X02498891Y01837690D02*
Y01842768D01*
X02505239Y01837690D02*
X02502700D01*
X02501430Y01838960D01*
Y01841499D01*
X02502700Y01842768D01*
X02505239D01*
X02506508Y01841499D01*
Y01840229D01*
X02501430D01*
X02509048Y01842768D02*
Y01837690D01*
Y01840229D01*
X02510317Y01841499D01*
X02511587Y01842768D01*
X02512856D01*
X02427794Y01860547D02*
Y01852930D01*
X02431603D01*
X02432872Y01854200D01*
Y01859278D01*
X02431603Y01860547D01*
X02427794D01*
X02435412Y01852930D02*
X02437951D01*
X02436681D01*
Y01858008D01*
X02435412D01*
X02445568Y01852930D02*
X02443029D01*
X02441759Y01854200D01*
Y01856739D01*
X02443029Y01858008D01*
X02445568D01*
X02446838Y01856739D01*
Y01855469D01*
X02441759D01*
X02449377Y01852930D02*
X02451916D01*
X02450647D01*
Y01860547D01*
X02449377D01*
X02459534Y01852930D02*
X02456995D01*
X02455725Y01854200D01*
Y01856739D01*
X02456995Y01858008D01*
X02459534D01*
X02460803Y01856739D01*
Y01855469D01*
X02455725D01*
X02468421Y01858008D02*
X02464612D01*
X02463342Y01856739D01*
Y01854200D01*
X02464612Y01852930D01*
X02468421D01*
X02472230Y01859278D02*
Y01858008D01*
X02470960D01*
X02473499D01*
X02472230D01*
Y01854200D01*
X02473499Y01852930D01*
X02477308Y01858008D02*
Y01852930D01*
Y01855469D01*
X02478578Y01856739D01*
X02479847Y01858008D01*
X02481117D01*
X02484926Y01852930D02*
X02487465D01*
X02486195D01*
Y01858008D01*
X02484926D01*
X02496352D02*
X02492543D01*
X02491273Y01856739D01*
Y01854200D01*
X02492543Y01852930D01*
X02496352D01*
X02506508Y01859278D02*
X02507778Y01860547D01*
X02510317D01*
X02511587Y01859278D01*
Y01858008D01*
X02510317Y01856739D01*
X02509048D01*
X02510317D01*
X02511587Y01855469D01*
Y01854200D01*
X02510317Y01852930D01*
X02507778D01*
X02506508Y01854200D01*
X02432872Y01874518D02*
X02431603Y01875788D01*
X02429064D01*
X02427794Y01874518D01*
Y01869440D01*
X02429064Y01868170D01*
X02431603D01*
X02432872Y01869440D01*
Y01871979D01*
X02430333D01*
X02435412Y01868170D02*
Y01875788D01*
X02440490Y01868170D01*
Y01875788D01*
X02443029D02*
Y01868170D01*
X02446838D01*
X02448107Y01869440D01*
Y01874518D01*
X02446838Y01875788D01*
X02443029D01*
X02458264D02*
Y01868170D01*
X02463342D01*
X02467151Y01873248D02*
X02469691D01*
X02470960Y01871979D01*
Y01868170D01*
X02467151D01*
X02465882Y01869440D01*
X02467151Y01870709D01*
X02470960D01*
X02473499Y01873248D02*
Y01869440D01*
X02474769Y01868170D01*
X02478578D01*
Y01866900D01*
X02477308Y01865631D01*
X02476038D01*
X02478578Y01868170D02*
Y01873248D01*
X02484926Y01868170D02*
X02482386D01*
X02481117Y01869440D01*
Y01871979D01*
X02482386Y01873248D01*
X02484926D01*
X02486195Y01871979D01*
Y01870709D01*
X02481117D01*
X02488734Y01873248D02*
Y01868170D01*
Y01870709D01*
X02490004Y01871979D01*
X02491273Y01873248D01*
X02492543D01*
X02427794Y01891028D02*
Y01883410D01*
X02431603D01*
X02432872Y01884680D01*
Y01889758D01*
X02431603Y01891028D01*
X02427794D01*
X02435412Y01883410D02*
X02437951D01*
X02436681D01*
Y01888488D01*
X02435412D01*
X02445568Y01883410D02*
X02443029D01*
X02441759Y01884680D01*
Y01887219D01*
X02443029Y01888488D01*
X02445568D01*
X02446838Y01887219D01*
Y01885949D01*
X02441759D01*
X02449377Y01883410D02*
X02451916D01*
X02450647D01*
Y01891028D01*
X02449377D01*
X02459534Y01883410D02*
X02456995D01*
X02455725Y01884680D01*
Y01887219D01*
X02456995Y01888488D01*
X02459534D01*
X02460803Y01887219D01*
Y01885949D01*
X02455725D01*
X02468421Y01888488D02*
X02464612D01*
X02463342Y01887219D01*
Y01884680D01*
X02464612Y01883410D01*
X02468421D01*
X02472230Y01889758D02*
Y01888488D01*
X02470960D01*
X02473499D01*
X02472230D01*
Y01884680D01*
X02473499Y01883410D01*
X02477308Y01888488D02*
Y01883410D01*
Y01885949D01*
X02478578Y01887219D01*
X02479847Y01888488D01*
X02481117D01*
X02484926Y01883410D02*
X02487465D01*
X02486195D01*
Y01888488D01*
X02484926D01*
X02496352D02*
X02492543D01*
X02491273Y01887219D01*
Y01884680D01*
X02492543Y01883410D01*
X02496352D01*
X02498891D02*
X02501430D01*
X02500161D01*
Y01891028D01*
X02498891Y01889758D01*
X02427794Y01906268D02*
Y01901189D01*
X02430333Y01898650D01*
X02432872Y01901189D01*
Y01906268D01*
X02440490Y01904998D02*
X02439220Y01906268D01*
X02436681D01*
X02435412Y01904998D01*
Y01899920D01*
X02436681Y01898650D01*
X02439220D01*
X02440490Y01899920D01*
X02448107Y01904998D02*
X02446838Y01906268D01*
X02444299D01*
X02443029Y01904998D01*
Y01899920D01*
X02444299Y01898650D01*
X02446838D01*
X02448107Y01899920D01*
X02458264Y01906268D02*
Y01898650D01*
X02463342D01*
X02467151Y01903728D02*
X02469691D01*
X02470960Y01902459D01*
Y01898650D01*
X02467151D01*
X02465882Y01899920D01*
X02467151Y01901189D01*
X02470960D01*
X02473499Y01903728D02*
Y01899920D01*
X02474769Y01898650D01*
X02478578D01*
Y01897380D01*
X02477308Y01896111D01*
X02476038D01*
X02478578Y01898650D02*
Y01903728D01*
X02484926Y01898650D02*
X02482386D01*
X02481117Y01899920D01*
Y01902459D01*
X02482386Y01903728D01*
X02484926D01*
X02486195Y01902459D01*
Y01901189D01*
X02481117D01*
X02488734Y01903728D02*
Y01898650D01*
Y01901189D01*
X02490004Y01902459D01*
X02491273Y01903728D01*
X02492543D01*
X02427794Y01921508D02*
Y01913890D01*
X02431603D01*
X02432872Y01915160D01*
Y01920238D01*
X02431603Y01921508D01*
X02427794D01*
X02435412Y01913890D02*
X02437951D01*
X02436681D01*
Y01918968D01*
X02435412D01*
X02445568Y01913890D02*
X02443029D01*
X02441759Y01915160D01*
Y01917699D01*
X02443029Y01918968D01*
X02445568D01*
X02446838Y01917699D01*
Y01916429D01*
X02441759D01*
X02449377Y01913890D02*
X02451916D01*
X02450647D01*
Y01921508D01*
X02449377D01*
X02459534Y01913890D02*
X02456995D01*
X02455725Y01915160D01*
Y01917699D01*
X02456995Y01918968D01*
X02459534D01*
X02460803Y01917699D01*
Y01916429D01*
X02455725D01*
X02468421Y01918968D02*
X02464612D01*
X02463342Y01917699D01*
Y01915160D01*
X02464612Y01913890D01*
X02468421D01*
X02472230Y01920238D02*
Y01918968D01*
X02470960D01*
X02473499D01*
X02472230D01*
Y01915160D01*
X02473499Y01913890D01*
X02477308Y01918968D02*
Y01913890D01*
Y01916429D01*
X02478578Y01917699D01*
X02479847Y01918968D01*
X02481117D01*
X02484926Y01913890D02*
X02487465D01*
X02486195D01*
Y01918968D01*
X02484926D01*
X02496352D02*
X02492543D01*
X02491273Y01917699D01*
Y01915160D01*
X02492543Y01913890D01*
X02496352D01*
X02511587D02*
X02506508D01*
X02511587Y01918968D01*
Y01920238D01*
X02510317Y01921508D01*
X02507778D01*
X02506508Y01920238D01*
X02427794Y01936747D02*
X02432872D01*
X02430333D01*
Y01929130D01*
X02436681D02*
X02439220D01*
X02440490Y01930400D01*
Y01932939D01*
X02439220Y01934208D01*
X02436681D01*
X02435412Y01932939D01*
Y01930400D01*
X02436681Y01929130D01*
X02443029Y01926591D02*
Y01934208D01*
X02446838D01*
X02448107Y01932939D01*
Y01930400D01*
X02446838Y01929130D01*
X02443029D01*
X02458264Y01936747D02*
Y01929130D01*
X02463342D01*
X02467151Y01934208D02*
X02469691D01*
X02470960Y01932939D01*
Y01929130D01*
X02467151D01*
X02465882Y01930400D01*
X02467151Y01931669D01*
X02470960D01*
X02473499Y01934208D02*
Y01930400D01*
X02474769Y01929130D01*
X02478578D01*
Y01927860D01*
X02477308Y01926591D01*
X02476038D01*
X02478578Y01929130D02*
Y01934208D01*
X02484926Y01929130D02*
X02482386D01*
X02481117Y01930400D01*
Y01932939D01*
X02482386Y01934208D01*
X02484926D01*
X02486195Y01932939D01*
Y01931669D01*
X02481117D01*
X02488734Y01934208D02*
Y01929130D01*
Y01931669D01*
X02490004Y01932939D01*
X02491273Y01934208D01*
X02492543D01*
X02427794Y01951987D02*
X02432872D01*
X02430333D01*
Y01944370D01*
X02436681D02*
X02439220D01*
X02440490Y01945640D01*
Y01948179D01*
X02439220Y01949448D01*
X02436681D01*
X02435412Y01948179D01*
Y01945640D01*
X02436681Y01944370D01*
X02443029Y01941831D02*
Y01949448D01*
X02446838D01*
X02448107Y01948179D01*
Y01945640D01*
X02446838Y01944370D01*
X02443029D01*
X02463342Y01950718D02*
X02462073Y01951987D01*
X02459534D01*
X02458264Y01950718D01*
Y01949448D01*
X02459534Y01948179D01*
X02462073D01*
X02463342Y01946909D01*
Y01945640D01*
X02462073Y01944370D01*
X02459534D01*
X02458264Y01945640D01*
X02467151Y01944370D02*
X02469691D01*
X02470960Y01945640D01*
Y01948179D01*
X02469691Y01949448D01*
X02467151D01*
X02465882Y01948179D01*
Y01945640D01*
X02467151Y01944370D01*
X02473499D02*
X02476038D01*
X02474769D01*
Y01951987D01*
X02473499D01*
X02484926D02*
Y01944370D01*
X02481117D01*
X02479847Y01945640D01*
Y01948179D01*
X02481117Y01949448D01*
X02484926D01*
X02491273Y01944370D02*
X02488734D01*
X02487465Y01945640D01*
Y01948179D01*
X02488734Y01949448D01*
X02491273D01*
X02492543Y01948179D01*
Y01946909D01*
X02487465D01*
X02495082Y01949448D02*
Y01944370D01*
Y01946909D01*
X02496352Y01948179D01*
X02497621Y01949448D01*
X02498891D01*
X02427794Y01967227D02*
X02432872D01*
X02430333D01*
Y01959610D01*
X02436681D02*
X02439220D01*
X02440490Y01960880D01*
Y01963419D01*
X02439220Y01964688D01*
X02436681D01*
X02435412Y01963419D01*
Y01960880D01*
X02436681Y01959610D01*
X02443029Y01957071D02*
Y01964688D01*
X02446838D01*
X02448107Y01963419D01*
Y01960880D01*
X02446838Y01959610D01*
X02443029D01*
X02462073Y01967227D02*
X02459534D01*
X02458264Y01965958D01*
Y01960880D01*
X02459534Y01959610D01*
X02462073D01*
X02463342Y01960880D01*
Y01965958D01*
X02462073Y01967227D01*
X02465882Y01964688D02*
X02468421Y01959610D01*
X02470960Y01964688D01*
X02477308Y01959610D02*
X02474769D01*
X02473499Y01960880D01*
Y01963419D01*
X02474769Y01964688D01*
X02477308D01*
X02478578Y01963419D01*
Y01962149D01*
X02473499D01*
X02481117Y01964688D02*
Y01959610D01*
Y01962149D01*
X02482386Y01963419D01*
X02483656Y01964688D01*
X02484926D01*
X02488734Y01959610D02*
X02491273D01*
X02490004D01*
Y01967227D01*
X02488734D01*
X02496352Y01964688D02*
X02498891D01*
X02500161Y01963419D01*
Y01959610D01*
X02496352D01*
X02495082Y01960880D01*
X02496352Y01962149D01*
X02500161D01*
X02502700Y01964688D02*
Y01960880D01*
X02503969Y01959610D01*
X02507778D01*
Y01958340D01*
X02506509Y01957071D01*
X02505239D01*
X02507778Y01959610D02*
Y01964688D01*
X02548412Y01974850D02*
Y01982467D01*
X02550951Y01979928D01*
X02553490Y01982467D01*
Y01974850D01*
X02557299Y01979928D02*
X02559838D01*
X02561107Y01978659D01*
Y01974850D01*
X02557299D01*
X02556029Y01976120D01*
X02557299Y01977389D01*
X02561107D01*
X02564916Y01981198D02*
Y01979928D01*
X02563647D01*
X02566186D01*
X02564916D01*
Y01976120D01*
X02566186Y01974850D01*
X02573803D02*
X02571264D01*
X02569995Y01976120D01*
Y01978659D01*
X02571264Y01979928D01*
X02573803D01*
X02575073Y01978659D01*
Y01977389D01*
X02569995D01*
X02577612Y01979928D02*
Y01974850D01*
Y01977389D01*
X02578882Y01978659D01*
X02580151Y01979928D01*
X02581421D01*
X02585229Y01974850D02*
X02587769D01*
X02586499D01*
Y01979928D01*
X02585229D01*
X02592847D02*
X02595386D01*
X02596656Y01978659D01*
Y01974850D01*
X02592847D01*
X02591577Y01976120D01*
X02592847Y01977389D01*
X02596656D01*
X02599195Y01974850D02*
X02601734D01*
X02600465D01*
Y01982467D01*
X02599195D01*
X02553490Y01828798D02*
X02552220Y01830067D01*
X02549681D01*
X02548412Y01828798D01*
Y01827528D01*
X02549681Y01826259D01*
X02552220D01*
X02553490Y01824989D01*
Y01823720D01*
X02552220Y01822450D01*
X02549681D01*
X02548412Y01823720D01*
X02556029Y01822450D02*
Y01830067D01*
X02558568Y01827528D01*
X02561107Y01830067D01*
Y01822450D01*
X02563647Y01826259D02*
X02568725D01*
X02571264Y01828798D02*
X02572534Y01830067D01*
X02575073D01*
X02576342Y01828798D01*
Y01823720D01*
X02575073Y01822450D01*
X02572534D01*
X02571264Y01823720D01*
Y01828798D01*
X02578882D02*
X02580151Y01830067D01*
X02582690D01*
X02583960Y01828798D01*
Y01823720D01*
X02582690Y01822450D01*
X02580151D01*
X02578882Y01823720D01*
Y01828798D01*
X02590308Y01822450D02*
Y01830067D01*
X02586499Y01826259D01*
X02591577D01*
X02553490Y01860547D02*
X02548412D01*
Y01856739D01*
X02550951D01*
X02548412D01*
Y01852930D01*
X02556029D02*
Y01860547D01*
X02559838D01*
X02561107Y01859278D01*
Y01856739D01*
X02559838Y01855469D01*
X02556029D01*
X02558568D02*
X02561107Y01852930D01*
X02563647Y01856739D02*
X02568725D01*
X02575073Y01852930D02*
Y01860547D01*
X02571264Y01856739D01*
X02576342D01*
X02553490Y01891028D02*
X02548412D01*
Y01887219D01*
X02550951D01*
X02548412D01*
Y01883410D01*
X02556029D02*
Y01891028D01*
X02559838D01*
X02561107Y01889758D01*
Y01887219D01*
X02559838Y01885949D01*
X02556029D01*
X02558568D02*
X02561107Y01883410D01*
X02563647Y01887219D02*
X02568725D01*
X02575073Y01883410D02*
Y01891028D01*
X02571264Y01887219D01*
X02576342D01*
X02553490Y01921508D02*
X02548412D01*
Y01917699D01*
X02550951D01*
X02548412D01*
Y01913890D01*
X02556029D02*
Y01921508D01*
X02559838D01*
X02561107Y01920238D01*
Y01917699D01*
X02559838Y01916429D01*
X02556029D01*
X02558568D02*
X02561107Y01913890D01*
X02563647Y01917699D02*
X02568725D01*
X02575073Y01913890D02*
Y01921508D01*
X02571264Y01917699D01*
X02576342D01*
X02553490Y01950718D02*
X02552220Y01951987D01*
X02549681D01*
X02548412Y01950718D01*
Y01949448D01*
X02549681Y01948179D01*
X02552220D01*
X02553490Y01946909D01*
Y01945640D01*
X02552220Y01944370D01*
X02549681D01*
X02548412Y01945640D01*
X02556029Y01944370D02*
Y01951987D01*
X02558568Y01949448D01*
X02561107Y01951987D01*
Y01944370D01*
X02563647Y01948179D02*
X02568725D01*
X02571264Y01950718D02*
X02572534Y01951987D01*
X02575073D01*
X02576342Y01950718D01*
Y01945640D01*
X02575073Y01944370D01*
X02572534D01*
X02571264Y01945640D01*
Y01950718D01*
X02578882D02*
X02580151Y01951987D01*
X02582690D01*
X02583960Y01950718D01*
Y01945640D01*
X02582690Y01944370D01*
X02580151D01*
X02578882Y01945640D01*
Y01950718D01*
X02590308Y01944370D02*
Y01951987D01*
X02586499Y01948179D01*
X02591577D01*
X02622054Y01982467D02*
X02627133D01*
X02624594D01*
Y01974850D01*
X02629672Y01982467D02*
Y01974850D01*
Y01978659D01*
X02630941Y01979928D01*
X02633481D01*
X02634750Y01978659D01*
Y01974850D01*
X02637289D02*
X02639828D01*
X02638559D01*
Y01979928D01*
X02637289D01*
X02648716D02*
X02644907D01*
X02643637Y01978659D01*
Y01976120D01*
X02644907Y01974850D01*
X02648716D01*
X02651255D02*
Y01982467D01*
Y01977389D02*
X02655063Y01979928D01*
X02651255Y01977389D02*
X02655063Y01974850D01*
X02658872D02*
Y01979928D01*
X02662681D01*
X02663951Y01978659D01*
Y01974850D01*
X02670299D02*
X02667759D01*
X02666490Y01976120D01*
Y01978659D01*
X02667759Y01979928D01*
X02670299D01*
X02671568Y01978659D01*
Y01977389D01*
X02666490D01*
X02674107Y01974850D02*
X02677916D01*
X02679186Y01976120D01*
X02677916Y01977389D01*
X02675377D01*
X02674107Y01978659D01*
X02675377Y01979928D01*
X02679186D01*
X02681725Y01974850D02*
X02685534D01*
X02686803Y01976120D01*
X02685534Y01977389D01*
X02682995D01*
X02681725Y01978659D01*
X02682995Y01979928D01*
X02686803D01*
X02622054Y01828798D02*
X02623324Y01830067D01*
X02625863D01*
X02627133Y01828798D01*
Y01823720D01*
X02625863Y01822450D01*
X02623324D01*
X02622054Y01823720D01*
Y01828798D01*
X02629672Y01822450D02*
Y01823720D01*
X02630941D01*
Y01822450D01*
X02629672D01*
X02636020Y01823720D02*
X02637289Y01822450D01*
X02639828D01*
X02641098Y01823720D01*
Y01828798D01*
X02639828Y01830067D01*
X02637289D01*
X02636020Y01828798D01*
Y01827528D01*
X02637289Y01826259D01*
X02641098D01*
X02643637Y01828798D02*
X02644907Y01830067D01*
X02647446D01*
X02648716Y01828798D01*
Y01827528D01*
X02647446Y01826259D01*
X02648716Y01824989D01*
Y01823720D01*
X02647446Y01822450D01*
X02644907D01*
X02643637Y01823720D01*
Y01824989D01*
X02644907Y01826259D01*
X02643637Y01827528D01*
Y01828798D01*
X02644907Y01826259D02*
X02647446D01*
X02651255Y01822450D02*
Y01827528D01*
X02652524D01*
X02653794Y01826259D01*
Y01822450D01*
Y01826259D01*
X02655063Y01827528D01*
X02656333Y01826259D01*
Y01822450D01*
X02658872D02*
X02661412D01*
X02660142D01*
Y01827528D01*
X02658872D01*
X02665220Y01822450D02*
X02667759D01*
X02666490D01*
Y01830067D01*
X02665220D01*
X02622054Y01837690D02*
X02624594D01*
X02623324D01*
Y01845307D01*
X02622054Y01844038D01*
X02628402Y01837690D02*
Y01838960D01*
X02629672D01*
Y01837690D01*
X02628402D01*
X02638559D02*
Y01845307D01*
X02634750Y01841499D01*
X02639828D01*
X02642368Y01844038D02*
X02643637Y01845307D01*
X02646176D01*
X02647446Y01844038D01*
Y01838960D01*
X02646176Y01837690D01*
X02643637D01*
X02642368Y01838960D01*
Y01844038D01*
X02649985Y01837690D02*
Y01842768D01*
X02651255D01*
X02652524Y01841499D01*
Y01837690D01*
Y01841499D01*
X02653794Y01842768D01*
X02655063Y01841499D01*
Y01837690D01*
X02657603D02*
X02660142D01*
X02658872D01*
Y01842768D01*
X02657603D01*
X02663951Y01837690D02*
X02666490D01*
X02665220D01*
Y01845307D01*
X02663951D01*
X02622054Y01859278D02*
X02623324Y01860547D01*
X02625863D01*
X02627133Y01859278D01*
Y01858008D01*
X02625863Y01856739D01*
X02627133Y01855469D01*
Y01854200D01*
X02625863Y01852930D01*
X02623324D01*
X02622054Y01854200D01*
Y01855469D01*
X02623324Y01856739D01*
X02622054Y01858008D01*
Y01859278D01*
X02623324Y01856739D02*
X02625863D01*
X02629672Y01852930D02*
Y01854200D01*
X02630941D01*
Y01852930D01*
X02629672D01*
X02639828D02*
Y01860547D01*
X02636020Y01856739D01*
X02641098D01*
X02643637Y01859278D02*
X02644907Y01860547D01*
X02647446D01*
X02648716Y01859278D01*
Y01854200D01*
X02647446Y01852930D01*
X02644907D01*
X02643637Y01854200D01*
Y01859278D01*
X02651255Y01852930D02*
Y01858008D01*
X02652524D01*
X02653794Y01856739D01*
Y01852930D01*
Y01856739D01*
X02655063Y01858008D01*
X02656333Y01856739D01*
Y01852930D01*
X02658872D02*
X02661412D01*
X02660142D01*
Y01858008D01*
X02658872D01*
X02665220Y01852930D02*
X02667759D01*
X02666490D01*
Y01860547D01*
X02665220D01*
X02622054Y01868170D02*
X02624594D01*
X02623324D01*
Y01875788D01*
X02622054Y01874518D01*
X02628402Y01868170D02*
Y01869440D01*
X02629672D01*
Y01868170D01*
X02628402D01*
X02638559D02*
Y01875788D01*
X02634750Y01871979D01*
X02639828D01*
X02642368Y01874518D02*
X02643637Y01875788D01*
X02646176D01*
X02647446Y01874518D01*
Y01869440D01*
X02646176Y01868170D01*
X02643637D01*
X02642368Y01869440D01*
Y01874518D01*
X02649985Y01868170D02*
Y01873248D01*
X02651255D01*
X02652524Y01871979D01*
Y01868170D01*
Y01871979D01*
X02653794Y01873248D01*
X02655063Y01871979D01*
Y01868170D01*
X02657603D02*
X02660142D01*
X02658872D01*
Y01873248D01*
X02657603D01*
X02663951Y01868170D02*
X02666490D01*
X02665220D01*
Y01875788D01*
X02663951D01*
X02625863Y01883410D02*
Y01891028D01*
X02622054Y01887219D01*
X02627133D01*
X02629672Y01889758D02*
X02630941Y01891028D01*
X02633481D01*
X02634750Y01889758D01*
Y01884680D01*
X02633481Y01883410D01*
X02630941D01*
X02629672Y01884680D01*
Y01889758D01*
X02637289Y01883410D02*
Y01884680D01*
X02638559D01*
Y01883410D01*
X02637289D01*
X02643637Y01889758D02*
X02644907Y01891028D01*
X02647446D01*
X02648716Y01889758D01*
Y01884680D01*
X02647446Y01883410D01*
X02644907D01*
X02643637Y01884680D01*
Y01889758D01*
X02651255D02*
X02652524Y01891028D01*
X02655063D01*
X02656333Y01889758D01*
Y01884680D01*
X02655063Y01883410D01*
X02652524D01*
X02651255Y01884680D01*
Y01889758D01*
X02658872Y01883410D02*
Y01888488D01*
X02660142D01*
X02661412Y01887219D01*
Y01883410D01*
Y01887219D01*
X02662681Y01888488D01*
X02663951Y01887219D01*
Y01883410D01*
X02666490D02*
X02669029D01*
X02667759D01*
Y01888488D01*
X02666490D01*
X02672838Y01883410D02*
X02675377D01*
X02674107D01*
Y01891028D01*
X02672838D01*
X02622054Y01898650D02*
X02624594D01*
X02623324D01*
Y01906268D01*
X02622054Y01904998D01*
X02628402Y01898650D02*
Y01899920D01*
X02629672D01*
Y01898650D01*
X02628402D01*
X02638559D02*
Y01906268D01*
X02634750Y01902459D01*
X02639828D01*
X02642368Y01904998D02*
X02643637Y01906268D01*
X02646176D01*
X02647446Y01904998D01*
Y01899920D01*
X02646176Y01898650D01*
X02643637D01*
X02642368Y01899920D01*
Y01904998D01*
X02649985Y01898650D02*
Y01903728D01*
X02651255D01*
X02652524Y01902459D01*
Y01898650D01*
Y01902459D01*
X02653794Y01903728D01*
X02655063Y01902459D01*
Y01898650D01*
X02657603D02*
X02660142D01*
X02658872D01*
Y01903728D01*
X02657603D01*
X02663951Y01898650D02*
X02666490D01*
X02665220D01*
Y01906268D01*
X02663951D01*
X02622054Y01920238D02*
X02623324Y01921508D01*
X02625863D01*
X02627133Y01920238D01*
Y01918968D01*
X02625863Y01917699D01*
X02627133Y01916429D01*
Y01915160D01*
X02625863Y01913890D01*
X02623324D01*
X02622054Y01915160D01*
Y01916429D01*
X02623324Y01917699D01*
X02622054Y01918968D01*
Y01920238D01*
X02623324Y01917699D02*
X02625863D01*
X02629672Y01913890D02*
Y01915160D01*
X02630941D01*
Y01913890D01*
X02629672D01*
X02639828D02*
Y01921508D01*
X02636020Y01917699D01*
X02641098D01*
X02643637Y01920238D02*
X02644907Y01921508D01*
X02647446D01*
X02648716Y01920238D01*
Y01915160D01*
X02647446Y01913890D01*
X02644907D01*
X02643637Y01915160D01*
Y01920238D01*
X02651255Y01913890D02*
Y01918968D01*
X02652524D01*
X02653794Y01917699D01*
Y01913890D01*
Y01917699D01*
X02655063Y01918968D01*
X02656333Y01917699D01*
Y01913890D01*
X02658872D02*
X02661412D01*
X02660142D01*
Y01918968D01*
X02658872D01*
X02665220Y01913890D02*
X02667759D01*
X02666490D01*
Y01921508D01*
X02665220D01*
X02622054Y01929130D02*
X02624594D01*
X02623324D01*
Y01936747D01*
X02622054Y01935478D01*
X02628402Y01929130D02*
Y01930400D01*
X02629672D01*
Y01929130D01*
X02628402D01*
X02638559D02*
Y01936747D01*
X02634750Y01932939D01*
X02639828D01*
X02642368Y01935478D02*
X02643637Y01936747D01*
X02646176D01*
X02647446Y01935478D01*
Y01930400D01*
X02646176Y01929130D01*
X02643637D01*
X02642368Y01930400D01*
Y01935478D01*
X02649985Y01929130D02*
Y01934208D01*
X02651255D01*
X02652524Y01932939D01*
Y01929130D01*
Y01932939D01*
X02653794Y01934208D01*
X02655063Y01932939D01*
Y01929130D01*
X02657603D02*
X02660142D01*
X02658872D01*
Y01934208D01*
X02657603D01*
X02663951Y01929130D02*
X02666490D01*
X02665220D01*
Y01936747D01*
X02663951D01*
X02622054Y01950718D02*
X02623324Y01951987D01*
X02625863D01*
X02627133Y01950718D01*
Y01945640D01*
X02625863Y01944370D01*
X02623324D01*
X02622054Y01945640D01*
Y01950718D01*
X02629672Y01944370D02*
Y01945640D01*
X02630941D01*
Y01944370D01*
X02629672D01*
X02636020Y01945640D02*
X02637289Y01944370D01*
X02639828D01*
X02641098Y01945640D01*
Y01950718D01*
X02639828Y01951987D01*
X02637289D01*
X02636020Y01950718D01*
Y01949448D01*
X02637289Y01948179D01*
X02641098D01*
X02643637Y01950718D02*
X02644907Y01951987D01*
X02647446D01*
X02648716Y01950718D01*
Y01949448D01*
X02647446Y01948179D01*
X02648716Y01946909D01*
Y01945640D01*
X02647446Y01944370D01*
X02644907D01*
X02643637Y01945640D01*
Y01946909D01*
X02644907Y01948179D01*
X02643637Y01949448D01*
Y01950718D01*
X02644907Y01948179D02*
X02647446D01*
X02651255Y01944370D02*
Y01949448D01*
X02652524D01*
X02653794Y01948179D01*
Y01944370D01*
Y01948179D01*
X02655063Y01949448D01*
X02656333Y01948179D01*
Y01944370D01*
X02658872D02*
X02661412D01*
X02660142D01*
Y01949448D01*
X02658872D01*
X02665220Y01944370D02*
X02667759D01*
X02666490D01*
Y01951987D01*
X02665220D01*
X02712202Y01981198D02*
X02710932Y01982467D01*
X02708393D01*
X02707123Y01981198D01*
Y01976120D01*
X02708393Y01974850D01*
X02710932D01*
X02712202Y01976120D01*
X02716010Y01974850D02*
X02718550D01*
X02719819Y01976120D01*
Y01978659D01*
X02718550Y01979928D01*
X02716010D01*
X02714741Y01978659D01*
Y01976120D01*
X02716010Y01974850D01*
X02722358D02*
Y01979928D01*
X02726167D01*
X02727437Y01978659D01*
Y01974850D01*
X02729976D02*
X02733785D01*
X02735054Y01976120D01*
X02733785Y01977389D01*
X02731245D01*
X02729976Y01978659D01*
X02731245Y01979928D01*
X02735054D01*
X02738863Y01981198D02*
Y01979928D01*
X02737593D01*
X02740133D01*
X02738863D01*
Y01976120D01*
X02740133Y01974850D01*
X02745211Y01979928D02*
X02747750D01*
X02749020Y01978659D01*
Y01974850D01*
X02745211D01*
X02743941Y01976120D01*
X02745211Y01977389D01*
X02749020D01*
X02751559Y01974850D02*
Y01979928D01*
X02755368D01*
X02756637Y01978659D01*
Y01974850D01*
X02760446Y01981198D02*
Y01979928D01*
X02759177D01*
X02761716D01*
X02760446D01*
Y01976120D01*
X02761716Y01974850D01*
X02710932Y01822450D02*
Y01830067D01*
X02707123Y01826259D01*
X02712202D01*
X02710932Y01852930D02*
Y01860547D01*
X02707123Y01856739D01*
X02712202D01*
X02714741Y01852930D02*
Y01854200D01*
X02716010D01*
Y01852930D01*
X02714741D01*
X02726167D02*
X02721089D01*
X02726167Y01858008D01*
Y01859278D01*
X02724897Y01860547D01*
X02722358D01*
X02721089Y01859278D01*
X02710932Y01883410D02*
Y01891028D01*
X02707123Y01887219D01*
X02712202D01*
X02714741Y01883410D02*
Y01884680D01*
X02716010D01*
Y01883410D01*
X02714741D01*
X02726167D02*
X02721089D01*
X02726167Y01888488D01*
Y01889758D01*
X02724897Y01891028D01*
X02722358D01*
X02721089Y01889758D01*
X02710932Y01913890D02*
Y01921508D01*
X02707123Y01917699D01*
X02712202D01*
X02714741Y01913890D02*
Y01915160D01*
X02716010D01*
Y01913890D01*
X02714741D01*
X02726167D02*
X02721089D01*
X02726167Y01918968D01*
Y01920238D01*
X02724897Y01921508D01*
X02722358D01*
X02721089Y01920238D01*
X02710932Y01944370D02*
Y01951987D01*
X02707123Y01948179D01*
X02712202D01*
X02782036Y01982467D02*
Y01974850D01*
X02785844D01*
X02787114Y01976120D01*
Y01977389D01*
X02785844Y01978659D01*
X02782036D01*
X02785844D01*
X02787114Y01979928D01*
Y01981198D01*
X02785844Y01982467D01*
X02782036D01*
X02790923Y01974850D02*
X02793462D01*
X02794732Y01976120D01*
Y01978659D01*
X02793462Y01979928D01*
X02790923D01*
X02789653Y01978659D01*
Y01976120D01*
X02790923Y01974850D01*
X02798540Y01979928D02*
X02801079D01*
X02802349Y01978659D01*
Y01974850D01*
X02798540D01*
X02797271Y01976120D01*
X02798540Y01977389D01*
X02802349D01*
X02804888Y01979928D02*
Y01974850D01*
Y01977389D01*
X02806158Y01978659D01*
X02807427Y01979928D01*
X02808697D01*
X02817584Y01982467D02*
Y01974850D01*
X02813775D01*
X02812506Y01976120D01*
Y01978659D01*
X02813775Y01979928D01*
X02817584D01*
X02827741Y01982467D02*
Y01974850D01*
X02832819D01*
X02836628Y01979928D02*
X02839167D01*
X02840437Y01978659D01*
Y01974850D01*
X02836628D01*
X02835358Y01976120D01*
X02836628Y01977389D01*
X02840437D01*
X02842976Y01979928D02*
Y01976120D01*
X02844246Y01974850D01*
X02848054D01*
Y01973580D01*
X02846785Y01972311D01*
X02845515D01*
X02848054Y01974850D02*
Y01979928D01*
X02854402Y01974850D02*
X02851863D01*
X02850594Y01976120D01*
Y01978659D01*
X02851863Y01979928D01*
X02854402D01*
X02855672Y01978659D01*
Y01977389D01*
X02850594D01*
X02858211Y01979928D02*
Y01974850D01*
Y01977389D01*
X02859481Y01978659D01*
X02860750Y01979928D01*
X02862020D01*
X02878524Y01981198D02*
X02877255Y01982467D01*
X02874716D01*
X02873446Y01981198D01*
Y01979928D01*
X02874716Y01978659D01*
X02877255D01*
X02878524Y01977389D01*
Y01976120D01*
X02877255Y01974850D01*
X02874716D01*
X02873446Y01976120D01*
X02882333Y01981198D02*
Y01979928D01*
X02881064D01*
X02883603D01*
X02882333D01*
Y01976120D01*
X02883603Y01974850D01*
X02888681Y01979928D02*
X02891220D01*
X02892490Y01978659D01*
Y01974850D01*
X02888681D01*
X02887411Y01976120D01*
X02888681Y01977389D01*
X02892490D01*
X02900107Y01979928D02*
X02896299D01*
X02895029Y01978659D01*
Y01976120D01*
X02896299Y01974850D01*
X02900107D01*
X02902647D02*
Y01982467D01*
Y01977389D02*
X02906455Y01979928D01*
X02902647Y01977389D02*
X02906455Y01974850D01*
X01420876Y00100076D02*
Y00151596D01*
X01118870Y00101727D02*
X01778508D01*
Y00256667D01*
X00727710Y00101727D02*
Y00256667D01*
X00101600Y00101727D02*
Y00256667D01*
X00101727Y00101727D02*
X00501904D01*
X00101727D02*
Y00256667D01*
Y00256667D02*
X01778508D01*
X00101600Y00101727D02*
X01118870D01*
X00101600Y00153374D02*
X01778000D01*
X00101600Y00205020D02*
X01778508D01*
X01049528D02*
Y00256667D01*
X01262888Y00205020D02*
Y00256667D01*
G54D21*
X00322326Y00171579D02*
Y00179196D01*
X00324865Y00176657D01*
X00327404Y00179196D01*
Y00171579D01*
X00329944D02*
X00332483D01*
X00331213D01*
Y00179196D01*
X00329944Y00177927D01*
X00341370Y00171579D02*
X00336292D01*
X00341370Y00176657D01*
Y00177927D01*
X00340100Y00179196D01*
X00337561D01*
X00336292Y00177927D01*
X00356605D02*
X00355335Y00179196D01*
X00352796D01*
X00351527Y00177927D01*
Y00176657D01*
X00352796Y00175387D01*
X00355335D01*
X00356605Y00174118D01*
Y00172848D01*
X00355335Y00171579D01*
X00352796D01*
X00351527Y00172848D01*
X00360414Y00177927D02*
Y00176657D01*
X00359144D01*
X00361683D01*
X00360414D01*
Y00172848D01*
X00361683Y00171579D01*
X00366762Y00176657D02*
X00369301D01*
X00370570Y00175387D01*
Y00171579D01*
X00366762D01*
X00365492Y00172848D01*
X00366762Y00174118D01*
X00370570D01*
X00378188Y00176657D02*
X00374379D01*
X00373110Y00175387D01*
Y00172848D01*
X00374379Y00171579D01*
X00378188D01*
X00380727D02*
Y00179196D01*
Y00174118D02*
X00384536Y00176657D01*
X00380727Y00174118D02*
X00384536Y00171579D01*
X00388345Y00176657D02*
Y00172848D01*
X00389614Y00171579D01*
X00393423D01*
Y00176657D01*
X00395962Y00169039D02*
Y00176657D01*
X00399771D01*
X00401040Y00175387D01*
Y00172848D01*
X00399771Y00171579D01*
X00395962D01*
X00885317Y00171450D02*
Y00179067D01*
X00890395Y00171450D01*
Y00179067D01*
X00892934Y00171450D02*
X00898013Y00176528D01*
X00900552Y00171450D02*
Y00176528D01*
X00903091Y00179067D01*
X00905630Y00176528D01*
Y00171450D01*
Y00175259D01*
X00900552D01*
X00746760Y00179067D02*
X00751838D01*
X00749299D01*
Y00171450D01*
X00754378Y00179067D02*
X00756917D01*
X00755647D01*
Y00171450D01*
X00754378D01*
X00756917D01*
X00760725Y00179067D02*
Y00171450D01*
X00764534D01*
X00765804Y00172720D01*
Y00177798D01*
X00764534Y00179067D01*
X00760725D01*
X00777230Y00171450D02*
Y00179067D01*
X00779769D02*
Y00171450D01*
X00775961Y00176528D02*
X00779769D01*
X00781039D01*
X00775961Y00173989D02*
X00781039D01*
X00783578Y00176528D02*
X00784848D01*
Y00175259D01*
X00783578D01*
Y00176528D01*
Y00172720D02*
X00784848D01*
Y00171450D01*
X00783578D01*
Y00172720D01*
X01474470Y00126912D02*
X01479548D01*
X01477009D01*
Y00119295D01*
X01487166Y00126912D02*
X01482088D01*
Y00119295D01*
X01487166D01*
X01482088Y00123104D02*
X01484627D01*
X01489705Y00126912D02*
X01494783Y00119295D01*
Y00126912D02*
X01489705Y00119295D01*
X01497323D02*
Y00124373D01*
X01499862Y00126912D01*
X01502401Y00124373D01*
Y00119295D01*
Y00123104D01*
X01497323D01*
X01510018Y00125643D02*
X01508749Y00126912D01*
X01506210D01*
X01504940Y00125643D01*
Y00124373D01*
X01506210Y00123104D01*
X01508749D01*
X01510018Y00121834D01*
Y00120564D01*
X01508749Y00119295D01*
X01506210D01*
X01504940Y00120564D01*
X01520175Y00126912D02*
X01522714D01*
X01521445D01*
Y00119295D01*
X01520175D01*
X01522714D01*
X01526523D02*
Y00126912D01*
X01531602Y00119295D01*
Y00126912D01*
X01539219Y00125643D02*
X01537950Y00126912D01*
X01535410D01*
X01534141Y00125643D01*
Y00124373D01*
X01535410Y00123104D01*
X01537950D01*
X01539219Y00121834D01*
Y00120564D01*
X01537950Y00119295D01*
X01535410D01*
X01534141Y00120564D01*
X01541758Y00126912D02*
X01546837D01*
X01544297D01*
Y00119295D01*
X01549376D02*
Y00126912D01*
X01553185D01*
X01554454Y00125643D01*
Y00123104D01*
X01553185Y00121834D01*
X01549376D01*
X01551915D02*
X01554454Y00119295D01*
X01556993Y00126912D02*
Y00120564D01*
X01558263Y00119295D01*
X01560802D01*
X01562072Y00120564D01*
Y00126912D01*
X01564611Y00119295D02*
Y00126912D01*
X01567150Y00124373D01*
X01569689Y00126912D01*
Y00119295D01*
X01577307Y00126912D02*
X01572228D01*
Y00119295D01*
X01577307D01*
X01572228Y00123104D02*
X01574768D01*
X01579846Y00119295D02*
Y00126912D01*
X01584924Y00119295D01*
Y00126912D01*
X01587463D02*
X01592542D01*
X01590003D01*
Y00119295D01*
X01600159Y00125643D02*
X01598890Y00126912D01*
X01596351D01*
X01595081Y00125643D01*
Y00124373D01*
X01596351Y00123104D01*
X01598890D01*
X01600159Y00121834D01*
Y00120564D01*
X01598890Y00119295D01*
X01596351D01*
X01595081Y00120564D01*
X01153287Y00119295D02*
X01155826D01*
X01154557D01*
Y00126912D01*
X01153287Y00125643D01*
X01159635D02*
X01160904Y00126912D01*
X01163444D01*
X01164713Y00125643D01*
Y00120564D01*
X01163444Y00119295D01*
X01160904D01*
X01159635Y00120564D01*
Y00125643D01*
X01167253Y00124373D02*
X01168522D01*
Y00123104D01*
X01167253D01*
Y00124373D01*
Y00120564D02*
X01168522D01*
Y00119295D01*
X01167253D01*
Y00120564D01*
X01178679Y00119295D02*
X01173600D01*
X01178679Y00124373D01*
Y00125643D01*
X01177409Y00126912D01*
X01174870D01*
X01173600Y00125643D01*
X01181218Y00119295D02*
X01183757D01*
X01182488D01*
Y00126912D01*
X01181218Y00125643D01*
X01187566Y00124373D02*
X01188836D01*
Y00123104D01*
X01187566D01*
Y00124373D01*
Y00120564D02*
X01188836D01*
Y00119295D01*
X01187566D01*
Y00120564D01*
X01198992Y00119295D02*
X01193914D01*
X01198992Y00124373D01*
Y00125643D01*
X01197723Y00126912D01*
X01195183D01*
X01193914Y00125643D01*
X01206610Y00126912D02*
X01204071Y00125643D01*
X01201531Y00123104D01*
Y00120564D01*
X01202801Y00119295D01*
X01205340D01*
X01206610Y00120564D01*
Y00121834D01*
X01205340Y00123104D01*
X01201531D01*
X01216767Y00119295D02*
Y00124373D01*
X01219306Y00126912D01*
X01221845Y00124373D01*
Y00119295D01*
Y00123104D01*
X01216767D01*
X01224384Y00119295D02*
Y00126912D01*
X01226923Y00124373D01*
X01229462Y00126912D01*
Y00119295D01*
X00117729D02*
Y00126912D01*
X00121538D01*
X00122807Y00125643D01*
Y00123104D01*
X00121538Y00121834D01*
X00117729D01*
X00125346Y00126912D02*
Y00119295D01*
X00130425D01*
X00136773Y00126912D02*
X00134234D01*
X00132964Y00125643D01*
Y00120564D01*
X00134234Y00119295D01*
X00136773D01*
X00138042Y00120564D01*
Y00125643D01*
X00136773Y00126912D01*
X00140582D02*
X00145660D01*
X00143121D01*
Y00119295D01*
X00155817D02*
Y00126912D01*
X00160895Y00119295D01*
Y00126912D01*
X00163434Y00119295D02*
Y00124373D01*
X00165973Y00126912D01*
X00168513Y00124373D01*
Y00119295D01*
Y00123104D01*
X00163434D01*
X00171052Y00119295D02*
Y00126912D01*
X00173591Y00124373D01*
X00176130Y00126912D01*
Y00119295D01*
X00183748Y00126912D02*
X00178669D01*
Y00119295D01*
X00183748D01*
X00178669Y00123104D02*
X00181208D01*
X00193904Y00121834D02*
X00198983D01*
X00193904Y00124373D02*
X00198983D01*
X00117729Y00179196D02*
Y00171579D01*
X00122807D01*
X00125346D02*
Y00176657D01*
X00127886Y00179196D01*
X00130425Y00176657D01*
Y00171579D01*
Y00175387D01*
X00125346D01*
X00132964Y00179196D02*
Y00177927D01*
X00135503Y00175387D01*
X00138042Y00177927D01*
Y00179196D01*
X00135503Y00175387D02*
Y00171579D01*
X00145660Y00179196D02*
X00140582D01*
Y00171579D01*
X00145660D01*
X00140582Y00175387D02*
X00143121D01*
X00148199Y00171579D02*
Y00179196D01*
X00152008D01*
X00153278Y00177927D01*
Y00175387D01*
X00152008Y00174118D01*
X00148199D01*
X00150738D02*
X00153278Y00171579D01*
X00163434D02*
Y00179196D01*
X00168513Y00171579D01*
Y00179196D01*
X00171052Y00171579D02*
Y00176657D01*
X00173591Y00179196D01*
X00176130Y00176657D01*
Y00171579D01*
Y00175387D01*
X00171052D01*
X00178669Y00171579D02*
Y00179196D01*
X00181208Y00176657D01*
X00183748Y00179196D01*
Y00171579D01*
X00191365Y00179196D02*
X00186287D01*
Y00171579D01*
X00191365D01*
X00186287Y00175387D02*
X00188826D01*
X00201522Y00174118D02*
X00206600D01*
X00201522Y00176657D02*
X00206600D01*
X00746760Y00230714D02*
Y00223097D01*
X00750569D01*
X00751838Y00224366D01*
Y00225636D01*
X00750569Y00226905D01*
X00746760D01*
X00750569D01*
X00751838Y00228175D01*
Y00229445D01*
X00750569Y00230714D01*
X00746760D01*
X00758186D02*
X00755647D01*
X00754378Y00229445D01*
Y00224366D01*
X00755647Y00223097D01*
X00758186D01*
X00759456Y00224366D01*
Y00229445D01*
X00758186Y00230714D01*
X00761995Y00223097D02*
Y00228175D01*
X00764534Y00230714D01*
X00767073Y00228175D01*
Y00223097D01*
Y00226905D01*
X00761995D01*
X00769613Y00223097D02*
Y00230714D01*
X00773421D01*
X00774691Y00229445D01*
Y00226905D01*
X00773421Y00225636D01*
X00769613D01*
X00772152D02*
X00774691Y00223097D01*
X00777230Y00230714D02*
Y00223097D01*
X00781039D01*
X00782309Y00224366D01*
Y00229445D01*
X00781039Y00230714D01*
X00777230D01*
X00793735Y00223097D02*
Y00230714D01*
X00796274D02*
Y00223097D01*
X00792465Y00228175D02*
X00796274D01*
X00797544D01*
X00792465Y00225636D02*
X00797544D01*
X00800083Y00228175D02*
X00801352D01*
Y00226905D01*
X00800083D01*
Y00228175D01*
Y00224366D02*
X00801352D01*
Y00223097D01*
X00800083D01*
Y00224366D01*
X00885317Y00223097D02*
Y00230714D01*
X00887856Y00228175D01*
X00890395Y00230714D01*
Y00223097D01*
X00898013Y00229445D02*
X00896743Y00230714D01*
X00894204D01*
X00892934Y00229445D01*
Y00224366D01*
X00894204Y00223097D01*
X00896743D01*
X00898013Y00224366D01*
X00900552Y00230714D02*
Y00224366D01*
X00901822Y00223097D01*
X00904361D01*
X00905630Y00224366D01*
Y00230714D01*
X00908170Y00229445D02*
X00909439Y00230714D01*
X00911978D01*
X00913248Y00229445D01*
Y00224366D01*
X00911978Y00223097D01*
X00909439D01*
X00908170Y00224366D01*
Y00229445D01*
X00915787Y00224366D02*
X00917057Y00223097D01*
X00919596D01*
X00920865Y00224366D01*
Y00229445D01*
X00919596Y00230714D01*
X00917057D01*
X00915787Y00229445D01*
Y00228175D01*
X00917057Y00226905D01*
X00920865D01*
X00923405Y00229445D02*
X00924674Y00230714D01*
X00927214D01*
X00928483Y00229445D01*
Y00228175D01*
X00927214Y00226905D01*
X00928483Y00225636D01*
Y00224366D01*
X00927214Y00223097D01*
X00924674D01*
X00923405Y00224366D01*
Y00225636D01*
X00924674Y00226905D01*
X00923405Y00228175D01*
Y00229445D01*
X00924674Y00226905D02*
X00927214D01*
X01173861Y00223097D02*
Y00228175D01*
X01176400Y00230714D01*
X01178939Y00228175D01*
Y00223097D01*
Y00226905D01*
X01173861D01*
X00117729Y00223097D02*
Y00228175D01*
X00120268Y00230714D01*
X00122807Y00228175D01*
Y00223097D01*
Y00226905D01*
X00117729D01*
X00125346Y00230714D02*
Y00223097D01*
X00130425D01*
X00132964Y00230714D02*
Y00223097D01*
X00138042D01*
X00148199D02*
Y00228175D01*
X00150738Y00230714D01*
X00153278Y00228175D01*
Y00223097D01*
Y00226905D01*
X00148199D01*
X00155817Y00223097D02*
Y00230714D01*
X00159626D01*
X00160895Y00229445D01*
Y00226905D01*
X00159626Y00225636D01*
X00155817D01*
X00158356D02*
X00160895Y00223097D01*
X00163434Y00230714D02*
X00168513D01*
X00165973D01*
Y00223097D01*
X00171052Y00230714D02*
Y00223097D01*
X00173591Y00225636D01*
X00176130Y00223097D01*
Y00230714D01*
X00182478D02*
X00179939D01*
X00178669Y00229445D01*
Y00224366D01*
X00179939Y00223097D01*
X00182478D01*
X00183748Y00224366D01*
Y00229445D01*
X00182478Y00230714D01*
X00186287Y00223097D02*
Y00230714D01*
X00190096D01*
X00191365Y00229445D01*
Y00226905D01*
X00190096Y00225636D01*
X00186287D01*
X00188826D02*
X00191365Y00223097D01*
X00193904Y00230714D02*
Y00223097D01*
Y00225636D01*
X00198983Y00230714D01*
X00195174Y00226905D01*
X00198983Y00223097D01*
X00209139Y00230714D02*
Y00225636D01*
X00211679Y00223097D01*
X00214218Y00225636D01*
Y00230714D01*
X00216757D02*
X00219296D01*
X00218027D01*
Y00223097D01*
X00216757D01*
X00219296D01*
X00228183Y00230714D02*
X00223105D01*
Y00223097D01*
X00228183D01*
X00223105Y00226905D02*
X00225644D01*
X00230722Y00230714D02*
Y00223097D01*
X00233262Y00225636D01*
X00235801Y00223097D01*
Y00230714D01*
X00243418D02*
X00238340D01*
Y00223097D01*
X00243418D01*
X00238340Y00226905D02*
X00240879D01*
X00245958Y00230714D02*
Y00223097D01*
X00249766D01*
X00251036Y00224366D01*
Y00229445D01*
X00249766Y00230714D01*
X00245958D01*
X00266271D02*
X00261193D01*
Y00226905D01*
X00263732D01*
X00261193D01*
Y00223097D01*
X00268810D02*
Y00230714D01*
X00272619D01*
X00273888Y00229445D01*
Y00226905D01*
X00272619Y00225636D01*
X00268810D01*
X00271349D02*
X00273888Y00223097D01*
X00280236Y00230714D02*
X00277697D01*
X00276428Y00229445D01*
Y00224366D01*
X00277697Y00223097D01*
X00280236D01*
X00281506Y00224366D01*
Y00229445D01*
X00280236Y00230714D01*
X00284045Y00223097D02*
Y00230714D01*
X00286584Y00228175D01*
X00289124Y00230714D01*
Y00223097D01*
X00299280Y00230714D02*
X00304359D01*
X00301819D01*
Y00223097D01*
X00310707Y00230714D02*
X00308167D01*
X00306898Y00229445D01*
Y00224366D01*
X00308167Y00223097D01*
X00310707D01*
X00311976Y00224366D01*
Y00229445D01*
X00310707Y00230714D01*
X00314515Y00223097D02*
Y00230714D01*
X00318324D01*
X00319594Y00229445D01*
Y00226905D01*
X00318324Y00225636D01*
X00314515D01*
X00334829Y00229445D02*
X00333559Y00230714D01*
X00331020D01*
X00329750Y00229445D01*
Y00228175D01*
X00331020Y00226905D01*
X00333559D01*
X00334829Y00225636D01*
Y00224366D01*
X00333559Y00223097D01*
X00331020D01*
X00329750Y00224366D01*
X00337368Y00230714D02*
X00339907D01*
X00338638D01*
Y00223097D01*
X00337368D01*
X00339907D01*
X00343716Y00230714D02*
Y00223097D01*
X00347525D01*
X00348794Y00224366D01*
Y00229445D01*
X00347525Y00230714D01*
X00343716D01*
X00356412D02*
X00351333D01*
Y00223097D01*
X00356412D01*
X00351333Y00226905D02*
X00353873D01*
X00752346Y00125643D02*
X00751077Y00126912D01*
X00748538D01*
X00747268Y00125643D01*
Y00120564D01*
X00748538Y00119295D01*
X00751077D01*
X00752346Y00120564D01*
Y00123104D01*
X00749807D01*
X00759964Y00126912D02*
X00754885D01*
Y00119295D01*
X00759964D01*
X00754885Y00123104D02*
X00757425D01*
X00762503Y00119295D02*
Y00126912D01*
X00767581Y00119295D01*
Y00126912D01*
X00775199D02*
X00770121D01*
Y00119295D01*
X00775199D01*
X00770121Y00123104D02*
X00772660D01*
X00777738Y00119295D02*
Y00126912D01*
X00781547D01*
X00782816Y00125643D01*
Y00123104D01*
X00781547Y00121834D01*
X00777738D01*
X00780277D02*
X00782816Y00119295D01*
X00785356D02*
Y00124373D01*
X00787895Y00126912D01*
X00790434Y00124373D01*
Y00119295D01*
Y00123104D01*
X00785356D01*
X00792973Y00126912D02*
X00798052D01*
X00795512D01*
Y00119295D01*
X00805669Y00126912D02*
X00800591D01*
Y00119295D01*
X00805669D01*
X00800591Y00123104D02*
X00803130D01*
X00808208Y00126912D02*
Y00119295D01*
X00812017D01*
X00813287Y00120564D01*
Y00125643D01*
X00812017Y00126912D01*
X00808208D01*
X00846296Y00124373D02*
X00847566D01*
Y00123104D01*
X00846296D01*
Y00124373D01*
Y00120564D02*
X00847566D01*
Y00119295D01*
X00846296D01*
Y00120564D01*
X00973199Y00119295D02*
X00968121D01*
X00973199Y00124373D01*
Y00125643D01*
X00971930Y00126912D01*
X00969391D01*
X00968121Y00125643D01*
X00975739Y00119295D02*
X00980817Y00124373D01*
X00983356Y00119295D02*
X00985895D01*
X00984626D01*
Y00126912D01*
X00983356Y00125643D01*
X00993513Y00119295D02*
Y00126912D01*
X00989704Y00123104D01*
X00994782D01*
X00997322Y00119295D02*
X01002400Y00124373D01*
X01010017Y00119295D02*
X01004939D01*
X01010017Y00124373D01*
Y00125643D01*
X01008748Y00126912D01*
X01006209D01*
X01004939Y00125643D01*
X01012557D02*
X01013826Y00126912D01*
X01016365D01*
X01017635Y00125643D01*
Y00120564D01*
X01016365Y00119295D01*
X01013826D01*
X01012557Y00120564D01*
Y00125643D01*
X01025253Y00119295D02*
X01020174D01*
X01025253Y00124373D01*
Y00125643D01*
X01023983Y00126912D01*
X01021444D01*
X01020174Y00125643D01*
X01027792D02*
X01029061Y00126912D01*
X01031600D01*
X01032870Y00125643D01*
Y00124373D01*
X01031600Y00123104D01*
X01030331D01*
X01031600D01*
X01032870Y00121834D01*
Y00120564D01*
X01031600Y00119295D01*
X01029061D01*
X01027792Y00120564D01*
X00322326Y00119295D02*
Y00126912D01*
X00324865Y00124373D01*
X00327404Y00126912D01*
Y00119295D01*
X00335022Y00125643D02*
X00333752Y00126912D01*
X00331213D01*
X00329944Y00125643D01*
Y00120564D01*
X00331213Y00119295D01*
X00333752D01*
X00335022Y00120564D01*
X00337561Y00126912D02*
Y00120564D01*
X00338831Y00119295D01*
X00341370D01*
X00342639Y00120564D01*
Y00126912D01*
X00345179Y00125643D02*
X00346448Y00126912D01*
X00348987D01*
X00350257Y00125643D01*
Y00120564D01*
X00348987Y00119295D01*
X00346448D01*
X00345179Y00120564D01*
Y00125643D01*
X00352796Y00120564D02*
X00354066Y00119295D01*
X00356605D01*
X00357874Y00120564D01*
Y00125643D01*
X00356605Y00126912D01*
X00354066D01*
X00352796Y00125643D01*
Y00124373D01*
X00354066Y00123104D01*
X00357874D01*
X00360414Y00125643D02*
X00361683Y00126912D01*
X00364222D01*
X00365492Y00125643D01*
Y00124373D01*
X00364222Y00123104D01*
X00365492Y00121834D01*
Y00120564D01*
X00364222Y00119295D01*
X00361683D01*
X00360414Y00120564D01*
Y00121834D01*
X00361683Y00123104D01*
X00360414Y00124373D01*
Y00125643D01*
X00361683Y00123104D02*
X00364222D01*
X00368031Y00119295D02*
Y00124373D01*
X00370570Y00126912D01*
X00373110Y00124373D01*
Y00119295D01*
Y00123104D01*
X00368031D01*
X00375649Y00119295D02*
Y00120564D01*
X00376918D01*
Y00119295D01*
X00375649D01*
X00387075Y00125643D02*
X00385806Y00126912D01*
X00383266D01*
X00381997Y00125643D01*
Y00120564D01*
X00383266Y00119295D01*
X00385806D01*
X00387075Y00120564D01*
Y00123104D01*
X00384536D01*
X00389614Y00119295D02*
Y00126912D01*
X00392153Y00124373D01*
X00394693Y00126912D01*
Y00119295D01*
X00397232D02*
X00399771D01*
X00398501D01*
Y00126912D01*
X00397232Y00125643D01*
X00408658Y00119295D02*
X00403580D01*
X00408658Y00124373D01*
Y00125643D01*
X00407388Y00126912D01*
X00404849D01*
X00403580Y00125643D01*
X01099820Y00223097D02*
Y00230714D01*
X01103629D01*
X01104898Y00229445D01*
Y00226905D01*
X01103629Y00225636D01*
X01099820D01*
X01102359D02*
X01104898Y00223097D01*
X01112516Y00230714D02*
X01107438D01*
Y00223097D01*
X01112516D01*
X01107438Y00226905D02*
X01109977D01*
X01115055Y00230714D02*
Y00225636D01*
X01117594Y00223097D01*
X01120133Y00225636D01*
Y00230714D01*
X01122673Y00228175D02*
X01123942D01*
Y00226905D01*
X01122673D01*
Y00228175D01*
Y00224366D02*
X01123942D01*
Y00223097D01*
X01122673D01*
Y00224366D01*
X01317750Y00229445D02*
X01316481Y00230714D01*
X01313942D01*
X01312672Y00229445D01*
Y00228175D01*
X01313942Y00226905D01*
X01316481D01*
X01317750Y00225636D01*
Y00224366D01*
X01316481Y00223097D01*
X01313942D01*
X01312672Y00224366D01*
X01320289Y00230714D02*
Y00225636D01*
X01322829Y00223097D01*
X01325368Y00225636D01*
Y00230714D01*
X01327907Y00223097D02*
Y00230714D01*
X01332985Y00223097D01*
Y00230714D01*
X01343142Y00223097D02*
Y00230714D01*
X01346951D01*
X01348221Y00229445D01*
Y00226905D01*
X01346951Y00225636D01*
X01343142D01*
X01345681D02*
X01348221Y00223097D01*
X01355838Y00230714D02*
X01350760D01*
Y00223097D01*
X01355838D01*
X01350760Y00226905D02*
X01353299D01*
X01358377Y00230714D02*
Y00225636D01*
X01360916Y00223097D01*
X01363456Y00225636D01*
Y00230714D01*
X01365995Y00228175D02*
X01367264D01*
Y00226905D01*
X01365995D01*
Y00228175D01*
Y00224366D02*
X01367264D01*
Y00223097D01*
X01365995D01*
Y00224366D01*
X01446274Y00230714D02*
X01443735Y00229445D01*
X01441196Y00226905D01*
Y00224366D01*
X01442466Y00223097D01*
X01445005D01*
X01446274Y00224366D01*
Y00225636D01*
X01445005Y00226905D01*
X01441196D01*
X01448813Y00224366D02*
X01450083Y00223097D01*
X01452622D01*
X01453892Y00224366D01*
Y00229445D01*
X01452622Y00230714D01*
X01450083D01*
X01448813Y00229445D01*
Y00228175D01*
X01450083Y00226905D01*
X01453892D01*
X01456431Y00229445D02*
X01457701Y00230714D01*
X01460240D01*
X01461509Y00229445D01*
Y00224366D01*
X01460240Y00223097D01*
X01457701D01*
X01456431Y00224366D01*
Y00229445D01*
X01469127Y00230714D02*
X01464049D01*
Y00226905D01*
X01466588Y00228175D01*
X01467857D01*
X01469127Y00226905D01*
Y00224366D01*
X01467857Y00223097D01*
X01465318D01*
X01464049Y00224366D01*
X01471666Y00229445D02*
X01472936Y00230714D01*
X01475475D01*
X01476745Y00229445D01*
Y00228175D01*
X01475475Y00226905D01*
X01474205D01*
X01475475D01*
X01476745Y00225636D01*
Y00224366D01*
X01475475Y00223097D01*
X01472936D01*
X01471666Y00224366D01*
X01480553Y00223097D02*
Y00229445D01*
Y00226905D01*
X01479284D01*
X01481823D01*
X01480553D01*
Y00229445D01*
X01481823Y00230714D01*
X01486901Y00228175D02*
X01489440D01*
X01490710Y00226905D01*
Y00223097D01*
X01486901D01*
X01485632Y00224366D01*
X01486901Y00225636D01*
X01490710D01*
X01498327Y00230714D02*
X01495788Y00229445D01*
X01493249Y00226905D01*
Y00224366D01*
X01494519Y00223097D01*
X01497058D01*
X01498327Y00224366D01*
Y00225636D01*
X01497058Y00226905D01*
X01493249D01*
X01504675Y00223097D02*
Y00230714D01*
X01500867Y00226905D01*
X01505945D01*
X01508484Y00229445D02*
X01509754Y00230714D01*
X01512293D01*
X01513563Y00229445D01*
Y00228175D01*
X01512293Y00226905D01*
X01513563Y00225636D01*
Y00224366D01*
X01512293Y00223097D01*
X01509754D01*
X01508484Y00224366D01*
Y00225636D01*
X01509754Y00226905D01*
X01508484Y00228175D01*
Y00229445D01*
X01509754Y00226905D02*
X01512293D01*
X01516102Y00224366D02*
X01517371Y00223097D01*
X01519910D01*
X01521180Y00224366D01*
Y00229445D01*
X01519910Y00230714D01*
X01517371D01*
X01516102Y00229445D01*
Y00228175D01*
X01517371Y00226905D01*
X01521180D01*
X01528798Y00228175D02*
X01524989D01*
X01523719Y00226905D01*
Y00224366D01*
X01524989Y00223097D01*
X01528798D01*
X01536415Y00230714D02*
X01533876Y00229445D01*
X01531337Y00226905D01*
Y00224366D01*
X01532606Y00223097D01*
X01535146D01*
X01536415Y00224366D01*
Y00225636D01*
X01535146Y00226905D01*
X01531337D01*
X01544033Y00230714D02*
X01538954D01*
Y00226905D01*
X01541494Y00228175D01*
X01542763D01*
X01544033Y00226905D01*
Y00224366D01*
X01542763Y00223097D01*
X01540224D01*
X01538954Y00224366D01*
X01546572Y00229445D02*
X01547841Y00230714D01*
X01550381D01*
X01551650Y00229445D01*
Y00224366D01*
X01550381Y00223097D01*
X01547841D01*
X01546572Y00224366D01*
Y00229445D01*
X01555459Y00223097D02*
Y00229445D01*
Y00226905D01*
X01554189D01*
X01556729D01*
X01555459D01*
Y00229445D01*
X01556729Y00230714D01*
X01565616D02*
Y00223097D01*
X01561807D01*
X01560537Y00224366D01*
Y00226905D01*
X01561807Y00228175D01*
X01565616D01*
X01568155Y00230714D02*
Y00223097D01*
X01571964D01*
X01573233Y00224366D01*
Y00225636D01*
Y00226905D01*
X01571964Y00228175D01*
X01568155D01*
X01580851Y00230714D02*
X01575773D01*
Y00226905D01*
X01578312Y00228175D01*
X01579581D01*
X01580851Y00226905D01*
Y00224366D01*
X01579581Y00223097D01*
X01577042D01*
X01575773Y00224366D01*
X01584660Y00223097D02*
Y00229445D01*
Y00226905D01*
X01583390D01*
X01585929D01*
X01584660D01*
Y00229445D01*
X01585929Y00230714D01*
X01589738Y00223097D02*
X01592277D01*
X01591008D01*
Y00230714D01*
X01589738Y00229445D01*
X01601164Y00223097D02*
X01596086D01*
X01601164Y00228175D01*
Y00229445D01*
X01599895Y00230714D01*
X01597355D01*
X01596086Y00229445D01*
X01603703Y00224366D02*
X01604973Y00223097D01*
X01607512D01*
X01608782Y00224366D01*
Y00229445D01*
X01607512Y00230714D01*
X01604973D01*
X01603703Y00229445D01*
Y00228175D01*
X01604973Y00226905D01*
X01608782D01*
X01611321Y00224366D02*
X01612591Y00223097D01*
X01615130D01*
X01616399Y00224366D01*
Y00229445D01*
X01615130Y00230714D01*
X01612591D01*
X01611321Y00229445D01*
Y00228175D01*
X01612591Y00226905D01*
X01616399D01*
X01624017Y00230714D02*
Y00223097D01*
X01620208D01*
X01618938Y00224366D01*
Y00226905D01*
X01620208Y00228175D01*
X01624017D01*
X01626556Y00230714D02*
X01631634D01*
Y00229445D01*
X01626556Y00224366D01*
Y00223097D01*
X01634174Y00229445D02*
X01635443Y00230714D01*
X01637982D01*
X01639252Y00229445D01*
Y00224366D01*
X01637982Y00223097D01*
X01635443D01*
X01634174Y00224366D01*
Y00229445D01*
X01641791Y00230714D02*
Y00223097D01*
X01645600D01*
X01646870Y00224366D01*
Y00225636D01*
Y00226905D01*
X01645600Y00228175D01*
X01641791D01*
X01650678D02*
X01653217D01*
X01654487Y00226905D01*
Y00223097D01*
X01650678D01*
X01649409Y00224366D01*
X01650678Y00225636D01*
X01654487D01*
X01660835Y00223097D02*
X01658296D01*
X01657026Y00224366D01*
Y00226905D01*
X01658296Y00228175D01*
X01660835D01*
X01662104Y00226905D01*
Y00225636D01*
X01657026D01*
X01669722Y00230714D02*
X01664644D01*
Y00226905D01*
X01667183Y00228175D01*
X01668452D01*
X01669722Y00226905D01*
Y00224366D01*
X01668452Y00223097D01*
X01665913D01*
X01664644Y00224366D01*
X01672261Y00229445D02*
X01673531Y00230714D01*
X01676070D01*
X01677340Y00229445D01*
Y00228175D01*
X01676070Y00226905D01*
X01677340Y00225636D01*
Y00224366D01*
X01676070Y00223097D01*
X01673531D01*
X01672261Y00224366D01*
Y00225636D01*
X01673531Y00226905D01*
X01672261Y00228175D01*
Y00229445D01*
X01673531Y00226905D02*
X01676070D01*
X01679879Y00224366D02*
X01681148Y00223097D01*
X01683688D01*
X01684957Y00224366D01*
Y00229445D01*
X01683688Y00230714D01*
X01681148D01*
X01679879Y00229445D01*
Y00228175D01*
X01681148Y00226905D01*
X01684957D01*
X01687496Y00230714D02*
X01692575D01*
Y00229445D01*
X01687496Y00224366D01*
Y00223097D01*
X01695114Y00230714D02*
Y00223097D01*
X01698923D01*
X01700192Y00224366D01*
Y00225636D01*
Y00226905D01*
X01698923Y00228175D01*
X01695114D01*
X01702731Y00229445D02*
X01704001Y00230714D01*
X01706540D01*
X01707810Y00229445D01*
Y00228175D01*
X01706540Y00226905D01*
X01705271D01*
X01706540D01*
X01707810Y00225636D01*
Y00224366D01*
X01706540Y00223097D01*
X01704001D01*
X01702731Y00224366D01*
X01715427Y00230714D02*
X01712888Y00229445D01*
X01710349Y00226905D01*
Y00224366D01*
X01711618Y00223097D01*
X01714158D01*
X01715427Y00224366D01*
Y00225636D01*
X01714158Y00226905D01*
X01710349D01*
X01719236Y00223097D02*
Y00229445D01*
Y00226905D01*
X01717966D01*
X01720506D01*
X01719236D01*
Y00229445D01*
X01720506Y00230714D01*
X01724314Y00229445D02*
X01725584Y00230714D01*
X01728123D01*
X01729393Y00229445D01*
Y00228175D01*
X01728123Y00226905D01*
X01729393Y00225636D01*
Y00224366D01*
X01728123Y00223097D01*
X01725584D01*
X01724314Y00224366D01*
Y00225636D01*
X01725584Y00226905D01*
X01724314Y00228175D01*
Y00229445D01*
X01725584Y00226905D02*
X01728123D01*
X01733201Y00228175D02*
X01735741D01*
X01737010Y00226905D01*
Y00223097D01*
X01733201D01*
X01731932Y00224366D01*
X01733201Y00225636D01*
X01737010D01*
X01749706Y00223097D02*
X01747167D01*
Y00230714D01*
X01749706D01*
X01753515D02*
Y00223097D01*
X01758593D01*
X01762402D02*
X01764941D01*
X01766211Y00224366D01*
Y00226905D01*
X01764941Y00228175D01*
X01762402D01*
X01761133Y00226905D01*
Y00224366D01*
X01762402Y00223097D01*
X01773828Y00228175D02*
X01770020D01*
X01768750Y00226905D01*
Y00224366D01*
X01770020Y00223097D01*
X01773828D01*
X01777637Y00228175D02*
X01780176D01*
X01781446Y00226905D01*
Y00223097D01*
X01777637D01*
X01776368Y00224366D01*
X01777637Y00225636D01*
X01781446D01*
X01783985Y00223097D02*
X01786524D01*
X01785255D01*
Y00230714D01*
X01783985D01*
X01790333Y00223097D02*
X01792872D01*
X01791603D01*
Y00230714D01*
X01790333D01*
X01796681Y00228175D02*
Y00224366D01*
X01797951Y00223097D01*
X01801759D01*
Y00221827D01*
X01800490Y00220557D01*
X01799220D01*
X01801759Y00223097D02*
Y00228175D01*
X01811916Y00223097D02*
Y00230714D01*
X01814455Y00228175D01*
X01816994Y00230714D01*
Y00223097D01*
X01820803D02*
X01823342D01*
X01824612Y00224366D01*
Y00226905D01*
X01823342Y00228175D01*
X01820803D01*
X01819534Y00226905D01*
Y00224366D01*
X01820803Y00223097D01*
X01832229Y00230714D02*
Y00223097D01*
X01828421D01*
X01827151Y00224366D01*
Y00226905D01*
X01828421Y00228175D01*
X01832229D01*
X01834769Y00223097D02*
X01837308D01*
X01836038D01*
Y00228175D01*
X01834769D01*
X01842386Y00223097D02*
Y00229445D01*
Y00226905D01*
X01841117D01*
X01843656D01*
X01842386D01*
Y00229445D01*
X01843656Y00230714D01*
X01847465Y00223097D02*
X01850004D01*
X01848734D01*
Y00228175D01*
X01847465D01*
X01857621Y00223097D02*
X01855082D01*
X01853813Y00224366D01*
Y00226905D01*
X01855082Y00228175D01*
X01857621D01*
X01858891Y00226905D01*
Y00225636D01*
X01853813D01*
X01866508Y00230714D02*
Y00223097D01*
X01862700D01*
X01861430Y00224366D01*
Y00226905D01*
X01862700Y00228175D01*
X01866508D01*
X01869048Y00223097D02*
X01871587D01*
Y00230714D01*
X01869048D01*
G54D155*
X02908995Y01803400D02*
X02916616Y01811020D01*
X02901375Y01803400D02*
X02916616Y01818640D01*
X02893755Y01803400D02*
X02908995Y01818640D01*
X02886136Y01803400D02*
X02901375Y01818640D01*
X02878516Y01803400D02*
X02893755Y01818640D01*
X02870895Y01803400D02*
X02886136Y01818640D01*
X02863275Y01803400D02*
X02878516Y01818640D01*
X02855656Y01803400D02*
X02870895Y01818640D01*
X02848036Y01803400D02*
X02863275Y01818640D01*
X02840416Y01803400D02*
X02855656Y01818640D01*
X02832795Y01803400D02*
X02848036Y01818640D01*
X02825175Y01803400D02*
X02840416Y01818640D01*
X02817556Y01803400D02*
X02832795Y01818640D01*
X02809936Y01803400D02*
X02825175Y01818640D01*
X02802315Y01803400D02*
X02817556Y01818640D01*
X02794695Y01803400D02*
X02809936Y01818640D01*
X02787076Y01803400D02*
X02802315Y01818640D01*
X02779456Y01803400D02*
X02794695Y01818640D01*
X02771876Y01803440D02*
X02787076Y01818640D01*
X02771876Y01811060D02*
X02779456Y01818640D01*
X02908995D02*
X02916616Y01826260D01*
X02901375Y01818640D02*
X02916616Y01833880D01*
X02893755Y01818640D02*
X02908995Y01833880D01*
X02886136Y01818640D02*
X02901375Y01833880D01*
X02878516Y01818640D02*
X02893755Y01833880D01*
X02870895Y01818640D02*
X02886136Y01833880D01*
X02863275Y01818640D02*
X02878516Y01833880D01*
X02855656Y01818640D02*
X02870895Y01833880D01*
X02848036Y01818640D02*
X02863275Y01833880D01*
X02840416Y01818640D02*
X02855656Y01833880D01*
X02832795Y01818640D02*
X02848036Y01833880D01*
X02825175Y01818640D02*
X02840416Y01833880D01*
X02817556Y01818640D02*
X02832795Y01833880D01*
X02809936Y01818640D02*
X02825175Y01833880D01*
X02802315Y01818640D02*
X02817556Y01833880D01*
X02794695Y01818640D02*
X02809936Y01833880D01*
X02787076Y01818640D02*
X02802315Y01833880D01*
X02779456Y01818640D02*
X02794695Y01833880D01*
X02771876Y01818680D02*
X02787076Y01833880D01*
X02771876Y01826300D02*
X02779456Y01833880D01*
X02908995D02*
X02916616Y01841500D01*
X02901375Y01833880D02*
X02916616Y01849120D01*
X02893755Y01833880D02*
X02908995Y01849120D01*
X02886136Y01833880D02*
X02901375Y01849120D01*
X02878516Y01833880D02*
X02893755Y01849120D01*
X02870895Y01833880D02*
X02886136Y01849120D01*
X02863275Y01833880D02*
X02878516Y01849120D01*
X02855656Y01833880D02*
X02870895Y01849120D01*
X02848036Y01833880D02*
X02863275Y01849120D01*
X02840416Y01833880D02*
X02855656Y01849120D01*
X02832795Y01833880D02*
X02848036Y01849120D01*
X02825175Y01833880D02*
X02840416Y01849120D01*
X02817556Y01833880D02*
X02832795Y01849120D01*
X02809936Y01833880D02*
X02825175Y01849120D01*
X02802315Y01833880D02*
X02817556Y01849120D01*
X02794695Y01833880D02*
X02809936Y01849120D01*
X02787076Y01833880D02*
X02802315Y01849120D01*
X02779456Y01833880D02*
X02794695Y01849120D01*
X02771876Y01833920D02*
X02787076Y01849120D01*
X02771876Y01841540D02*
X02779456Y01849120D01*
X02908995D02*
X02916616Y01856740D01*
X02901375Y01849120D02*
X02916616Y01864360D01*
X02893755Y01849120D02*
X02908995Y01864360D01*
X02886136Y01849120D02*
X02901375Y01864360D01*
X02878516Y01849120D02*
X02893755Y01864360D01*
X02870895Y01849120D02*
X02886136Y01864360D01*
X02863275Y01849120D02*
X02878516Y01864360D01*
X02855656Y01849120D02*
X02870895Y01864360D01*
X02848036Y01849120D02*
X02863275Y01864360D01*
X02840416Y01849120D02*
X02855656Y01864360D01*
X02832795Y01849120D02*
X02848036Y01864360D01*
X02825175Y01849120D02*
X02840416Y01864360D01*
X02817556Y01849120D02*
X02832795Y01864360D01*
X02809936Y01849120D02*
X02825175Y01864360D01*
X02802315Y01849120D02*
X02817556Y01864360D01*
X02794695Y01849120D02*
X02809936Y01864360D01*
X02787076Y01849120D02*
X02802315Y01864360D01*
X02779456Y01849120D02*
X02794695Y01864360D01*
X02771876Y01849160D02*
X02787076Y01864360D01*
X02771876Y01856780D02*
X02779456Y01864360D01*
X02908995D02*
X02916616Y01871980D01*
X02901375Y01864360D02*
X02916616Y01879600D01*
X02893755Y01864360D02*
X02908995Y01879600D01*
X02886136Y01864360D02*
X02901375Y01879600D01*
X02878516Y01864360D02*
X02893755Y01879600D01*
X02870895Y01864360D02*
X02886136Y01879600D01*
X02863275Y01864360D02*
X02878516Y01879600D01*
X02855656Y01864360D02*
X02870895Y01879600D01*
X02848036Y01864360D02*
X02863275Y01879600D01*
X02840416Y01864360D02*
X02855656Y01879600D01*
X02832795Y01864360D02*
X02848036Y01879600D01*
X02825175Y01864360D02*
X02840416Y01879600D01*
X02817556Y01864360D02*
X02832795Y01879600D01*
X02809936Y01864360D02*
X02825175Y01879600D01*
X02802315Y01864360D02*
X02817556Y01879600D01*
X02794695Y01864360D02*
X02809936Y01879600D01*
X02787076Y01864360D02*
X02802315Y01879600D01*
X02779456Y01864360D02*
X02794695Y01879600D01*
X02771876Y01864400D02*
X02787076Y01879600D01*
X02771876Y01872020D02*
X02779456Y01879600D01*
X02908995D02*
X02916616Y01887220D01*
X02901375Y01879600D02*
X02916616Y01894840D01*
X02893755Y01879600D02*
X02908995Y01894840D01*
X02886136Y01879600D02*
X02901375Y01894840D01*
X02878516Y01879600D02*
X02893755Y01894840D01*
X02870895Y01879600D02*
X02886136Y01894840D01*
X02863275Y01879600D02*
X02878516Y01894840D01*
X02855656Y01879600D02*
X02870895Y01894840D01*
X02848036Y01879600D02*
X02863275Y01894840D01*
X02840416Y01879600D02*
X02855656Y01894840D01*
X02832795Y01879600D02*
X02848036Y01894840D01*
X02825175Y01879600D02*
X02840416Y01894840D01*
X02817556Y01879600D02*
X02832795Y01894840D01*
X02809936Y01879600D02*
X02825175Y01894840D01*
X02802315Y01879600D02*
X02817556Y01894840D01*
X02794695Y01879600D02*
X02809936Y01894840D01*
X02787076Y01879600D02*
X02802315Y01894840D01*
X02779456Y01879600D02*
X02794695Y01894840D01*
X02771876Y01879640D02*
X02787076Y01894840D01*
X02771876Y01887260D02*
X02779456Y01894840D01*
X02908995D02*
X02916616Y01902460D01*
X02901375Y01894840D02*
X02916616Y01910080D01*
X02893755Y01894840D02*
X02908995Y01910080D01*
X02886136Y01894840D02*
X02901375Y01910080D01*
X02878516Y01894840D02*
X02893755Y01910080D01*
X02870895Y01894840D02*
X02886136Y01910080D01*
X02863275Y01894840D02*
X02878516Y01910080D01*
X02855656Y01894840D02*
X02870895Y01910080D01*
X02848036Y01894840D02*
X02863275Y01910080D01*
X02840416Y01894840D02*
X02855656Y01910080D01*
X02832795Y01894840D02*
X02848036Y01910080D01*
X02825175Y01894840D02*
X02840416Y01910080D01*
X02817556Y01894840D02*
X02832795Y01910080D01*
X02809936Y01894840D02*
X02825175Y01910080D01*
X02802315Y01894840D02*
X02817556Y01910080D01*
X02794695Y01894840D02*
X02809936Y01910080D01*
X02787076Y01894840D02*
X02802315Y01910080D01*
X02779456Y01894840D02*
X02794695Y01910080D01*
X02771876Y01894880D02*
X02787076Y01910080D01*
X02771876Y01902500D02*
X02779456Y01910080D01*
X02908995D02*
X02916616Y01917700D01*
X02901375Y01910080D02*
X02916616Y01925320D01*
X02893755Y01910080D02*
X02908995Y01925320D01*
X02886136Y01910080D02*
X02901375Y01925320D01*
X02878516Y01910080D02*
X02893755Y01925320D01*
X02870895Y01910080D02*
X02886136Y01925320D01*
X02863275Y01910080D02*
X02878516Y01925320D01*
X02855656Y01910080D02*
X02870895Y01925320D01*
X02848036Y01910080D02*
X02863275Y01925320D01*
X02840416Y01910080D02*
X02855656Y01925320D01*
X02832795Y01910080D02*
X02848036Y01925320D01*
X02825175Y01910080D02*
X02840416Y01925320D01*
X02817556Y01910080D02*
X02832795Y01925320D01*
X02809936Y01910080D02*
X02825175Y01925320D01*
X02802315Y01910080D02*
X02817556Y01925320D01*
X02794695Y01910080D02*
X02809936Y01925320D01*
X02787076Y01910080D02*
X02802315Y01925320D01*
X02779456Y01910080D02*
X02794695Y01925320D01*
X02771876Y01910120D02*
X02787076Y01925320D01*
X02771876Y01917740D02*
X02779456Y01925320D01*
X02908995D02*
X02916616Y01932940D01*
X02901375Y01925320D02*
X02916616Y01940560D01*
X02893755Y01925320D02*
X02908995Y01940560D01*
X02886136Y01925320D02*
X02901375Y01940560D01*
X02878516Y01925320D02*
X02893755Y01940560D01*
X02870895Y01925320D02*
X02886136Y01940560D01*
X02863275Y01925320D02*
X02878516Y01940560D01*
X02855656Y01925320D02*
X02870895Y01940560D01*
X02848036Y01925320D02*
X02863275Y01940560D01*
X02840416Y01925320D02*
X02855656Y01940560D01*
X02832795Y01925320D02*
X02848036Y01940560D01*
X02825175Y01925320D02*
X02840416Y01940560D01*
X02817556Y01925320D02*
X02832795Y01940560D01*
X02809936Y01925320D02*
X02825175Y01940560D01*
X02802315Y01925320D02*
X02817556Y01940560D01*
X02794695Y01925320D02*
X02809936Y01940560D01*
X02787076Y01925320D02*
X02802315Y01940560D01*
X02779456Y01925320D02*
X02794695Y01940560D01*
X02771876Y01925360D02*
X02787076Y01940560D01*
X02771876Y01932980D02*
X02779456Y01940560D01*
X02908995D02*
X02916616Y01948180D01*
X02901375Y01940560D02*
X02916616Y01955800D01*
X02893755Y01940560D02*
X02908995Y01955800D01*
X02886136Y01940560D02*
X02901375Y01955800D01*
X02878516Y01940560D02*
X02893755Y01955800D01*
X02870895Y01940560D02*
X02886136Y01955800D01*
X02863275Y01940560D02*
X02878516Y01955800D01*
X02855656Y01940560D02*
X02870895Y01955800D01*
X02848036Y01940560D02*
X02863275Y01955800D01*
X02840416Y01940560D02*
X02855656Y01955800D01*
X02832795Y01940560D02*
X02848036Y01955800D01*
X02825175Y01940560D02*
X02840416Y01955800D01*
X02817556Y01940560D02*
X02832795Y01955800D01*
X02809936Y01940560D02*
X02825175Y01955800D01*
X02802315Y01940560D02*
X02817556Y01955800D01*
X02794695Y01940560D02*
X02809936Y01955800D01*
X02787076Y01940560D02*
X02802315Y01955800D01*
X02779456Y01940560D02*
X02794695Y01955800D01*
X02771876Y01940600D02*
X02787076Y01955800D01*
X02771876Y01948220D02*
X02779456Y01955800D01*
X02908995D02*
X02916616Y01963420D01*
X02901375Y01955800D02*
X02916616Y01971040D01*
X02893755Y01955800D02*
X02908995Y01971040D01*
X02886136Y01955800D02*
X02901375Y01971040D01*
X02878516Y01955800D02*
X02893755Y01971040D01*
X02870895Y01955800D02*
X02886136Y01971040D01*
X02863275Y01955800D02*
X02878516Y01971040D01*
X02855656Y01955800D02*
X02870895Y01971040D01*
X02848036Y01955800D02*
X02863275Y01971040D01*
X02840416Y01955800D02*
X02855656Y01971040D01*
X02832795Y01955800D02*
X02848036Y01971040D01*
X02825175Y01955800D02*
X02840416Y01971040D01*
X02817556Y01955800D02*
X02832795Y01971040D01*
X02809936Y01955800D02*
X02825175Y01971040D01*
X02802315Y01955800D02*
X02817556Y01971040D01*
X02794695Y01955800D02*
X02809936Y01971040D01*
X02787076Y01955800D02*
X02802315Y01971040D01*
X02779456Y01955800D02*
X02794695Y01971040D01*
X02771876Y01955840D02*
X02787076Y01971040D01*
X02771876Y01963460D02*
X02779456Y01971040D01*
M02*
