M48
;Layer_Color=9474304
;FILE_FORMAT=4:4
METRIC
;TYPE=PLATED
T1F00S00C0.2000
T2F00S00C0.3048
T3F00S00C0.5080
T5F00S00C1.0160
T6F00S00C1.0200
T7F00S00C1.1500
T8F00S00C1.5000
T9F00S00C1.6000
;TYPE=NON_PLATED
T11F00S00C0.9000
T12F00S00C3.1750
%
T01
X00456592Y01570018
X00451592Y01576268
X00461592
X00456592Y01582518
X00583946Y01484708
Y01473708
X00572946
X00594946
X00583946Y01462708
T02
X00442468Y00679334
X00479219Y00766953
X00498348
X00472790Y00783082
X00475996Y00792924
X00598774Y00769797
X00645783Y00776732
X00673100Y00676910
X00725043Y00631190
X00729615Y00605704
X00608335Y00641355
X00589788Y00634492
X00566166Y00632714
X00543560Y00634238
X00546800Y00619506
X00381471Y00754126
X00370078
X00356108Y00738896
X00307975Y00741426
X00240288Y00718058
X00262128Y00683054
X00211294Y00627126
X00201168Y00825310
X00328168Y00840415
X00384101Y00830326
X00384003Y00819912
X00386334Y00804545
X00387604Y00914146
X00386540Y00924378
X00386969Y00954151
X00391668Y00967505
X00378820Y00979963
X00386588Y01003054
X00389070Y01087057
X00378469Y01132332
X00229235Y01173207
X00338328Y00921697
X00431127Y00943699
X00432054Y00954786
X00429768Y00987806
X00429894Y01001344
X00463804Y00999157
X00468250Y01006991
X00491490Y00998728
X00493268Y00982726
X00491052Y00972058
X00483108Y00967486
X00473096Y00975146
X00468549Y00953516
X00468884Y00924814
X00478028Y00921766
X00492506Y00929489
X00511917Y00926592
X00521208Y00920242
X00541528Y00919205
X00561848Y00919226
X00572008Y00919205
X00582003Y00926592
X00593344Y00925068
X00596646Y00940308
X00619760Y00942086
X00620113Y00916432
X00651228Y00916085
X00646430Y00952246
X00652844Y00964919
X00637794Y00963930
X00643899Y01011385
X00630296Y01030732
X00572422Y01021438
X00554228Y01013206
X00551688Y01031017
X00561787Y01038638
X00553498Y01051846
X00535178Y01045210
X00529257Y01004789
X00518668Y01005569
X00544057Y00995426
X00546100Y00984758
X00528828Y00979254
X00536726Y00970788
X00533248Y00962039
X00527516Y00954622
X00533882Y00946600
X00515469Y00966470
X00574548Y00995426
X00583946Y00988060
X00594995Y00995201
X00734335Y01008380
X00741950Y01039987
X00727075Y01099502
X00726821Y01115378
X00750330Y01130943
X00759714Y01122934
X00673585Y01140206
X00640557Y01140197
X00625094Y01143000
X00585748Y01173226
X00534416Y01188085
X00506733Y01167130
X00513410Y01136396
X00549718
X00530017Y01098232
X00491978Y01081596
X00463893Y01081087
X00483616Y01045104
X00422148Y01056369
X00439928Y01137158
X00474715Y01137830
X00452628Y00898923
X00442458Y00897211
X00488607Y00852678
X00488696Y00833374
X00506739Y00816864
X00524484Y00817372
X00558292Y00802640
X00643058Y00863346
X00739521Y00855726
X00397517Y00847598
X00417068Y01268349
X00429768Y01268476
X00450088
X00468549Y01268722
X00493268Y01268476
X00507238Y01276604
X00532863Y01294716
X00548823Y01301868
X00574559Y01302766
X00595123Y01301242
X00586194Y01275880
X00559329Y01272286
X00550112Y01252309
X00566928Y01240282
X00569468Y01208786
X00553974Y01196971
X00589757Y01196086
X00602488Y01199007
X00596646Y01235202
X00622808Y01268730
X00692180Y01249396
X00714782Y01279640
X00717169Y01201166
X00674283Y01323658
X00667100Y01359916
X00648399Y01402588
X00646430Y01436686
X00650718Y01448816
X00695604Y01445768
X00618570Y01469978
X00593696Y01441196
X00587629Y01434428
X00564134Y01446022
X00549425Y01476958
X00546608Y01486916
X00532892Y01477637
X00526378Y01456436
X00526288Y01426718
X00495808
X00498317Y01361271
X00523748Y01372626
X00444977Y01378998
X00409448Y01403119
X00411988Y01415886
X00401320Y01453896
X00402590Y01494886
X00437350Y01529993
X00495300Y01542796
Y01552956
Y01563116
X00513588Y01509744
X00626426Y01535219
X00650718Y01522476
X00761429Y01570304
X00594868Y01403096
X00399060Y01315440
X00384048Y01310132
X00391668Y01346708
X00363982Y01346327
X00345948Y01364996
Y01375156
Y01385316
X00327747Y01402588
X00356108Y01415624
X00378937Y01453858
X00362966Y01509776
X00378460Y01526032
X00394716Y01533270
X00301926Y01538558
X00310642Y01554226
X00304546Y01561694
X00295910Y01559560
X00270002Y01541272
X00251968Y01534668
X00231902Y01522476
X00265162Y01512274
X00293116Y01502668
X00292612Y01467866
X00297731Y01457726
X00259588Y01466596
X00264668Y01474216
X00216493Y01489710
X00229108Y01436116
Y01425956
Y01409446
X00253142Y01418336
X00305308Y01382903
X00295148Y01372616
X00277114Y01327404
X00315060Y01312826
X00211455Y01299210
X00201041Y01329436
X00386590Y01377858
T03
X00339060Y00763866
X00359060Y00776824
X00478028Y00809879
Y00822643
Y00835406
X00598678Y00846328
X00653288Y01324356
X00721868Y01359916
X00747268Y01352296
X00742950Y01415542
X00676148Y01570736
X00633476
X00409702Y01586018
X00270002Y01560576
X00240538Y01293876
X00607744Y01608660
X00704088Y01608074
T05
X00421990Y00695706
X00447390
Y00721106
X00421990
X00488478
Y00695706
X00542766
X00568166
Y00670306
X00542766
Y00721106
X00568166
X00622554
Y00695706
X00647954
X00673354
Y00721106
X00647954
X00747268Y00710946
Y00736346
Y00685546
Y00660146
Y00634746
X00709168Y00596646
Y00571246
X00683768
X00658368
Y00596646
X00632968
Y00571246
X00607568
Y00596646
X00582168
Y00571246
X00683768Y00596646
X00709168Y00774446
X00396590Y00721106
Y00695706
X00282448Y00774446
X00253238
Y00799846
Y00825246
X00282448
Y00799846
X00358648Y00876046
Y00901446
Y00926846
Y01028192
Y01053592
Y01078992
X00270795Y01172963
X00586076Y01078992
Y01053592
Y01028192
X00615879
Y01053592
Y01078992
X00709168Y00825246
Y00799846
X00460090Y00809244
Y00834644
X00595122Y01332230
Y01357630
Y01383030
X00201168Y01380236
Y01405636
Y01431036
Y01456436
Y01481836
Y01507236
Y01532636
X00270795Y01198363
T06
X00251968Y00876046
X00277368
Y00901446
Y00926846
Y00952246
Y00977646
Y01003046
Y01028446
Y01053846
Y01079246
Y01104646
X00251968
Y01079246
Y01053846
Y01028446
Y01003046
Y00977646
Y00952246
Y00926846
Y00901446
X00683768
X00709168
Y00876046
X00683768
Y00926846
X00709168
Y00952246
Y00977646
Y01003046
Y01028446
Y01053846
Y01079246
Y01104646
X00683768
Y01079246
Y01053846
Y01028446
Y01003046
Y00977646
Y00952246
X00507238Y01215136
Y01240536
X00481838
X00456438
X00431038
X00405638
Y01215136
X00431038
X00456438
X00481838
X00380238
Y01240536
X00354838
X00329438
X00304038
Y01215136
X00329438
X00354838
T07
X00404368Y00571246
X00429768
X00455168
X00480568
X00505968
X00531368
X00556768
Y00596646
X00531368
X00505968
X00480568
X00455168
X00429768
X00404368
X00378968
Y00571246
X00353568
X00328168
Y00596646
X00353568
T08
X00272288Y00596646
T09
X00246888Y00571246
Y00622046
X00297688
Y00571246
T11
X00212090Y01165466
Y01188466
X00748990Y01188282
Y01165282
X00666058Y01601160
X00643058
T12
X00748538Y00582676
X00212598
Y01599946
X00748538
M30
