G04*
G04 #@! TF.GenerationSoftware,Altium Limited,Altium Designer,22.2.1 (43)*
G04*
G04 Layer_Color=16711935*
%FSAX44Y44*%
%MOMM*%
G71*
G04*
G04 #@! TF.SameCoordinates,665A4EC2-3B2C-4E96-A3DF-A06100641636*
G04*
G04*
G04 #@! TF.FilePolarity,Negative*
G04*
G01*
G75*
%ADD14C,0.2540*%
%ADD21C,0.1270*%
%ADD109R,1.6500X1.6500*%
%ADD110C,1.6500*%
%ADD111C,3.8100*%
%ADD112R,1.6000X1.6000*%
%ADD113C,1.6000*%
G04:AMPARAMS|DCode=114|XSize=1.65mm|YSize=1.65mm|CornerRadius=0.4375mm|HoleSize=0mm|Usage=FLASHONLY|Rotation=270.000|XOffset=0mm|YOffset=0mm|HoleType=Round|Shape=RoundedRectangle|*
%AMROUNDEDRECTD114*
21,1,1.6500,0.7750,0,0,270.0*
21,1,0.7750,1.6500,0,0,270.0*
1,1,0.8750,-0.3875,-0.3875*
1,1,0.8750,-0.3875,0.3875*
1,1,0.8750,0.3875,0.3875*
1,1,0.8750,0.3875,-0.3875*
%
%ADD114ROUNDEDRECTD114*%
G04:AMPARAMS|DCode=115|XSize=1.65mm|YSize=1.65mm|CornerRadius=0.0965mm|HoleSize=0mm|Usage=FLASHONLY|Rotation=270.000|XOffset=0mm|YOffset=0mm|HoleType=Round|Shape=RoundedRectangle|*
%AMROUNDEDRECTD115*
21,1,1.6500,1.4570,0,0,270.0*
21,1,1.4570,1.6500,0,0,270.0*
1,1,0.1930,-0.7285,-0.7285*
1,1,0.1930,-0.7285,0.7285*
1,1,0.1930,0.7285,0.7285*
1,1,0.1930,0.7285,-0.7285*
%
%ADD115ROUNDEDRECTD115*%
%ADD116C,1.7500*%
%ADD117R,1.7500X1.7500*%
G04:AMPARAMS|DCode=118|XSize=1.75mm|YSize=1.75mm|CornerRadius=0.0995mm|HoleSize=0mm|Usage=FLASHONLY|Rotation=90.000|XOffset=0mm|YOffset=0mm|HoleType=Round|Shape=RoundedRectangle|*
%AMROUNDEDRECTD118*
21,1,1.7500,1.5510,0,0,90.0*
21,1,1.5510,1.7500,0,0,90.0*
1,1,0.1990,0.7755,0.7755*
1,1,0.1990,0.7755,-0.7755*
1,1,0.1990,-0.7755,-0.7755*
1,1,0.1990,-0.7755,0.7755*
%
%ADD118ROUNDEDRECTD118*%
G04:AMPARAMS|DCode=119|XSize=1.75mm|YSize=1.75mm|CornerRadius=0.2563mm|HoleSize=0mm|Usage=FLASHONLY|Rotation=180.000|XOffset=0mm|YOffset=0mm|HoleType=Round|Shape=RoundedRectangle|*
%AMROUNDEDRECTD119*
21,1,1.7500,1.2375,0,0,180.0*
21,1,1.2375,1.7500,0,0,180.0*
1,1,0.5125,-0.6188,0.6188*
1,1,0.5125,0.6188,0.6188*
1,1,0.5125,0.6188,-0.6188*
1,1,0.5125,-0.6188,-0.6188*
%
%ADD119ROUNDEDRECTD119*%
%ADD120C,2.1320*%
%ADD121C,2.2000*%
%ADD122C,2.1000*%
G04:AMPARAMS|DCode=123|XSize=2.2mm|YSize=1.5mm|CornerRadius=0.75mm|HoleSize=0mm|Usage=FLASHONLY|Rotation=270.000|XOffset=0mm|YOffset=0mm|HoleType=Round|Shape=RoundedRectangle|*
%AMROUNDEDRECTD123*
21,1,2.2000,0.0000,0,0,270.0*
21,1,0.7000,1.5000,0,0,270.0*
1,1,1.5000,0.0000,-0.3500*
1,1,1.5000,0.0000,0.3500*
1,1,1.5000,0.0000,0.3500*
1,1,1.5000,0.0000,-0.3500*
%
%ADD123ROUNDEDRECTD123*%
%ADD124C,0.0508*%
G54D14*
X01420876Y00100076D02*
Y00151596D01*
X01118870Y00101727D02*
X01778508D01*
Y00256667D01*
X00727710Y00101727D02*
Y00256667D01*
X00101600Y00101727D02*
Y00256667D01*
X00101727Y00101727D02*
X00501904D01*
X00101727D02*
Y00256667D01*
Y00256667D02*
X01778508D01*
X00101600Y00101727D02*
X01118870D01*
X00101600Y00153374D02*
X01778000D01*
X00101600Y00205020D02*
X01778508D01*
X01049528D02*
Y00256667D01*
X01262888Y00205020D02*
Y00256667D01*
G54D21*
X00322326Y00179196D02*
Y00171579D01*
X00326135D01*
X00327404Y00172848D01*
Y00174118D01*
X00326135Y00175387D01*
X00322326D01*
X00326135D01*
X00327404Y00176657D01*
Y00177927D01*
X00326135Y00179196D01*
X00322326D01*
X00331213Y00171579D02*
X00333752D01*
X00335022Y00172848D01*
Y00175387D01*
X00333752Y00176657D01*
X00331213D01*
X00329944Y00175387D01*
Y00172848D01*
X00331213Y00171579D01*
X00338831Y00177927D02*
Y00176657D01*
X00337561D01*
X00340100D01*
X00338831D01*
Y00172848D01*
X00340100Y00171579D01*
X00345179Y00177927D02*
Y00176657D01*
X00343909D01*
X00346448D01*
X00345179D01*
Y00172848D01*
X00346448Y00171579D01*
X00351527D02*
X00354066D01*
X00355335Y00172848D01*
Y00175387D01*
X00354066Y00176657D01*
X00351527D01*
X00350257Y00175387D01*
Y00172848D01*
X00351527Y00171579D01*
X00357874D02*
Y00176657D01*
X00359144D01*
X00360414Y00175387D01*
Y00171579D01*
Y00175387D01*
X00361683Y00176657D01*
X00362953Y00175387D01*
Y00171579D01*
X00378188Y00177927D02*
X00376918Y00179196D01*
X00374379D01*
X00373110Y00177927D01*
Y00176657D01*
X00374379Y00175387D01*
X00376918D01*
X00378188Y00174118D01*
Y00172848D01*
X00376918Y00171579D01*
X00374379D01*
X00373110Y00172848D01*
X00381997Y00171579D02*
X00384536D01*
X00385806Y00172848D01*
Y00175387D01*
X00384536Y00176657D01*
X00381997D01*
X00380727Y00175387D01*
Y00172848D01*
X00381997Y00171579D01*
X00388345D02*
X00390884D01*
X00389614D01*
Y00179196D01*
X00388345D01*
X00399771D02*
Y00171579D01*
X00395962D01*
X00394693Y00172848D01*
Y00175387D01*
X00395962Y00176657D01*
X00399771D01*
X00406119Y00171579D02*
X00403580D01*
X00402310Y00172848D01*
Y00175387D01*
X00403580Y00176657D01*
X00406119D01*
X00407388Y00175387D01*
Y00174118D01*
X00402310D01*
X00409928Y00176657D02*
Y00171579D01*
Y00174118D01*
X00411197Y00175387D01*
X00412467Y00176657D01*
X00413736D01*
X00885317Y00171450D02*
Y00179067D01*
X00890395Y00171450D01*
Y00179067D01*
X00892934Y00171450D02*
X00898013Y00176528D01*
X00900552Y00171450D02*
Y00176528D01*
X00903091Y00179067D01*
X00905630Y00176528D01*
Y00171450D01*
Y00175259D01*
X00900552D01*
X00746760Y00179067D02*
X00751838D01*
X00749299D01*
Y00171450D01*
X00754378Y00179067D02*
X00756917D01*
X00755647D01*
Y00171450D01*
X00754378D01*
X00756917D01*
X00760725Y00179067D02*
Y00171450D01*
X00764534D01*
X00765804Y00172720D01*
Y00177798D01*
X00764534Y00179067D01*
X00760725D01*
X00777230Y00171450D02*
Y00179067D01*
X00779769D02*
Y00171450D01*
X00775961Y00176528D02*
X00779769D01*
X00781039D01*
X00775961Y00173989D02*
X00781039D01*
X00783578Y00176528D02*
X00784848D01*
Y00175259D01*
X00783578D01*
Y00176528D01*
Y00172720D02*
X00784848D01*
Y00171450D01*
X00783578D01*
Y00172720D01*
X01474470Y00126912D02*
X01479548D01*
X01477009D01*
Y00119295D01*
X01487166Y00126912D02*
X01482088D01*
Y00119295D01*
X01487166D01*
X01482088Y00123104D02*
X01484627D01*
X01489705Y00126912D02*
X01494783Y00119295D01*
Y00126912D02*
X01489705Y00119295D01*
X01497323D02*
Y00124373D01*
X01499862Y00126912D01*
X01502401Y00124373D01*
Y00119295D01*
Y00123104D01*
X01497323D01*
X01510018Y00125643D02*
X01508749Y00126912D01*
X01506210D01*
X01504940Y00125643D01*
Y00124373D01*
X01506210Y00123104D01*
X01508749D01*
X01510018Y00121834D01*
Y00120564D01*
X01508749Y00119295D01*
X01506210D01*
X01504940Y00120564D01*
X01520175Y00126912D02*
X01522714D01*
X01521445D01*
Y00119295D01*
X01520175D01*
X01522714D01*
X01526523D02*
Y00126912D01*
X01531602Y00119295D01*
Y00126912D01*
X01539219Y00125643D02*
X01537950Y00126912D01*
X01535410D01*
X01534141Y00125643D01*
Y00124373D01*
X01535410Y00123104D01*
X01537950D01*
X01539219Y00121834D01*
Y00120564D01*
X01537950Y00119295D01*
X01535410D01*
X01534141Y00120564D01*
X01541758Y00126912D02*
X01546837D01*
X01544297D01*
Y00119295D01*
X01549376D02*
Y00126912D01*
X01553185D01*
X01554454Y00125643D01*
Y00123104D01*
X01553185Y00121834D01*
X01549376D01*
X01551915D02*
X01554454Y00119295D01*
X01556993Y00126912D02*
Y00120564D01*
X01558263Y00119295D01*
X01560802D01*
X01562072Y00120564D01*
Y00126912D01*
X01564611Y00119295D02*
Y00126912D01*
X01567150Y00124373D01*
X01569689Y00126912D01*
Y00119295D01*
X01577307Y00126912D02*
X01572228D01*
Y00119295D01*
X01577307D01*
X01572228Y00123104D02*
X01574768D01*
X01579846Y00119295D02*
Y00126912D01*
X01584924Y00119295D01*
Y00126912D01*
X01587463D02*
X01592542D01*
X01590003D01*
Y00119295D01*
X01600159Y00125643D02*
X01598890Y00126912D01*
X01596351D01*
X01595081Y00125643D01*
Y00124373D01*
X01596351Y00123104D01*
X01598890D01*
X01600159Y00121834D01*
Y00120564D01*
X01598890Y00119295D01*
X01596351D01*
X01595081Y00120564D01*
X01153287Y00119295D02*
X01155826D01*
X01154557D01*
Y00126912D01*
X01153287Y00125643D01*
X01159635D02*
X01160904Y00126912D01*
X01163444D01*
X01164713Y00125643D01*
Y00120564D01*
X01163444Y00119295D01*
X01160904D01*
X01159635Y00120564D01*
Y00125643D01*
X01167253Y00124373D02*
X01168522D01*
Y00123104D01*
X01167253D01*
Y00124373D01*
Y00120564D02*
X01168522D01*
Y00119295D01*
X01167253D01*
Y00120564D01*
X01178679Y00119295D02*
X01173600D01*
X01178679Y00124373D01*
Y00125643D01*
X01177409Y00126912D01*
X01174870D01*
X01173600Y00125643D01*
X01181218Y00119295D02*
X01183757D01*
X01182488D01*
Y00126912D01*
X01181218Y00125643D01*
X01187566Y00124373D02*
X01188836D01*
Y00123104D01*
X01187566D01*
Y00124373D01*
Y00120564D02*
X01188836D01*
Y00119295D01*
X01187566D01*
Y00120564D01*
X01198992Y00119295D02*
X01193914D01*
X01198992Y00124373D01*
Y00125643D01*
X01197723Y00126912D01*
X01195183D01*
X01193914Y00125643D01*
X01206610Y00126912D02*
X01204071Y00125643D01*
X01201531Y00123104D01*
Y00120564D01*
X01202801Y00119295D01*
X01205340D01*
X01206610Y00120564D01*
Y00121834D01*
X01205340Y00123104D01*
X01201531D01*
X01216767Y00119295D02*
Y00124373D01*
X01219306Y00126912D01*
X01221845Y00124373D01*
Y00119295D01*
Y00123104D01*
X01216767D01*
X01224384Y00119295D02*
Y00126912D01*
X01226923Y00124373D01*
X01229462Y00126912D01*
Y00119295D01*
X00117729D02*
Y00126912D01*
X00121538D01*
X00122807Y00125643D01*
Y00123104D01*
X00121538Y00121834D01*
X00117729D01*
X00125346Y00126912D02*
Y00119295D01*
X00130425D01*
X00136773Y00126912D02*
X00134234D01*
X00132964Y00125643D01*
Y00120564D01*
X00134234Y00119295D01*
X00136773D01*
X00138042Y00120564D01*
Y00125643D01*
X00136773Y00126912D01*
X00140582D02*
X00145660D01*
X00143121D01*
Y00119295D01*
X00155817D02*
Y00126912D01*
X00160895Y00119295D01*
Y00126912D01*
X00163434Y00119295D02*
Y00124373D01*
X00165973Y00126912D01*
X00168513Y00124373D01*
Y00119295D01*
Y00123104D01*
X00163434D01*
X00171052Y00119295D02*
Y00126912D01*
X00173591Y00124373D01*
X00176130Y00126912D01*
Y00119295D01*
X00183748Y00126912D02*
X00178669D01*
Y00119295D01*
X00183748D01*
X00178669Y00123104D02*
X00181208D01*
X00193904Y00121834D02*
X00198983D01*
X00193904Y00124373D02*
X00198983D01*
X00117729Y00179196D02*
Y00171579D01*
X00122807D01*
X00125346D02*
Y00176657D01*
X00127886Y00179196D01*
X00130425Y00176657D01*
Y00171579D01*
Y00175387D01*
X00125346D01*
X00132964Y00179196D02*
Y00177927D01*
X00135503Y00175387D01*
X00138042Y00177927D01*
Y00179196D01*
X00135503Y00175387D02*
Y00171579D01*
X00145660Y00179196D02*
X00140582D01*
Y00171579D01*
X00145660D01*
X00140582Y00175387D02*
X00143121D01*
X00148199Y00171579D02*
Y00179196D01*
X00152008D01*
X00153278Y00177927D01*
Y00175387D01*
X00152008Y00174118D01*
X00148199D01*
X00150738D02*
X00153278Y00171579D01*
X00163434D02*
Y00179196D01*
X00168513Y00171579D01*
Y00179196D01*
X00171052Y00171579D02*
Y00176657D01*
X00173591Y00179196D01*
X00176130Y00176657D01*
Y00171579D01*
Y00175387D01*
X00171052D01*
X00178669Y00171579D02*
Y00179196D01*
X00181208Y00176657D01*
X00183748Y00179196D01*
Y00171579D01*
X00191365Y00179196D02*
X00186287D01*
Y00171579D01*
X00191365D01*
X00186287Y00175387D02*
X00188826D01*
X00201522Y00174118D02*
X00206600D01*
X00201522Y00176657D02*
X00206600D01*
X00746760Y00230714D02*
Y00223097D01*
X00750569D01*
X00751838Y00224366D01*
Y00225636D01*
X00750569Y00226905D01*
X00746760D01*
X00750569D01*
X00751838Y00228175D01*
Y00229445D01*
X00750569Y00230714D01*
X00746760D01*
X00758186D02*
X00755647D01*
X00754378Y00229445D01*
Y00224366D01*
X00755647Y00223097D01*
X00758186D01*
X00759456Y00224366D01*
Y00229445D01*
X00758186Y00230714D01*
X00761995Y00223097D02*
Y00228175D01*
X00764534Y00230714D01*
X00767073Y00228175D01*
Y00223097D01*
Y00226905D01*
X00761995D01*
X00769613Y00223097D02*
Y00230714D01*
X00773421D01*
X00774691Y00229445D01*
Y00226905D01*
X00773421Y00225636D01*
X00769613D01*
X00772152D02*
X00774691Y00223097D01*
X00777230Y00230714D02*
Y00223097D01*
X00781039D01*
X00782309Y00224366D01*
Y00229445D01*
X00781039Y00230714D01*
X00777230D01*
X00793735Y00223097D02*
Y00230714D01*
X00796274D02*
Y00223097D01*
X00792465Y00228175D02*
X00796274D01*
X00797544D01*
X00792465Y00225636D02*
X00797544D01*
X00800083Y00228175D02*
X00801352D01*
Y00226905D01*
X00800083D01*
Y00228175D01*
Y00224366D02*
X00801352D01*
Y00223097D01*
X00800083D01*
Y00224366D01*
X00885317Y00223097D02*
Y00230714D01*
X00887856Y00228175D01*
X00890395Y00230714D01*
Y00223097D01*
X00898013Y00229445D02*
X00896743Y00230714D01*
X00894204D01*
X00892934Y00229445D01*
Y00224366D01*
X00894204Y00223097D01*
X00896743D01*
X00898013Y00224366D01*
X00900552Y00230714D02*
Y00224366D01*
X00901822Y00223097D01*
X00904361D01*
X00905630Y00224366D01*
Y00230714D01*
X00908170Y00229445D02*
X00909439Y00230714D01*
X00911978D01*
X00913248Y00229445D01*
Y00224366D01*
X00911978Y00223097D01*
X00909439D01*
X00908170Y00224366D01*
Y00229445D01*
X00915787Y00224366D02*
X00917057Y00223097D01*
X00919596D01*
X00920865Y00224366D01*
Y00229445D01*
X00919596Y00230714D01*
X00917057D01*
X00915787Y00229445D01*
Y00228175D01*
X00917057Y00226905D01*
X00920865D01*
X00923405Y00229445D02*
X00924674Y00230714D01*
X00927214D01*
X00928483Y00229445D01*
Y00228175D01*
X00927214Y00226905D01*
X00928483Y00225636D01*
Y00224366D01*
X00927214Y00223097D01*
X00924674D01*
X00923405Y00224366D01*
Y00225636D01*
X00924674Y00226905D01*
X00923405Y00228175D01*
Y00229445D01*
X00924674Y00226905D02*
X00927214D01*
X01173861Y00223097D02*
Y00228175D01*
X01176400Y00230714D01*
X01178939Y00228175D01*
Y00223097D01*
Y00226905D01*
X01173861D01*
X00117729Y00223097D02*
Y00228175D01*
X00120268Y00230714D01*
X00122807Y00228175D01*
Y00223097D01*
Y00226905D01*
X00117729D01*
X00125346Y00230714D02*
Y00223097D01*
X00130425D01*
X00132964Y00230714D02*
Y00223097D01*
X00138042D01*
X00148199D02*
Y00228175D01*
X00150738Y00230714D01*
X00153278Y00228175D01*
Y00223097D01*
Y00226905D01*
X00148199D01*
X00155817Y00223097D02*
Y00230714D01*
X00159626D01*
X00160895Y00229445D01*
Y00226905D01*
X00159626Y00225636D01*
X00155817D01*
X00158356D02*
X00160895Y00223097D01*
X00163434Y00230714D02*
X00168513D01*
X00165973D01*
Y00223097D01*
X00171052Y00230714D02*
Y00223097D01*
X00173591Y00225636D01*
X00176130Y00223097D01*
Y00230714D01*
X00182478D02*
X00179939D01*
X00178669Y00229445D01*
Y00224366D01*
X00179939Y00223097D01*
X00182478D01*
X00183748Y00224366D01*
Y00229445D01*
X00182478Y00230714D01*
X00186287Y00223097D02*
Y00230714D01*
X00190096D01*
X00191365Y00229445D01*
Y00226905D01*
X00190096Y00225636D01*
X00186287D01*
X00188826D02*
X00191365Y00223097D01*
X00193904Y00230714D02*
Y00223097D01*
Y00225636D01*
X00198983Y00230714D01*
X00195174Y00226905D01*
X00198983Y00223097D01*
X00209139Y00230714D02*
Y00225636D01*
X00211679Y00223097D01*
X00214218Y00225636D01*
Y00230714D01*
X00216757D02*
X00219296D01*
X00218027D01*
Y00223097D01*
X00216757D01*
X00219296D01*
X00228183Y00230714D02*
X00223105D01*
Y00223097D01*
X00228183D01*
X00223105Y00226905D02*
X00225644D01*
X00230722Y00230714D02*
Y00223097D01*
X00233262Y00225636D01*
X00235801Y00223097D01*
Y00230714D01*
X00243418D02*
X00238340D01*
Y00223097D01*
X00243418D01*
X00238340Y00226905D02*
X00240879D01*
X00245958Y00230714D02*
Y00223097D01*
X00249766D01*
X00251036Y00224366D01*
Y00229445D01*
X00249766Y00230714D01*
X00245958D01*
X00266271D02*
X00261193D01*
Y00226905D01*
X00263732D01*
X00261193D01*
Y00223097D01*
X00268810D02*
Y00230714D01*
X00272619D01*
X00273888Y00229445D01*
Y00226905D01*
X00272619Y00225636D01*
X00268810D01*
X00271349D02*
X00273888Y00223097D01*
X00280236Y00230714D02*
X00277697D01*
X00276428Y00229445D01*
Y00224366D01*
X00277697Y00223097D01*
X00280236D01*
X00281506Y00224366D01*
Y00229445D01*
X00280236Y00230714D01*
X00284045Y00223097D02*
Y00230714D01*
X00286584Y00228175D01*
X00289124Y00230714D01*
Y00223097D01*
X00299280Y00230714D02*
X00304359D01*
X00301819D01*
Y00223097D01*
X00310707Y00230714D02*
X00308167D01*
X00306898Y00229445D01*
Y00224366D01*
X00308167Y00223097D01*
X00310707D01*
X00311976Y00224366D01*
Y00229445D01*
X00310707Y00230714D01*
X00314515Y00223097D02*
Y00230714D01*
X00318324D01*
X00319594Y00229445D01*
Y00226905D01*
X00318324Y00225636D01*
X00314515D01*
X00334829Y00229445D02*
X00333559Y00230714D01*
X00331020D01*
X00329750Y00229445D01*
Y00228175D01*
X00331020Y00226905D01*
X00333559D01*
X00334829Y00225636D01*
Y00224366D01*
X00333559Y00223097D01*
X00331020D01*
X00329750Y00224366D01*
X00337368Y00230714D02*
X00339907D01*
X00338638D01*
Y00223097D01*
X00337368D01*
X00339907D01*
X00343716Y00230714D02*
Y00223097D01*
X00347525D01*
X00348794Y00224366D01*
Y00229445D01*
X00347525Y00230714D01*
X00343716D01*
X00356412D02*
X00351333D01*
Y00223097D01*
X00356412D01*
X00351333Y00226905D02*
X00353873D01*
X00752346Y00125643D02*
X00751077Y00126912D01*
X00748538D01*
X00747268Y00125643D01*
Y00120564D01*
X00748538Y00119295D01*
X00751077D01*
X00752346Y00120564D01*
Y00123104D01*
X00749807D01*
X00759964Y00126912D02*
X00754885D01*
Y00119295D01*
X00759964D01*
X00754885Y00123104D02*
X00757425D01*
X00762503Y00119295D02*
Y00126912D01*
X00767581Y00119295D01*
Y00126912D01*
X00775199D02*
X00770121D01*
Y00119295D01*
X00775199D01*
X00770121Y00123104D02*
X00772660D01*
X00777738Y00119295D02*
Y00126912D01*
X00781547D01*
X00782816Y00125643D01*
Y00123104D01*
X00781547Y00121834D01*
X00777738D01*
X00780277D02*
X00782816Y00119295D01*
X00785356D02*
Y00124373D01*
X00787895Y00126912D01*
X00790434Y00124373D01*
Y00119295D01*
Y00123104D01*
X00785356D01*
X00792973Y00126912D02*
X00798052D01*
X00795512D01*
Y00119295D01*
X00805669Y00126912D02*
X00800591D01*
Y00119295D01*
X00805669D01*
X00800591Y00123104D02*
X00803130D01*
X00808208Y00126912D02*
Y00119295D01*
X00812017D01*
X00813287Y00120564D01*
Y00125643D01*
X00812017Y00126912D01*
X00808208D01*
X00846296Y00124373D02*
X00847566D01*
Y00123104D01*
X00846296D01*
Y00124373D01*
Y00120564D02*
X00847566D01*
Y00119295D01*
X00846296D01*
Y00120564D01*
X00973199Y00119295D02*
X00968121D01*
X00973199Y00124373D01*
Y00125643D01*
X00971930Y00126912D01*
X00969391D01*
X00968121Y00125643D01*
X00975739Y00119295D02*
X00980817Y00124373D01*
X00983356Y00119295D02*
X00985895D01*
X00984626D01*
Y00126912D01*
X00983356Y00125643D01*
X00993513Y00119295D02*
Y00126912D01*
X00989704Y00123104D01*
X00994782D01*
X00997322Y00119295D02*
X01002400Y00124373D01*
X01010017Y00119295D02*
X01004939D01*
X01010017Y00124373D01*
Y00125643D01*
X01008748Y00126912D01*
X01006209D01*
X01004939Y00125643D01*
X01012557D02*
X01013826Y00126912D01*
X01016365D01*
X01017635Y00125643D01*
Y00120564D01*
X01016365Y00119295D01*
X01013826D01*
X01012557Y00120564D01*
Y00125643D01*
X01025253Y00119295D02*
X01020174D01*
X01025253Y00124373D01*
Y00125643D01*
X01023983Y00126912D01*
X01021444D01*
X01020174Y00125643D01*
X01027792D02*
X01029061Y00126912D01*
X01031600D01*
X01032870Y00125643D01*
Y00124373D01*
X01031600Y00123104D01*
X01030331D01*
X01031600D01*
X01032870Y00121834D01*
Y00120564D01*
X01031600Y00119295D01*
X01029061D01*
X01027792Y00120564D01*
X00322326Y00119295D02*
Y00126912D01*
X00324865Y00124373D01*
X00327404Y00126912D01*
Y00119295D01*
X00335022Y00125643D02*
X00333752Y00126912D01*
X00331213D01*
X00329944Y00125643D01*
Y00120564D01*
X00331213Y00119295D01*
X00333752D01*
X00335022Y00120564D01*
X00337561Y00126912D02*
Y00120564D01*
X00338831Y00119295D01*
X00341370D01*
X00342639Y00120564D01*
Y00126912D01*
X00345179Y00125643D02*
X00346448Y00126912D01*
X00348987D01*
X00350257Y00125643D01*
Y00120564D01*
X00348987Y00119295D01*
X00346448D01*
X00345179Y00120564D01*
Y00125643D01*
X00352796Y00120564D02*
X00354066Y00119295D01*
X00356605D01*
X00357874Y00120564D01*
Y00125643D01*
X00356605Y00126912D01*
X00354066D01*
X00352796Y00125643D01*
Y00124373D01*
X00354066Y00123104D01*
X00357874D01*
X00360414Y00125643D02*
X00361683Y00126912D01*
X00364222D01*
X00365492Y00125643D01*
Y00124373D01*
X00364222Y00123104D01*
X00365492Y00121834D01*
Y00120564D01*
X00364222Y00119295D01*
X00361683D01*
X00360414Y00120564D01*
Y00121834D01*
X00361683Y00123104D01*
X00360414Y00124373D01*
Y00125643D01*
X00361683Y00123104D02*
X00364222D01*
X00368031Y00119295D02*
Y00124373D01*
X00370570Y00126912D01*
X00373110Y00124373D01*
Y00119295D01*
Y00123104D01*
X00368031D01*
X00375649Y00119295D02*
Y00120564D01*
X00376918D01*
Y00119295D01*
X00375649D01*
X00387075Y00125643D02*
X00385806Y00126912D01*
X00383266D01*
X00381997Y00125643D01*
Y00120564D01*
X00383266Y00119295D01*
X00385806D01*
X00387075Y00120564D01*
Y00123104D01*
X00384536D01*
X00389614Y00126912D02*
Y00119295D01*
X00393423D01*
X00394693Y00120564D01*
Y00121834D01*
X00393423Y00123104D01*
X00389614D01*
X00393423D01*
X00394693Y00124373D01*
Y00125643D01*
X00393423Y00126912D01*
X00389614D01*
X00402310Y00125643D02*
X00401040Y00126912D01*
X00398501D01*
X00397232Y00125643D01*
Y00124373D01*
X00398501Y00123104D01*
X00401040D01*
X00402310Y00121834D01*
Y00120564D01*
X00401040Y00119295D01*
X00398501D01*
X00397232Y00120564D01*
X01099820Y00223097D02*
Y00230714D01*
X01103629D01*
X01104898Y00229445D01*
Y00226905D01*
X01103629Y00225636D01*
X01099820D01*
X01102359D02*
X01104898Y00223097D01*
X01112516Y00230714D02*
X01107438D01*
Y00223097D01*
X01112516D01*
X01107438Y00226905D02*
X01109977D01*
X01115055Y00230714D02*
Y00225636D01*
X01117594Y00223097D01*
X01120133Y00225636D01*
Y00230714D01*
X01122673Y00228175D02*
X01123942D01*
Y00226905D01*
X01122673D01*
Y00228175D01*
Y00224366D02*
X01123942D01*
Y00223097D01*
X01122673D01*
Y00224366D01*
X01317750Y00229445D02*
X01316481Y00230714D01*
X01313942D01*
X01312672Y00229445D01*
Y00228175D01*
X01313942Y00226905D01*
X01316481D01*
X01317750Y00225636D01*
Y00224366D01*
X01316481Y00223097D01*
X01313942D01*
X01312672Y00224366D01*
X01320289Y00230714D02*
Y00225636D01*
X01322829Y00223097D01*
X01325368Y00225636D01*
Y00230714D01*
X01327907Y00223097D02*
Y00230714D01*
X01332985Y00223097D01*
Y00230714D01*
X01343142Y00223097D02*
Y00230714D01*
X01346951D01*
X01348221Y00229445D01*
Y00226905D01*
X01346951Y00225636D01*
X01343142D01*
X01345681D02*
X01348221Y00223097D01*
X01355838Y00230714D02*
X01350760D01*
Y00223097D01*
X01355838D01*
X01350760Y00226905D02*
X01353299D01*
X01358377Y00230714D02*
Y00225636D01*
X01360916Y00223097D01*
X01363456Y00225636D01*
Y00230714D01*
X01365995Y00228175D02*
X01367264D01*
Y00226905D01*
X01365995D01*
Y00228175D01*
Y00224366D02*
X01367264D01*
Y00223097D01*
X01365995D01*
Y00224366D01*
X01446274Y00230714D02*
X01443735Y00229445D01*
X01441196Y00226905D01*
Y00224366D01*
X01442466Y00223097D01*
X01445005D01*
X01446274Y00224366D01*
Y00225636D01*
X01445005Y00226905D01*
X01441196D01*
X01448813Y00224366D02*
X01450083Y00223097D01*
X01452622D01*
X01453892Y00224366D01*
Y00229445D01*
X01452622Y00230714D01*
X01450083D01*
X01448813Y00229445D01*
Y00228175D01*
X01450083Y00226905D01*
X01453892D01*
X01456431Y00229445D02*
X01457701Y00230714D01*
X01460240D01*
X01461509Y00229445D01*
Y00224366D01*
X01460240Y00223097D01*
X01457701D01*
X01456431Y00224366D01*
Y00229445D01*
X01469127Y00230714D02*
X01464049D01*
Y00226905D01*
X01466588Y00228175D01*
X01467857D01*
X01469127Y00226905D01*
Y00224366D01*
X01467857Y00223097D01*
X01465318D01*
X01464049Y00224366D01*
X01471666Y00229445D02*
X01472936Y00230714D01*
X01475475D01*
X01476745Y00229445D01*
Y00228175D01*
X01475475Y00226905D01*
X01474205D01*
X01475475D01*
X01476745Y00225636D01*
Y00224366D01*
X01475475Y00223097D01*
X01472936D01*
X01471666Y00224366D01*
X01480553Y00223097D02*
Y00229445D01*
Y00226905D01*
X01479284D01*
X01481823D01*
X01480553D01*
Y00229445D01*
X01481823Y00230714D01*
X01486901Y00228175D02*
X01489440D01*
X01490710Y00226905D01*
Y00223097D01*
X01486901D01*
X01485632Y00224366D01*
X01486901Y00225636D01*
X01490710D01*
X01498327Y00230714D02*
X01495788Y00229445D01*
X01493249Y00226905D01*
Y00224366D01*
X01494519Y00223097D01*
X01497058D01*
X01498327Y00224366D01*
Y00225636D01*
X01497058Y00226905D01*
X01493249D01*
X01504675Y00223097D02*
Y00230714D01*
X01500867Y00226905D01*
X01505945D01*
X01508484Y00229445D02*
X01509754Y00230714D01*
X01512293D01*
X01513563Y00229445D01*
Y00228175D01*
X01512293Y00226905D01*
X01513563Y00225636D01*
Y00224366D01*
X01512293Y00223097D01*
X01509754D01*
X01508484Y00224366D01*
Y00225636D01*
X01509754Y00226905D01*
X01508484Y00228175D01*
Y00229445D01*
X01509754Y00226905D02*
X01512293D01*
X01516102Y00224366D02*
X01517371Y00223097D01*
X01519910D01*
X01521180Y00224366D01*
Y00229445D01*
X01519910Y00230714D01*
X01517371D01*
X01516102Y00229445D01*
Y00228175D01*
X01517371Y00226905D01*
X01521180D01*
X01528798Y00228175D02*
X01524989D01*
X01523719Y00226905D01*
Y00224366D01*
X01524989Y00223097D01*
X01528798D01*
X01536415Y00230714D02*
X01533876Y00229445D01*
X01531337Y00226905D01*
Y00224366D01*
X01532606Y00223097D01*
X01535146D01*
X01536415Y00224366D01*
Y00225636D01*
X01535146Y00226905D01*
X01531337D01*
X01544033Y00230714D02*
X01538954D01*
Y00226905D01*
X01541494Y00228175D01*
X01542763D01*
X01544033Y00226905D01*
Y00224366D01*
X01542763Y00223097D01*
X01540224D01*
X01538954Y00224366D01*
X01546572Y00229445D02*
X01547841Y00230714D01*
X01550381D01*
X01551650Y00229445D01*
Y00224366D01*
X01550381Y00223097D01*
X01547841D01*
X01546572Y00224366D01*
Y00229445D01*
X01555459Y00223097D02*
Y00229445D01*
Y00226905D01*
X01554189D01*
X01556729D01*
X01555459D01*
Y00229445D01*
X01556729Y00230714D01*
X01565616D02*
Y00223097D01*
X01561807D01*
X01560537Y00224366D01*
Y00226905D01*
X01561807Y00228175D01*
X01565616D01*
X01568155Y00230714D02*
Y00223097D01*
X01571964D01*
X01573233Y00224366D01*
Y00225636D01*
Y00226905D01*
X01571964Y00228175D01*
X01568155D01*
X01580851Y00230714D02*
X01575773D01*
Y00226905D01*
X01578312Y00228175D01*
X01579581D01*
X01580851Y00226905D01*
Y00224366D01*
X01579581Y00223097D01*
X01577042D01*
X01575773Y00224366D01*
X01584660Y00223097D02*
Y00229445D01*
Y00226905D01*
X01583390D01*
X01585929D01*
X01584660D01*
Y00229445D01*
X01585929Y00230714D01*
X01589738Y00223097D02*
X01592277D01*
X01591008D01*
Y00230714D01*
X01589738Y00229445D01*
X01601164Y00223097D02*
X01596086D01*
X01601164Y00228175D01*
Y00229445D01*
X01599895Y00230714D01*
X01597355D01*
X01596086Y00229445D01*
X01603703Y00224366D02*
X01604973Y00223097D01*
X01607512D01*
X01608782Y00224366D01*
Y00229445D01*
X01607512Y00230714D01*
X01604973D01*
X01603703Y00229445D01*
Y00228175D01*
X01604973Y00226905D01*
X01608782D01*
X01611321Y00224366D02*
X01612591Y00223097D01*
X01615130D01*
X01616399Y00224366D01*
Y00229445D01*
X01615130Y00230714D01*
X01612591D01*
X01611321Y00229445D01*
Y00228175D01*
X01612591Y00226905D01*
X01616399D01*
X01624017Y00230714D02*
Y00223097D01*
X01620208D01*
X01618938Y00224366D01*
Y00226905D01*
X01620208Y00228175D01*
X01624017D01*
X01626556Y00230714D02*
X01631634D01*
Y00229445D01*
X01626556Y00224366D01*
Y00223097D01*
X01634174Y00229445D02*
X01635443Y00230714D01*
X01637982D01*
X01639252Y00229445D01*
Y00224366D01*
X01637982Y00223097D01*
X01635443D01*
X01634174Y00224366D01*
Y00229445D01*
X01641791Y00230714D02*
Y00223097D01*
X01645600D01*
X01646870Y00224366D01*
Y00225636D01*
Y00226905D01*
X01645600Y00228175D01*
X01641791D01*
X01650678D02*
X01653217D01*
X01654487Y00226905D01*
Y00223097D01*
X01650678D01*
X01649409Y00224366D01*
X01650678Y00225636D01*
X01654487D01*
X01660835Y00223097D02*
X01658296D01*
X01657026Y00224366D01*
Y00226905D01*
X01658296Y00228175D01*
X01660835D01*
X01662104Y00226905D01*
Y00225636D01*
X01657026D01*
X01669722Y00230714D02*
X01664644D01*
Y00226905D01*
X01667183Y00228175D01*
X01668452D01*
X01669722Y00226905D01*
Y00224366D01*
X01668452Y00223097D01*
X01665913D01*
X01664644Y00224366D01*
X01672261Y00229445D02*
X01673531Y00230714D01*
X01676070D01*
X01677340Y00229445D01*
Y00228175D01*
X01676070Y00226905D01*
X01677340Y00225636D01*
Y00224366D01*
X01676070Y00223097D01*
X01673531D01*
X01672261Y00224366D01*
Y00225636D01*
X01673531Y00226905D01*
X01672261Y00228175D01*
Y00229445D01*
X01673531Y00226905D02*
X01676070D01*
X01679879Y00224366D02*
X01681148Y00223097D01*
X01683688D01*
X01684957Y00224366D01*
Y00229445D01*
X01683688Y00230714D01*
X01681148D01*
X01679879Y00229445D01*
Y00228175D01*
X01681148Y00226905D01*
X01684957D01*
X01687496Y00230714D02*
X01692575D01*
Y00229445D01*
X01687496Y00224366D01*
Y00223097D01*
X01695114Y00230714D02*
Y00223097D01*
X01698923D01*
X01700192Y00224366D01*
Y00225636D01*
Y00226905D01*
X01698923Y00228175D01*
X01695114D01*
X01702731Y00229445D02*
X01704001Y00230714D01*
X01706540D01*
X01707810Y00229445D01*
Y00228175D01*
X01706540Y00226905D01*
X01705271D01*
X01706540D01*
X01707810Y00225636D01*
Y00224366D01*
X01706540Y00223097D01*
X01704001D01*
X01702731Y00224366D01*
X01715427Y00230714D02*
X01712888Y00229445D01*
X01710349Y00226905D01*
Y00224366D01*
X01711618Y00223097D01*
X01714158D01*
X01715427Y00224366D01*
Y00225636D01*
X01714158Y00226905D01*
X01710349D01*
X01719236Y00223097D02*
Y00229445D01*
Y00226905D01*
X01717966D01*
X01720506D01*
X01719236D01*
Y00229445D01*
X01720506Y00230714D01*
X01724314Y00229445D02*
X01725584Y00230714D01*
X01728123D01*
X01729393Y00229445D01*
Y00228175D01*
X01728123Y00226905D01*
X01729393Y00225636D01*
Y00224366D01*
X01728123Y00223097D01*
X01725584D01*
X01724314Y00224366D01*
Y00225636D01*
X01725584Y00226905D01*
X01724314Y00228175D01*
Y00229445D01*
X01725584Y00226905D02*
X01728123D01*
X01733201Y00228175D02*
X01735741D01*
X01737010Y00226905D01*
Y00223097D01*
X01733201D01*
X01731932Y00224366D01*
X01733201Y00225636D01*
X01737010D01*
X01749706Y00223097D02*
X01747167D01*
Y00230714D01*
X01749706D01*
X01753515D02*
Y00223097D01*
X01758593D01*
X01762402D02*
X01764941D01*
X01766211Y00224366D01*
Y00226905D01*
X01764941Y00228175D01*
X01762402D01*
X01761133Y00226905D01*
Y00224366D01*
X01762402Y00223097D01*
X01773828Y00228175D02*
X01770020D01*
X01768750Y00226905D01*
Y00224366D01*
X01770020Y00223097D01*
X01773828D01*
X01777637Y00228175D02*
X01780176D01*
X01781446Y00226905D01*
Y00223097D01*
X01777637D01*
X01776368Y00224366D01*
X01777637Y00225636D01*
X01781446D01*
X01783985Y00223097D02*
X01786524D01*
X01785255D01*
Y00230714D01*
X01783985D01*
X01790333Y00223097D02*
X01792872D01*
X01791603D01*
Y00230714D01*
X01790333D01*
X01796681Y00228175D02*
Y00224366D01*
X01797951Y00223097D01*
X01801759D01*
Y00221827D01*
X01800490Y00220557D01*
X01799220D01*
X01801759Y00223097D02*
Y00228175D01*
X01811916Y00223097D02*
Y00230714D01*
X01814455Y00228175D01*
X01816994Y00230714D01*
Y00223097D01*
X01820803D02*
X01823342D01*
X01824612Y00224366D01*
Y00226905D01*
X01823342Y00228175D01*
X01820803D01*
X01819534Y00226905D01*
Y00224366D01*
X01820803Y00223097D01*
X01832229Y00230714D02*
Y00223097D01*
X01828421D01*
X01827151Y00224366D01*
Y00226905D01*
X01828421Y00228175D01*
X01832229D01*
X01834769Y00223097D02*
X01837308D01*
X01836038D01*
Y00228175D01*
X01834769D01*
X01842386Y00223097D02*
Y00229445D01*
Y00226905D01*
X01841117D01*
X01843656D01*
X01842386D01*
Y00229445D01*
X01843656Y00230714D01*
X01847465Y00223097D02*
X01850004D01*
X01848734D01*
Y00228175D01*
X01847465D01*
X01857621Y00223097D02*
X01855082D01*
X01853813Y00224366D01*
Y00226905D01*
X01855082Y00228175D01*
X01857621D01*
X01858891Y00226905D01*
Y00225636D01*
X01853813D01*
X01866508Y00230714D02*
Y00223097D01*
X01862700D01*
X01861430Y00224366D01*
Y00226905D01*
X01862700Y00228175D01*
X01866508D01*
X01869048Y00223097D02*
X01871587D01*
Y00230714D01*
X01869048D01*
G54D109*
X00673354Y00721106D02*
D03*
X00622554D02*
D03*
X00460090Y00809244D02*
D03*
X00647954Y00721106D02*
D03*
X00270795Y01198363D02*
D03*
X00447390Y00721106D02*
D03*
X00421990D02*
D03*
X00396590D02*
D03*
X00488478D02*
D03*
X00709168Y00571246D02*
D03*
X00658368D02*
D03*
X00683768D02*
D03*
G54D110*
X00673354Y00695706D02*
D03*
X00622554D02*
D03*
X00460090Y00834644D02*
D03*
X00329438Y01240536D02*
D03*
X00354838D02*
D03*
X00380238D02*
D03*
X00405638D02*
D03*
X00431038D02*
D03*
X00456438D02*
D03*
X00481838D02*
D03*
X00507238D02*
D03*
X00304038Y01215136D02*
D03*
X00329438D02*
D03*
X00354838D02*
D03*
X00380238D02*
D03*
X00405638D02*
D03*
X00431038D02*
D03*
X00456438D02*
D03*
X00481838D02*
D03*
X00507238D02*
D03*
X00277368Y00876046D02*
D03*
Y00901446D02*
D03*
Y00926846D02*
D03*
Y00952246D02*
D03*
Y00977646D02*
D03*
Y01003046D02*
D03*
Y01028446D02*
D03*
Y01053846D02*
D03*
Y01079246D02*
D03*
Y01104646D02*
D03*
X00251968Y00876046D02*
D03*
Y00901446D02*
D03*
Y00926846D02*
D03*
Y00952246D02*
D03*
Y00977646D02*
D03*
Y01003046D02*
D03*
Y01028446D02*
D03*
Y01053846D02*
D03*
Y01079246D02*
D03*
X00709168Y00876046D02*
D03*
Y00901446D02*
D03*
Y00926846D02*
D03*
Y00952246D02*
D03*
Y00977646D02*
D03*
Y01003046D02*
D03*
Y01028446D02*
D03*
Y01053846D02*
D03*
Y01079246D02*
D03*
Y01104646D02*
D03*
X00683768Y00876046D02*
D03*
Y00901446D02*
D03*
Y00926846D02*
D03*
Y00952246D02*
D03*
Y00977646D02*
D03*
Y01003046D02*
D03*
Y01028446D02*
D03*
Y01053846D02*
D03*
Y01079246D02*
D03*
Y01104646D02*
D03*
X00647954Y00695706D02*
D03*
X00270795Y01172963D02*
D03*
X00447390Y00695706D02*
D03*
X00421990D02*
D03*
X00396590D02*
D03*
X00488478D02*
D03*
X00709168Y00596646D02*
D03*
X00658368D02*
D03*
X00683768D02*
D03*
G54D111*
X00748538Y00582676D02*
D03*
X00212598D02*
D03*
X00748538Y01599946D02*
D03*
X00212598D02*
D03*
G54D112*
X00282448Y00825246D02*
D03*
X00615879Y01078992D02*
D03*
X00586076D02*
D03*
X00358648Y00926846D02*
D03*
Y01078992D02*
D03*
X00568166Y00721106D02*
D03*
X00542766D02*
D03*
G54D113*
X00282448Y00799846D02*
D03*
Y00774446D02*
D03*
X00615879Y01053592D02*
D03*
Y01028192D02*
D03*
X00586076Y01053592D02*
D03*
Y01028192D02*
D03*
X00358648Y00876046D02*
D03*
Y00901446D02*
D03*
Y01028192D02*
D03*
Y01053592D02*
D03*
X00568166Y00670306D02*
D03*
Y00695706D02*
D03*
X00542766D02*
D03*
Y00670306D02*
D03*
G54D114*
X00304038Y01240536D02*
D03*
G54D115*
X00251968Y01104646D02*
D03*
G54D116*
X00709168Y00825246D02*
D03*
Y00799846D02*
D03*
X00253238D02*
D03*
Y00825246D02*
D03*
X00632968Y00596646D02*
D03*
Y00571246D02*
D03*
X00607568Y00596646D02*
D03*
Y00571246D02*
D03*
X00582168Y00596646D02*
D03*
X00747268Y00736346D02*
D03*
Y00710946D02*
D03*
Y00685546D02*
D03*
Y00660146D02*
D03*
X00556768Y00571246D02*
D03*
X00531368D02*
D03*
X00505968D02*
D03*
X00480568D02*
D03*
X00455168D02*
D03*
X00531368Y00596646D02*
D03*
X00505968D02*
D03*
X00480568D02*
D03*
X00455168D02*
D03*
X00429768Y00571246D02*
D03*
X00404368D02*
D03*
X00378968D02*
D03*
X00353568D02*
D03*
X00328168D02*
D03*
X00404368Y00596646D02*
D03*
X00378968D02*
D03*
X00353568D02*
D03*
X00328168D02*
D03*
G54D117*
X00709168Y00774446D02*
D03*
X00253238D02*
D03*
X00582168Y00571246D02*
D03*
G54D118*
X00747268Y00634746D02*
D03*
G54D119*
X00556768Y00596646D02*
D03*
X00429768D02*
D03*
G54D120*
X00595122Y01332230D02*
D03*
Y01357630D02*
D03*
Y01383030D02*
D03*
X00201168Y01532636D02*
D03*
Y01405636D02*
D03*
Y01431036D02*
D03*
Y01456436D02*
D03*
Y01481836D02*
D03*
Y01380236D02*
D03*
Y01507236D02*
D03*
G54D121*
X00297688Y00622046D02*
D03*
X00246888D02*
D03*
Y00571246D02*
D03*
X00297688D02*
D03*
G54D122*
X00272288Y00596646D02*
D03*
G54D123*
X00342291Y01600708D02*
D03*
X00263291D02*
D03*
G54D124*
X00359060Y00776824D02*
D03*
X00339060Y00763866D02*
D03*
X00598678Y00846328D02*
D03*
X00478028Y00822643D02*
D03*
Y00809879D02*
D03*
Y00835406D02*
D03*
X00721868Y01359916D02*
D03*
X00742950Y01415542D02*
D03*
X00747268Y01352296D02*
D03*
X00676148Y01570736D02*
D03*
X00633476D02*
D03*
X00607744Y01608660D02*
D03*
X00704088Y01608074D02*
D03*
X00653288Y01324356D02*
D03*
X00240538Y01293876D02*
D03*
X00409702Y01586018D02*
D03*
X00270002Y01560576D02*
D03*
M02*
