G04*
G04 #@! TF.GenerationSoftware,Altium Limited,Altium Designer,22.2.1 (43)*
G04*
G04 Layer_Color=8421504*
%FSAX44Y44*%
%MOMM*%
G71*
G04*
G04 #@! TF.SameCoordinates,665A4EC2-3B2C-4E96-A3DF-A06100641636*
G04*
G04*
G04 #@! TF.FilePolarity,Positive*
G04*
G01*
G75*
%ADD14C,0.2540*%
%ADD21C,0.1270*%
G04:AMPARAMS|DCode=29|XSize=0.3mm|YSize=0.5mm|CornerRadius=0.0495mm|HoleSize=0mm|Usage=FLASHONLY|Rotation=270.000|XOffset=0mm|YOffset=0mm|HoleType=Round|Shape=RoundedRectangle|*
%AMROUNDEDRECTD29*
21,1,0.3000,0.4010,0,0,270.0*
21,1,0.2010,0.5000,0,0,270.0*
1,1,0.0990,-0.2005,-0.1005*
1,1,0.0990,-0.2005,0.1005*
1,1,0.0990,0.2005,0.1005*
1,1,0.0990,0.2005,-0.1005*
%
%ADD29ROUNDEDRECTD29*%
%ADD30R,1.1880X1.1880*%
G04:AMPARAMS|DCode=31|XSize=1.4mm|YSize=1.15mm|CornerRadius=0.0518mm|HoleSize=0mm|Usage=FLASHONLY|Rotation=180.000|XOffset=0mm|YOffset=0mm|HoleType=Round|Shape=RoundedRectangle|*
%AMROUNDEDRECTD31*
21,1,1.4000,1.0465,0,0,180.0*
21,1,1.2965,1.1500,0,0,180.0*
1,1,0.1035,-0.6483,0.5233*
1,1,0.1035,0.6483,0.5233*
1,1,0.1035,0.6483,-0.5233*
1,1,0.1035,-0.6483,-0.5233*
%
%ADD31ROUNDEDRECTD31*%
%ADD32R,0.9500X1.0000*%
%ADD33R,0.8000X0.8000*%
G04:AMPARAMS|DCode=34|XSize=0.9mm|YSize=1.3mm|CornerRadius=0.0495mm|HoleSize=0mm|Usage=FLASHONLY|Rotation=90.000|XOffset=0mm|YOffset=0mm|HoleType=Round|Shape=RoundedRectangle|*
%AMROUNDEDRECTD34*
21,1,0.9000,1.2010,0,0,90.0*
21,1,0.8010,1.3000,0,0,90.0*
1,1,0.0990,0.6005,0.4005*
1,1,0.0990,0.6005,-0.4005*
1,1,0.0990,-0.6005,-0.4005*
1,1,0.0990,-0.6005,0.4005*
%
%ADD34ROUNDEDRECTD34*%
G04:AMPARAMS|DCode=35|XSize=0.9mm|YSize=0.6mm|CornerRadius=0.051mm|HoleSize=0mm|Usage=FLASHONLY|Rotation=90.000|XOffset=0mm|YOffset=0mm|HoleType=Round|Shape=RoundedRectangle|*
%AMROUNDEDRECTD35*
21,1,0.9000,0.4980,0,0,90.0*
21,1,0.7980,0.6000,0,0,90.0*
1,1,0.1020,0.2490,0.3990*
1,1,0.1020,0.2490,-0.3990*
1,1,0.1020,-0.2490,-0.3990*
1,1,0.1020,-0.2490,0.3990*
%
%ADD35ROUNDEDRECTD35*%
%ADD36R,0.8000X0.6000*%
G04:AMPARAMS|DCode=37|XSize=0.475mm|YSize=0.5mm|CornerRadius=0.0499mm|HoleSize=0mm|Usage=FLASHONLY|Rotation=0.000|XOffset=0mm|YOffset=0mm|HoleType=Round|Shape=RoundedRectangle|*
%AMROUNDEDRECTD37*
21,1,0.4750,0.4002,0,0,0.0*
21,1,0.3752,0.5000,0,0,0.0*
1,1,0.0998,0.1876,-0.2001*
1,1,0.0998,-0.1876,-0.2001*
1,1,0.0998,-0.1876,0.2001*
1,1,0.0998,0.1876,0.2001*
%
%ADD37ROUNDEDRECTD37*%
%ADD38R,0.7400X2.7900*%
G04:AMPARAMS|DCode=39|XSize=0.3mm|YSize=1.5mm|CornerRadius=0.0495mm|HoleSize=0mm|Usage=FLASHONLY|Rotation=270.000|XOffset=0mm|YOffset=0mm|HoleType=Round|Shape=RoundedRectangle|*
%AMROUNDEDRECTD39*
21,1,0.3000,1.4010,0,0,270.0*
21,1,0.2010,1.5000,0,0,270.0*
1,1,0.0990,-0.7005,-0.1005*
1,1,0.0990,-0.7005,0.1005*
1,1,0.0990,0.7005,0.1005*
1,1,0.0990,0.7005,-0.1005*
%
%ADD39ROUNDEDRECTD39*%
G04:AMPARAMS|DCode=40|XSize=1.5mm|YSize=0.3mm|CornerRadius=0.0495mm|HoleSize=0mm|Usage=FLASHONLY|Rotation=270.000|XOffset=0mm|YOffset=0mm|HoleType=Round|Shape=RoundedRectangle|*
%AMROUNDEDRECTD40*
21,1,1.5000,0.2010,0,0,270.0*
21,1,1.4010,0.3000,0,0,270.0*
1,1,0.0990,-0.1005,-0.7005*
1,1,0.0990,-0.1005,0.7005*
1,1,0.0990,0.1005,0.7005*
1,1,0.0990,0.1005,-0.7005*
%
%ADD40ROUNDEDRECTD40*%
%ADD41R,0.6000X0.8000*%
G04:AMPARAMS|DCode=42|XSize=1.45mm|YSize=1mm|CornerRadius=0.05mm|HoleSize=0mm|Usage=FLASHONLY|Rotation=270.000|XOffset=0mm|YOffset=0mm|HoleType=Round|Shape=RoundedRectangle|*
%AMROUNDEDRECTD42*
21,1,1.4500,0.9000,0,0,270.0*
21,1,1.3500,1.0000,0,0,270.0*
1,1,0.1000,-0.4500,-0.6750*
1,1,0.1000,-0.4500,0.6750*
1,1,0.1000,0.4500,0.6750*
1,1,0.1000,0.4500,-0.6750*
%
%ADD42ROUNDEDRECTD42*%
G04:AMPARAMS|DCode=43|XSize=0.4mm|YSize=0.85mm|CornerRadius=0.05mm|HoleSize=0mm|Usage=FLASHONLY|Rotation=270.000|XOffset=0mm|YOffset=0mm|HoleType=Round|Shape=RoundedRectangle|*
%AMROUNDEDRECTD43*
21,1,0.4000,0.7500,0,0,270.0*
21,1,0.3000,0.8500,0,0,270.0*
1,1,0.1000,-0.3750,-0.1500*
1,1,0.1000,-0.3750,0.1500*
1,1,0.1000,0.3750,0.1500*
1,1,0.1000,0.3750,-0.1500*
%
%ADD43ROUNDEDRECTD43*%
G04:AMPARAMS|DCode=44|XSize=0.65mm|YSize=0.9mm|CornerRadius=0.0488mm|HoleSize=0mm|Usage=FLASHONLY|Rotation=270.000|XOffset=0mm|YOffset=0mm|HoleType=Round|Shape=RoundedRectangle|*
%AMROUNDEDRECTD44*
21,1,0.6500,0.8025,0,0,270.0*
21,1,0.5525,0.9000,0,0,270.0*
1,1,0.0975,-0.4013,-0.2763*
1,1,0.0975,-0.4013,0.2763*
1,1,0.0975,0.4013,0.2763*
1,1,0.0975,0.4013,-0.2763*
%
%ADD44ROUNDEDRECTD44*%
G04:AMPARAMS|DCode=45|XSize=0.31mm|YSize=0.6mm|CornerRadius=0.0496mm|HoleSize=0mm|Usage=FLASHONLY|Rotation=270.000|XOffset=0mm|YOffset=0mm|HoleType=Round|Shape=RoundedRectangle|*
%AMROUNDEDRECTD45*
21,1,0.3100,0.5008,0,0,270.0*
21,1,0.2108,0.6000,0,0,270.0*
1,1,0.0992,-0.2504,-0.1054*
1,1,0.0992,-0.2504,0.1054*
1,1,0.0992,0.2504,0.1054*
1,1,0.0992,0.2504,-0.1054*
%
%ADD45ROUNDEDRECTD45*%
%ADD46O,0.2000X1.4000*%
%ADD47O,1.4000X0.2000*%
%ADD48R,1.0000X0.9500*%
%ADD49R,1.0000X1.8000*%
%ADD50C,1.0000*%
%ADD51R,0.5500X0.4000*%
%ADD52R,0.7000X0.5000*%
%ADD53O,1.2500X0.5500*%
G04:AMPARAMS|DCode=54|XSize=0.6mm|YSize=1mm|CornerRadius=0.051mm|HoleSize=0mm|Usage=FLASHONLY|Rotation=0.000|XOffset=0mm|YOffset=0mm|HoleType=Round|Shape=RoundedRectangle|*
%AMROUNDEDRECTD54*
21,1,0.6000,0.8980,0,0,0.0*
21,1,0.4980,1.0000,0,0,0.0*
1,1,0.1020,0.2490,-0.4490*
1,1,0.1020,-0.2490,-0.4490*
1,1,0.1020,-0.2490,0.4490*
1,1,0.1020,0.2490,0.4490*
%
%ADD54ROUNDEDRECTD54*%
G04:AMPARAMS|DCode=55|XSize=1.8mm|YSize=1.4mm|CornerRadius=0.049mm|HoleSize=0mm|Usage=FLASHONLY|Rotation=90.000|XOffset=0mm|YOffset=0mm|HoleType=Round|Shape=RoundedRectangle|*
%AMROUNDEDRECTD55*
21,1,1.8000,1.3020,0,0,90.0*
21,1,1.7020,1.4000,0,0,90.0*
1,1,0.0980,0.6510,0.8510*
1,1,0.0980,0.6510,-0.8510*
1,1,0.0980,-0.6510,-0.8510*
1,1,0.0980,-0.6510,0.8510*
%
%ADD55ROUNDEDRECTD55*%
%ADD56R,0.6000X2.0000*%
G04:AMPARAMS|DCode=57|XSize=0.47mm|YSize=0.6mm|CornerRadius=0.0493mm|HoleSize=0mm|Usage=FLASHONLY|Rotation=270.000|XOffset=0mm|YOffset=0mm|HoleType=Round|Shape=RoundedRectangle|*
%AMROUNDEDRECTD57*
21,1,0.4700,0.5013,0,0,270.0*
21,1,0.3713,0.6000,0,0,270.0*
1,1,0.0987,-0.2507,-0.1857*
1,1,0.0987,-0.2507,0.1857*
1,1,0.0987,0.2507,0.1857*
1,1,0.0987,0.2507,-0.1857*
%
%ADD57ROUNDEDRECTD57*%
%ADD58O,0.6000X0.3000*%
%ADD59O,0.3000X0.6000*%
%ADD60R,1.4000X1.2000*%
%ADD61R,0.2000X0.3500*%
%ADD62R,0.2000X0.3000*%
G04:AMPARAMS|DCode=63|XSize=0.9mm|YSize=1.3mm|CornerRadius=0.0495mm|HoleSize=0mm|Usage=FLASHONLY|Rotation=0.000|XOffset=0mm|YOffset=0mm|HoleType=Round|Shape=RoundedRectangle|*
%AMROUNDEDRECTD63*
21,1,0.9000,1.2010,0,0,0.0*
21,1,0.8010,1.3000,0,0,0.0*
1,1,0.0990,0.4005,-0.6005*
1,1,0.0990,-0.4005,-0.6005*
1,1,0.0990,-0.4005,0.6005*
1,1,0.0990,0.4005,0.6005*
%
%ADD63ROUNDEDRECTD63*%
G04:AMPARAMS|DCode=64|XSize=1.45mm|YSize=1mm|CornerRadius=0.05mm|HoleSize=0mm|Usage=FLASHONLY|Rotation=0.000|XOffset=0mm|YOffset=0mm|HoleType=Round|Shape=RoundedRectangle|*
%AMROUNDEDRECTD64*
21,1,1.4500,0.9000,0,0,0.0*
21,1,1.3500,1.0000,0,0,0.0*
1,1,0.1000,0.6750,-0.4500*
1,1,0.1000,-0.6750,-0.4500*
1,1,0.1000,-0.6750,0.4500*
1,1,0.1000,0.6750,0.4500*
%
%ADD64ROUNDEDRECTD64*%
G04:AMPARAMS|DCode=65|XSize=0.45mm|YSize=1.38mm|CornerRadius=0.0495mm|HoleSize=0mm|Usage=FLASHONLY|Rotation=0.000|XOffset=0mm|YOffset=0mm|HoleType=Round|Shape=RoundedRectangle|*
%AMROUNDEDRECTD65*
21,1,0.4500,1.2810,0,0,0.0*
21,1,0.3510,1.3800,0,0,0.0*
1,1,0.0990,0.1755,-0.6405*
1,1,0.0990,-0.1755,-0.6405*
1,1,0.0990,-0.1755,0.6405*
1,1,0.0990,0.1755,0.6405*
%
%ADD65ROUNDEDRECTD65*%
G04:AMPARAMS|DCode=66|XSize=1.375mm|YSize=1.9mm|CornerRadius=0.0481mm|HoleSize=0mm|Usage=FLASHONLY|Rotation=0.000|XOffset=0mm|YOffset=0mm|HoleType=Round|Shape=RoundedRectangle|*
%AMROUNDEDRECTD66*
21,1,1.3750,1.8038,0,0,0.0*
21,1,1.2788,1.9000,0,0,0.0*
1,1,0.0963,0.6394,-0.9019*
1,1,0.0963,-0.6394,-0.9019*
1,1,0.0963,-0.6394,0.9019*
1,1,0.0963,0.6394,0.9019*
%
%ADD66ROUNDEDRECTD66*%
G04:AMPARAMS|DCode=67|XSize=1.475mm|YSize=2.1mm|CornerRadius=0.0516mm|HoleSize=0mm|Usage=FLASHONLY|Rotation=0.000|XOffset=0mm|YOffset=0mm|HoleType=Round|Shape=RoundedRectangle|*
%AMROUNDEDRECTD67*
21,1,1.4750,1.9968,0,0,0.0*
21,1,1.3718,2.1000,0,0,0.0*
1,1,0.1032,0.6859,-0.9984*
1,1,0.1032,-0.6859,-0.9984*
1,1,0.1032,-0.6859,0.9984*
1,1,0.1032,0.6859,0.9984*
%
%ADD67ROUNDEDRECTD67*%
G04:AMPARAMS|DCode=68|XSize=0.3mm|YSize=0.6mm|CornerRadius=0.0495mm|HoleSize=0mm|Usage=FLASHONLY|Rotation=0.000|XOffset=0mm|YOffset=0mm|HoleType=Round|Shape=RoundedRectangle|*
%AMROUNDEDRECTD68*
21,1,0.3000,0.5010,0,0,0.0*
21,1,0.2010,0.6000,0,0,0.0*
1,1,0.0990,0.1005,-0.2505*
1,1,0.0990,-0.1005,-0.2505*
1,1,0.0990,-0.1005,0.2505*
1,1,0.0990,0.1005,0.2505*
%
%ADD68ROUNDEDRECTD68*%
G04:AMPARAMS|DCode=69|XSize=0.25mm|YSize=0.55mm|CornerRadius=0.05mm|HoleSize=0mm|Usage=FLASHONLY|Rotation=270.000|XOffset=0mm|YOffset=0mm|HoleType=Round|Shape=RoundedRectangle|*
%AMROUNDEDRECTD69*
21,1,0.2500,0.4500,0,0,270.0*
21,1,0.1500,0.5500,0,0,270.0*
1,1,0.1000,-0.2250,-0.0750*
1,1,0.1000,-0.2250,0.0750*
1,1,0.1000,0.2250,0.0750*
1,1,0.1000,0.2250,-0.0750*
%
%ADD69ROUNDEDRECTD69*%
G04:AMPARAMS|DCode=70|XSize=0.2mm|YSize=0.55mm|CornerRadius=0.05mm|HoleSize=0mm|Usage=FLASHONLY|Rotation=270.000|XOffset=0mm|YOffset=0mm|HoleType=Round|Shape=RoundedRectangle|*
%AMROUNDEDRECTD70*
21,1,0.2000,0.4500,0,0,270.0*
21,1,0.1000,0.5500,0,0,270.0*
1,1,0.1000,-0.2250,-0.0500*
1,1,0.1000,-0.2250,0.0500*
1,1,0.1000,0.2250,0.0500*
1,1,0.1000,0.2250,-0.0500*
%
%ADD70ROUNDEDRECTD70*%
G36*
X00454492Y01566018D02*
Y01559768D01*
X00454492Y01559669D01*
X00454416Y01559485D01*
X00454275Y01559344D01*
X00454092Y01559268D01*
X00453992D01*
D01*
X00452692D01*
X00452593D01*
X00452409Y01559344D01*
X00452268Y01559485D01*
X00452192Y01559669D01*
Y01559768D01*
D01*
Y01566018D01*
Y01566118D01*
X00452268Y01566302D01*
X00452409Y01566442D01*
X00452593Y01566518D01*
X00452692D01*
D01*
X00453992D01*
X00454092D01*
X00454275Y01566442D01*
X00454416Y01566302D01*
X00454492Y01566118D01*
Y01566018D01*
X00454492D01*
D02*
G37*
G36*
X00460992D02*
Y01559768D01*
Y01559669D01*
X00460916Y01559485D01*
X00460775Y01559344D01*
X00460592Y01559268D01*
X00460492D01*
D01*
X00459192D01*
X00459093D01*
X00458909Y01559344D01*
X00458768Y01559485D01*
X00458692Y01559669D01*
Y01559768D01*
D01*
Y01566018D01*
Y01566118D01*
X00458768Y01566302D01*
X00458909Y01566442D01*
X00459093Y01566518D01*
X00459192D01*
D01*
X00460492D01*
X00460592D01*
X00460775Y01566442D01*
X00460916Y01566302D01*
X00460992Y01566118D01*
Y01566018D01*
D01*
D02*
G37*
G36*
X00460775Y01593192D02*
X00460916Y01593051D01*
X00460992Y01592868D01*
Y01592768D01*
Y01586518D01*
Y01586419D01*
X00460916Y01586235D01*
X00460775Y01586094D01*
X00460592Y01586018D01*
X00459093D01*
X00458909Y01586094D01*
X00458768Y01586235D01*
X00458692Y01586419D01*
Y01586518D01*
Y01592768D01*
Y01592868D01*
X00458768Y01593051D01*
X00458909Y01593192D01*
X00459093Y01593268D01*
X00460592D01*
X00460775Y01593192D01*
D02*
G37*
G36*
X00454275D02*
X00454416Y01593051D01*
X00454492Y01592868D01*
Y01592768D01*
X00454492Y01586518D01*
X00454492D01*
Y01586419D01*
X00454416Y01586235D01*
X00454275Y01586094D01*
X00454092Y01586018D01*
X00452593D01*
X00452409Y01586094D01*
X00452268Y01586235D01*
X00452192Y01586419D01*
Y01586518D01*
Y01592768D01*
Y01592868D01*
X00452268Y01593051D01*
X00452409Y01593192D01*
X00452593Y01593268D01*
X00454092D01*
X00454275Y01593192D01*
D02*
G37*
G36*
X00463075Y01583942D02*
X00463216Y01583802D01*
X00463292Y01583618D01*
Y01583518D01*
Y01569018D01*
Y01568919D01*
X00463216Y01568735D01*
X00463075Y01568594D01*
X00462892Y01568518D01*
X00450293D01*
X00450109Y01568594D01*
X00449968Y01568735D01*
X00449892Y01568919D01*
Y01569018D01*
Y01583518D01*
Y01583618D01*
X00449968Y01583802D01*
X00450109Y01583942D01*
X00450293Y01584018D01*
X00462892D01*
X00463075Y01583942D01*
D02*
G37*
G54D14*
X01420876Y00100076D02*
Y00151596D01*
X01118870Y00101727D02*
X01778508D01*
Y00256667D01*
X00727710Y00101727D02*
Y00256667D01*
X00101600Y00101727D02*
Y00256667D01*
X00101727Y00101727D02*
X00501904D01*
X00101727D02*
Y00256667D01*
Y00256667D02*
X01778508D01*
X00101600Y00101727D02*
X01118870D01*
X00101600Y00153374D02*
X01778000D01*
X00101600Y00205020D02*
X01778508D01*
X01049528D02*
Y00256667D01*
X01262888Y00205020D02*
Y00256667D01*
G54D21*
X00322326Y00179196D02*
X00327404D01*
X00324865D01*
Y00171579D01*
X00331213D02*
X00333752D01*
X00335022Y00172848D01*
Y00175387D01*
X00333752Y00176657D01*
X00331213D01*
X00329944Y00175387D01*
Y00172848D01*
X00331213Y00171579D01*
X00337561Y00169039D02*
Y00176657D01*
X00341370D01*
X00342639Y00175387D01*
Y00172848D01*
X00341370Y00171579D01*
X00337561D01*
X00352796D02*
Y00179196D01*
X00356605D01*
X00357874Y00177927D01*
Y00175387D01*
X00356605Y00174118D01*
X00352796D01*
X00361683Y00176657D02*
X00364222D01*
X00365492Y00175387D01*
Y00171579D01*
X00361683D01*
X00360414Y00172848D01*
X00361683Y00174118D01*
X00365492D01*
X00368031Y00171579D02*
X00371840D01*
X00373110Y00172848D01*
X00371840Y00174118D01*
X00369301D01*
X00368031Y00175387D01*
X00369301Y00176657D01*
X00373110D01*
X00376918Y00177927D02*
Y00176657D01*
X00375649D01*
X00378188D01*
X00376918D01*
Y00172848D01*
X00378188Y00171579D01*
X00385806D02*
X00383266D01*
X00381997Y00172848D01*
Y00175387D01*
X00383266Y00176657D01*
X00385806D01*
X00387075Y00175387D01*
Y00174118D01*
X00381997D01*
X00885317Y00171450D02*
Y00179067D01*
X00890395Y00171450D01*
Y00179067D01*
X00892934Y00171450D02*
X00898013Y00176528D01*
X00900552Y00171450D02*
Y00176528D01*
X00903091Y00179067D01*
X00905630Y00176528D01*
Y00171450D01*
Y00175259D01*
X00900552D01*
X00746760Y00179067D02*
X00751838D01*
X00749299D01*
Y00171450D01*
X00754378Y00179067D02*
X00756917D01*
X00755647D01*
Y00171450D01*
X00754378D01*
X00756917D01*
X00760725Y00179067D02*
Y00171450D01*
X00764534D01*
X00765804Y00172720D01*
Y00177798D01*
X00764534Y00179067D01*
X00760725D01*
X00777230Y00171450D02*
Y00179067D01*
X00779769D02*
Y00171450D01*
X00775961Y00176528D02*
X00779769D01*
X00781039D01*
X00775961Y00173989D02*
X00781039D01*
X00783578Y00176528D02*
X00784848D01*
Y00175259D01*
X00783578D01*
Y00176528D01*
Y00172720D02*
X00784848D01*
Y00171450D01*
X00783578D01*
Y00172720D01*
X01474470Y00126912D02*
X01479548D01*
X01477009D01*
Y00119295D01*
X01487166Y00126912D02*
X01482088D01*
Y00119295D01*
X01487166D01*
X01482088Y00123104D02*
X01484627D01*
X01489705Y00126912D02*
X01494783Y00119295D01*
Y00126912D02*
X01489705Y00119295D01*
X01497323D02*
Y00124373D01*
X01499862Y00126912D01*
X01502401Y00124373D01*
Y00119295D01*
Y00123104D01*
X01497323D01*
X01510018Y00125643D02*
X01508749Y00126912D01*
X01506210D01*
X01504940Y00125643D01*
Y00124373D01*
X01506210Y00123104D01*
X01508749D01*
X01510018Y00121834D01*
Y00120564D01*
X01508749Y00119295D01*
X01506210D01*
X01504940Y00120564D01*
X01520175Y00126912D02*
X01522714D01*
X01521445D01*
Y00119295D01*
X01520175D01*
X01522714D01*
X01526523D02*
Y00126912D01*
X01531602Y00119295D01*
Y00126912D01*
X01539219Y00125643D02*
X01537950Y00126912D01*
X01535410D01*
X01534141Y00125643D01*
Y00124373D01*
X01535410Y00123104D01*
X01537950D01*
X01539219Y00121834D01*
Y00120564D01*
X01537950Y00119295D01*
X01535410D01*
X01534141Y00120564D01*
X01541758Y00126912D02*
X01546837D01*
X01544297D01*
Y00119295D01*
X01549376D02*
Y00126912D01*
X01553185D01*
X01554454Y00125643D01*
Y00123104D01*
X01553185Y00121834D01*
X01549376D01*
X01551915D02*
X01554454Y00119295D01*
X01556993Y00126912D02*
Y00120564D01*
X01558263Y00119295D01*
X01560802D01*
X01562072Y00120564D01*
Y00126912D01*
X01564611Y00119295D02*
Y00126912D01*
X01567150Y00124373D01*
X01569689Y00126912D01*
Y00119295D01*
X01577307Y00126912D02*
X01572228D01*
Y00119295D01*
X01577307D01*
X01572228Y00123104D02*
X01574768D01*
X01579846Y00119295D02*
Y00126912D01*
X01584924Y00119295D01*
Y00126912D01*
X01587463D02*
X01592542D01*
X01590003D01*
Y00119295D01*
X01600159Y00125643D02*
X01598890Y00126912D01*
X01596351D01*
X01595081Y00125643D01*
Y00124373D01*
X01596351Y00123104D01*
X01598890D01*
X01600159Y00121834D01*
Y00120564D01*
X01598890Y00119295D01*
X01596351D01*
X01595081Y00120564D01*
X01153287Y00119295D02*
X01155826D01*
X01154557D01*
Y00126912D01*
X01153287Y00125643D01*
X01159635D02*
X01160904Y00126912D01*
X01163444D01*
X01164713Y00125643D01*
Y00120564D01*
X01163444Y00119295D01*
X01160904D01*
X01159635Y00120564D01*
Y00125643D01*
X01167253Y00124373D02*
X01168522D01*
Y00123104D01*
X01167253D01*
Y00124373D01*
Y00120564D02*
X01168522D01*
Y00119295D01*
X01167253D01*
Y00120564D01*
X01178679Y00119295D02*
X01173600D01*
X01178679Y00124373D01*
Y00125643D01*
X01177409Y00126912D01*
X01174870D01*
X01173600Y00125643D01*
X01181218Y00119295D02*
X01183757D01*
X01182488D01*
Y00126912D01*
X01181218Y00125643D01*
X01187566Y00124373D02*
X01188836D01*
Y00123104D01*
X01187566D01*
Y00124373D01*
Y00120564D02*
X01188836D01*
Y00119295D01*
X01187566D01*
Y00120564D01*
X01198992Y00119295D02*
X01193914D01*
X01198992Y00124373D01*
Y00125643D01*
X01197723Y00126912D01*
X01195183D01*
X01193914Y00125643D01*
X01206610Y00126912D02*
X01204071Y00125643D01*
X01201531Y00123104D01*
Y00120564D01*
X01202801Y00119295D01*
X01205340D01*
X01206610Y00120564D01*
Y00121834D01*
X01205340Y00123104D01*
X01201531D01*
X01216767Y00119295D02*
Y00124373D01*
X01219306Y00126912D01*
X01221845Y00124373D01*
Y00119295D01*
Y00123104D01*
X01216767D01*
X01224384Y00119295D02*
Y00126912D01*
X01226923Y00124373D01*
X01229462Y00126912D01*
Y00119295D01*
X00117729D02*
Y00126912D01*
X00121538D01*
X00122807Y00125643D01*
Y00123104D01*
X00121538Y00121834D01*
X00117729D01*
X00125346Y00126912D02*
Y00119295D01*
X00130425D01*
X00136773Y00126912D02*
X00134234D01*
X00132964Y00125643D01*
Y00120564D01*
X00134234Y00119295D01*
X00136773D01*
X00138042Y00120564D01*
Y00125643D01*
X00136773Y00126912D01*
X00140582D02*
X00145660D01*
X00143121D01*
Y00119295D01*
X00155817D02*
Y00126912D01*
X00160895Y00119295D01*
Y00126912D01*
X00163434Y00119295D02*
Y00124373D01*
X00165973Y00126912D01*
X00168513Y00124373D01*
Y00119295D01*
Y00123104D01*
X00163434D01*
X00171052Y00119295D02*
Y00126912D01*
X00173591Y00124373D01*
X00176130Y00126912D01*
Y00119295D01*
X00183748Y00126912D02*
X00178669D01*
Y00119295D01*
X00183748D01*
X00178669Y00123104D02*
X00181208D01*
X00193904Y00121834D02*
X00198983D01*
X00193904Y00124373D02*
X00198983D01*
X00117729Y00179196D02*
Y00171579D01*
X00122807D01*
X00125346D02*
Y00176657D01*
X00127886Y00179196D01*
X00130425Y00176657D01*
Y00171579D01*
Y00175387D01*
X00125346D01*
X00132964Y00179196D02*
Y00177927D01*
X00135503Y00175387D01*
X00138042Y00177927D01*
Y00179196D01*
X00135503Y00175387D02*
Y00171579D01*
X00145660Y00179196D02*
X00140582D01*
Y00171579D01*
X00145660D01*
X00140582Y00175387D02*
X00143121D01*
X00148199Y00171579D02*
Y00179196D01*
X00152008D01*
X00153278Y00177927D01*
Y00175387D01*
X00152008Y00174118D01*
X00148199D01*
X00150738D02*
X00153278Y00171579D01*
X00163434D02*
Y00179196D01*
X00168513Y00171579D01*
Y00179196D01*
X00171052Y00171579D02*
Y00176657D01*
X00173591Y00179196D01*
X00176130Y00176657D01*
Y00171579D01*
Y00175387D01*
X00171052D01*
X00178669Y00171579D02*
Y00179196D01*
X00181208Y00176657D01*
X00183748Y00179196D01*
Y00171579D01*
X00191365Y00179196D02*
X00186287D01*
Y00171579D01*
X00191365D01*
X00186287Y00175387D02*
X00188826D01*
X00201522Y00174118D02*
X00206600D01*
X00201522Y00176657D02*
X00206600D01*
X00746760Y00230714D02*
Y00223097D01*
X00750569D01*
X00751838Y00224366D01*
Y00225636D01*
X00750569Y00226905D01*
X00746760D01*
X00750569D01*
X00751838Y00228175D01*
Y00229445D01*
X00750569Y00230714D01*
X00746760D01*
X00758186D02*
X00755647D01*
X00754378Y00229445D01*
Y00224366D01*
X00755647Y00223097D01*
X00758186D01*
X00759456Y00224366D01*
Y00229445D01*
X00758186Y00230714D01*
X00761995Y00223097D02*
Y00228175D01*
X00764534Y00230714D01*
X00767073Y00228175D01*
Y00223097D01*
Y00226905D01*
X00761995D01*
X00769613Y00223097D02*
Y00230714D01*
X00773421D01*
X00774691Y00229445D01*
Y00226905D01*
X00773421Y00225636D01*
X00769613D01*
X00772152D02*
X00774691Y00223097D01*
X00777230Y00230714D02*
Y00223097D01*
X00781039D01*
X00782309Y00224366D01*
Y00229445D01*
X00781039Y00230714D01*
X00777230D01*
X00793735Y00223097D02*
Y00230714D01*
X00796274D02*
Y00223097D01*
X00792465Y00228175D02*
X00796274D01*
X00797544D01*
X00792465Y00225636D02*
X00797544D01*
X00800083Y00228175D02*
X00801352D01*
Y00226905D01*
X00800083D01*
Y00228175D01*
Y00224366D02*
X00801352D01*
Y00223097D01*
X00800083D01*
Y00224366D01*
X00885317Y00223097D02*
Y00230714D01*
X00887856Y00228175D01*
X00890395Y00230714D01*
Y00223097D01*
X00898013Y00229445D02*
X00896743Y00230714D01*
X00894204D01*
X00892934Y00229445D01*
Y00224366D01*
X00894204Y00223097D01*
X00896743D01*
X00898013Y00224366D01*
X00900552Y00230714D02*
Y00224366D01*
X00901822Y00223097D01*
X00904361D01*
X00905630Y00224366D01*
Y00230714D01*
X00908170Y00229445D02*
X00909439Y00230714D01*
X00911978D01*
X00913248Y00229445D01*
Y00224366D01*
X00911978Y00223097D01*
X00909439D01*
X00908170Y00224366D01*
Y00229445D01*
X00915787Y00224366D02*
X00917057Y00223097D01*
X00919596D01*
X00920865Y00224366D01*
Y00229445D01*
X00919596Y00230714D01*
X00917057D01*
X00915787Y00229445D01*
Y00228175D01*
X00917057Y00226905D01*
X00920865D01*
X00923405Y00229445D02*
X00924674Y00230714D01*
X00927214D01*
X00928483Y00229445D01*
Y00228175D01*
X00927214Y00226905D01*
X00928483Y00225636D01*
Y00224366D01*
X00927214Y00223097D01*
X00924674D01*
X00923405Y00224366D01*
Y00225636D01*
X00924674Y00226905D01*
X00923405Y00228175D01*
Y00229445D01*
X00924674Y00226905D02*
X00927214D01*
X01173861Y00223097D02*
Y00228175D01*
X01176400Y00230714D01*
X01178939Y00228175D01*
Y00223097D01*
Y00226905D01*
X01173861D01*
X00117729Y00223097D02*
Y00228175D01*
X00120268Y00230714D01*
X00122807Y00228175D01*
Y00223097D01*
Y00226905D01*
X00117729D01*
X00125346Y00230714D02*
Y00223097D01*
X00130425D01*
X00132964Y00230714D02*
Y00223097D01*
X00138042D01*
X00148199D02*
Y00228175D01*
X00150738Y00230714D01*
X00153278Y00228175D01*
Y00223097D01*
Y00226905D01*
X00148199D01*
X00155817Y00223097D02*
Y00230714D01*
X00159626D01*
X00160895Y00229445D01*
Y00226905D01*
X00159626Y00225636D01*
X00155817D01*
X00158356D02*
X00160895Y00223097D01*
X00163434Y00230714D02*
X00168513D01*
X00165973D01*
Y00223097D01*
X00171052Y00230714D02*
Y00223097D01*
X00173591Y00225636D01*
X00176130Y00223097D01*
Y00230714D01*
X00182478D02*
X00179939D01*
X00178669Y00229445D01*
Y00224366D01*
X00179939Y00223097D01*
X00182478D01*
X00183748Y00224366D01*
Y00229445D01*
X00182478Y00230714D01*
X00186287Y00223097D02*
Y00230714D01*
X00190096D01*
X00191365Y00229445D01*
Y00226905D01*
X00190096Y00225636D01*
X00186287D01*
X00188826D02*
X00191365Y00223097D01*
X00193904Y00230714D02*
Y00223097D01*
Y00225636D01*
X00198983Y00230714D01*
X00195174Y00226905D01*
X00198983Y00223097D01*
X00209139Y00230714D02*
Y00225636D01*
X00211679Y00223097D01*
X00214218Y00225636D01*
Y00230714D01*
X00216757D02*
X00219296D01*
X00218027D01*
Y00223097D01*
X00216757D01*
X00219296D01*
X00228183Y00230714D02*
X00223105D01*
Y00223097D01*
X00228183D01*
X00223105Y00226905D02*
X00225644D01*
X00230722Y00230714D02*
Y00223097D01*
X00233262Y00225636D01*
X00235801Y00223097D01*
Y00230714D01*
X00243418D02*
X00238340D01*
Y00223097D01*
X00243418D01*
X00238340Y00226905D02*
X00240879D01*
X00245958Y00230714D02*
Y00223097D01*
X00249766D01*
X00251036Y00224366D01*
Y00229445D01*
X00249766Y00230714D01*
X00245958D01*
X00266271D02*
X00261193D01*
Y00226905D01*
X00263732D01*
X00261193D01*
Y00223097D01*
X00268810D02*
Y00230714D01*
X00272619D01*
X00273888Y00229445D01*
Y00226905D01*
X00272619Y00225636D01*
X00268810D01*
X00271349D02*
X00273888Y00223097D01*
X00280236Y00230714D02*
X00277697D01*
X00276428Y00229445D01*
Y00224366D01*
X00277697Y00223097D01*
X00280236D01*
X00281506Y00224366D01*
Y00229445D01*
X00280236Y00230714D01*
X00284045Y00223097D02*
Y00230714D01*
X00286584Y00228175D01*
X00289124Y00230714D01*
Y00223097D01*
X00299280Y00230714D02*
X00304359D01*
X00301819D01*
Y00223097D01*
X00310707Y00230714D02*
X00308167D01*
X00306898Y00229445D01*
Y00224366D01*
X00308167Y00223097D01*
X00310707D01*
X00311976Y00224366D01*
Y00229445D01*
X00310707Y00230714D01*
X00314515Y00223097D02*
Y00230714D01*
X00318324D01*
X00319594Y00229445D01*
Y00226905D01*
X00318324Y00225636D01*
X00314515D01*
X00334829Y00229445D02*
X00333559Y00230714D01*
X00331020D01*
X00329750Y00229445D01*
Y00228175D01*
X00331020Y00226905D01*
X00333559D01*
X00334829Y00225636D01*
Y00224366D01*
X00333559Y00223097D01*
X00331020D01*
X00329750Y00224366D01*
X00337368Y00230714D02*
X00339907D01*
X00338638D01*
Y00223097D01*
X00337368D01*
X00339907D01*
X00343716Y00230714D02*
Y00223097D01*
X00347525D01*
X00348794Y00224366D01*
Y00229445D01*
X00347525Y00230714D01*
X00343716D01*
X00356412D02*
X00351333D01*
Y00223097D01*
X00356412D01*
X00351333Y00226905D02*
X00353873D01*
X00752346Y00125643D02*
X00751077Y00126912D01*
X00748538D01*
X00747268Y00125643D01*
Y00120564D01*
X00748538Y00119295D01*
X00751077D01*
X00752346Y00120564D01*
Y00123104D01*
X00749807D01*
X00759964Y00126912D02*
X00754885D01*
Y00119295D01*
X00759964D01*
X00754885Y00123104D02*
X00757425D01*
X00762503Y00119295D02*
Y00126912D01*
X00767581Y00119295D01*
Y00126912D01*
X00775199D02*
X00770121D01*
Y00119295D01*
X00775199D01*
X00770121Y00123104D02*
X00772660D01*
X00777738Y00119295D02*
Y00126912D01*
X00781547D01*
X00782816Y00125643D01*
Y00123104D01*
X00781547Y00121834D01*
X00777738D01*
X00780277D02*
X00782816Y00119295D01*
X00785356D02*
Y00124373D01*
X00787895Y00126912D01*
X00790434Y00124373D01*
Y00119295D01*
Y00123104D01*
X00785356D01*
X00792973Y00126912D02*
X00798052D01*
X00795512D01*
Y00119295D01*
X00805669Y00126912D02*
X00800591D01*
Y00119295D01*
X00805669D01*
X00800591Y00123104D02*
X00803130D01*
X00808208Y00126912D02*
Y00119295D01*
X00812017D01*
X00813287Y00120564D01*
Y00125643D01*
X00812017Y00126912D01*
X00808208D01*
X00846296Y00124373D02*
X00847566D01*
Y00123104D01*
X00846296D01*
Y00124373D01*
Y00120564D02*
X00847566D01*
Y00119295D01*
X00846296D01*
Y00120564D01*
X00973199Y00119295D02*
X00968121D01*
X00973199Y00124373D01*
Y00125643D01*
X00971930Y00126912D01*
X00969391D01*
X00968121Y00125643D01*
X00975739Y00119295D02*
X00980817Y00124373D01*
X00983356Y00119295D02*
X00985895D01*
X00984626D01*
Y00126912D01*
X00983356Y00125643D01*
X00993513Y00119295D02*
Y00126912D01*
X00989704Y00123104D01*
X00994782D01*
X00997322Y00119295D02*
X01002400Y00124373D01*
X01010017Y00119295D02*
X01004939D01*
X01010017Y00124373D01*
Y00125643D01*
X01008748Y00126912D01*
X01006209D01*
X01004939Y00125643D01*
X01012557D02*
X01013826Y00126912D01*
X01016365D01*
X01017635Y00125643D01*
Y00120564D01*
X01016365Y00119295D01*
X01013826D01*
X01012557Y00120564D01*
Y00125643D01*
X01025253Y00119295D02*
X01020174D01*
X01025253Y00124373D01*
Y00125643D01*
X01023983Y00126912D01*
X01021444D01*
X01020174Y00125643D01*
X01027792D02*
X01029061Y00126912D01*
X01031600D01*
X01032870Y00125643D01*
Y00124373D01*
X01031600Y00123104D01*
X01030331D01*
X01031600D01*
X01032870Y00121834D01*
Y00120564D01*
X01031600Y00119295D01*
X01029061D01*
X01027792Y00120564D01*
X00322326Y00119295D02*
Y00126912D01*
X00324865Y00124373D01*
X00327404Y00126912D01*
Y00119295D01*
X00335022Y00125643D02*
X00333752Y00126912D01*
X00331213D01*
X00329944Y00125643D01*
Y00120564D01*
X00331213Y00119295D01*
X00333752D01*
X00335022Y00120564D01*
X00337561Y00126912D02*
Y00120564D01*
X00338831Y00119295D01*
X00341370D01*
X00342639Y00120564D01*
Y00126912D01*
X00345179Y00125643D02*
X00346448Y00126912D01*
X00348987D01*
X00350257Y00125643D01*
Y00120564D01*
X00348987Y00119295D01*
X00346448D01*
X00345179Y00120564D01*
Y00125643D01*
X00352796Y00120564D02*
X00354066Y00119295D01*
X00356605D01*
X00357874Y00120564D01*
Y00125643D01*
X00356605Y00126912D01*
X00354066D01*
X00352796Y00125643D01*
Y00124373D01*
X00354066Y00123104D01*
X00357874D01*
X00360414Y00125643D02*
X00361683Y00126912D01*
X00364222D01*
X00365492Y00125643D01*
Y00124373D01*
X00364222Y00123104D01*
X00365492Y00121834D01*
Y00120564D01*
X00364222Y00119295D01*
X00361683D01*
X00360414Y00120564D01*
Y00121834D01*
X00361683Y00123104D01*
X00360414Y00124373D01*
Y00125643D01*
X00361683Y00123104D02*
X00364222D01*
X00368031Y00119295D02*
Y00124373D01*
X00370570Y00126912D01*
X00373110Y00124373D01*
Y00119295D01*
Y00123104D01*
X00368031D01*
X00375649Y00119295D02*
Y00120564D01*
X00376918D01*
Y00119295D01*
X00375649D01*
X00387075Y00125643D02*
X00385806Y00126912D01*
X00383266D01*
X00381997Y00125643D01*
Y00120564D01*
X00383266Y00119295D01*
X00385806D01*
X00387075Y00120564D01*
Y00123104D01*
X00384536D01*
X00389614Y00126912D02*
X00394693D01*
X00392153D01*
Y00119295D01*
X00397232D02*
Y00126912D01*
X00401040D01*
X00402310Y00125643D01*
Y00123104D01*
X00401040Y00121834D01*
X00397232D01*
X01099820Y00223097D02*
Y00230714D01*
X01103629D01*
X01104898Y00229445D01*
Y00226905D01*
X01103629Y00225636D01*
X01099820D01*
X01102359D02*
X01104898Y00223097D01*
X01112516Y00230714D02*
X01107438D01*
Y00223097D01*
X01112516D01*
X01107438Y00226905D02*
X01109977D01*
X01115055Y00230714D02*
Y00225636D01*
X01117594Y00223097D01*
X01120133Y00225636D01*
Y00230714D01*
X01122673Y00228175D02*
X01123942D01*
Y00226905D01*
X01122673D01*
Y00228175D01*
Y00224366D02*
X01123942D01*
Y00223097D01*
X01122673D01*
Y00224366D01*
X01317750Y00229445D02*
X01316481Y00230714D01*
X01313942D01*
X01312672Y00229445D01*
Y00228175D01*
X01313942Y00226905D01*
X01316481D01*
X01317750Y00225636D01*
Y00224366D01*
X01316481Y00223097D01*
X01313942D01*
X01312672Y00224366D01*
X01320289Y00230714D02*
Y00225636D01*
X01322829Y00223097D01*
X01325368Y00225636D01*
Y00230714D01*
X01327907Y00223097D02*
Y00230714D01*
X01332985Y00223097D01*
Y00230714D01*
X01343142Y00223097D02*
Y00230714D01*
X01346951D01*
X01348221Y00229445D01*
Y00226905D01*
X01346951Y00225636D01*
X01343142D01*
X01345681D02*
X01348221Y00223097D01*
X01355838Y00230714D02*
X01350760D01*
Y00223097D01*
X01355838D01*
X01350760Y00226905D02*
X01353299D01*
X01358377Y00230714D02*
Y00225636D01*
X01360916Y00223097D01*
X01363456Y00225636D01*
Y00230714D01*
X01365995Y00228175D02*
X01367264D01*
Y00226905D01*
X01365995D01*
Y00228175D01*
Y00224366D02*
X01367264D01*
Y00223097D01*
X01365995D01*
Y00224366D01*
X01446274Y00230714D02*
X01443735Y00229445D01*
X01441196Y00226905D01*
Y00224366D01*
X01442466Y00223097D01*
X01445005D01*
X01446274Y00224366D01*
Y00225636D01*
X01445005Y00226905D01*
X01441196D01*
X01448813Y00224366D02*
X01450083Y00223097D01*
X01452622D01*
X01453892Y00224366D01*
Y00229445D01*
X01452622Y00230714D01*
X01450083D01*
X01448813Y00229445D01*
Y00228175D01*
X01450083Y00226905D01*
X01453892D01*
X01456431Y00229445D02*
X01457701Y00230714D01*
X01460240D01*
X01461509Y00229445D01*
Y00224366D01*
X01460240Y00223097D01*
X01457701D01*
X01456431Y00224366D01*
Y00229445D01*
X01469127Y00230714D02*
X01464049D01*
Y00226905D01*
X01466588Y00228175D01*
X01467857D01*
X01469127Y00226905D01*
Y00224366D01*
X01467857Y00223097D01*
X01465318D01*
X01464049Y00224366D01*
X01471666Y00229445D02*
X01472936Y00230714D01*
X01475475D01*
X01476745Y00229445D01*
Y00228175D01*
X01475475Y00226905D01*
X01474205D01*
X01475475D01*
X01476745Y00225636D01*
Y00224366D01*
X01475475Y00223097D01*
X01472936D01*
X01471666Y00224366D01*
X01480553Y00223097D02*
Y00229445D01*
Y00226905D01*
X01479284D01*
X01481823D01*
X01480553D01*
Y00229445D01*
X01481823Y00230714D01*
X01486901Y00228175D02*
X01489440D01*
X01490710Y00226905D01*
Y00223097D01*
X01486901D01*
X01485632Y00224366D01*
X01486901Y00225636D01*
X01490710D01*
X01498327Y00230714D02*
X01495788Y00229445D01*
X01493249Y00226905D01*
Y00224366D01*
X01494519Y00223097D01*
X01497058D01*
X01498327Y00224366D01*
Y00225636D01*
X01497058Y00226905D01*
X01493249D01*
X01504675Y00223097D02*
Y00230714D01*
X01500867Y00226905D01*
X01505945D01*
X01508484Y00229445D02*
X01509754Y00230714D01*
X01512293D01*
X01513563Y00229445D01*
Y00228175D01*
X01512293Y00226905D01*
X01513563Y00225636D01*
Y00224366D01*
X01512293Y00223097D01*
X01509754D01*
X01508484Y00224366D01*
Y00225636D01*
X01509754Y00226905D01*
X01508484Y00228175D01*
Y00229445D01*
X01509754Y00226905D02*
X01512293D01*
X01516102Y00224366D02*
X01517371Y00223097D01*
X01519910D01*
X01521180Y00224366D01*
Y00229445D01*
X01519910Y00230714D01*
X01517371D01*
X01516102Y00229445D01*
Y00228175D01*
X01517371Y00226905D01*
X01521180D01*
X01528798Y00228175D02*
X01524989D01*
X01523719Y00226905D01*
Y00224366D01*
X01524989Y00223097D01*
X01528798D01*
X01536415Y00230714D02*
X01533876Y00229445D01*
X01531337Y00226905D01*
Y00224366D01*
X01532606Y00223097D01*
X01535146D01*
X01536415Y00224366D01*
Y00225636D01*
X01535146Y00226905D01*
X01531337D01*
X01544033Y00230714D02*
X01538954D01*
Y00226905D01*
X01541494Y00228175D01*
X01542763D01*
X01544033Y00226905D01*
Y00224366D01*
X01542763Y00223097D01*
X01540224D01*
X01538954Y00224366D01*
X01546572Y00229445D02*
X01547841Y00230714D01*
X01550381D01*
X01551650Y00229445D01*
Y00224366D01*
X01550381Y00223097D01*
X01547841D01*
X01546572Y00224366D01*
Y00229445D01*
X01555459Y00223097D02*
Y00229445D01*
Y00226905D01*
X01554189D01*
X01556729D01*
X01555459D01*
Y00229445D01*
X01556729Y00230714D01*
X01565616D02*
Y00223097D01*
X01561807D01*
X01560537Y00224366D01*
Y00226905D01*
X01561807Y00228175D01*
X01565616D01*
X01568155Y00230714D02*
Y00223097D01*
X01571964D01*
X01573233Y00224366D01*
Y00225636D01*
Y00226905D01*
X01571964Y00228175D01*
X01568155D01*
X01580851Y00230714D02*
X01575773D01*
Y00226905D01*
X01578312Y00228175D01*
X01579581D01*
X01580851Y00226905D01*
Y00224366D01*
X01579581Y00223097D01*
X01577042D01*
X01575773Y00224366D01*
X01584660Y00223097D02*
Y00229445D01*
Y00226905D01*
X01583390D01*
X01585929D01*
X01584660D01*
Y00229445D01*
X01585929Y00230714D01*
X01589738Y00223097D02*
X01592277D01*
X01591008D01*
Y00230714D01*
X01589738Y00229445D01*
X01601164Y00223097D02*
X01596086D01*
X01601164Y00228175D01*
Y00229445D01*
X01599895Y00230714D01*
X01597355D01*
X01596086Y00229445D01*
X01603703Y00224366D02*
X01604973Y00223097D01*
X01607512D01*
X01608782Y00224366D01*
Y00229445D01*
X01607512Y00230714D01*
X01604973D01*
X01603703Y00229445D01*
Y00228175D01*
X01604973Y00226905D01*
X01608782D01*
X01611321Y00224366D02*
X01612591Y00223097D01*
X01615130D01*
X01616399Y00224366D01*
Y00229445D01*
X01615130Y00230714D01*
X01612591D01*
X01611321Y00229445D01*
Y00228175D01*
X01612591Y00226905D01*
X01616399D01*
X01624017Y00230714D02*
Y00223097D01*
X01620208D01*
X01618938Y00224366D01*
Y00226905D01*
X01620208Y00228175D01*
X01624017D01*
X01626556Y00230714D02*
X01631634D01*
Y00229445D01*
X01626556Y00224366D01*
Y00223097D01*
X01634174Y00229445D02*
X01635443Y00230714D01*
X01637982D01*
X01639252Y00229445D01*
Y00224366D01*
X01637982Y00223097D01*
X01635443D01*
X01634174Y00224366D01*
Y00229445D01*
X01641791Y00230714D02*
Y00223097D01*
X01645600D01*
X01646870Y00224366D01*
Y00225636D01*
Y00226905D01*
X01645600Y00228175D01*
X01641791D01*
X01650678D02*
X01653217D01*
X01654487Y00226905D01*
Y00223097D01*
X01650678D01*
X01649409Y00224366D01*
X01650678Y00225636D01*
X01654487D01*
X01660835Y00223097D02*
X01658296D01*
X01657026Y00224366D01*
Y00226905D01*
X01658296Y00228175D01*
X01660835D01*
X01662104Y00226905D01*
Y00225636D01*
X01657026D01*
X01669722Y00230714D02*
X01664644D01*
Y00226905D01*
X01667183Y00228175D01*
X01668452D01*
X01669722Y00226905D01*
Y00224366D01*
X01668452Y00223097D01*
X01665913D01*
X01664644Y00224366D01*
X01672261Y00229445D02*
X01673531Y00230714D01*
X01676070D01*
X01677340Y00229445D01*
Y00228175D01*
X01676070Y00226905D01*
X01677340Y00225636D01*
Y00224366D01*
X01676070Y00223097D01*
X01673531D01*
X01672261Y00224366D01*
Y00225636D01*
X01673531Y00226905D01*
X01672261Y00228175D01*
Y00229445D01*
X01673531Y00226905D02*
X01676070D01*
X01679879Y00224366D02*
X01681148Y00223097D01*
X01683688D01*
X01684957Y00224366D01*
Y00229445D01*
X01683688Y00230714D01*
X01681148D01*
X01679879Y00229445D01*
Y00228175D01*
X01681148Y00226905D01*
X01684957D01*
X01687496Y00230714D02*
X01692575D01*
Y00229445D01*
X01687496Y00224366D01*
Y00223097D01*
X01695114Y00230714D02*
Y00223097D01*
X01698923D01*
X01700192Y00224366D01*
Y00225636D01*
Y00226905D01*
X01698923Y00228175D01*
X01695114D01*
X01702731Y00229445D02*
X01704001Y00230714D01*
X01706540D01*
X01707810Y00229445D01*
Y00228175D01*
X01706540Y00226905D01*
X01705271D01*
X01706540D01*
X01707810Y00225636D01*
Y00224366D01*
X01706540Y00223097D01*
X01704001D01*
X01702731Y00224366D01*
X01715427Y00230714D02*
X01712888Y00229445D01*
X01710349Y00226905D01*
Y00224366D01*
X01711618Y00223097D01*
X01714158D01*
X01715427Y00224366D01*
Y00225636D01*
X01714158Y00226905D01*
X01710349D01*
X01719236Y00223097D02*
Y00229445D01*
Y00226905D01*
X01717966D01*
X01720506D01*
X01719236D01*
Y00229445D01*
X01720506Y00230714D01*
X01724314Y00229445D02*
X01725584Y00230714D01*
X01728123D01*
X01729393Y00229445D01*
Y00228175D01*
X01728123Y00226905D01*
X01729393Y00225636D01*
Y00224366D01*
X01728123Y00223097D01*
X01725584D01*
X01724314Y00224366D01*
Y00225636D01*
X01725584Y00226905D01*
X01724314Y00228175D01*
Y00229445D01*
X01725584Y00226905D02*
X01728123D01*
X01733201Y00228175D02*
X01735741D01*
X01737010Y00226905D01*
Y00223097D01*
X01733201D01*
X01731932Y00224366D01*
X01733201Y00225636D01*
X01737010D01*
X01749706Y00223097D02*
X01747167D01*
Y00230714D01*
X01749706D01*
X01753515D02*
Y00223097D01*
X01758593D01*
X01762402D02*
X01764941D01*
X01766211Y00224366D01*
Y00226905D01*
X01764941Y00228175D01*
X01762402D01*
X01761133Y00226905D01*
Y00224366D01*
X01762402Y00223097D01*
X01773828Y00228175D02*
X01770020D01*
X01768750Y00226905D01*
Y00224366D01*
X01770020Y00223097D01*
X01773828D01*
X01777637Y00228175D02*
X01780176D01*
X01781446Y00226905D01*
Y00223097D01*
X01777637D01*
X01776368Y00224366D01*
X01777637Y00225636D01*
X01781446D01*
X01783985Y00223097D02*
X01786524D01*
X01785255D01*
Y00230714D01*
X01783985D01*
X01790333Y00223097D02*
X01792872D01*
X01791603D01*
Y00230714D01*
X01790333D01*
X01796681Y00228175D02*
Y00224366D01*
X01797951Y00223097D01*
X01801759D01*
Y00221827D01*
X01800490Y00220557D01*
X01799220D01*
X01801759Y00223097D02*
Y00228175D01*
X01811916Y00223097D02*
Y00230714D01*
X01814455Y00228175D01*
X01816994Y00230714D01*
Y00223097D01*
X01820803D02*
X01823342D01*
X01824612Y00224366D01*
Y00226905D01*
X01823342Y00228175D01*
X01820803D01*
X01819534Y00226905D01*
Y00224366D01*
X01820803Y00223097D01*
X01832229Y00230714D02*
Y00223097D01*
X01828421D01*
X01827151Y00224366D01*
Y00226905D01*
X01828421Y00228175D01*
X01832229D01*
X01834769Y00223097D02*
X01837308D01*
X01836038D01*
Y00228175D01*
X01834769D01*
X01842386Y00223097D02*
Y00229445D01*
Y00226905D01*
X01841117D01*
X01843656D01*
X01842386D01*
Y00229445D01*
X01843656Y00230714D01*
X01847465Y00223097D02*
X01850004D01*
X01848734D01*
Y00228175D01*
X01847465D01*
X01857621Y00223097D02*
X01855082D01*
X01853813Y00224366D01*
Y00226905D01*
X01855082Y00228175D01*
X01857621D01*
X01858891Y00226905D01*
Y00225636D01*
X01853813D01*
X01866508Y00230714D02*
Y00223097D01*
X01862700D01*
X01861430Y00224366D01*
Y00226905D01*
X01862700Y00228175D01*
X01866508D01*
X01869048Y00223097D02*
X01871587D01*
Y00230714D01*
X01869048D01*
G54D29*
X00328168Y00825429D02*
D03*
Y00832429D02*
D03*
G54D30*
X00590886Y01466768D02*
D03*
X00577006D02*
D03*
Y01480648D02*
D03*
X00590886D02*
D03*
G54D31*
X00557960Y00858140D02*
D03*
Y00874140D02*
D03*
X00579960D02*
D03*
Y00858140D02*
D03*
G54D32*
X00400973Y00994792D02*
D03*
Y01010792D02*
D03*
X00607780Y00794705D02*
D03*
Y00810704D02*
D03*
X00347726Y00968454D02*
D03*
Y00984454D02*
D03*
X00625815Y00810576D02*
D03*
Y00794576D02*
D03*
X00661628Y00810451D02*
D03*
Y00794451D02*
D03*
X00450088Y01125346D02*
D03*
Y01109346D02*
D03*
Y01071246D02*
D03*
Y01087246D02*
D03*
X00432308Y01109346D02*
D03*
Y01125346D02*
D03*
X00485648Y01125346D02*
D03*
Y01109346D02*
D03*
X00467868Y01109346D02*
D03*
Y01125346D02*
D03*
X00478028Y01071246D02*
D03*
Y01087246D02*
D03*
X00556768Y01125346D02*
D03*
Y01109346D02*
D03*
X00538946Y01071436D02*
D03*
Y01087437D02*
D03*
X00538988Y01109346D02*
D03*
Y01125346D02*
D03*
X00414528Y01125346D02*
D03*
Y01109346D02*
D03*
X00422148Y01071246D02*
D03*
Y01087246D02*
D03*
X00396748Y01109346D02*
D03*
Y01125346D02*
D03*
X00503428Y01109346D02*
D03*
Y01125346D02*
D03*
X00505968Y01071246D02*
D03*
Y01087246D02*
D03*
X00521208Y01125346D02*
D03*
Y01109346D02*
D03*
X00417576Y00994625D02*
D03*
Y01010626D02*
D03*
X00593090Y00735204D02*
D03*
Y00751204D02*
D03*
X00517398Y00735204D02*
D03*
Y00751204D02*
D03*
X00643341Y00810451D02*
D03*
Y00794451D02*
D03*
X00254508Y01564950D02*
D03*
Y01548950D02*
D03*
X00235966Y01548950D02*
D03*
Y01564950D02*
D03*
X00714248Y01381888D02*
D03*
Y01397888D02*
D03*
G54D33*
X00207677Y01273660D02*
D03*
X00223677D02*
D03*
X00482420Y00653542D02*
D03*
X00498420D02*
D03*
X00207892Y01252982D02*
D03*
X00222892D02*
D03*
G54D34*
X00668474Y00662565D02*
D03*
X00738490Y01155782D02*
D03*
Y01197782D02*
D03*
X00222590Y01155966D02*
D03*
Y01197966D02*
D03*
G54D35*
X00680974Y00662565D02*
D03*
G54D36*
X00408538Y01025398D02*
D03*
X00420538D02*
D03*
X00586328Y00903058D02*
D03*
X00598328D02*
D03*
X00586424Y00916949D02*
D03*
X00598424D02*
D03*
X00536860Y00830263D02*
D03*
X00524860D02*
D03*
X00496666Y00830072D02*
D03*
X00508666D02*
D03*
X00600552Y00949960D02*
D03*
X00612552D02*
D03*
X00600552Y00963676D02*
D03*
X00612552D02*
D03*
X00479052Y00882904D02*
D03*
X00491052D02*
D03*
X00421036Y00910404D02*
D03*
X00409036D02*
D03*
X00421036Y00925322D02*
D03*
X00409036D02*
D03*
X00565308Y00839216D02*
D03*
X00553308D02*
D03*
X00524693Y00852843D02*
D03*
X00536693D02*
D03*
X00530860Y00769366D02*
D03*
X00542860D02*
D03*
X00579532Y00769493D02*
D03*
X00567532D02*
D03*
X00482442Y00669610D02*
D03*
X00494442D02*
D03*
X00750474Y01519682D02*
D03*
X00738474D02*
D03*
X00738474Y01504950D02*
D03*
X00750474D02*
D03*
X00667196Y01402588D02*
D03*
X00679196D02*
D03*
X00551276Y01361948D02*
D03*
X00563276D02*
D03*
X00563276Y01375664D02*
D03*
X00551276D02*
D03*
X00563276Y01389380D02*
D03*
X00551276D02*
D03*
X00679100Y01416050D02*
D03*
X00667100D02*
D03*
X00678846Y01429602D02*
D03*
X00666846D02*
D03*
X00667100Y01374902D02*
D03*
X00679100D02*
D03*
X00679004Y01388618D02*
D03*
X00667004D02*
D03*
X00748950Y01366012D02*
D03*
X00736950D02*
D03*
X00666846Y01443482D02*
D03*
X00678846D02*
D03*
X00666688Y01457452D02*
D03*
X00678688D02*
D03*
X00666688Y01471474D02*
D03*
X00678688D02*
D03*
X00678846Y01521460D02*
D03*
X00666846D02*
D03*
X00563276Y01430274D02*
D03*
X00551276D02*
D03*
X00551276Y01416812D02*
D03*
X00563276D02*
D03*
X00551276Y01403350D02*
D03*
X00563276D02*
D03*
X00580074Y01505458D02*
D03*
X00592074D02*
D03*
X00458566Y01373124D02*
D03*
X00470566D02*
D03*
X00458154Y01505966D02*
D03*
X00470154D02*
D03*
X00458312Y01492758D02*
D03*
X00470312D02*
D03*
X00253142Y01489964D02*
D03*
X00241142D02*
D03*
X00340359Y01530595D02*
D03*
X00328359D02*
D03*
X00373380Y01573022D02*
D03*
X00361380D02*
D03*
X00361380Y01589786D02*
D03*
X00373380D02*
D03*
X00470312Y01426718D02*
D03*
X00458312D02*
D03*
X00458406Y01479550D02*
D03*
X00470406D02*
D03*
X00458406Y01466342D02*
D03*
X00470406D02*
D03*
X00458406Y01439926D02*
D03*
X00470406D02*
D03*
X00458312Y01453134D02*
D03*
X00470312D02*
D03*
X00458312Y01413510D02*
D03*
X00470312D02*
D03*
X00458440Y01400302D02*
D03*
X00470440D02*
D03*
X00241142Y01320546D02*
D03*
X00253142D02*
D03*
X00253300Y01334262D02*
D03*
X00241300D02*
D03*
X00241142Y01347724D02*
D03*
X00253142D02*
D03*
X00243174Y01273556D02*
D03*
X00255174D02*
D03*
X00243174Y01252982D02*
D03*
X00255174D02*
D03*
X00253142Y01361186D02*
D03*
X00241142D02*
D03*
X00252888Y01374648D02*
D03*
X00240888D02*
D03*
X00252888Y01388110D02*
D03*
X00240888D02*
D03*
X00253142Y01441858D02*
D03*
X00241142D02*
D03*
X00482942Y01548530D02*
D03*
X00470942D02*
D03*
X00496920Y00852678D02*
D03*
X00508920D02*
D03*
X00626268Y00656980D02*
D03*
X00614268D02*
D03*
X00253142Y01307084D02*
D03*
X00241142D02*
D03*
X00253142Y01503426D02*
D03*
X00241142D02*
D03*
X00240888Y01401826D02*
D03*
X00252888D02*
D03*
G54D37*
X00614725Y00933196D02*
D03*
X00604475D02*
D03*
G54D38*
X00620268Y01165068D02*
D03*
Y01205768D02*
D03*
X00632968Y01165068D02*
D03*
X00645668D02*
D03*
X00658368D02*
D03*
X00671068D02*
D03*
X00632968Y01205768D02*
D03*
X00645668D02*
D03*
X00658368D02*
D03*
X00671068D02*
D03*
X00620268Y01249396D02*
D03*
Y01290096D02*
D03*
X00632968Y01249396D02*
D03*
X00645668D02*
D03*
X00658368D02*
D03*
X00671068D02*
D03*
X00632968Y01290096D02*
D03*
X00645668D02*
D03*
X00658368D02*
D03*
X00671068D02*
D03*
G54D39*
X00559158Y01001938D02*
D03*
Y00996938D02*
D03*
Y00991938D02*
D03*
Y00986938D02*
D03*
Y00981938D02*
D03*
Y00976938D02*
D03*
Y00971938D02*
D03*
Y00966938D02*
D03*
Y00961938D02*
D03*
Y00956938D02*
D03*
Y00951938D02*
D03*
Y00946938D02*
D03*
Y00941938D02*
D03*
Y00936938D02*
D03*
Y00931938D02*
D03*
Y00926938D02*
D03*
X00445158D02*
D03*
Y00931938D02*
D03*
Y00936938D02*
D03*
Y00941938D02*
D03*
Y00946938D02*
D03*
Y00951938D02*
D03*
Y00956938D02*
D03*
Y00961938D02*
D03*
Y00966938D02*
D03*
Y00971938D02*
D03*
Y00976938D02*
D03*
Y00981938D02*
D03*
Y00986938D02*
D03*
Y00991938D02*
D03*
Y00996938D02*
D03*
Y01001938D02*
D03*
G54D40*
X00539658Y00907438D02*
D03*
X00534658D02*
D03*
X00529658D02*
D03*
X00524658D02*
D03*
X00519658D02*
D03*
X00514658D02*
D03*
X00509658D02*
D03*
X00504658D02*
D03*
X00499658D02*
D03*
X00494658D02*
D03*
X00489658D02*
D03*
X00484658D02*
D03*
X00479658D02*
D03*
X00474658D02*
D03*
X00469658D02*
D03*
X00464658D02*
D03*
Y01021438D02*
D03*
X00469658D02*
D03*
X00474658D02*
D03*
X00479658D02*
D03*
X00484658D02*
D03*
X00489658D02*
D03*
X00494658D02*
D03*
X00499658D02*
D03*
X00504658D02*
D03*
X00509658D02*
D03*
X00514658D02*
D03*
X00519658D02*
D03*
X00524658D02*
D03*
X00529658D02*
D03*
X00534658D02*
D03*
X00539658D02*
D03*
G54D41*
X00398893Y01516876D02*
D03*
Y01504876D02*
D03*
X00522539Y01075415D02*
D03*
Y01087415D02*
D03*
X00366014Y00985331D02*
D03*
Y00973331D02*
D03*
X00614268Y00873918D02*
D03*
Y00861918D02*
D03*
X00551688Y00822420D02*
D03*
Y00810419D02*
D03*
X00583438Y00950660D02*
D03*
Y00962660D02*
D03*
X00598678Y00861918D02*
D03*
Y00873918D02*
D03*
X00244094Y01167892D02*
D03*
Y01179892D02*
D03*
X00423164Y00672496D02*
D03*
Y00660496D02*
D03*
X00406146Y00672338D02*
D03*
Y00660338D02*
D03*
X00389168Y00672351D02*
D03*
Y00660351D02*
D03*
X00424688Y01585518D02*
D03*
Y01573518D02*
D03*
X00624586Y01475994D02*
D03*
Y01487994D02*
D03*
X00695706Y01381856D02*
D03*
Y01393856D02*
D03*
X00598170Y01428400D02*
D03*
Y01416400D02*
D03*
X00582422Y01428236D02*
D03*
Y01416236D02*
D03*
X00385064Y01504792D02*
D03*
Y01516792D02*
D03*
X00371060Y01516792D02*
D03*
Y01504792D02*
D03*
X00412496Y01504792D02*
D03*
Y01516792D02*
D03*
X00303460Y01501490D02*
D03*
Y01513490D02*
D03*
X00416306Y01298194D02*
D03*
Y01286194D02*
D03*
X00364998Y01298513D02*
D03*
Y01286513D02*
D03*
X00321564Y01298352D02*
D03*
Y01286352D02*
D03*
X00307213Y01298352D02*
D03*
Y01286352D02*
D03*
X00350520Y01298513D02*
D03*
Y01286513D02*
D03*
X00335888Y01298513D02*
D03*
Y01286513D02*
D03*
X00224536Y01456120D02*
D03*
Y01468120D02*
D03*
Y01484918D02*
D03*
Y01496918D02*
D03*
X00624586Y01446530D02*
D03*
Y01458530D02*
D03*
Y01416146D02*
D03*
Y01428146D02*
D03*
G54D42*
X00756490Y01143032D02*
D03*
X00756490Y01210532D02*
D03*
X00204590Y01143216D02*
D03*
X00204590Y01210716D02*
D03*
G54D43*
X00400973Y01274716D02*
D03*
Y01281216D02*
D03*
Y01287716D02*
D03*
X00378473D02*
D03*
Y01274716D02*
D03*
G54D44*
X00328422Y00789484D02*
D03*
Y00803985D02*
D03*
G54D45*
X00470592Y01566518D02*
D03*
Y01573018D02*
D03*
Y01579518D02*
D03*
Y01586018D02*
D03*
X00442592D02*
D03*
Y01579518D02*
D03*
Y01573018D02*
D03*
Y01566518D02*
D03*
G54D46*
X00291060Y01326858D02*
D03*
X00295060D02*
D03*
X00299060D02*
D03*
X00303060D02*
D03*
X00307060D02*
D03*
X00311060D02*
D03*
X00315060D02*
D03*
X00319060D02*
D03*
X00323060D02*
D03*
X00327060D02*
D03*
X00331060D02*
D03*
X00335060D02*
D03*
X00339060D02*
D03*
X00343060D02*
D03*
X00347060D02*
D03*
X00351060D02*
D03*
X00355060D02*
D03*
X00359060D02*
D03*
X00363060D02*
D03*
X00367060D02*
D03*
X00371060D02*
D03*
X00375060D02*
D03*
X00379060D02*
D03*
X00383060D02*
D03*
X00387060D02*
D03*
X00391060D02*
D03*
X00395060D02*
D03*
X00399060D02*
D03*
X00403060D02*
D03*
X00407060D02*
D03*
X00411060D02*
D03*
X00415060D02*
D03*
Y01480858D02*
D03*
X00411060D02*
D03*
X00407060D02*
D03*
X00403060D02*
D03*
X00399060D02*
D03*
X00395060D02*
D03*
X00391060D02*
D03*
X00387060D02*
D03*
X00383060D02*
D03*
X00379060D02*
D03*
X00375060D02*
D03*
X00371060D02*
D03*
X00367060D02*
D03*
X00363060D02*
D03*
X00359060D02*
D03*
X00355060D02*
D03*
X00351060D02*
D03*
X00347060D02*
D03*
X00343060D02*
D03*
X00339060D02*
D03*
X00335060D02*
D03*
X00331060D02*
D03*
X00327060D02*
D03*
X00323060D02*
D03*
X00319060D02*
D03*
X00315060D02*
D03*
X00311060D02*
D03*
X00307060D02*
D03*
X00303060D02*
D03*
X00299060D02*
D03*
X00295060D02*
D03*
X00291060D02*
D03*
G54D47*
X00430060Y01341858D02*
D03*
Y01345858D02*
D03*
Y01349858D02*
D03*
Y01353858D02*
D03*
Y01357858D02*
D03*
Y01361858D02*
D03*
Y01365858D02*
D03*
Y01369858D02*
D03*
Y01373858D02*
D03*
Y01377858D02*
D03*
Y01381858D02*
D03*
Y01385858D02*
D03*
Y01389858D02*
D03*
Y01393858D02*
D03*
Y01397858D02*
D03*
Y01401858D02*
D03*
Y01405858D02*
D03*
Y01409858D02*
D03*
Y01413858D02*
D03*
Y01417858D02*
D03*
Y01421858D02*
D03*
Y01425858D02*
D03*
Y01429858D02*
D03*
Y01433858D02*
D03*
Y01437858D02*
D03*
Y01441858D02*
D03*
Y01445858D02*
D03*
Y01449858D02*
D03*
Y01453858D02*
D03*
Y01457858D02*
D03*
Y01461858D02*
D03*
Y01465858D02*
D03*
X00276060D02*
D03*
Y01461858D02*
D03*
Y01457858D02*
D03*
Y01453858D02*
D03*
Y01449858D02*
D03*
Y01445858D02*
D03*
Y01441858D02*
D03*
Y01437858D02*
D03*
Y01433858D02*
D03*
Y01429858D02*
D03*
Y01425858D02*
D03*
Y01421858D02*
D03*
Y01417858D02*
D03*
Y01413858D02*
D03*
Y01409858D02*
D03*
Y01405858D02*
D03*
Y01401858D02*
D03*
Y01397858D02*
D03*
Y01393858D02*
D03*
Y01389858D02*
D03*
Y01385858D02*
D03*
Y01381858D02*
D03*
Y01377858D02*
D03*
Y01373858D02*
D03*
Y01369858D02*
D03*
Y01365858D02*
D03*
Y01361858D02*
D03*
Y01357858D02*
D03*
Y01353858D02*
D03*
Y01349858D02*
D03*
Y01345858D02*
D03*
Y01341858D02*
D03*
G54D48*
X00335408Y00722374D02*
D03*
X00319408D02*
D03*
X00335914Y00647192D02*
D03*
X00319914D02*
D03*
X00351915Y00795274D02*
D03*
X00367915D02*
D03*
X00420496Y00942340D02*
D03*
X00404496D02*
D03*
X00420750Y00959866D02*
D03*
X00404750D02*
D03*
X00575954Y01130943D02*
D03*
X00591954D02*
D03*
X00591867Y01113219D02*
D03*
X00575867D02*
D03*
X00487552Y00867664D02*
D03*
X00471552D02*
D03*
X00404750Y00978154D02*
D03*
X00420750D02*
D03*
X00564134Y00646684D02*
D03*
X00580134D02*
D03*
X00546734D02*
D03*
X00530734D02*
D03*
X00615570Y00672084D02*
D03*
X00631570D02*
D03*
X00335534Y00704340D02*
D03*
X00319534D02*
D03*
X00335534Y00686560D02*
D03*
X00319534D02*
D03*
X00274956Y00725168D02*
D03*
X00258956D02*
D03*
X00319534Y00668780D02*
D03*
X00335534D02*
D03*
X00205490Y00692656D02*
D03*
X00221490D02*
D03*
X00221490Y00674876D02*
D03*
X00205490D02*
D03*
X00749680Y01536412D02*
D03*
X00733680D02*
D03*
X00733426Y01424432D02*
D03*
X00749426D02*
D03*
X00680846Y01487020D02*
D03*
X00664846D02*
D03*
X00372982Y01552438D02*
D03*
X00356982D02*
D03*
X00367858Y00831977D02*
D03*
X00351858D02*
D03*
X00367915Y00813318D02*
D03*
X00351915D02*
D03*
G54D49*
X00529693Y00871220D02*
D03*
X00504693D02*
D03*
G54D50*
X00708944Y01324356D02*
D03*
X00578424Y01597208D02*
D03*
X00213233Y00732028D02*
D03*
G54D51*
X00453282Y00658484D02*
D03*
Y00672984D02*
D03*
X00439782Y00658484D02*
D03*
Y00672984D02*
D03*
G54D52*
X00454032Y00665734D02*
D03*
X00439032D02*
D03*
G54D53*
X00296674Y00663700D02*
D03*
Y00676400D02*
D03*
Y00689100D02*
D03*
Y00701800D02*
D03*
X00244174Y00663700D02*
D03*
Y00676400D02*
D03*
Y00689100D02*
D03*
Y00701800D02*
D03*
G54D54*
X00752450Y01378136D02*
D03*
X00733450D02*
D03*
Y01405636D02*
D03*
X00742950D02*
D03*
X00752450D02*
D03*
G54D55*
X00694136Y01555750D02*
D03*
X00720136D02*
D03*
X00579586Y01525162D02*
D03*
X00605587D02*
D03*
G54D56*
X00733314Y01445768D02*
D03*
X00754314D02*
D03*
G54D57*
X00735584Y01485392D02*
D03*
Y01472392D02*
D03*
X00754584Y01478892D02*
D03*
X00695858Y01534344D02*
D03*
Y01521344D02*
D03*
X00714858Y01527844D02*
D03*
X00695604Y01452268D02*
D03*
Y01439268D02*
D03*
X00714604Y01445768D02*
D03*
Y01485392D02*
D03*
X00695604Y01478892D02*
D03*
Y01491892D02*
D03*
G54D58*
X00564946Y01483458D02*
D03*
Y01476958D02*
D03*
Y01470458D02*
D03*
Y01463958D02*
D03*
X00602946D02*
D03*
Y01470458D02*
D03*
Y01476958D02*
D03*
Y01483458D02*
D03*
G54D59*
X00574196Y01454708D02*
D03*
X00580696D02*
D03*
X00587196D02*
D03*
X00593696D02*
D03*
Y01492708D02*
D03*
X00587196D02*
D03*
X00580696D02*
D03*
X00574196D02*
D03*
G54D60*
X00318438Y01501268D02*
D03*
X00340438D02*
D03*
X00318438Y01517268D02*
D03*
X00340438D02*
D03*
G54D61*
X00291926Y01547412D02*
D03*
G54D62*
X00296926Y01547162D02*
D03*
X00301926D02*
D03*
Y01553162D02*
D03*
X00296926D02*
D03*
X00291926D02*
D03*
G54D63*
X00633558Y01590660D02*
D03*
X00675558D02*
D03*
G54D64*
X00620808Y01608660D02*
D03*
X00688308Y01608660D02*
D03*
G54D65*
X00315791Y01574108D02*
D03*
X00309291Y01574108D02*
D03*
X00302791Y01574108D02*
D03*
X00296291Y01574108D02*
D03*
X00289791Y01574108D02*
D03*
G54D66*
X00312166Y01600708D02*
D03*
X00293416D02*
D03*
G54D67*
X00327416Y01577708D02*
D03*
X00278166D02*
D03*
G54D68*
X00574022Y01190471D02*
D03*
Y01203471D02*
D03*
X00574183Y01269865D02*
D03*
Y01256865D02*
D03*
G54D69*
X00580772Y01191971D02*
D03*
Y01201971D02*
D03*
X00567272D02*
D03*
Y01191971D02*
D03*
X00567433Y01268365D02*
D03*
Y01258365D02*
D03*
X00580933D02*
D03*
Y01268365D02*
D03*
G54D70*
X00580772Y01196971D02*
D03*
X00567272D02*
D03*
X00567433Y01263365D02*
D03*
X00580933D02*
D03*
M02*
