%TF.GenerationSoftware,KiCad,Pcbnew,9.0.7*%
%TF.CreationDate,2026-02-10T20:50:10+08:00*%
%TF.ProjectId,260209-MSPM0-phil165,32363032-3039-42d4-9d53-504d302d7068,v0.1*%
%TF.SameCoordinates,PX2bde780PY4692680*%
%TF.FileFunction,Legend,Top*%
%TF.FilePolarity,Positive*%
%FSLAX46Y46*%
G04 Gerber Fmt 4.6, Leading zero omitted, Abs format (unit mm)*
G04 Created by KiCad (PCBNEW 9.0.7) date 2026-02-10 20:50:10*
%MOMM*%
%LPD*%
G01*
G04 APERTURE LIST*
%ADD10C,0.100000*%
%ADD11C,0.150000*%
%ADD12C,0.120000*%
G04 APERTURE END LIST*
D10*
X9903884Y25927581D02*
X9903884Y26927581D01*
X9903884Y26927581D02*
X10237217Y26213296D01*
X10237217Y26213296D02*
X10570550Y26927581D01*
X10570550Y26927581D02*
X10570550Y25927581D01*
X10999122Y25975200D02*
X11141979Y25927581D01*
X11141979Y25927581D02*
X11380074Y25927581D01*
X11380074Y25927581D02*
X11475312Y25975200D01*
X11475312Y25975200D02*
X11522931Y26022820D01*
X11522931Y26022820D02*
X11570550Y26118058D01*
X11570550Y26118058D02*
X11570550Y26213296D01*
X11570550Y26213296D02*
X11522931Y26308534D01*
X11522931Y26308534D02*
X11475312Y26356153D01*
X11475312Y26356153D02*
X11380074Y26403772D01*
X11380074Y26403772D02*
X11189598Y26451391D01*
X11189598Y26451391D02*
X11094360Y26499010D01*
X11094360Y26499010D02*
X11046741Y26546629D01*
X11046741Y26546629D02*
X10999122Y26641867D01*
X10999122Y26641867D02*
X10999122Y26737105D01*
X10999122Y26737105D02*
X11046741Y26832343D01*
X11046741Y26832343D02*
X11094360Y26879962D01*
X11094360Y26879962D02*
X11189598Y26927581D01*
X11189598Y26927581D02*
X11427693Y26927581D01*
X11427693Y26927581D02*
X11570550Y26879962D01*
X11999122Y25927581D02*
X11999122Y26927581D01*
X11999122Y26927581D02*
X12380074Y26927581D01*
X12380074Y26927581D02*
X12475312Y26879962D01*
X12475312Y26879962D02*
X12522931Y26832343D01*
X12522931Y26832343D02*
X12570550Y26737105D01*
X12570550Y26737105D02*
X12570550Y26594248D01*
X12570550Y26594248D02*
X12522931Y26499010D01*
X12522931Y26499010D02*
X12475312Y26451391D01*
X12475312Y26451391D02*
X12380074Y26403772D01*
X12380074Y26403772D02*
X11999122Y26403772D01*
X12999122Y25927581D02*
X12999122Y26927581D01*
X12999122Y26927581D02*
X13332455Y26213296D01*
X13332455Y26213296D02*
X13665788Y26927581D01*
X13665788Y26927581D02*
X13665788Y25927581D01*
X14332455Y26927581D02*
X14427693Y26927581D01*
X14427693Y26927581D02*
X14522931Y26879962D01*
X14522931Y26879962D02*
X14570550Y26832343D01*
X14570550Y26832343D02*
X14618169Y26737105D01*
X14618169Y26737105D02*
X14665788Y26546629D01*
X14665788Y26546629D02*
X14665788Y26308534D01*
X14665788Y26308534D02*
X14618169Y26118058D01*
X14618169Y26118058D02*
X14570550Y26022820D01*
X14570550Y26022820D02*
X14522931Y25975200D01*
X14522931Y25975200D02*
X14427693Y25927581D01*
X14427693Y25927581D02*
X14332455Y25927581D01*
X14332455Y25927581D02*
X14237217Y25975200D01*
X14237217Y25975200D02*
X14189598Y26022820D01*
X14189598Y26022820D02*
X14141979Y26118058D01*
X14141979Y26118058D02*
X14094360Y26308534D01*
X14094360Y26308534D02*
X14094360Y26546629D01*
X14094360Y26546629D02*
X14141979Y26737105D01*
X14141979Y26737105D02*
X14189598Y26832343D01*
X14189598Y26832343D02*
X14237217Y26879962D01*
X14237217Y26879962D02*
X14332455Y26927581D01*
X15808646Y25975200D02*
X15951503Y25927581D01*
X15951503Y25927581D02*
X16189598Y25927581D01*
X16189598Y25927581D02*
X16284836Y25975200D01*
X16284836Y25975200D02*
X16332455Y26022820D01*
X16332455Y26022820D02*
X16380074Y26118058D01*
X16380074Y26118058D02*
X16380074Y26213296D01*
X16380074Y26213296D02*
X16332455Y26308534D01*
X16332455Y26308534D02*
X16284836Y26356153D01*
X16284836Y26356153D02*
X16189598Y26403772D01*
X16189598Y26403772D02*
X15999122Y26451391D01*
X15999122Y26451391D02*
X15903884Y26499010D01*
X15903884Y26499010D02*
X15856265Y26546629D01*
X15856265Y26546629D02*
X15808646Y26641867D01*
X15808646Y26641867D02*
X15808646Y26737105D01*
X15808646Y26737105D02*
X15856265Y26832343D01*
X15856265Y26832343D02*
X15903884Y26879962D01*
X15903884Y26879962D02*
X15999122Y26927581D01*
X15999122Y26927581D02*
X16237217Y26927581D01*
X16237217Y26927581D02*
X16380074Y26879962D01*
X17189598Y25975200D02*
X17094360Y25927581D01*
X17094360Y25927581D02*
X16903884Y25927581D01*
X16903884Y25927581D02*
X16808646Y25975200D01*
X16808646Y25975200D02*
X16761027Y26070439D01*
X16761027Y26070439D02*
X16761027Y26451391D01*
X16761027Y26451391D02*
X16808646Y26546629D01*
X16808646Y26546629D02*
X16903884Y26594248D01*
X16903884Y26594248D02*
X17094360Y26594248D01*
X17094360Y26594248D02*
X17189598Y26546629D01*
X17189598Y26546629D02*
X17237217Y26451391D01*
X17237217Y26451391D02*
X17237217Y26356153D01*
X17237217Y26356153D02*
X16761027Y26260915D01*
X17665789Y26594248D02*
X17665789Y25927581D01*
X17665789Y26499010D02*
X17713408Y26546629D01*
X17713408Y26546629D02*
X17808646Y26594248D01*
X17808646Y26594248D02*
X17951503Y26594248D01*
X17951503Y26594248D02*
X18046741Y26546629D01*
X18046741Y26546629D02*
X18094360Y26451391D01*
X18094360Y26451391D02*
X18094360Y25927581D01*
X18522932Y25975200D02*
X18618170Y25927581D01*
X18618170Y25927581D02*
X18808646Y25927581D01*
X18808646Y25927581D02*
X18903884Y25975200D01*
X18903884Y25975200D02*
X18951503Y26070439D01*
X18951503Y26070439D02*
X18951503Y26118058D01*
X18951503Y26118058D02*
X18903884Y26213296D01*
X18903884Y26213296D02*
X18808646Y26260915D01*
X18808646Y26260915D02*
X18665789Y26260915D01*
X18665789Y26260915D02*
X18570551Y26308534D01*
X18570551Y26308534D02*
X18522932Y26403772D01*
X18522932Y26403772D02*
X18522932Y26451391D01*
X18522932Y26451391D02*
X18570551Y26546629D01*
X18570551Y26546629D02*
X18665789Y26594248D01*
X18665789Y26594248D02*
X18808646Y26594248D01*
X18808646Y26594248D02*
X18903884Y26546629D01*
X19522932Y25927581D02*
X19427694Y25975200D01*
X19427694Y25975200D02*
X19380075Y26022820D01*
X19380075Y26022820D02*
X19332456Y26118058D01*
X19332456Y26118058D02*
X19332456Y26403772D01*
X19332456Y26403772D02*
X19380075Y26499010D01*
X19380075Y26499010D02*
X19427694Y26546629D01*
X19427694Y26546629D02*
X19522932Y26594248D01*
X19522932Y26594248D02*
X19665789Y26594248D01*
X19665789Y26594248D02*
X19761027Y26546629D01*
X19761027Y26546629D02*
X19808646Y26499010D01*
X19808646Y26499010D02*
X19856265Y26403772D01*
X19856265Y26403772D02*
X19856265Y26118058D01*
X19856265Y26118058D02*
X19808646Y26022820D01*
X19808646Y26022820D02*
X19761027Y25975200D01*
X19761027Y25975200D02*
X19665789Y25927581D01*
X19665789Y25927581D02*
X19522932Y25927581D01*
X20284837Y25927581D02*
X20284837Y26594248D01*
X20284837Y26403772D02*
X20332456Y26499010D01*
X20332456Y26499010D02*
X20380075Y26546629D01*
X20380075Y26546629D02*
X20475313Y26594248D01*
X20475313Y26594248D02*
X20570551Y26594248D01*
X20951504Y25975200D02*
X20951504Y25927581D01*
X20951504Y25927581D02*
X20903885Y25832343D01*
X20903885Y25832343D02*
X20856266Y25784724D01*
X22046742Y26594248D02*
X22284837Y25927581D01*
X22284837Y25927581D02*
X22522932Y26594248D01*
X23094361Y26927581D02*
X23189599Y26927581D01*
X23189599Y26927581D02*
X23284837Y26879962D01*
X23284837Y26879962D02*
X23332456Y26832343D01*
X23332456Y26832343D02*
X23380075Y26737105D01*
X23380075Y26737105D02*
X23427694Y26546629D01*
X23427694Y26546629D02*
X23427694Y26308534D01*
X23427694Y26308534D02*
X23380075Y26118058D01*
X23380075Y26118058D02*
X23332456Y26022820D01*
X23332456Y26022820D02*
X23284837Y25975200D01*
X23284837Y25975200D02*
X23189599Y25927581D01*
X23189599Y25927581D02*
X23094361Y25927581D01*
X23094361Y25927581D02*
X22999123Y25975200D01*
X22999123Y25975200D02*
X22951504Y26022820D01*
X22951504Y26022820D02*
X22903885Y26118058D01*
X22903885Y26118058D02*
X22856266Y26308534D01*
X22856266Y26308534D02*
X22856266Y26546629D01*
X22856266Y26546629D02*
X22903885Y26737105D01*
X22903885Y26737105D02*
X22951504Y26832343D01*
X22951504Y26832343D02*
X22999123Y26879962D01*
X22999123Y26879962D02*
X23094361Y26927581D01*
X23856266Y26022820D02*
X23903885Y25975200D01*
X23903885Y25975200D02*
X23856266Y25927581D01*
X23856266Y25927581D02*
X23808647Y25975200D01*
X23808647Y25975200D02*
X23856266Y26022820D01*
X23856266Y26022820D02*
X23856266Y25927581D01*
X24856265Y25927581D02*
X24284837Y25927581D01*
X24570551Y25927581D02*
X24570551Y26927581D01*
X24570551Y26927581D02*
X24475313Y26784724D01*
X24475313Y26784724D02*
X24380075Y26689486D01*
X24380075Y26689486D02*
X24284837Y26641867D01*
X25332456Y25975200D02*
X25332456Y25927581D01*
X25332456Y25927581D02*
X25284837Y25832343D01*
X25284837Y25832343D02*
X25237218Y25784724D01*
X26475313Y26832343D02*
X26522932Y26879962D01*
X26522932Y26879962D02*
X26618170Y26927581D01*
X26618170Y26927581D02*
X26856265Y26927581D01*
X26856265Y26927581D02*
X26951503Y26879962D01*
X26951503Y26879962D02*
X26999122Y26832343D01*
X26999122Y26832343D02*
X27046741Y26737105D01*
X27046741Y26737105D02*
X27046741Y26641867D01*
X27046741Y26641867D02*
X26999122Y26499010D01*
X26999122Y26499010D02*
X26427694Y25927581D01*
X26427694Y25927581D02*
X27046741Y25927581D01*
X27903884Y26927581D02*
X27713408Y26927581D01*
X27713408Y26927581D02*
X27618170Y26879962D01*
X27618170Y26879962D02*
X27570551Y26832343D01*
X27570551Y26832343D02*
X27475313Y26689486D01*
X27475313Y26689486D02*
X27427694Y26499010D01*
X27427694Y26499010D02*
X27427694Y26118058D01*
X27427694Y26118058D02*
X27475313Y26022820D01*
X27475313Y26022820D02*
X27522932Y25975200D01*
X27522932Y25975200D02*
X27618170Y25927581D01*
X27618170Y25927581D02*
X27808646Y25927581D01*
X27808646Y25927581D02*
X27903884Y25975200D01*
X27903884Y25975200D02*
X27951503Y26022820D01*
X27951503Y26022820D02*
X27999122Y26118058D01*
X27999122Y26118058D02*
X27999122Y26356153D01*
X27999122Y26356153D02*
X27951503Y26451391D01*
X27951503Y26451391D02*
X27903884Y26499010D01*
X27903884Y26499010D02*
X27808646Y26546629D01*
X27808646Y26546629D02*
X27618170Y26546629D01*
X27618170Y26546629D02*
X27522932Y26499010D01*
X27522932Y26499010D02*
X27475313Y26451391D01*
X27475313Y26451391D02*
X27427694Y26356153D01*
X29141979Y26975200D02*
X28284837Y25689486D01*
X29665789Y26927581D02*
X29761027Y26927581D01*
X29761027Y26927581D02*
X29856265Y26879962D01*
X29856265Y26879962D02*
X29903884Y26832343D01*
X29903884Y26832343D02*
X29951503Y26737105D01*
X29951503Y26737105D02*
X29999122Y26546629D01*
X29999122Y26546629D02*
X29999122Y26308534D01*
X29999122Y26308534D02*
X29951503Y26118058D01*
X29951503Y26118058D02*
X29903884Y26022820D01*
X29903884Y26022820D02*
X29856265Y25975200D01*
X29856265Y25975200D02*
X29761027Y25927581D01*
X29761027Y25927581D02*
X29665789Y25927581D01*
X29665789Y25927581D02*
X29570551Y25975200D01*
X29570551Y25975200D02*
X29522932Y26022820D01*
X29522932Y26022820D02*
X29475313Y26118058D01*
X29475313Y26118058D02*
X29427694Y26308534D01*
X29427694Y26308534D02*
X29427694Y26546629D01*
X29427694Y26546629D02*
X29475313Y26737105D01*
X29475313Y26737105D02*
X29522932Y26832343D01*
X29522932Y26832343D02*
X29570551Y26879962D01*
X29570551Y26879962D02*
X29665789Y26927581D01*
X30380075Y26832343D02*
X30427694Y26879962D01*
X30427694Y26879962D02*
X30522932Y26927581D01*
X30522932Y26927581D02*
X30761027Y26927581D01*
X30761027Y26927581D02*
X30856265Y26879962D01*
X30856265Y26879962D02*
X30903884Y26832343D01*
X30903884Y26832343D02*
X30951503Y26737105D01*
X30951503Y26737105D02*
X30951503Y26641867D01*
X30951503Y26641867D02*
X30903884Y26499010D01*
X30903884Y26499010D02*
X30332456Y25927581D01*
X30332456Y25927581D02*
X30951503Y25927581D01*
X32094360Y26975200D02*
X31237218Y25689486D01*
X32951503Y25927581D02*
X32380075Y25927581D01*
X32665789Y25927581D02*
X32665789Y26927581D01*
X32665789Y26927581D02*
X32570551Y26784724D01*
X32570551Y26784724D02*
X32475313Y26689486D01*
X32475313Y26689486D02*
X32380075Y26641867D01*
X33570551Y26927581D02*
X33665789Y26927581D01*
X33665789Y26927581D02*
X33761027Y26879962D01*
X33761027Y26879962D02*
X33808646Y26832343D01*
X33808646Y26832343D02*
X33856265Y26737105D01*
X33856265Y26737105D02*
X33903884Y26546629D01*
X33903884Y26546629D02*
X33903884Y26308534D01*
X33903884Y26308534D02*
X33856265Y26118058D01*
X33856265Y26118058D02*
X33808646Y26022820D01*
X33808646Y26022820D02*
X33761027Y25975200D01*
X33761027Y25975200D02*
X33665789Y25927581D01*
X33665789Y25927581D02*
X33570551Y25927581D01*
X33570551Y25927581D02*
X33475313Y25975200D01*
X33475313Y25975200D02*
X33427694Y26022820D01*
X33427694Y26022820D02*
X33380075Y26118058D01*
X33380075Y26118058D02*
X33332456Y26308534D01*
X33332456Y26308534D02*
X33332456Y26546629D01*
X33332456Y26546629D02*
X33380075Y26737105D01*
X33380075Y26737105D02*
X33427694Y26832343D01*
X33427694Y26832343D02*
X33475313Y26879962D01*
X33475313Y26879962D02*
X33570551Y26927581D01*
X34380075Y25975200D02*
X34380075Y25927581D01*
X34380075Y25927581D02*
X34332456Y25832343D01*
X34332456Y25832343D02*
X34284837Y25784724D01*
X35570551Y25927581D02*
X35570551Y26927581D01*
X35570551Y26546629D02*
X35665789Y26594248D01*
X35665789Y26594248D02*
X35856265Y26594248D01*
X35856265Y26594248D02*
X35951503Y26546629D01*
X35951503Y26546629D02*
X35999122Y26499010D01*
X35999122Y26499010D02*
X36046741Y26403772D01*
X36046741Y26403772D02*
X36046741Y26118058D01*
X36046741Y26118058D02*
X35999122Y26022820D01*
X35999122Y26022820D02*
X35951503Y25975200D01*
X35951503Y25975200D02*
X35856265Y25927581D01*
X35856265Y25927581D02*
X35665789Y25927581D01*
X35665789Y25927581D02*
X35570551Y25975200D01*
X36380075Y26594248D02*
X36618170Y25927581D01*
X36856265Y26594248D02*
X36618170Y25927581D01*
X36618170Y25927581D02*
X36522932Y25689486D01*
X36522932Y25689486D02*
X36475313Y25641867D01*
X36475313Y25641867D02*
X36380075Y25594248D01*
X37999123Y25927581D02*
X37999123Y26927581D01*
X38427694Y25927581D02*
X38427694Y26451391D01*
X38427694Y26451391D02*
X38380075Y26546629D01*
X38380075Y26546629D02*
X38284837Y26594248D01*
X38284837Y26594248D02*
X38141980Y26594248D01*
X38141980Y26594248D02*
X38046742Y26546629D01*
X38046742Y26546629D02*
X37999123Y26499010D01*
X38903885Y26594248D02*
X38903885Y25737105D01*
X38903885Y25737105D02*
X38856266Y25641867D01*
X38856266Y25641867D02*
X38761028Y25594248D01*
X38761028Y25594248D02*
X38713409Y25594248D01*
X38903885Y26927581D02*
X38856266Y26879962D01*
X38856266Y26879962D02*
X38903885Y26832343D01*
X38903885Y26832343D02*
X38951504Y26879962D01*
X38951504Y26879962D02*
X38903885Y26927581D01*
X38903885Y26927581D02*
X38903885Y26832343D01*
X39380075Y25927581D02*
X39380075Y26594248D01*
X39380075Y26927581D02*
X39332456Y26879962D01*
X39332456Y26879962D02*
X39380075Y26832343D01*
X39380075Y26832343D02*
X39427694Y26879962D01*
X39427694Y26879962D02*
X39380075Y26927581D01*
X39380075Y26927581D02*
X39380075Y26832343D01*
X39856265Y26594248D02*
X39856265Y25927581D01*
X39856265Y26499010D02*
X39903884Y26546629D01*
X39903884Y26546629D02*
X39999122Y26594248D01*
X39999122Y26594248D02*
X40141979Y26594248D01*
X40141979Y26594248D02*
X40237217Y26546629D01*
X40237217Y26546629D02*
X40284836Y26451391D01*
X40284836Y26451391D02*
X40284836Y25927581D01*
D11*
X666666Y20545181D02*
X666666Y19830896D01*
X666666Y19830896D02*
X619047Y19688039D01*
X619047Y19688039D02*
X523809Y19592800D01*
X523809Y19592800D02*
X380952Y19545181D01*
X380952Y19545181D02*
X285714Y19545181D01*
X1666666Y19545181D02*
X1095238Y19545181D01*
X1380952Y19545181D02*
X1380952Y20545181D01*
X1380952Y20545181D02*
X1285714Y20402324D01*
X1285714Y20402324D02*
X1190476Y20307086D01*
X1190476Y20307086D02*
X1095238Y20259467D01*
X10109580Y18483334D02*
X10157200Y18435715D01*
X10157200Y18435715D02*
X10204819Y18292858D01*
X10204819Y18292858D02*
X10204819Y18197620D01*
X10204819Y18197620D02*
X10157200Y18054763D01*
X10157200Y18054763D02*
X10061961Y17959525D01*
X10061961Y17959525D02*
X9966723Y17911906D01*
X9966723Y17911906D02*
X9776247Y17864287D01*
X9776247Y17864287D02*
X9633390Y17864287D01*
X9633390Y17864287D02*
X9442914Y17911906D01*
X9442914Y17911906D02*
X9347676Y17959525D01*
X9347676Y17959525D02*
X9252438Y18054763D01*
X9252438Y18054763D02*
X9204819Y18197620D01*
X9204819Y18197620D02*
X9204819Y18292858D01*
X9204819Y18292858D02*
X9252438Y18435715D01*
X9252438Y18435715D02*
X9300057Y18483334D01*
X10204819Y19435715D02*
X10204819Y18864287D01*
X10204819Y19150001D02*
X9204819Y19150001D01*
X9204819Y19150001D02*
X9347676Y19054763D01*
X9347676Y19054763D02*
X9442914Y18959525D01*
X9442914Y18959525D02*
X9490533Y18864287D01*
X15509580Y22833334D02*
X15557200Y22785715D01*
X15557200Y22785715D02*
X15604819Y22642858D01*
X15604819Y22642858D02*
X15604819Y22547620D01*
X15604819Y22547620D02*
X15557200Y22404763D01*
X15557200Y22404763D02*
X15461961Y22309525D01*
X15461961Y22309525D02*
X15366723Y22261906D01*
X15366723Y22261906D02*
X15176247Y22214287D01*
X15176247Y22214287D02*
X15033390Y22214287D01*
X15033390Y22214287D02*
X14842914Y22261906D01*
X14842914Y22261906D02*
X14747676Y22309525D01*
X14747676Y22309525D02*
X14652438Y22404763D01*
X14652438Y22404763D02*
X14604819Y22547620D01*
X14604819Y22547620D02*
X14604819Y22642858D01*
X14604819Y22642858D02*
X14652438Y22785715D01*
X14652438Y22785715D02*
X14700057Y22833334D01*
X14604819Y23166668D02*
X14604819Y23785715D01*
X14604819Y23785715D02*
X14985771Y23452382D01*
X14985771Y23452382D02*
X14985771Y23595239D01*
X14985771Y23595239D02*
X15033390Y23690477D01*
X15033390Y23690477D02*
X15081009Y23738096D01*
X15081009Y23738096D02*
X15176247Y23785715D01*
X15176247Y23785715D02*
X15414342Y23785715D01*
X15414342Y23785715D02*
X15509580Y23738096D01*
X15509580Y23738096D02*
X15557200Y23690477D01*
X15557200Y23690477D02*
X15604819Y23595239D01*
X15604819Y23595239D02*
X15604819Y23309525D01*
X15604819Y23309525D02*
X15557200Y23214287D01*
X15557200Y23214287D02*
X15509580Y23166668D01*
X25289580Y22833334D02*
X25337200Y22785715D01*
X25337200Y22785715D02*
X25384819Y22642858D01*
X25384819Y22642858D02*
X25384819Y22547620D01*
X25384819Y22547620D02*
X25337200Y22404763D01*
X25337200Y22404763D02*
X25241961Y22309525D01*
X25241961Y22309525D02*
X25146723Y22261906D01*
X25146723Y22261906D02*
X24956247Y22214287D01*
X24956247Y22214287D02*
X24813390Y22214287D01*
X24813390Y22214287D02*
X24622914Y22261906D01*
X24622914Y22261906D02*
X24527676Y22309525D01*
X24527676Y22309525D02*
X24432438Y22404763D01*
X24432438Y22404763D02*
X24384819Y22547620D01*
X24384819Y22547620D02*
X24384819Y22642858D01*
X24384819Y22642858D02*
X24432438Y22785715D01*
X24432438Y22785715D02*
X24480057Y22833334D01*
X24384819Y23738096D02*
X24384819Y23261906D01*
X24384819Y23261906D02*
X24861009Y23214287D01*
X24861009Y23214287D02*
X24813390Y23261906D01*
X24813390Y23261906D02*
X24765771Y23357144D01*
X24765771Y23357144D02*
X24765771Y23595239D01*
X24765771Y23595239D02*
X24813390Y23690477D01*
X24813390Y23690477D02*
X24861009Y23738096D01*
X24861009Y23738096D02*
X24956247Y23785715D01*
X24956247Y23785715D02*
X25194342Y23785715D01*
X25194342Y23785715D02*
X25289580Y23738096D01*
X25289580Y23738096D02*
X25337200Y23690477D01*
X25337200Y23690477D02*
X25384819Y23595239D01*
X25384819Y23595239D02*
X25384819Y23357144D01*
X25384819Y23357144D02*
X25337200Y23261906D01*
X25337200Y23261906D02*
X25289580Y23214287D01*
X21309580Y4333334D02*
X21357200Y4285715D01*
X21357200Y4285715D02*
X21404819Y4142858D01*
X21404819Y4142858D02*
X21404819Y4047620D01*
X21404819Y4047620D02*
X21357200Y3904763D01*
X21357200Y3904763D02*
X21261961Y3809525D01*
X21261961Y3809525D02*
X21166723Y3761906D01*
X21166723Y3761906D02*
X20976247Y3714287D01*
X20976247Y3714287D02*
X20833390Y3714287D01*
X20833390Y3714287D02*
X20642914Y3761906D01*
X20642914Y3761906D02*
X20547676Y3809525D01*
X20547676Y3809525D02*
X20452438Y3904763D01*
X20452438Y3904763D02*
X20404819Y4047620D01*
X20404819Y4047620D02*
X20404819Y4142858D01*
X20404819Y4142858D02*
X20452438Y4285715D01*
X20452438Y4285715D02*
X20500057Y4333334D01*
X20833390Y4904763D02*
X20785771Y4809525D01*
X20785771Y4809525D02*
X20738152Y4761906D01*
X20738152Y4761906D02*
X20642914Y4714287D01*
X20642914Y4714287D02*
X20595295Y4714287D01*
X20595295Y4714287D02*
X20500057Y4761906D01*
X20500057Y4761906D02*
X20452438Y4809525D01*
X20452438Y4809525D02*
X20404819Y4904763D01*
X20404819Y4904763D02*
X20404819Y5095239D01*
X20404819Y5095239D02*
X20452438Y5190477D01*
X20452438Y5190477D02*
X20500057Y5238096D01*
X20500057Y5238096D02*
X20595295Y5285715D01*
X20595295Y5285715D02*
X20642914Y5285715D01*
X20642914Y5285715D02*
X20738152Y5238096D01*
X20738152Y5238096D02*
X20785771Y5190477D01*
X20785771Y5190477D02*
X20833390Y5095239D01*
X20833390Y5095239D02*
X20833390Y4904763D01*
X20833390Y4904763D02*
X20881009Y4809525D01*
X20881009Y4809525D02*
X20928628Y4761906D01*
X20928628Y4761906D02*
X21023866Y4714287D01*
X21023866Y4714287D02*
X21214342Y4714287D01*
X21214342Y4714287D02*
X21309580Y4761906D01*
X21309580Y4761906D02*
X21357200Y4809525D01*
X21357200Y4809525D02*
X21404819Y4904763D01*
X21404819Y4904763D02*
X21404819Y5095239D01*
X21404819Y5095239D02*
X21357200Y5190477D01*
X21357200Y5190477D02*
X21309580Y5238096D01*
X21309580Y5238096D02*
X21214342Y5285715D01*
X21214342Y5285715D02*
X21023866Y5285715D01*
X21023866Y5285715D02*
X20928628Y5238096D01*
X20928628Y5238096D02*
X20881009Y5190477D01*
X20881009Y5190477D02*
X20833390Y5095239D01*
X25859580Y16457143D02*
X25907200Y16409524D01*
X25907200Y16409524D02*
X25954819Y16266667D01*
X25954819Y16266667D02*
X25954819Y16171429D01*
X25954819Y16171429D02*
X25907200Y16028572D01*
X25907200Y16028572D02*
X25811961Y15933334D01*
X25811961Y15933334D02*
X25716723Y15885715D01*
X25716723Y15885715D02*
X25526247Y15838096D01*
X25526247Y15838096D02*
X25383390Y15838096D01*
X25383390Y15838096D02*
X25192914Y15885715D01*
X25192914Y15885715D02*
X25097676Y15933334D01*
X25097676Y15933334D02*
X25002438Y16028572D01*
X25002438Y16028572D02*
X24954819Y16171429D01*
X24954819Y16171429D02*
X24954819Y16266667D01*
X24954819Y16266667D02*
X25002438Y16409524D01*
X25002438Y16409524D02*
X25050057Y16457143D01*
X25954819Y17409524D02*
X25954819Y16838096D01*
X25954819Y17123810D02*
X24954819Y17123810D01*
X24954819Y17123810D02*
X25097676Y17028572D01*
X25097676Y17028572D02*
X25192914Y16933334D01*
X25192914Y16933334D02*
X25240533Y16838096D01*
X25954819Y18361905D02*
X25954819Y17790477D01*
X25954819Y18076191D02*
X24954819Y18076191D01*
X24954819Y18076191D02*
X25097676Y17980953D01*
X25097676Y17980953D02*
X25192914Y17885715D01*
X25192914Y17885715D02*
X25240533Y17790477D01*
X11261905Y11145181D02*
X11261905Y12145181D01*
X11261905Y12145181D02*
X11500000Y12145181D01*
X11500000Y12145181D02*
X11642857Y12097562D01*
X11642857Y12097562D02*
X11738095Y12002324D01*
X11738095Y12002324D02*
X11785714Y11907086D01*
X11785714Y11907086D02*
X11833333Y11716610D01*
X11833333Y11716610D02*
X11833333Y11573753D01*
X11833333Y11573753D02*
X11785714Y11383277D01*
X11785714Y11383277D02*
X11738095Y11288039D01*
X11738095Y11288039D02*
X11642857Y11192800D01*
X11642857Y11192800D02*
X11500000Y11145181D01*
X11500000Y11145181D02*
X11261905Y11145181D01*
X12785714Y11145181D02*
X12214286Y11145181D01*
X12500000Y11145181D02*
X12500000Y12145181D01*
X12500000Y12145181D02*
X12404762Y12002324D01*
X12404762Y12002324D02*
X12309524Y11907086D01*
X12309524Y11907086D02*
X12214286Y11859467D01*
X42566666Y19545181D02*
X42566666Y18830896D01*
X42566666Y18830896D02*
X42519047Y18688039D01*
X42519047Y18688039D02*
X42423809Y18592800D01*
X42423809Y18592800D02*
X42280952Y18545181D01*
X42280952Y18545181D02*
X42185714Y18545181D01*
X42995238Y19449943D02*
X43042857Y19497562D01*
X43042857Y19497562D02*
X43138095Y19545181D01*
X43138095Y19545181D02*
X43376190Y19545181D01*
X43376190Y19545181D02*
X43471428Y19497562D01*
X43471428Y19497562D02*
X43519047Y19449943D01*
X43519047Y19449943D02*
X43566666Y19354705D01*
X43566666Y19354705D02*
X43566666Y19259467D01*
X43566666Y19259467D02*
X43519047Y19116610D01*
X43519047Y19116610D02*
X42947619Y18545181D01*
X42947619Y18545181D02*
X43566666Y18545181D01*
X14283333Y16095181D02*
X13950000Y16571372D01*
X13711905Y16095181D02*
X13711905Y17095181D01*
X13711905Y17095181D02*
X14092857Y17095181D01*
X14092857Y17095181D02*
X14188095Y17047562D01*
X14188095Y17047562D02*
X14235714Y16999943D01*
X14235714Y16999943D02*
X14283333Y16904705D01*
X14283333Y16904705D02*
X14283333Y16761848D01*
X14283333Y16761848D02*
X14235714Y16666610D01*
X14235714Y16666610D02*
X14188095Y16618991D01*
X14188095Y16618991D02*
X14092857Y16571372D01*
X14092857Y16571372D02*
X13711905Y16571372D01*
X15235714Y16095181D02*
X14664286Y16095181D01*
X14950000Y16095181D02*
X14950000Y17095181D01*
X14950000Y17095181D02*
X14854762Y16952324D01*
X14854762Y16952324D02*
X14759524Y16857086D01*
X14759524Y16857086D02*
X14664286Y16809467D01*
X10633333Y7245181D02*
X10300000Y7721372D01*
X10061905Y7245181D02*
X10061905Y8245181D01*
X10061905Y8245181D02*
X10442857Y8245181D01*
X10442857Y8245181D02*
X10538095Y8197562D01*
X10538095Y8197562D02*
X10585714Y8149943D01*
X10585714Y8149943D02*
X10633333Y8054705D01*
X10633333Y8054705D02*
X10633333Y7911848D01*
X10633333Y7911848D02*
X10585714Y7816610D01*
X10585714Y7816610D02*
X10538095Y7768991D01*
X10538095Y7768991D02*
X10442857Y7721372D01*
X10442857Y7721372D02*
X10061905Y7721372D01*
X11014286Y8149943D02*
X11061905Y8197562D01*
X11061905Y8197562D02*
X11157143Y8245181D01*
X11157143Y8245181D02*
X11395238Y8245181D01*
X11395238Y8245181D02*
X11490476Y8197562D01*
X11490476Y8197562D02*
X11538095Y8149943D01*
X11538095Y8149943D02*
X11585714Y8054705D01*
X11585714Y8054705D02*
X11585714Y7959467D01*
X11585714Y7959467D02*
X11538095Y7816610D01*
X11538095Y7816610D02*
X10966667Y7245181D01*
X10966667Y7245181D02*
X11585714Y7245181D01*
X24733333Y9845181D02*
X24400000Y10321372D01*
X24161905Y9845181D02*
X24161905Y10845181D01*
X24161905Y10845181D02*
X24542857Y10845181D01*
X24542857Y10845181D02*
X24638095Y10797562D01*
X24638095Y10797562D02*
X24685714Y10749943D01*
X24685714Y10749943D02*
X24733333Y10654705D01*
X24733333Y10654705D02*
X24733333Y10511848D01*
X24733333Y10511848D02*
X24685714Y10416610D01*
X24685714Y10416610D02*
X24638095Y10368991D01*
X24638095Y10368991D02*
X24542857Y10321372D01*
X24542857Y10321372D02*
X24161905Y10321372D01*
X25590476Y10511848D02*
X25590476Y9845181D01*
X25352381Y10892800D02*
X25114286Y10178515D01*
X25114286Y10178515D02*
X25733333Y10178515D01*
X35233333Y20945181D02*
X34900000Y21421372D01*
X34661905Y20945181D02*
X34661905Y21945181D01*
X34661905Y21945181D02*
X35042857Y21945181D01*
X35042857Y21945181D02*
X35138095Y21897562D01*
X35138095Y21897562D02*
X35185714Y21849943D01*
X35185714Y21849943D02*
X35233333Y21754705D01*
X35233333Y21754705D02*
X35233333Y21611848D01*
X35233333Y21611848D02*
X35185714Y21516610D01*
X35185714Y21516610D02*
X35138095Y21468991D01*
X35138095Y21468991D02*
X35042857Y21421372D01*
X35042857Y21421372D02*
X34661905Y21421372D01*
X36138095Y21945181D02*
X35661905Y21945181D01*
X35661905Y21945181D02*
X35614286Y21468991D01*
X35614286Y21468991D02*
X35661905Y21516610D01*
X35661905Y21516610D02*
X35757143Y21564229D01*
X35757143Y21564229D02*
X35995238Y21564229D01*
X35995238Y21564229D02*
X36090476Y21516610D01*
X36090476Y21516610D02*
X36138095Y21468991D01*
X36138095Y21468991D02*
X36185714Y21373753D01*
X36185714Y21373753D02*
X36185714Y21135658D01*
X36185714Y21135658D02*
X36138095Y21040420D01*
X36138095Y21040420D02*
X36090476Y20992800D01*
X36090476Y20992800D02*
X35995238Y20945181D01*
X35995238Y20945181D02*
X35757143Y20945181D01*
X35757143Y20945181D02*
X35661905Y20992800D01*
X35661905Y20992800D02*
X35614286Y21040420D01*
X16838095Y20245181D02*
X16838095Y19435658D01*
X16838095Y19435658D02*
X16885714Y19340420D01*
X16885714Y19340420D02*
X16933333Y19292800D01*
X16933333Y19292800D02*
X17028571Y19245181D01*
X17028571Y19245181D02*
X17219047Y19245181D01*
X17219047Y19245181D02*
X17314285Y19292800D01*
X17314285Y19292800D02*
X17361904Y19340420D01*
X17361904Y19340420D02*
X17409523Y19435658D01*
X17409523Y19435658D02*
X17409523Y20245181D01*
X18409523Y19245181D02*
X17838095Y19245181D01*
X18123809Y19245181D02*
X18123809Y20245181D01*
X18123809Y20245181D02*
X18028571Y20102324D01*
X18028571Y20102324D02*
X17933333Y20007086D01*
X17933333Y20007086D02*
X17838095Y19959467D01*
X16438095Y16995181D02*
X16438095Y16185658D01*
X16438095Y16185658D02*
X16485714Y16090420D01*
X16485714Y16090420D02*
X16533333Y16042800D01*
X16533333Y16042800D02*
X16628571Y15995181D01*
X16628571Y15995181D02*
X16819047Y15995181D01*
X16819047Y15995181D02*
X16914285Y16042800D01*
X16914285Y16042800D02*
X16961904Y16090420D01*
X16961904Y16090420D02*
X17009523Y16185658D01*
X17009523Y16185658D02*
X17009523Y16995181D01*
X17438095Y16899943D02*
X17485714Y16947562D01*
X17485714Y16947562D02*
X17580952Y16995181D01*
X17580952Y16995181D02*
X17819047Y16995181D01*
X17819047Y16995181D02*
X17914285Y16947562D01*
X17914285Y16947562D02*
X17961904Y16899943D01*
X17961904Y16899943D02*
X18009523Y16804705D01*
X18009523Y16804705D02*
X18009523Y16709467D01*
X18009523Y16709467D02*
X17961904Y16566610D01*
X17961904Y16566610D02*
X17390476Y15995181D01*
X17390476Y15995181D02*
X18009523Y15995181D01*
X36138095Y18745181D02*
X36138095Y17935658D01*
X36138095Y17935658D02*
X36185714Y17840420D01*
X36185714Y17840420D02*
X36233333Y17792800D01*
X36233333Y17792800D02*
X36328571Y17745181D01*
X36328571Y17745181D02*
X36519047Y17745181D01*
X36519047Y17745181D02*
X36614285Y17792800D01*
X36614285Y17792800D02*
X36661904Y17840420D01*
X36661904Y17840420D02*
X36709523Y17935658D01*
X36709523Y17935658D02*
X36709523Y18745181D01*
X37090476Y18745181D02*
X37709523Y18745181D01*
X37709523Y18745181D02*
X37376190Y18364229D01*
X37376190Y18364229D02*
X37519047Y18364229D01*
X37519047Y18364229D02*
X37614285Y18316610D01*
X37614285Y18316610D02*
X37661904Y18268991D01*
X37661904Y18268991D02*
X37709523Y18173753D01*
X37709523Y18173753D02*
X37709523Y17935658D01*
X37709523Y17935658D02*
X37661904Y17840420D01*
X37661904Y17840420D02*
X37614285Y17792800D01*
X37614285Y17792800D02*
X37519047Y17745181D01*
X37519047Y17745181D02*
X37233333Y17745181D01*
X37233333Y17745181D02*
X37138095Y17792800D01*
X37138095Y17792800D02*
X37090476Y17840420D01*
X29288095Y3095181D02*
X29288095Y2285658D01*
X29288095Y2285658D02*
X29335714Y2190420D01*
X29335714Y2190420D02*
X29383333Y2142800D01*
X29383333Y2142800D02*
X29478571Y2095181D01*
X29478571Y2095181D02*
X29669047Y2095181D01*
X29669047Y2095181D02*
X29764285Y2142800D01*
X29764285Y2142800D02*
X29811904Y2190420D01*
X29811904Y2190420D02*
X29859523Y2285658D01*
X29859523Y2285658D02*
X29859523Y3095181D01*
X30764285Y2761848D02*
X30764285Y2095181D01*
X30526190Y3142800D02*
X30288095Y2428515D01*
X30288095Y2428515D02*
X30907142Y2428515D01*
X21190476Y9945181D02*
X21857142Y8945181D01*
X21857142Y9945181D02*
X21190476Y8945181D01*
X22761904Y8945181D02*
X22190476Y8945181D01*
X22476190Y8945181D02*
X22476190Y9945181D01*
X22476190Y9945181D02*
X22380952Y9802324D01*
X22380952Y9802324D02*
X22285714Y9707086D01*
X22285714Y9707086D02*
X22190476Y9659467D01*
X27409580Y4433334D02*
X27457200Y4385715D01*
X27457200Y4385715D02*
X27504819Y4242858D01*
X27504819Y4242858D02*
X27504819Y4147620D01*
X27504819Y4147620D02*
X27457200Y4004763D01*
X27457200Y4004763D02*
X27361961Y3909525D01*
X27361961Y3909525D02*
X27266723Y3861906D01*
X27266723Y3861906D02*
X27076247Y3814287D01*
X27076247Y3814287D02*
X26933390Y3814287D01*
X26933390Y3814287D02*
X26742914Y3861906D01*
X26742914Y3861906D02*
X26647676Y3909525D01*
X26647676Y3909525D02*
X26552438Y4004763D01*
X26552438Y4004763D02*
X26504819Y4147620D01*
X26504819Y4147620D02*
X26504819Y4242858D01*
X26504819Y4242858D02*
X26552438Y4385715D01*
X26552438Y4385715D02*
X26600057Y4433334D01*
X27504819Y4909525D02*
X27504819Y5100001D01*
X27504819Y5100001D02*
X27457200Y5195239D01*
X27457200Y5195239D02*
X27409580Y5242858D01*
X27409580Y5242858D02*
X27266723Y5338096D01*
X27266723Y5338096D02*
X27076247Y5385715D01*
X27076247Y5385715D02*
X26695295Y5385715D01*
X26695295Y5385715D02*
X26600057Y5338096D01*
X26600057Y5338096D02*
X26552438Y5290477D01*
X26552438Y5290477D02*
X26504819Y5195239D01*
X26504819Y5195239D02*
X26504819Y5004763D01*
X26504819Y5004763D02*
X26552438Y4909525D01*
X26552438Y4909525D02*
X26600057Y4861906D01*
X26600057Y4861906D02*
X26695295Y4814287D01*
X26695295Y4814287D02*
X26933390Y4814287D01*
X26933390Y4814287D02*
X27028628Y4861906D01*
X27028628Y4861906D02*
X27076247Y4909525D01*
X27076247Y4909525D02*
X27123866Y5004763D01*
X27123866Y5004763D02*
X27123866Y5195239D01*
X27123866Y5195239D02*
X27076247Y5290477D01*
X27076247Y5290477D02*
X27028628Y5338096D01*
X27028628Y5338096D02*
X26933390Y5385715D01*
X14509580Y18383334D02*
X14557200Y18335715D01*
X14557200Y18335715D02*
X14604819Y18192858D01*
X14604819Y18192858D02*
X14604819Y18097620D01*
X14604819Y18097620D02*
X14557200Y17954763D01*
X14557200Y17954763D02*
X14461961Y17859525D01*
X14461961Y17859525D02*
X14366723Y17811906D01*
X14366723Y17811906D02*
X14176247Y17764287D01*
X14176247Y17764287D02*
X14033390Y17764287D01*
X14033390Y17764287D02*
X13842914Y17811906D01*
X13842914Y17811906D02*
X13747676Y17859525D01*
X13747676Y17859525D02*
X13652438Y17954763D01*
X13652438Y17954763D02*
X13604819Y18097620D01*
X13604819Y18097620D02*
X13604819Y18192858D01*
X13604819Y18192858D02*
X13652438Y18335715D01*
X13652438Y18335715D02*
X13700057Y18383334D01*
X13700057Y18764287D02*
X13652438Y18811906D01*
X13652438Y18811906D02*
X13604819Y18907144D01*
X13604819Y18907144D02*
X13604819Y19145239D01*
X13604819Y19145239D02*
X13652438Y19240477D01*
X13652438Y19240477D02*
X13700057Y19288096D01*
X13700057Y19288096D02*
X13795295Y19335715D01*
X13795295Y19335715D02*
X13890533Y19335715D01*
X13890533Y19335715D02*
X14033390Y19288096D01*
X14033390Y19288096D02*
X14604819Y18716668D01*
X14604819Y18716668D02*
X14604819Y19335715D01*
X8133333Y21145181D02*
X7800000Y21621372D01*
X7561905Y21145181D02*
X7561905Y22145181D01*
X7561905Y22145181D02*
X7942857Y22145181D01*
X7942857Y22145181D02*
X8038095Y22097562D01*
X8038095Y22097562D02*
X8085714Y22049943D01*
X8085714Y22049943D02*
X8133333Y21954705D01*
X8133333Y21954705D02*
X8133333Y21811848D01*
X8133333Y21811848D02*
X8085714Y21716610D01*
X8085714Y21716610D02*
X8038095Y21668991D01*
X8038095Y21668991D02*
X7942857Y21621372D01*
X7942857Y21621372D02*
X7561905Y21621372D01*
X8466667Y22145181D02*
X9085714Y22145181D01*
X9085714Y22145181D02*
X8752381Y21764229D01*
X8752381Y21764229D02*
X8895238Y21764229D01*
X8895238Y21764229D02*
X8990476Y21716610D01*
X8990476Y21716610D02*
X9038095Y21668991D01*
X9038095Y21668991D02*
X9085714Y21573753D01*
X9085714Y21573753D02*
X9085714Y21335658D01*
X9085714Y21335658D02*
X9038095Y21240420D01*
X9038095Y21240420D02*
X8990476Y21192800D01*
X8990476Y21192800D02*
X8895238Y21145181D01*
X8895238Y21145181D02*
X8609524Y21145181D01*
X8609524Y21145181D02*
X8514286Y21192800D01*
X8514286Y21192800D02*
X8466667Y21240420D01*
X23633333Y16140420D02*
X23585714Y16092800D01*
X23585714Y16092800D02*
X23442857Y16045181D01*
X23442857Y16045181D02*
X23347619Y16045181D01*
X23347619Y16045181D02*
X23204762Y16092800D01*
X23204762Y16092800D02*
X23109524Y16188039D01*
X23109524Y16188039D02*
X23061905Y16283277D01*
X23061905Y16283277D02*
X23014286Y16473753D01*
X23014286Y16473753D02*
X23014286Y16616610D01*
X23014286Y16616610D02*
X23061905Y16807086D01*
X23061905Y16807086D02*
X23109524Y16902324D01*
X23109524Y16902324D02*
X23204762Y16997562D01*
X23204762Y16997562D02*
X23347619Y17045181D01*
X23347619Y17045181D02*
X23442857Y17045181D01*
X23442857Y17045181D02*
X23585714Y16997562D01*
X23585714Y16997562D02*
X23633333Y16949943D01*
X23966667Y17045181D02*
X24633333Y17045181D01*
X24633333Y17045181D02*
X24204762Y16045181D01*
X33533333Y7195181D02*
X33200000Y7671372D01*
X32961905Y7195181D02*
X32961905Y8195181D01*
X32961905Y8195181D02*
X33342857Y8195181D01*
X33342857Y8195181D02*
X33438095Y8147562D01*
X33438095Y8147562D02*
X33485714Y8099943D01*
X33485714Y8099943D02*
X33533333Y8004705D01*
X33533333Y8004705D02*
X33533333Y7861848D01*
X33533333Y7861848D02*
X33485714Y7766610D01*
X33485714Y7766610D02*
X33438095Y7718991D01*
X33438095Y7718991D02*
X33342857Y7671372D01*
X33342857Y7671372D02*
X32961905Y7671372D01*
X34104762Y7766610D02*
X34009524Y7814229D01*
X34009524Y7814229D02*
X33961905Y7861848D01*
X33961905Y7861848D02*
X33914286Y7957086D01*
X33914286Y7957086D02*
X33914286Y8004705D01*
X33914286Y8004705D02*
X33961905Y8099943D01*
X33961905Y8099943D02*
X34009524Y8147562D01*
X34009524Y8147562D02*
X34104762Y8195181D01*
X34104762Y8195181D02*
X34295238Y8195181D01*
X34295238Y8195181D02*
X34390476Y8147562D01*
X34390476Y8147562D02*
X34438095Y8099943D01*
X34438095Y8099943D02*
X34485714Y8004705D01*
X34485714Y8004705D02*
X34485714Y7957086D01*
X34485714Y7957086D02*
X34438095Y7861848D01*
X34438095Y7861848D02*
X34390476Y7814229D01*
X34390476Y7814229D02*
X34295238Y7766610D01*
X34295238Y7766610D02*
X34104762Y7766610D01*
X34104762Y7766610D02*
X34009524Y7718991D01*
X34009524Y7718991D02*
X33961905Y7671372D01*
X33961905Y7671372D02*
X33914286Y7576134D01*
X33914286Y7576134D02*
X33914286Y7385658D01*
X33914286Y7385658D02*
X33961905Y7290420D01*
X33961905Y7290420D02*
X34009524Y7242800D01*
X34009524Y7242800D02*
X34104762Y7195181D01*
X34104762Y7195181D02*
X34295238Y7195181D01*
X34295238Y7195181D02*
X34390476Y7242800D01*
X34390476Y7242800D02*
X34438095Y7290420D01*
X34438095Y7290420D02*
X34485714Y7385658D01*
X34485714Y7385658D02*
X34485714Y7576134D01*
X34485714Y7576134D02*
X34438095Y7671372D01*
X34438095Y7671372D02*
X34390476Y7718991D01*
X34390476Y7718991D02*
X34295238Y7766610D01*
X30633333Y7195181D02*
X30300000Y7671372D01*
X30061905Y7195181D02*
X30061905Y8195181D01*
X30061905Y8195181D02*
X30442857Y8195181D01*
X30442857Y8195181D02*
X30538095Y8147562D01*
X30538095Y8147562D02*
X30585714Y8099943D01*
X30585714Y8099943D02*
X30633333Y8004705D01*
X30633333Y8004705D02*
X30633333Y7861848D01*
X30633333Y7861848D02*
X30585714Y7766610D01*
X30585714Y7766610D02*
X30538095Y7718991D01*
X30538095Y7718991D02*
X30442857Y7671372D01*
X30442857Y7671372D02*
X30061905Y7671372D01*
X30966667Y8195181D02*
X31633333Y8195181D01*
X31633333Y8195181D02*
X31204762Y7195181D01*
X41759580Y13457143D02*
X41807200Y13409524D01*
X41807200Y13409524D02*
X41854819Y13266667D01*
X41854819Y13266667D02*
X41854819Y13171429D01*
X41854819Y13171429D02*
X41807200Y13028572D01*
X41807200Y13028572D02*
X41711961Y12933334D01*
X41711961Y12933334D02*
X41616723Y12885715D01*
X41616723Y12885715D02*
X41426247Y12838096D01*
X41426247Y12838096D02*
X41283390Y12838096D01*
X41283390Y12838096D02*
X41092914Y12885715D01*
X41092914Y12885715D02*
X40997676Y12933334D01*
X40997676Y12933334D02*
X40902438Y13028572D01*
X40902438Y13028572D02*
X40854819Y13171429D01*
X40854819Y13171429D02*
X40854819Y13266667D01*
X40854819Y13266667D02*
X40902438Y13409524D01*
X40902438Y13409524D02*
X40950057Y13457143D01*
X41854819Y14409524D02*
X41854819Y13838096D01*
X41854819Y14123810D02*
X40854819Y14123810D01*
X40854819Y14123810D02*
X40997676Y14028572D01*
X40997676Y14028572D02*
X41092914Y13933334D01*
X41092914Y13933334D02*
X41140533Y13838096D01*
X40854819Y14742858D02*
X40854819Y15361905D01*
X40854819Y15361905D02*
X41235771Y15028572D01*
X41235771Y15028572D02*
X41235771Y15171429D01*
X41235771Y15171429D02*
X41283390Y15266667D01*
X41283390Y15266667D02*
X41331009Y15314286D01*
X41331009Y15314286D02*
X41426247Y15361905D01*
X41426247Y15361905D02*
X41664342Y15361905D01*
X41664342Y15361905D02*
X41759580Y15314286D01*
X41759580Y15314286D02*
X41807200Y15266667D01*
X41807200Y15266667D02*
X41854819Y15171429D01*
X41854819Y15171429D02*
X41854819Y14885715D01*
X41854819Y14885715D02*
X41807200Y14790477D01*
X41807200Y14790477D02*
X41759580Y14742858D01*
X36309580Y2582143D02*
X36357200Y2534524D01*
X36357200Y2534524D02*
X36404819Y2391667D01*
X36404819Y2391667D02*
X36404819Y2296429D01*
X36404819Y2296429D02*
X36357200Y2153572D01*
X36357200Y2153572D02*
X36261961Y2058334D01*
X36261961Y2058334D02*
X36166723Y2010715D01*
X36166723Y2010715D02*
X35976247Y1963096D01*
X35976247Y1963096D02*
X35833390Y1963096D01*
X35833390Y1963096D02*
X35642914Y2010715D01*
X35642914Y2010715D02*
X35547676Y2058334D01*
X35547676Y2058334D02*
X35452438Y2153572D01*
X35452438Y2153572D02*
X35404819Y2296429D01*
X35404819Y2296429D02*
X35404819Y2391667D01*
X35404819Y2391667D02*
X35452438Y2534524D01*
X35452438Y2534524D02*
X35500057Y2582143D01*
X36404819Y3534524D02*
X36404819Y2963096D01*
X36404819Y3248810D02*
X35404819Y3248810D01*
X35404819Y3248810D02*
X35547676Y3153572D01*
X35547676Y3153572D02*
X35642914Y3058334D01*
X35642914Y3058334D02*
X35690533Y2963096D01*
X35738152Y4391667D02*
X36404819Y4391667D01*
X35357200Y4153572D02*
X36071485Y3915477D01*
X36071485Y3915477D02*
X36071485Y4534524D01*
X28082142Y21040420D02*
X28034523Y20992800D01*
X28034523Y20992800D02*
X27891666Y20945181D01*
X27891666Y20945181D02*
X27796428Y20945181D01*
X27796428Y20945181D02*
X27653571Y20992800D01*
X27653571Y20992800D02*
X27558333Y21088039D01*
X27558333Y21088039D02*
X27510714Y21183277D01*
X27510714Y21183277D02*
X27463095Y21373753D01*
X27463095Y21373753D02*
X27463095Y21516610D01*
X27463095Y21516610D02*
X27510714Y21707086D01*
X27510714Y21707086D02*
X27558333Y21802324D01*
X27558333Y21802324D02*
X27653571Y21897562D01*
X27653571Y21897562D02*
X27796428Y21945181D01*
X27796428Y21945181D02*
X27891666Y21945181D01*
X27891666Y21945181D02*
X28034523Y21897562D01*
X28034523Y21897562D02*
X28082142Y21849943D01*
X29034523Y20945181D02*
X28463095Y20945181D01*
X28748809Y20945181D02*
X28748809Y21945181D01*
X28748809Y21945181D02*
X28653571Y21802324D01*
X28653571Y21802324D02*
X28558333Y21707086D01*
X28558333Y21707086D02*
X28463095Y21659467D01*
X29415476Y21849943D02*
X29463095Y21897562D01*
X29463095Y21897562D02*
X29558333Y21945181D01*
X29558333Y21945181D02*
X29796428Y21945181D01*
X29796428Y21945181D02*
X29891666Y21897562D01*
X29891666Y21897562D02*
X29939285Y21849943D01*
X29939285Y21849943D02*
X29986904Y21754705D01*
X29986904Y21754705D02*
X29986904Y21659467D01*
X29986904Y21659467D02*
X29939285Y21516610D01*
X29939285Y21516610D02*
X29367857Y20945181D01*
X29367857Y20945181D02*
X29986904Y20945181D01*
X40454819Y13533334D02*
X39978628Y13200001D01*
X40454819Y12961906D02*
X39454819Y12961906D01*
X39454819Y12961906D02*
X39454819Y13342858D01*
X39454819Y13342858D02*
X39502438Y13438096D01*
X39502438Y13438096D02*
X39550057Y13485715D01*
X39550057Y13485715D02*
X39645295Y13533334D01*
X39645295Y13533334D02*
X39788152Y13533334D01*
X39788152Y13533334D02*
X39883390Y13485715D01*
X39883390Y13485715D02*
X39931009Y13438096D01*
X39931009Y13438096D02*
X39978628Y13342858D01*
X39978628Y13342858D02*
X39978628Y12961906D01*
X39454819Y14390477D02*
X39454819Y14200001D01*
X39454819Y14200001D02*
X39502438Y14104763D01*
X39502438Y14104763D02*
X39550057Y14057144D01*
X39550057Y14057144D02*
X39692914Y13961906D01*
X39692914Y13961906D02*
X39883390Y13914287D01*
X39883390Y13914287D02*
X40264342Y13914287D01*
X40264342Y13914287D02*
X40359580Y13961906D01*
X40359580Y13961906D02*
X40407200Y14009525D01*
X40407200Y14009525D02*
X40454819Y14104763D01*
X40454819Y14104763D02*
X40454819Y14295239D01*
X40454819Y14295239D02*
X40407200Y14390477D01*
X40407200Y14390477D02*
X40359580Y14438096D01*
X40359580Y14438096D02*
X40264342Y14485715D01*
X40264342Y14485715D02*
X40026247Y14485715D01*
X40026247Y14485715D02*
X39931009Y14438096D01*
X39931009Y14438096D02*
X39883390Y14390477D01*
X39883390Y14390477D02*
X39835771Y14295239D01*
X39835771Y14295239D02*
X39835771Y14104763D01*
X39835771Y14104763D02*
X39883390Y14009525D01*
X39883390Y14009525D02*
X39931009Y13961906D01*
X39931009Y13961906D02*
X40026247Y13914287D01*
X35257142Y19640420D02*
X35209523Y19592800D01*
X35209523Y19592800D02*
X35066666Y19545181D01*
X35066666Y19545181D02*
X34971428Y19545181D01*
X34971428Y19545181D02*
X34828571Y19592800D01*
X34828571Y19592800D02*
X34733333Y19688039D01*
X34733333Y19688039D02*
X34685714Y19783277D01*
X34685714Y19783277D02*
X34638095Y19973753D01*
X34638095Y19973753D02*
X34638095Y20116610D01*
X34638095Y20116610D02*
X34685714Y20307086D01*
X34685714Y20307086D02*
X34733333Y20402324D01*
X34733333Y20402324D02*
X34828571Y20497562D01*
X34828571Y20497562D02*
X34971428Y20545181D01*
X34971428Y20545181D02*
X35066666Y20545181D01*
X35066666Y20545181D02*
X35209523Y20497562D01*
X35209523Y20497562D02*
X35257142Y20449943D01*
X36209523Y19545181D02*
X35638095Y19545181D01*
X35923809Y19545181D02*
X35923809Y20545181D01*
X35923809Y20545181D02*
X35828571Y20402324D01*
X35828571Y20402324D02*
X35733333Y20307086D01*
X35733333Y20307086D02*
X35638095Y20259467D01*
X36828571Y20545181D02*
X36923809Y20545181D01*
X36923809Y20545181D02*
X37019047Y20497562D01*
X37019047Y20497562D02*
X37066666Y20449943D01*
X37066666Y20449943D02*
X37114285Y20354705D01*
X37114285Y20354705D02*
X37161904Y20164229D01*
X37161904Y20164229D02*
X37161904Y19926134D01*
X37161904Y19926134D02*
X37114285Y19735658D01*
X37114285Y19735658D02*
X37066666Y19640420D01*
X37066666Y19640420D02*
X37019047Y19592800D01*
X37019047Y19592800D02*
X36923809Y19545181D01*
X36923809Y19545181D02*
X36828571Y19545181D01*
X36828571Y19545181D02*
X36733333Y19592800D01*
X36733333Y19592800D02*
X36685714Y19640420D01*
X36685714Y19640420D02*
X36638095Y19735658D01*
X36638095Y19735658D02*
X36590476Y19926134D01*
X36590476Y19926134D02*
X36590476Y20164229D01*
X36590476Y20164229D02*
X36638095Y20354705D01*
X36638095Y20354705D02*
X36685714Y20449943D01*
X36685714Y20449943D02*
X36733333Y20497562D01*
X36733333Y20497562D02*
X36828571Y20545181D01*
X18833333Y11140420D02*
X18785714Y11092800D01*
X18785714Y11092800D02*
X18642857Y11045181D01*
X18642857Y11045181D02*
X18547619Y11045181D01*
X18547619Y11045181D02*
X18404762Y11092800D01*
X18404762Y11092800D02*
X18309524Y11188039D01*
X18309524Y11188039D02*
X18261905Y11283277D01*
X18261905Y11283277D02*
X18214286Y11473753D01*
X18214286Y11473753D02*
X18214286Y11616610D01*
X18214286Y11616610D02*
X18261905Y11807086D01*
X18261905Y11807086D02*
X18309524Y11902324D01*
X18309524Y11902324D02*
X18404762Y11997562D01*
X18404762Y11997562D02*
X18547619Y12045181D01*
X18547619Y12045181D02*
X18642857Y12045181D01*
X18642857Y12045181D02*
X18785714Y11997562D01*
X18785714Y11997562D02*
X18833333Y11949943D01*
X19690476Y12045181D02*
X19500000Y12045181D01*
X19500000Y12045181D02*
X19404762Y11997562D01*
X19404762Y11997562D02*
X19357143Y11949943D01*
X19357143Y11949943D02*
X19261905Y11807086D01*
X19261905Y11807086D02*
X19214286Y11616610D01*
X19214286Y11616610D02*
X19214286Y11235658D01*
X19214286Y11235658D02*
X19261905Y11140420D01*
X19261905Y11140420D02*
X19309524Y11092800D01*
X19309524Y11092800D02*
X19404762Y11045181D01*
X19404762Y11045181D02*
X19595238Y11045181D01*
X19595238Y11045181D02*
X19690476Y11092800D01*
X19690476Y11092800D02*
X19738095Y11140420D01*
X19738095Y11140420D02*
X19785714Y11235658D01*
X19785714Y11235658D02*
X19785714Y11473753D01*
X19785714Y11473753D02*
X19738095Y11568991D01*
X19738095Y11568991D02*
X19690476Y11616610D01*
X19690476Y11616610D02*
X19595238Y11664229D01*
X19595238Y11664229D02*
X19404762Y11664229D01*
X19404762Y11664229D02*
X19309524Y11616610D01*
X19309524Y11616610D02*
X19261905Y11568991D01*
X19261905Y11568991D02*
X19214286Y11473753D01*
X22283333Y20190420D02*
X22235714Y20142800D01*
X22235714Y20142800D02*
X22092857Y20095181D01*
X22092857Y20095181D02*
X21997619Y20095181D01*
X21997619Y20095181D02*
X21854762Y20142800D01*
X21854762Y20142800D02*
X21759524Y20238039D01*
X21759524Y20238039D02*
X21711905Y20333277D01*
X21711905Y20333277D02*
X21664286Y20523753D01*
X21664286Y20523753D02*
X21664286Y20666610D01*
X21664286Y20666610D02*
X21711905Y20857086D01*
X21711905Y20857086D02*
X21759524Y20952324D01*
X21759524Y20952324D02*
X21854762Y21047562D01*
X21854762Y21047562D02*
X21997619Y21095181D01*
X21997619Y21095181D02*
X22092857Y21095181D01*
X22092857Y21095181D02*
X22235714Y21047562D01*
X22235714Y21047562D02*
X22283333Y20999943D01*
X23140476Y20761848D02*
X23140476Y20095181D01*
X22902381Y21142800D02*
X22664286Y20428515D01*
X22664286Y20428515D02*
X23283333Y20428515D01*
D12*
%TO.C,J1*%
X3300000Y9330000D02*
X5000000Y9330000D01*
X3300000Y18670000D02*
X5000000Y18670000D01*
%TO.C,C1*%
X11760000Y18584420D02*
X11760000Y18865580D01*
X10740000Y18584420D02*
X10740000Y18865580D01*
%TO.C,C3*%
X17485000Y23261252D02*
X17485000Y22738748D01*
X16015000Y23261252D02*
X16015000Y22738748D01*
%TO.C,C5*%
X23985000Y23261252D02*
X23985000Y22738748D01*
X22515000Y23261252D02*
X22515000Y22738748D01*
%TO.C,C8*%
X21510000Y6884420D02*
X21510000Y7165580D01*
X20490000Y6884420D02*
X20490000Y7165580D01*
%TO.C,C11*%
X26235000Y14261252D02*
X26235000Y13738748D01*
X24765000Y14261252D02*
X24765000Y13738748D01*
%TO.C,D1*%
X10550000Y15510000D02*
X10310000Y15840000D01*
X10790000Y15840000D01*
X10550000Y15510000D01*
G36*
X10550000Y15510000D02*
G01*
X10310000Y15840000D01*
X10790000Y15840000D01*
X10550000Y15510000D01*
G37*
X12910000Y12440000D02*
X11090000Y12440000D01*
X12910000Y12490000D02*
X12910000Y12440000D01*
X12910000Y15560000D02*
X12910000Y15510000D01*
X11090000Y12440000D02*
X11090000Y12490000D01*
X11090000Y15510000D02*
X11090000Y15560000D01*
X11090000Y15560000D02*
X12910000Y15560000D01*
%TO.C,J2*%
X45230000Y12730000D02*
X44595000Y12730000D01*
X44595000Y12730000D02*
X44595000Y13365000D01*
%TO.C,R1*%
X11762742Y15977500D02*
X12237258Y15977500D01*
X11762742Y17022500D02*
X12237258Y17022500D01*
%TO.C,R2*%
X8412258Y7227500D02*
X7937742Y7227500D01*
X8412258Y8272500D02*
X7937742Y8272500D01*
%TO.C,R4*%
X24762742Y10977500D02*
X25237258Y10977500D01*
X24762742Y12022500D02*
X25237258Y12022500D01*
%TO.C,R5*%
X33237258Y20977500D02*
X32762742Y20977500D01*
X33237258Y22022500D02*
X32762742Y22022500D01*
%TO.C,U1*%
X18550000Y24760000D02*
X18310000Y25090000D01*
X18790000Y25090000D01*
X18550000Y24760000D01*
G36*
X18550000Y24760000D02*
G01*
X18310000Y25090000D01*
X18790000Y25090000D01*
X18550000Y24760000D01*
G37*
X20910000Y21690000D02*
X19090000Y21690000D01*
X20910000Y21740000D02*
X20910000Y21690000D01*
X20910000Y23640000D02*
X20910000Y22860000D01*
X20910000Y24810000D02*
X20910000Y24760000D01*
X19090000Y21690000D02*
X19090000Y21740000D01*
X19090000Y24760000D02*
X19090000Y24810000D01*
X19090000Y24810000D02*
X20910000Y24810000D01*
%TO.C,U2*%
X17840000Y15440000D02*
X17600000Y15770000D01*
X18080000Y15770000D01*
X17840000Y15440000D01*
G36*
X17840000Y15440000D02*
G01*
X17600000Y15770000D01*
X18080000Y15770000D01*
X17840000Y15440000D01*
G37*
X21610000Y12390000D02*
X18390000Y12390000D01*
X21610000Y12565000D02*
X21610000Y12390000D01*
X21610000Y15610000D02*
X21610000Y15435000D01*
X18390000Y12390000D02*
X18390000Y12565000D01*
X18390000Y15435000D02*
X18390000Y15610000D01*
X18390000Y15610000D02*
X21610000Y15610000D01*
%TO.C,U3*%
X28000000Y17160000D02*
X27660000Y17630000D01*
X28340000Y17630000D01*
X28000000Y17160000D01*
G36*
X28000000Y17160000D02*
G01*
X27660000Y17630000D01*
X28340000Y17630000D01*
X28000000Y17160000D01*
G37*
X35860000Y10390000D02*
X35410000Y10390000D01*
X35860000Y10840000D02*
X35860000Y10390000D01*
X35860000Y17610000D02*
X35860000Y17160000D01*
X35410000Y17610000D02*
X35860000Y17610000D01*
X29090000Y10390000D02*
X28640000Y10390000D01*
X28640000Y10390000D02*
X28640000Y10840000D01*
X28640000Y17160000D02*
X28640000Y17610000D01*
X28640000Y17610000D02*
X29090000Y17610000D01*
%TO.C,U4*%
X31150000Y4075000D02*
X30870000Y4075000D01*
X31150000Y4355000D01*
X31150000Y4075000D01*
G36*
X31150000Y4075000D02*
G01*
X30870000Y4075000D01*
X31150000Y4355000D01*
X31150000Y4075000D01*
G37*
X33360000Y2165000D02*
X32960000Y2165000D01*
X33360000Y2390000D02*
X33360000Y2165000D01*
X33360000Y4385000D02*
X33360000Y4160000D01*
X32960000Y4385000D02*
X33360000Y4385000D01*
X31540000Y2165000D02*
X31140000Y2165000D01*
X31390000Y4385000D02*
X31540000Y4385000D01*
X31140000Y2165000D02*
X31140000Y2390000D01*
%TO.C,X1*%
X21940000Y8635000D02*
X21940000Y5215000D01*
X21940000Y5215000D02*
X26060000Y5215000D01*
%TO.C,C9*%
X26490000Y7165580D02*
X26490000Y6884420D01*
X27510000Y7165580D02*
X27510000Y6884420D01*
%TO.C,C2*%
X12240000Y18584420D02*
X12240000Y18865580D01*
X13260000Y18584420D02*
X13260000Y18865580D01*
%TO.C,R3*%
X8012742Y20772500D02*
X8487258Y20772500D01*
X8012742Y19727500D02*
X8487258Y19727500D01*
%TO.C,C7*%
X21640580Y17010000D02*
X21359420Y17010000D01*
X21640580Y15990000D02*
X21359420Y15990000D01*
%TO.C,R8*%
X33912258Y6772500D02*
X33437742Y6772500D01*
X33912258Y5727500D02*
X33437742Y5727500D01*
%TO.C,R7*%
X30437742Y6772500D02*
X30912258Y6772500D01*
X30437742Y5727500D02*
X30912258Y5727500D01*
%TO.C,C13*%
X40990000Y11109420D02*
X40990000Y11390580D01*
X42010000Y11109420D02*
X42010000Y11390580D01*
%TO.C,C14*%
X33990000Y3134420D02*
X33990000Y3415580D01*
X35010000Y3134420D02*
X35010000Y3415580D01*
%TO.C,C12*%
X28865580Y20510000D02*
X28584420Y20510000D01*
X28865580Y19490000D02*
X28584420Y19490000D01*
%TO.C,R6*%
X39477500Y11487258D02*
X39477500Y11012742D01*
X40522500Y11487258D02*
X40522500Y11012742D01*
%TO.C,C10*%
X33140580Y20510000D02*
X32859420Y20510000D01*
X33140580Y19490000D02*
X32859420Y19490000D01*
%TO.C,C6*%
X21109420Y12010000D02*
X21390580Y12010000D01*
X21109420Y10990000D02*
X21390580Y10990000D01*
%TO.C,C4*%
X20140580Y21260000D02*
X19859420Y21260000D01*
X20140580Y20240000D02*
X19859420Y20240000D01*
%TD*%
M02*
