%TF.GenerationSoftware,KiCad,Pcbnew,9.0.7*%
%TF.CreationDate,2026-02-10T20:50:10+08:00*%
%TF.ProjectId,260209-MSPM0-phil165,32363032-3039-42d4-9d53-504d302d7068,v0.1*%
%TF.SameCoordinates,PX2bde780PY4692680*%
%TF.FileFunction,Soldermask,Top*%
%TF.FilePolarity,Negative*%
%FSLAX46Y46*%
G04 Gerber Fmt 4.6, Leading zero omitted, Abs format (unit mm)*
G04 Created by KiCad (PCBNEW 9.0.7) date 2026-02-10 20:50:10*
%MOMM*%
%LPD*%
G01*
G04 APERTURE LIST*
G04 APERTURE END LIST*
G36*
X4484211Y7264282D02*
G01*
X4801835Y7201103D01*
X5111737Y7107095D01*
X5410932Y6983165D01*
X5696539Y6830504D01*
X5965808Y6650585D01*
X6216145Y6445139D01*
X6445139Y6216145D01*
X6650585Y5965808D01*
X6830504Y5696539D01*
X6983165Y5410932D01*
X7107095Y5111737D01*
X7201103Y4801835D01*
X7264282Y4484211D01*
X7296025Y4161923D01*
X7296025Y3838077D01*
X7264282Y3515789D01*
X7201103Y3198165D01*
X7107095Y2888263D01*
X6983165Y2589068D01*
X6830504Y2303461D01*
X6650585Y2034192D01*
X6445139Y1783855D01*
X6216145Y1554861D01*
X5965808Y1349415D01*
X5696539Y1169496D01*
X5410932Y1016835D01*
X5111737Y892905D01*
X4801835Y798897D01*
X4484211Y735718D01*
X4161923Y703975D01*
X3838077Y703975D01*
X3515789Y735718D01*
X3198165Y798897D01*
X2888263Y892905D01*
X2589068Y1016835D01*
X2303461Y1169496D01*
X2034192Y1349415D01*
X1783855Y1554861D01*
X1554861Y1783855D01*
X1349415Y2034192D01*
X1169496Y2303461D01*
X1016835Y2589068D01*
X892905Y2888263D01*
X798897Y3198165D01*
X735718Y3515789D01*
X703975Y3838077D01*
X703975Y4161923D01*
X735718Y4484211D01*
X798897Y4801835D01*
X892905Y5111737D01*
X1016835Y5410932D01*
X1169496Y5696539D01*
X1349415Y5965808D01*
X1554861Y6216145D01*
X1783855Y6445139D01*
X2034192Y6650585D01*
X2303461Y6830504D01*
X2589068Y6983165D01*
X2888263Y7107095D01*
X3198165Y7201103D01*
X3515789Y7264282D01*
X3838077Y7296025D01*
X4161923Y7296025D01*
X4484211Y7264282D01*
G37*
G36*
X49484211Y7264282D02*
G01*
X49801835Y7201103D01*
X50111737Y7107095D01*
X50410932Y6983165D01*
X50696539Y6830504D01*
X50965808Y6650585D01*
X51216145Y6445139D01*
X51445139Y6216145D01*
X51650585Y5965808D01*
X51830504Y5696539D01*
X51983165Y5410932D01*
X52107095Y5111737D01*
X52201103Y4801835D01*
X52264282Y4484211D01*
X52296025Y4161923D01*
X52296025Y3838077D01*
X52264282Y3515789D01*
X52201103Y3198165D01*
X52107095Y2888263D01*
X51983165Y2589068D01*
X51830504Y2303461D01*
X51650585Y2034192D01*
X51445139Y1783855D01*
X51216145Y1554861D01*
X50965808Y1349415D01*
X50696539Y1169496D01*
X50410932Y1016835D01*
X50111737Y892905D01*
X49801835Y798897D01*
X49484211Y735718D01*
X49161923Y703975D01*
X48838077Y703975D01*
X48515789Y735718D01*
X48198165Y798897D01*
X47888263Y892905D01*
X47589068Y1016835D01*
X47303461Y1169496D01*
X47034192Y1349415D01*
X46783855Y1554861D01*
X46554861Y1783855D01*
X46349415Y2034192D01*
X46169496Y2303461D01*
X46016835Y2589068D01*
X45892905Y2888263D01*
X45798897Y3198165D01*
X45735718Y3515789D01*
X45703975Y3838077D01*
X45703975Y4161923D01*
X45735718Y4484211D01*
X45798897Y4801835D01*
X45892905Y5111737D01*
X46016835Y5410932D01*
X46169496Y5696539D01*
X46349415Y5965808D01*
X46554861Y6216145D01*
X46783855Y6445139D01*
X47034192Y6650585D01*
X47303461Y6830504D01*
X47589068Y6983165D01*
X47888263Y7107095D01*
X48198165Y7201103D01*
X48515789Y7264282D01*
X48838077Y7296025D01*
X49161923Y7296025D01*
X49484211Y7264282D01*
G37*
G36*
X34834116Y3038926D02*
G01*
X34839447Y3036440D01*
X34842061Y3036059D01*
X34879201Y3017903D01*
X34936412Y2991224D01*
X35016224Y2911412D01*
X35042912Y2854179D01*
X35061058Y2817062D01*
X35061438Y2814451D01*
X35063926Y2809116D01*
X35075000Y2725000D01*
X35075000Y2275000D01*
X35063926Y2190884D01*
X35061438Y2185550D01*
X35061058Y2182939D01*
X35042922Y2145843D01*
X35016224Y2088588D01*
X34936412Y2008776D01*
X34879157Y1982078D01*
X34842061Y1963942D01*
X34839450Y1963562D01*
X34834116Y1961074D01*
X34750000Y1950000D01*
X34250000Y1950000D01*
X34165884Y1961074D01*
X34160549Y1963562D01*
X34157938Y1963942D01*
X34120821Y1982088D01*
X34063588Y2008776D01*
X33983776Y2088588D01*
X33957097Y2145799D01*
X33938941Y2182939D01*
X33938560Y2185553D01*
X33936074Y2190884D01*
X33925000Y2275000D01*
X33925000Y2725000D01*
X33936074Y2809116D01*
X33938560Y2814448D01*
X33938941Y2817062D01*
X33957108Y2854224D01*
X33983776Y2911412D01*
X34063588Y2991224D01*
X34120776Y3017892D01*
X34157938Y3036059D01*
X34160552Y3036440D01*
X34165884Y3038926D01*
X34250000Y3050000D01*
X34750000Y3050000D01*
X34834116Y3038926D01*
G37*
G36*
X32007403Y4288582D02*
G01*
X32056066Y4256066D01*
X32057460Y4253980D01*
X32059833Y4252394D01*
X32090167Y4252394D01*
X32092539Y4253980D01*
X32093934Y4256066D01*
X32142597Y4288582D01*
X32200000Y4300000D01*
X32300000Y4300000D01*
X32357403Y4288582D01*
X32406066Y4256066D01*
X32407460Y4253980D01*
X32409833Y4252394D01*
X32440167Y4252394D01*
X32442539Y4253980D01*
X32443934Y4256066D01*
X32492597Y4288582D01*
X32550000Y4300000D01*
X32650000Y4300000D01*
X32707403Y4288582D01*
X32756066Y4256066D01*
X32788582Y4207403D01*
X32800000Y4150000D01*
X32800000Y4016406D01*
X32836558Y3986402D01*
X32840511Y3987189D01*
X32842597Y3988582D01*
X32900000Y4000000D01*
X33125000Y4000000D01*
X33182403Y3988582D01*
X33231066Y3956066D01*
X33263582Y3907403D01*
X33275000Y3850000D01*
X33275000Y3750000D01*
X33263582Y3692597D01*
X33231066Y3643934D01*
X33228977Y3642539D01*
X33227393Y3640167D01*
X33227393Y3609833D01*
X33228977Y3607462D01*
X33231066Y3606066D01*
X33263582Y3557403D01*
X33275000Y3500000D01*
X33275000Y3400000D01*
X33263582Y3342597D01*
X33231066Y3293934D01*
X33228977Y3292539D01*
X33227393Y3290167D01*
X33227393Y3259833D01*
X33228977Y3257462D01*
X33231066Y3256066D01*
X33263582Y3207403D01*
X33275000Y3150000D01*
X33275000Y3050000D01*
X33263582Y2992597D01*
X33231066Y2943934D01*
X33228977Y2942539D01*
X33227393Y2940167D01*
X33227393Y2909833D01*
X33228977Y2907462D01*
X33231066Y2906066D01*
X33263582Y2857403D01*
X33275000Y2800000D01*
X33275000Y2700000D01*
X33263582Y2642597D01*
X33231066Y2593934D01*
X33182403Y2561418D01*
X33125000Y2550000D01*
X32900000Y2550000D01*
X32842597Y2561418D01*
X32840508Y2562814D01*
X32836559Y2563599D01*
X32800000Y2533595D01*
X32800000Y2400000D01*
X32788582Y2342597D01*
X32756066Y2293934D01*
X32707403Y2261418D01*
X32650000Y2250000D01*
X32550000Y2250000D01*
X32492597Y2261418D01*
X32443934Y2293934D01*
X32442538Y2296023D01*
X32440167Y2297607D01*
X32409833Y2297607D01*
X32407461Y2296023D01*
X32406066Y2293934D01*
X32357403Y2261418D01*
X32300000Y2250000D01*
X32200000Y2250000D01*
X32142597Y2261418D01*
X32093934Y2293934D01*
X32092538Y2296023D01*
X32090167Y2297607D01*
X32059833Y2297607D01*
X32057461Y2296023D01*
X32056066Y2293934D01*
X32007403Y2261418D01*
X31950000Y2250000D01*
X31850000Y2250000D01*
X31792597Y2261418D01*
X31743934Y2293934D01*
X31711418Y2342597D01*
X31700000Y2400000D01*
X31700000Y2533596D01*
X31663440Y2563600D01*
X31659493Y2562816D01*
X31657403Y2561418D01*
X31600000Y2550000D01*
X31375000Y2550000D01*
X31317597Y2561418D01*
X31268934Y2593934D01*
X31236418Y2642597D01*
X31225000Y2700000D01*
X31225000Y2800000D01*
X31236418Y2857403D01*
X31268934Y2906066D01*
X31271020Y2907461D01*
X31272606Y2909833D01*
X31272606Y2940167D01*
X31271020Y2942540D01*
X31268934Y2943934D01*
X31236418Y2992597D01*
X31225000Y3050000D01*
X31225000Y3150000D01*
X31236418Y3207403D01*
X31268934Y3256066D01*
X31271020Y3257461D01*
X31272606Y3259833D01*
X31272606Y3290167D01*
X31271020Y3292540D01*
X31268934Y3293934D01*
X31236418Y3342597D01*
X31225000Y3400000D01*
X31225000Y3500000D01*
X31236418Y3557403D01*
X31268934Y3606066D01*
X31271020Y3607461D01*
X31272606Y3609833D01*
X31272606Y3640167D01*
X31702393Y3640167D01*
X31702393Y3609833D01*
X31703977Y3607462D01*
X31706066Y3606066D01*
X31738582Y3557403D01*
X31750000Y3500000D01*
X31750000Y3400000D01*
X31738582Y3342597D01*
X31706066Y3293934D01*
X31703977Y3292539D01*
X31702393Y3290167D01*
X31702393Y3259833D01*
X31703977Y3257462D01*
X31706066Y3256066D01*
X31738582Y3207403D01*
X31750000Y3150000D01*
X31750000Y3050000D01*
X31738582Y2992597D01*
X31706066Y2943934D01*
X31703977Y2942539D01*
X31702393Y2940167D01*
X31702393Y2909833D01*
X31703977Y2907462D01*
X31706066Y2906066D01*
X31738582Y2857403D01*
X31750000Y2800000D01*
X31750000Y2795064D01*
X31752118Y2784415D01*
X31786558Y2761402D01*
X31790511Y2762189D01*
X31792597Y2763582D01*
X31850000Y2775000D01*
X31950000Y2775000D01*
X32007403Y2763582D01*
X32056066Y2731066D01*
X32057460Y2728980D01*
X32059833Y2727394D01*
X32090167Y2727394D01*
X32092539Y2728980D01*
X32093934Y2731066D01*
X32142597Y2763582D01*
X32200000Y2775000D01*
X32300000Y2775000D01*
X32357403Y2763582D01*
X32406066Y2731066D01*
X32407460Y2728980D01*
X32409833Y2727394D01*
X32440167Y2727394D01*
X32442539Y2728980D01*
X32443934Y2731066D01*
X32492597Y2763582D01*
X32550000Y2775000D01*
X32650000Y2775000D01*
X32707403Y2763582D01*
X32709487Y2762189D01*
X32713439Y2761403D01*
X32747879Y2784414D01*
X32750000Y2795078D01*
X32750000Y2800000D01*
X32761418Y2857403D01*
X32793934Y2906066D01*
X32796020Y2907461D01*
X32797606Y2909833D01*
X32797606Y2940167D01*
X32796020Y2942540D01*
X32793934Y2943934D01*
X32761418Y2992597D01*
X32750000Y3050000D01*
X32750000Y3150000D01*
X32761418Y3207403D01*
X32793934Y3256066D01*
X32796020Y3257461D01*
X32797606Y3259833D01*
X32797606Y3290167D01*
X32796020Y3292540D01*
X32793934Y3293934D01*
X32761418Y3342597D01*
X32750000Y3400000D01*
X32750000Y3500000D01*
X32761418Y3557403D01*
X32793934Y3606066D01*
X32796020Y3607461D01*
X32797606Y3609833D01*
X32797606Y3640167D01*
X32796020Y3642540D01*
X32793934Y3643934D01*
X32761418Y3692597D01*
X32750000Y3750000D01*
X32750000Y3754928D01*
X32747880Y3765587D01*
X32713440Y3788600D01*
X32709493Y3787816D01*
X32707403Y3786418D01*
X32650000Y3775000D01*
X32550000Y3775000D01*
X32492597Y3786418D01*
X32443934Y3818934D01*
X32442538Y3821023D01*
X32440167Y3822607D01*
X32409833Y3822607D01*
X32407461Y3821023D01*
X32406066Y3818934D01*
X32357403Y3786418D01*
X32300000Y3775000D01*
X32200000Y3775000D01*
X32142597Y3786418D01*
X32093934Y3818934D01*
X32092538Y3821023D01*
X32090167Y3822607D01*
X32059833Y3822607D01*
X32057461Y3821023D01*
X32056066Y3818934D01*
X32007403Y3786418D01*
X31950000Y3775000D01*
X31850000Y3775000D01*
X31792597Y3786418D01*
X31790508Y3787814D01*
X31786560Y3788599D01*
X31752120Y3765586D01*
X31750000Y3754928D01*
X31750000Y3750000D01*
X31738582Y3692597D01*
X31706066Y3643934D01*
X31703977Y3642539D01*
X31702393Y3640167D01*
X31272606Y3640167D01*
X31271020Y3642540D01*
X31268934Y3643934D01*
X31236418Y3692597D01*
X31225000Y3750000D01*
X31225000Y3850000D01*
X31236418Y3907403D01*
X31268934Y3956066D01*
X31317597Y3988582D01*
X31375000Y4000000D01*
X31600000Y4000000D01*
X31657403Y3988582D01*
X31659487Y3987190D01*
X31663441Y3986403D01*
X31700000Y4016406D01*
X31700000Y4145078D01*
X31700000Y4150000D01*
X31711418Y4207403D01*
X31743934Y4256066D01*
X31792597Y4288582D01*
X31850000Y4300000D01*
X31950000Y4300000D01*
X32007403Y4288582D01*
G37*
G36*
X9290285Y4956940D02*
G01*
X9471397Y4881921D01*
X9634393Y4773010D01*
X9773010Y4634393D01*
X9881921Y4471397D01*
X9956940Y4290285D01*
X9995185Y4098017D01*
X9995185Y3901983D01*
X9956940Y3709715D01*
X9881921Y3528603D01*
X9773010Y3365607D01*
X9634393Y3226990D01*
X9471397Y3118079D01*
X9290285Y3043060D01*
X9098017Y3004815D01*
X8901983Y3004815D01*
X8709715Y3043060D01*
X8528603Y3118079D01*
X8365607Y3226990D01*
X8226990Y3365607D01*
X8118079Y3528603D01*
X8043060Y3709715D01*
X8004815Y3901983D01*
X8004815Y4098017D01*
X8043060Y4290285D01*
X8118079Y4471397D01*
X8226990Y4634393D01*
X8365607Y4773010D01*
X8528603Y4881921D01*
X8709715Y4956940D01*
X8901983Y4995185D01*
X9098017Y4995185D01*
X9290285Y4956940D01*
G37*
G36*
X44290285Y4956940D02*
G01*
X44471397Y4881921D01*
X44634393Y4773010D01*
X44773010Y4634393D01*
X44881921Y4471397D01*
X44956940Y4290285D01*
X44995185Y4098017D01*
X44995185Y3901983D01*
X44956940Y3709715D01*
X44881921Y3528603D01*
X44773010Y3365607D01*
X44634393Y3226990D01*
X44471397Y3118079D01*
X44290285Y3043060D01*
X44098017Y3004815D01*
X43901983Y3004815D01*
X43709715Y3043060D01*
X43528603Y3118079D01*
X43365607Y3226990D01*
X43226990Y3365607D01*
X43118079Y3528603D01*
X43043060Y3709715D01*
X43004815Y3901983D01*
X43004815Y4098017D01*
X43043060Y4290285D01*
X43118079Y4471397D01*
X43226990Y4634393D01*
X43365607Y4773010D01*
X43528603Y4881921D01*
X43709715Y4956940D01*
X43901983Y4995185D01*
X44098017Y4995185D01*
X44290285Y4956940D01*
G37*
G36*
X34834116Y4588926D02*
G01*
X34839447Y4586440D01*
X34842061Y4586059D01*
X34879201Y4567903D01*
X34936412Y4541224D01*
X35016224Y4461412D01*
X35042912Y4404179D01*
X35061058Y4367062D01*
X35061438Y4364451D01*
X35063926Y4359116D01*
X35075000Y4275000D01*
X35075000Y3825000D01*
X35063926Y3740884D01*
X35061438Y3735550D01*
X35061058Y3732939D01*
X35042922Y3695843D01*
X35016224Y3638588D01*
X34936412Y3558776D01*
X34879157Y3532078D01*
X34842061Y3513942D01*
X34839450Y3513562D01*
X34834116Y3511074D01*
X34750000Y3500000D01*
X34250000Y3500000D01*
X34165884Y3511074D01*
X34160549Y3513562D01*
X34157938Y3513942D01*
X34120821Y3532088D01*
X34063588Y3558776D01*
X33983776Y3638588D01*
X33957097Y3695799D01*
X33938941Y3732939D01*
X33938560Y3735553D01*
X33936074Y3740884D01*
X33925000Y3825000D01*
X33925000Y4275000D01*
X33936074Y4359116D01*
X33938560Y4364448D01*
X33938941Y4367062D01*
X33957108Y4404224D01*
X33983776Y4461412D01*
X34063588Y4541224D01*
X34120776Y4567892D01*
X34157938Y4586059D01*
X34160552Y4586440D01*
X34165884Y4588926D01*
X34250000Y4600000D01*
X34750000Y4600000D01*
X34834116Y4588926D01*
G37*
G36*
X23449868Y6760450D02*
G01*
X23455586Y6757655D01*
X23457962Y6757278D01*
X23495987Y6737904D01*
X23553377Y6709847D01*
X23634847Y6628377D01*
X23662907Y6570980D01*
X23682276Y6532966D01*
X23682652Y6530592D01*
X23685450Y6524868D01*
X23700000Y6425000D01*
X23700000Y5725000D01*
X23685450Y5625132D01*
X23682652Y5619411D01*
X23682277Y5617038D01*
X23662926Y5579061D01*
X23634847Y5521623D01*
X23553377Y5440153D01*
X23495955Y5412081D01*
X23457965Y5392724D01*
X23455591Y5392349D01*
X23449868Y5389550D01*
X23350000Y5375000D01*
X22450000Y5375000D01*
X22350132Y5389550D01*
X22344410Y5392348D01*
X22342037Y5392723D01*
X22304035Y5412086D01*
X22246623Y5440153D01*
X22165153Y5521623D01*
X22137104Y5578997D01*
X22117723Y5617035D01*
X22117346Y5619412D01*
X22114550Y5625132D01*
X22100000Y5725000D01*
X22100000Y6425000D01*
X22114550Y6524868D01*
X22117345Y6530587D01*
X22117722Y6532963D01*
X22137108Y6571013D01*
X22165153Y6628377D01*
X22246623Y6709847D01*
X22303971Y6737884D01*
X22342034Y6757277D01*
X22344411Y6757654D01*
X22350132Y6760450D01*
X22450000Y6775000D01*
X23350000Y6775000D01*
X23449868Y6760450D01*
G37*
G36*
X25649868Y6760450D02*
G01*
X25655586Y6757655D01*
X25657962Y6757278D01*
X25695987Y6737904D01*
X25753377Y6709847D01*
X25834847Y6628377D01*
X25862907Y6570980D01*
X25882276Y6532966D01*
X25882652Y6530592D01*
X25885450Y6524868D01*
X25900000Y6425000D01*
X25900000Y5725000D01*
X25885450Y5625132D01*
X25882652Y5619411D01*
X25882277Y5617038D01*
X25862926Y5579061D01*
X25834847Y5521623D01*
X25753377Y5440153D01*
X25695955Y5412081D01*
X25657965Y5392724D01*
X25655591Y5392349D01*
X25649868Y5389550D01*
X25550000Y5375000D01*
X24650000Y5375000D01*
X24550132Y5389550D01*
X24544410Y5392348D01*
X24542037Y5392723D01*
X24504035Y5412086D01*
X24446623Y5440153D01*
X24365153Y5521623D01*
X24337104Y5578997D01*
X24317723Y5617035D01*
X24317346Y5619412D01*
X24314550Y5625132D01*
X24300000Y5725000D01*
X24300000Y6425000D01*
X24314550Y6524868D01*
X24317345Y6530587D01*
X24317722Y6532963D01*
X24337108Y6571013D01*
X24365153Y6628377D01*
X24446623Y6709847D01*
X24503971Y6737884D01*
X24542034Y6757277D01*
X24544411Y6757654D01*
X24550132Y6760450D01*
X24650000Y6775000D01*
X25550000Y6775000D01*
X25649868Y6760450D01*
G37*
G36*
X30118685Y6817031D02*
G01*
X30127358Y6813202D01*
X30134925Y6812099D01*
X30182223Y6788977D01*
X30219541Y6772499D01*
X30222996Y6769044D01*
X30223920Y6768592D01*
X30293591Y6698921D01*
X30294042Y6697998D01*
X30297499Y6694541D01*
X30313978Y6657218D01*
X30337098Y6609927D01*
X30338200Y6602361D01*
X30342031Y6593685D01*
X30350000Y6525000D01*
X30350000Y5975000D01*
X30342031Y5906315D01*
X30338199Y5897639D01*
X30337098Y5890075D01*
X30313985Y5842798D01*
X30297499Y5805459D01*
X30294041Y5802002D01*
X30293591Y5801080D01*
X30223920Y5731409D01*
X30222998Y5730959D01*
X30219541Y5727501D01*
X30182207Y5711017D01*
X30134926Y5687902D01*
X30127361Y5686800D01*
X30118685Y5682969D01*
X30050000Y5675000D01*
X29650000Y5675000D01*
X29581315Y5682969D01*
X29572638Y5686800D01*
X29565074Y5687902D01*
X29517787Y5711019D01*
X29480459Y5727501D01*
X29477002Y5730958D01*
X29476079Y5731409D01*
X29406408Y5801080D01*
X29405956Y5802004D01*
X29402501Y5805459D01*
X29386025Y5842772D01*
X29362901Y5890074D01*
X29361798Y5897643D01*
X29357969Y5906315D01*
X29350000Y5975000D01*
X29350000Y6525000D01*
X29357969Y6593685D01*
X29361798Y6602358D01*
X29362901Y6609926D01*
X29386028Y6657234D01*
X29402501Y6694541D01*
X29405955Y6697996D01*
X29406408Y6698921D01*
X29476079Y6768592D01*
X29477004Y6769045D01*
X29480459Y6772499D01*
X29517761Y6788970D01*
X29565073Y6812099D01*
X29572642Y6813202D01*
X29581315Y6817031D01*
X29650000Y6825000D01*
X30050000Y6825000D01*
X30118685Y6817031D01*
G37*
G36*
X31768685Y6817031D02*
G01*
X31777358Y6813202D01*
X31784925Y6812099D01*
X31832223Y6788977D01*
X31869541Y6772499D01*
X31872996Y6769044D01*
X31873920Y6768592D01*
X31943591Y6698921D01*
X31944042Y6697998D01*
X31947499Y6694541D01*
X31963978Y6657218D01*
X31987098Y6609927D01*
X31988200Y6602361D01*
X31992031Y6593685D01*
X32000000Y6525000D01*
X32000000Y5975000D01*
X31992031Y5906315D01*
X31988199Y5897639D01*
X31987098Y5890075D01*
X31963985Y5842798D01*
X31947499Y5805459D01*
X31944041Y5802002D01*
X31943591Y5801080D01*
X31873920Y5731409D01*
X31872998Y5730959D01*
X31869541Y5727501D01*
X31832207Y5711017D01*
X31784926Y5687902D01*
X31777361Y5686800D01*
X31768685Y5682969D01*
X31700000Y5675000D01*
X31300000Y5675000D01*
X31231315Y5682969D01*
X31222638Y5686800D01*
X31215074Y5687902D01*
X31167787Y5711019D01*
X31130459Y5727501D01*
X31127002Y5730958D01*
X31126079Y5731409D01*
X31056408Y5801080D01*
X31055956Y5802004D01*
X31052501Y5805459D01*
X31036025Y5842772D01*
X31012901Y5890074D01*
X31011798Y5897643D01*
X31007969Y5906315D01*
X31000000Y5975000D01*
X31000000Y6525000D01*
X31007969Y6593685D01*
X31011798Y6602358D01*
X31012901Y6609926D01*
X31036028Y6657234D01*
X31052501Y6694541D01*
X31055955Y6697996D01*
X31056408Y6698921D01*
X31126079Y6768592D01*
X31127004Y6769045D01*
X31130459Y6772499D01*
X31167761Y6788970D01*
X31215073Y6812099D01*
X31222642Y6813202D01*
X31231315Y6817031D01*
X31300000Y6825000D01*
X31700000Y6825000D01*
X31768685Y6817031D01*
G37*
G36*
X33118685Y6817031D02*
G01*
X33127358Y6813202D01*
X33134925Y6812099D01*
X33182223Y6788977D01*
X33219541Y6772499D01*
X33222996Y6769044D01*
X33223920Y6768592D01*
X33293591Y6698921D01*
X33294042Y6697998D01*
X33297499Y6694541D01*
X33313978Y6657218D01*
X33337098Y6609927D01*
X33338200Y6602361D01*
X33342031Y6593685D01*
X33350000Y6525000D01*
X33350000Y5975000D01*
X33342031Y5906315D01*
X33338199Y5897639D01*
X33337098Y5890075D01*
X33313985Y5842798D01*
X33297499Y5805459D01*
X33294041Y5802002D01*
X33293591Y5801080D01*
X33223920Y5731409D01*
X33222998Y5730959D01*
X33219541Y5727501D01*
X33182207Y5711017D01*
X33134926Y5687902D01*
X33127361Y5686800D01*
X33118685Y5682969D01*
X33050000Y5675000D01*
X32650000Y5675000D01*
X32581315Y5682969D01*
X32572638Y5686800D01*
X32565074Y5687902D01*
X32517787Y5711019D01*
X32480459Y5727501D01*
X32477002Y5730958D01*
X32476079Y5731409D01*
X32406408Y5801080D01*
X32405956Y5802004D01*
X32402501Y5805459D01*
X32386025Y5842772D01*
X32362901Y5890074D01*
X32361798Y5897643D01*
X32357969Y5906315D01*
X32350000Y5975000D01*
X32350000Y6525000D01*
X32357969Y6593685D01*
X32361798Y6602358D01*
X32362901Y6609926D01*
X32386028Y6657234D01*
X32402501Y6694541D01*
X32405955Y6697996D01*
X32406408Y6698921D01*
X32476079Y6768592D01*
X32477004Y6769045D01*
X32480459Y6772499D01*
X32517761Y6788970D01*
X32565073Y6812099D01*
X32572642Y6813202D01*
X32581315Y6817031D01*
X32650000Y6825000D01*
X33050000Y6825000D01*
X33118685Y6817031D01*
G37*
G36*
X34768685Y6817031D02*
G01*
X34777358Y6813202D01*
X34784925Y6812099D01*
X34832223Y6788977D01*
X34869541Y6772499D01*
X34872996Y6769044D01*
X34873920Y6768592D01*
X34943591Y6698921D01*
X34944042Y6697998D01*
X34947499Y6694541D01*
X34963978Y6657218D01*
X34987098Y6609927D01*
X34988200Y6602361D01*
X34992031Y6593685D01*
X35000000Y6525000D01*
X35000000Y5975000D01*
X34992031Y5906315D01*
X34988199Y5897639D01*
X34987098Y5890075D01*
X34963985Y5842798D01*
X34947499Y5805459D01*
X34944041Y5802002D01*
X34943591Y5801080D01*
X34873920Y5731409D01*
X34872998Y5730959D01*
X34869541Y5727501D01*
X34832207Y5711017D01*
X34784926Y5687902D01*
X34777361Y5686800D01*
X34768685Y5682969D01*
X34700000Y5675000D01*
X34300000Y5675000D01*
X34231315Y5682969D01*
X34222638Y5686800D01*
X34215074Y5687902D01*
X34167787Y5711019D01*
X34130459Y5727501D01*
X34127002Y5730958D01*
X34126079Y5731409D01*
X34056408Y5801080D01*
X34055956Y5802004D01*
X34052501Y5805459D01*
X34036025Y5842772D01*
X34012901Y5890074D01*
X34011798Y5897643D01*
X34007969Y5906315D01*
X34000000Y5975000D01*
X34000000Y6525000D01*
X34007969Y6593685D01*
X34011798Y6602358D01*
X34012901Y6609926D01*
X34036028Y6657234D01*
X34052501Y6694541D01*
X34055955Y6697996D01*
X34056408Y6698921D01*
X34126079Y6768592D01*
X34127004Y6769045D01*
X34130459Y6772499D01*
X34167761Y6788970D01*
X34215073Y6812099D01*
X34222642Y6813202D01*
X34231315Y6817031D01*
X34300000Y6825000D01*
X34700000Y6825000D01*
X34768685Y6817031D01*
G37*
G36*
X21334116Y6788926D02*
G01*
X21339447Y6786440D01*
X21342061Y6786059D01*
X21379201Y6767903D01*
X21436412Y6741224D01*
X21516224Y6661412D01*
X21542912Y6604179D01*
X21561058Y6567062D01*
X21561438Y6564451D01*
X21563926Y6559116D01*
X21575000Y6475000D01*
X21575000Y6025000D01*
X21563926Y5940884D01*
X21561438Y5935550D01*
X21561058Y5932939D01*
X21542922Y5895843D01*
X21516224Y5838588D01*
X21436412Y5758776D01*
X21379157Y5732078D01*
X21342061Y5713942D01*
X21339450Y5713562D01*
X21334116Y5711074D01*
X21250000Y5700000D01*
X20750000Y5700000D01*
X20665884Y5711074D01*
X20660549Y5713562D01*
X20657938Y5713942D01*
X20620821Y5732088D01*
X20563588Y5758776D01*
X20483776Y5838588D01*
X20457097Y5895799D01*
X20438941Y5932939D01*
X20438560Y5935553D01*
X20436074Y5940884D01*
X20425000Y6025000D01*
X20425000Y6475000D01*
X20436074Y6559116D01*
X20438560Y6564448D01*
X20438941Y6567062D01*
X20457108Y6604224D01*
X20483776Y6661412D01*
X20563588Y6741224D01*
X20620776Y6767892D01*
X20657938Y6786059D01*
X20660552Y6786440D01*
X20665884Y6788926D01*
X20750000Y6800000D01*
X21250000Y6800000D01*
X21334116Y6788926D01*
G37*
G36*
X27334116Y6788926D02*
G01*
X27339447Y6786440D01*
X27342061Y6786059D01*
X27379201Y6767903D01*
X27436412Y6741224D01*
X27516224Y6661412D01*
X27542912Y6604179D01*
X27561058Y6567062D01*
X27561438Y6564451D01*
X27563926Y6559116D01*
X27575000Y6475000D01*
X27575000Y6025000D01*
X27563926Y5940884D01*
X27561438Y5935550D01*
X27561058Y5932939D01*
X27542922Y5895843D01*
X27516224Y5838588D01*
X27436412Y5758776D01*
X27379157Y5732078D01*
X27342061Y5713942D01*
X27339450Y5713562D01*
X27334116Y5711074D01*
X27250000Y5700000D01*
X26750000Y5700000D01*
X26665884Y5711074D01*
X26660549Y5713562D01*
X26657938Y5713942D01*
X26620821Y5732088D01*
X26563588Y5758776D01*
X26483776Y5838588D01*
X26457097Y5895799D01*
X26438941Y5932939D01*
X26438560Y5935553D01*
X26436074Y5940884D01*
X26425000Y6025000D01*
X26425000Y6475000D01*
X26436074Y6559116D01*
X26438560Y6564448D01*
X26438941Y6567062D01*
X26457108Y6604224D01*
X26483776Y6661412D01*
X26563588Y6741224D01*
X26620776Y6767892D01*
X26657938Y6786059D01*
X26660552Y6786440D01*
X26665884Y6788926D01*
X26750000Y6800000D01*
X27250000Y6800000D01*
X27334116Y6788926D01*
G37*
G36*
X23449868Y8460450D02*
G01*
X23455586Y8457655D01*
X23457962Y8457278D01*
X23495987Y8437904D01*
X23553377Y8409847D01*
X23634847Y8328377D01*
X23662907Y8270980D01*
X23682276Y8232966D01*
X23682652Y8230592D01*
X23685450Y8224868D01*
X23700000Y8125000D01*
X23700000Y7425000D01*
X23685450Y7325132D01*
X23682652Y7319411D01*
X23682277Y7317038D01*
X23662926Y7279061D01*
X23634847Y7221623D01*
X23553377Y7140153D01*
X23495955Y7112081D01*
X23457965Y7092724D01*
X23455591Y7092349D01*
X23449868Y7089550D01*
X23350000Y7075000D01*
X22450000Y7075000D01*
X22350132Y7089550D01*
X22344410Y7092348D01*
X22342037Y7092723D01*
X22304035Y7112086D01*
X22246623Y7140153D01*
X22165153Y7221623D01*
X22137104Y7278997D01*
X22117723Y7317035D01*
X22117346Y7319412D01*
X22114550Y7325132D01*
X22100000Y7425000D01*
X22100000Y8125000D01*
X22114550Y8224868D01*
X22117345Y8230587D01*
X22117722Y8232963D01*
X22137108Y8271013D01*
X22165153Y8328377D01*
X22246623Y8409847D01*
X22303971Y8437884D01*
X22342034Y8457277D01*
X22344411Y8457654D01*
X22350132Y8460450D01*
X22450000Y8475000D01*
X23350000Y8475000D01*
X23449868Y8460450D01*
G37*
G36*
X25649868Y8460450D02*
G01*
X25655586Y8457655D01*
X25657962Y8457278D01*
X25695987Y8437904D01*
X25753377Y8409847D01*
X25834847Y8328377D01*
X25862907Y8270980D01*
X25882276Y8232966D01*
X25882652Y8230592D01*
X25885450Y8224868D01*
X25900000Y8125000D01*
X25900000Y7425000D01*
X25885450Y7325132D01*
X25882652Y7319411D01*
X25882277Y7317038D01*
X25862926Y7279061D01*
X25834847Y7221623D01*
X25753377Y7140153D01*
X25695955Y7112081D01*
X25657965Y7092724D01*
X25655591Y7092349D01*
X25649868Y7089550D01*
X25550000Y7075000D01*
X24650000Y7075000D01*
X24550132Y7089550D01*
X24544410Y7092348D01*
X24542037Y7092723D01*
X24504035Y7112086D01*
X24446623Y7140153D01*
X24365153Y7221623D01*
X24337104Y7278997D01*
X24317723Y7317035D01*
X24317346Y7319412D01*
X24314550Y7325132D01*
X24300000Y7425000D01*
X24300000Y8125000D01*
X24314550Y8224868D01*
X24317345Y8230587D01*
X24317722Y8232963D01*
X24337108Y8271013D01*
X24365153Y8328377D01*
X24446623Y8409847D01*
X24503971Y8437884D01*
X24542034Y8457277D01*
X24544411Y8457654D01*
X24550132Y8460450D01*
X24650000Y8475000D01*
X25550000Y8475000D01*
X25649868Y8460450D01*
G37*
G36*
X7618685Y8317031D02*
G01*
X7627358Y8313202D01*
X7634925Y8312099D01*
X7682223Y8288977D01*
X7719541Y8272499D01*
X7722996Y8269044D01*
X7723920Y8268592D01*
X7793591Y8198921D01*
X7794042Y8197998D01*
X7797499Y8194541D01*
X7813978Y8157218D01*
X7837098Y8109927D01*
X7838200Y8102361D01*
X7842031Y8093685D01*
X7850000Y8025000D01*
X7850000Y7475000D01*
X7842031Y7406315D01*
X7838199Y7397639D01*
X7837098Y7390075D01*
X7813985Y7342798D01*
X7797499Y7305459D01*
X7794041Y7302002D01*
X7793591Y7301080D01*
X7723920Y7231409D01*
X7722998Y7230959D01*
X7719541Y7227501D01*
X7682207Y7211017D01*
X7634926Y7187902D01*
X7627361Y7186800D01*
X7618685Y7182969D01*
X7550000Y7175000D01*
X7150000Y7175000D01*
X7081315Y7182969D01*
X7072638Y7186800D01*
X7065074Y7187902D01*
X7017787Y7211019D01*
X6980459Y7227501D01*
X6977002Y7230958D01*
X6976079Y7231409D01*
X6906408Y7301080D01*
X6905956Y7302004D01*
X6902501Y7305459D01*
X6886025Y7342772D01*
X6862901Y7390074D01*
X6861798Y7397643D01*
X6857969Y7406315D01*
X6850000Y7475000D01*
X6850000Y8025000D01*
X6857969Y8093685D01*
X6861798Y8102358D01*
X6862901Y8109926D01*
X6886028Y8157234D01*
X6902501Y8194541D01*
X6905955Y8197996D01*
X6906408Y8198921D01*
X6976079Y8268592D01*
X6977004Y8269045D01*
X6980459Y8272499D01*
X7017761Y8288970D01*
X7065073Y8312099D01*
X7072642Y8313202D01*
X7081315Y8317031D01*
X7150000Y8325000D01*
X7550000Y8325000D01*
X7618685Y8317031D01*
G37*
G36*
X9268685Y8317031D02*
G01*
X9277358Y8313202D01*
X9284925Y8312099D01*
X9332223Y8288977D01*
X9369541Y8272499D01*
X9372996Y8269044D01*
X9373920Y8268592D01*
X9443591Y8198921D01*
X9444042Y8197998D01*
X9447499Y8194541D01*
X9463978Y8157218D01*
X9487098Y8109927D01*
X9488200Y8102361D01*
X9492031Y8093685D01*
X9500000Y8025000D01*
X9500000Y7475000D01*
X9492031Y7406315D01*
X9488199Y7397639D01*
X9487098Y7390075D01*
X9463985Y7342798D01*
X9447499Y7305459D01*
X9444041Y7302002D01*
X9443591Y7301080D01*
X9373920Y7231409D01*
X9372998Y7230959D01*
X9369541Y7227501D01*
X9332207Y7211017D01*
X9284926Y7187902D01*
X9277361Y7186800D01*
X9268685Y7182969D01*
X9200000Y7175000D01*
X8800000Y7175000D01*
X8731315Y7182969D01*
X8722638Y7186800D01*
X8715074Y7187902D01*
X8667787Y7211019D01*
X8630459Y7227501D01*
X8627002Y7230958D01*
X8626079Y7231409D01*
X8556408Y7301080D01*
X8555956Y7302004D01*
X8552501Y7305459D01*
X8536025Y7342772D01*
X8512901Y7390074D01*
X8511798Y7397643D01*
X8507969Y7406315D01*
X8500000Y7475000D01*
X8500000Y8025000D01*
X8507969Y8093685D01*
X8511798Y8102358D01*
X8512901Y8109926D01*
X8536028Y8157234D01*
X8552501Y8194541D01*
X8555955Y8197996D01*
X8556408Y8198921D01*
X8626079Y8268592D01*
X8627004Y8269045D01*
X8630459Y8272499D01*
X8667761Y8288970D01*
X8715073Y8312099D01*
X8722642Y8313202D01*
X8731315Y8317031D01*
X8800000Y8325000D01*
X9200000Y8325000D01*
X9268685Y8317031D01*
G37*
G36*
X21334116Y8338926D02*
G01*
X21339447Y8336440D01*
X21342061Y8336059D01*
X21379201Y8317903D01*
X21436412Y8291224D01*
X21516224Y8211412D01*
X21542912Y8154179D01*
X21561058Y8117062D01*
X21561438Y8114451D01*
X21563926Y8109116D01*
X21575000Y8025000D01*
X21575000Y7575000D01*
X21563926Y7490884D01*
X21561438Y7485550D01*
X21561058Y7482939D01*
X21542922Y7445843D01*
X21516224Y7388588D01*
X21436412Y7308776D01*
X21379157Y7282078D01*
X21342061Y7263942D01*
X21339450Y7263562D01*
X21334116Y7261074D01*
X21250000Y7250000D01*
X20750000Y7250000D01*
X20665884Y7261074D01*
X20660549Y7263562D01*
X20657938Y7263942D01*
X20620821Y7282088D01*
X20563588Y7308776D01*
X20483776Y7388588D01*
X20457097Y7445799D01*
X20438941Y7482939D01*
X20438560Y7485553D01*
X20436074Y7490884D01*
X20425000Y7575000D01*
X20425000Y8025000D01*
X20436074Y8109116D01*
X20438560Y8114448D01*
X20438941Y8117062D01*
X20457108Y8154224D01*
X20483776Y8211412D01*
X20563588Y8291224D01*
X20620776Y8317892D01*
X20657938Y8336059D01*
X20660552Y8336440D01*
X20665884Y8338926D01*
X20750000Y8350000D01*
X21250000Y8350000D01*
X21334116Y8338926D01*
G37*
G36*
X27334116Y8338926D02*
G01*
X27339447Y8336440D01*
X27342061Y8336059D01*
X27379201Y8317903D01*
X27436412Y8291224D01*
X27516224Y8211412D01*
X27542912Y8154179D01*
X27561058Y8117062D01*
X27561438Y8114451D01*
X27563926Y8109116D01*
X27575000Y8025000D01*
X27575000Y7575000D01*
X27563926Y7490884D01*
X27561438Y7485550D01*
X27561058Y7482939D01*
X27542922Y7445843D01*
X27516224Y7388588D01*
X27436412Y7308776D01*
X27379157Y7282078D01*
X27342061Y7263942D01*
X27339450Y7263562D01*
X27334116Y7261074D01*
X27250000Y7250000D01*
X26750000Y7250000D01*
X26665884Y7261074D01*
X26660549Y7263562D01*
X26657938Y7263942D01*
X26620821Y7282088D01*
X26563588Y7308776D01*
X26483776Y7388588D01*
X26457097Y7445799D01*
X26438941Y7482939D01*
X26438560Y7485553D01*
X26436074Y7490884D01*
X26425000Y7575000D01*
X26425000Y8025000D01*
X26436074Y8109116D01*
X26438560Y8114448D01*
X26438941Y8117062D01*
X26457108Y8154224D01*
X26483776Y8211412D01*
X26563588Y8291224D01*
X26620776Y8317892D01*
X26657938Y8336059D01*
X26660552Y8336440D01*
X26665884Y8338926D01*
X26750000Y8350000D01*
X27250000Y8350000D01*
X27334116Y8338926D01*
G37*
G36*
X29641970Y10661679D02*
G01*
X29698744Y10623744D01*
X29724431Y10585301D01*
X29775569Y10585301D01*
X29801256Y10623744D01*
X29858030Y10661679D01*
X29925000Y10675000D01*
X30075000Y10675000D01*
X30141970Y10661679D01*
X30198744Y10623744D01*
X30224431Y10585301D01*
X30275569Y10585301D01*
X30301256Y10623744D01*
X30358030Y10661679D01*
X30425000Y10675000D01*
X30575000Y10675000D01*
X30641970Y10661679D01*
X30698744Y10623744D01*
X30724431Y10585301D01*
X30775569Y10585301D01*
X30801256Y10623744D01*
X30858030Y10661679D01*
X30925000Y10675000D01*
X31075000Y10675000D01*
X31141970Y10661679D01*
X31198744Y10623744D01*
X31224431Y10585301D01*
X31275569Y10585301D01*
X31301256Y10623744D01*
X31358030Y10661679D01*
X31425000Y10675000D01*
X31575000Y10675000D01*
X31641970Y10661679D01*
X31698744Y10623744D01*
X31724431Y10585301D01*
X31775569Y10585301D01*
X31801256Y10623744D01*
X31858030Y10661679D01*
X31925000Y10675000D01*
X32075000Y10675000D01*
X32141970Y10661679D01*
X32198744Y10623744D01*
X32224431Y10585301D01*
X32275569Y10585301D01*
X32301256Y10623744D01*
X32358030Y10661679D01*
X32425000Y10675000D01*
X32575000Y10675000D01*
X32641970Y10661679D01*
X32698744Y10623744D01*
X32724431Y10585301D01*
X32775569Y10585301D01*
X32801256Y10623744D01*
X32858030Y10661679D01*
X32925000Y10675000D01*
X33075000Y10675000D01*
X33141970Y10661679D01*
X33198744Y10623744D01*
X33224431Y10585301D01*
X33275569Y10585301D01*
X33301256Y10623744D01*
X33358030Y10661679D01*
X33425000Y10675000D01*
X33575000Y10675000D01*
X33641970Y10661679D01*
X33698744Y10623744D01*
X33724431Y10585301D01*
X33775569Y10585301D01*
X33801256Y10623744D01*
X33858030Y10661679D01*
X33925000Y10675000D01*
X34075000Y10675000D01*
X34141970Y10661679D01*
X34198744Y10623744D01*
X34224431Y10585301D01*
X34275569Y10585301D01*
X34301256Y10623744D01*
X34358030Y10661679D01*
X34425000Y10675000D01*
X34575000Y10675000D01*
X34641970Y10661679D01*
X34698744Y10623744D01*
X34724431Y10585301D01*
X34775569Y10585301D01*
X34801256Y10623744D01*
X34858030Y10661679D01*
X34925000Y10675000D01*
X35075000Y10675000D01*
X35141970Y10661679D01*
X35198744Y10623744D01*
X35236679Y10566970D01*
X35250000Y10500000D01*
X35250000Y9175000D01*
X35236679Y9108030D01*
X35198744Y9051256D01*
X35141970Y9013321D01*
X35075000Y9000000D01*
X34925000Y9000000D01*
X34858030Y9013321D01*
X34801256Y9051256D01*
X34775569Y9089700D01*
X34724431Y9089700D01*
X34698744Y9051256D01*
X34641970Y9013321D01*
X34575000Y9000000D01*
X34425000Y9000000D01*
X34358030Y9013321D01*
X34301256Y9051256D01*
X34275569Y9089700D01*
X34224431Y9089700D01*
X34198744Y9051256D01*
X34141970Y9013321D01*
X34075000Y9000000D01*
X33925000Y9000000D01*
X33858030Y9013321D01*
X33801256Y9051256D01*
X33775569Y9089700D01*
X33724431Y9089700D01*
X33698744Y9051256D01*
X33641970Y9013321D01*
X33575000Y9000000D01*
X33425000Y9000000D01*
X33358030Y9013321D01*
X33301256Y9051256D01*
X33275569Y9089700D01*
X33224431Y9089700D01*
X33198744Y9051256D01*
X33141970Y9013321D01*
X33075000Y9000000D01*
X32925000Y9000000D01*
X32858030Y9013321D01*
X32801256Y9051256D01*
X32775569Y9089700D01*
X32724431Y9089700D01*
X32698744Y9051256D01*
X32641970Y9013321D01*
X32575000Y9000000D01*
X32425000Y9000000D01*
X32358030Y9013321D01*
X32301256Y9051256D01*
X32275569Y9089700D01*
X32224431Y9089700D01*
X32198744Y9051256D01*
X32141970Y9013321D01*
X32075000Y9000000D01*
X31925000Y9000000D01*
X31858030Y9013321D01*
X31801256Y9051256D01*
X31775569Y9089700D01*
X31724431Y9089700D01*
X31698744Y9051256D01*
X31641970Y9013321D01*
X31575000Y9000000D01*
X31425000Y9000000D01*
X31358030Y9013321D01*
X31301256Y9051256D01*
X31275569Y9089700D01*
X31224431Y9089700D01*
X31198744Y9051256D01*
X31141970Y9013321D01*
X31075000Y9000000D01*
X30925000Y9000000D01*
X30858030Y9013321D01*
X30801256Y9051256D01*
X30775569Y9089700D01*
X30724431Y9089700D01*
X30698744Y9051256D01*
X30641970Y9013321D01*
X30575000Y9000000D01*
X30425000Y9000000D01*
X30358030Y9013321D01*
X30301256Y9051256D01*
X30275569Y9089700D01*
X30224431Y9089700D01*
X30198744Y9051256D01*
X30141970Y9013321D01*
X30075000Y9000000D01*
X29925000Y9000000D01*
X29858030Y9013321D01*
X29801256Y9051256D01*
X29775569Y9089700D01*
X29724431Y9089700D01*
X29698744Y9051256D01*
X29641970Y9013321D01*
X29575000Y9000000D01*
X29425000Y9000000D01*
X29358030Y9013321D01*
X29301256Y9051256D01*
X29263321Y9108030D01*
X29250000Y9175000D01*
X29250000Y10500000D01*
X29263321Y10566970D01*
X29301256Y10623744D01*
X29358030Y10661679D01*
X29425000Y10675000D01*
X29575000Y10675000D01*
X29641970Y10661679D01*
G37*
G36*
X2528686Y10279759D02*
G01*
X2582577Y10277111D01*
X2589210Y10275792D01*
X2603316Y10274867D01*
X2630562Y10267567D01*
X2699099Y10253934D01*
X2731448Y10240535D01*
X2754610Y10234328D01*
X2775377Y10222338D01*
X2807722Y10208940D01*
X2865816Y10170123D01*
X2890257Y10156012D01*
X2896946Y10149323D01*
X2905481Y10143620D01*
X2988619Y10060482D01*
X2994321Y10051948D01*
X3001012Y10045257D01*
X3015124Y10020814D01*
X3053939Y9962723D01*
X3067335Y9930382D01*
X3079328Y9909610D01*
X3085535Y9886445D01*
X3098933Y9854100D01*
X3112565Y9785567D01*
X3119867Y9758316D01*
X3119867Y9748859D01*
X3121870Y9738789D01*
X3121870Y9621212D01*
X3119867Y9611143D01*
X3119867Y9601684D01*
X3112564Y9574431D01*
X3098933Y9505901D01*
X3085535Y9473559D01*
X3079328Y9450390D01*
X3067334Y9429617D01*
X3053939Y9397278D01*
X3015128Y9339195D01*
X3001012Y9314743D01*
X2994319Y9308051D01*
X2988619Y9299519D01*
X2905481Y9216381D01*
X2896949Y9210681D01*
X2890257Y9203988D01*
X2865805Y9189872D01*
X2807722Y9151061D01*
X2775383Y9137666D01*
X2754610Y9125672D01*
X2731441Y9119465D01*
X2699099Y9106067D01*
X2630576Y9092438D01*
X2603316Y9085133D01*
X2589203Y9084209D01*
X2582577Y9082890D01*
X2528691Y9080242D01*
X2525000Y9080000D01*
X2523768Y9080000D01*
X1726232Y9080000D01*
X1725000Y9080000D01*
X1721308Y9080242D01*
X1667422Y9082890D01*
X1660795Y9084209D01*
X1646684Y9085133D01*
X1619426Y9092437D01*
X1550900Y9106067D01*
X1518555Y9119465D01*
X1495390Y9125672D01*
X1474618Y9137665D01*
X1442277Y9151061D01*
X1384186Y9189876D01*
X1359743Y9203988D01*
X1353052Y9210679D01*
X1344518Y9216381D01*
X1261380Y9299519D01*
X1255677Y9308054D01*
X1248988Y9314743D01*
X1234877Y9339184D01*
X1196060Y9397278D01*
X1182662Y9429623D01*
X1170672Y9450390D01*
X1164465Y9473552D01*
X1151066Y9505901D01*
X1137433Y9574437D01*
X1130133Y9601684D01*
X1130133Y9611142D01*
X1128130Y9621212D01*
X1128130Y9738789D01*
X1130133Y9748860D01*
X1130133Y9758316D01*
X1137433Y9785561D01*
X1151066Y9854100D01*
X1164466Y9886452D01*
X1170672Y9909610D01*
X1182660Y9930376D01*
X1196060Y9962723D01*
X1234881Y10020825D01*
X1248988Y10045257D01*
X1255675Y10051945D01*
X1261380Y10060482D01*
X1344518Y10143620D01*
X1353055Y10149325D01*
X1359743Y10156012D01*
X1384175Y10170119D01*
X1442277Y10208940D01*
X1474624Y10222340D01*
X1495390Y10234328D01*
X1518548Y10240534D01*
X1550900Y10253934D01*
X1619440Y10267568D01*
X1646684Y10274867D01*
X1660787Y10275792D01*
X1667422Y10277111D01*
X1721313Y10279759D01*
X1725000Y10280000D01*
X2525000Y10280000D01*
X2528686Y10279759D01*
G37*
G36*
X6858686Y10279759D02*
G01*
X6912577Y10277111D01*
X6919210Y10275792D01*
X6933316Y10274867D01*
X6960562Y10267567D01*
X7029099Y10253934D01*
X7061448Y10240535D01*
X7084610Y10234328D01*
X7105377Y10222338D01*
X7137722Y10208940D01*
X7195816Y10170123D01*
X7220257Y10156012D01*
X7226946Y10149323D01*
X7235481Y10143620D01*
X7318619Y10060482D01*
X7324321Y10051948D01*
X7331012Y10045257D01*
X7345124Y10020814D01*
X7383939Y9962723D01*
X7397335Y9930382D01*
X7409328Y9909610D01*
X7415535Y9886445D01*
X7428933Y9854100D01*
X7442565Y9785567D01*
X7449867Y9758316D01*
X7449867Y9748859D01*
X7451870Y9738789D01*
X7451870Y9621212D01*
X7449867Y9611143D01*
X7449867Y9601684D01*
X7442564Y9574431D01*
X7428933Y9505901D01*
X7415535Y9473559D01*
X7409328Y9450390D01*
X7397334Y9429617D01*
X7383939Y9397278D01*
X7345128Y9339195D01*
X7331012Y9314743D01*
X7324319Y9308051D01*
X7318619Y9299519D01*
X7235481Y9216381D01*
X7226949Y9210681D01*
X7220257Y9203988D01*
X7195805Y9189872D01*
X7137722Y9151061D01*
X7105383Y9137666D01*
X7084610Y9125672D01*
X7061441Y9119465D01*
X7029099Y9106067D01*
X6960576Y9092438D01*
X6933316Y9085133D01*
X6919203Y9084209D01*
X6912577Y9082890D01*
X6858691Y9080242D01*
X6855000Y9080000D01*
X6853768Y9080000D01*
X5756232Y9080000D01*
X5755000Y9080000D01*
X5751308Y9080242D01*
X5697422Y9082890D01*
X5690795Y9084209D01*
X5676684Y9085133D01*
X5649426Y9092437D01*
X5580900Y9106067D01*
X5548555Y9119465D01*
X5525390Y9125672D01*
X5504618Y9137665D01*
X5472277Y9151061D01*
X5414186Y9189876D01*
X5389743Y9203988D01*
X5383052Y9210679D01*
X5374518Y9216381D01*
X5291380Y9299519D01*
X5285677Y9308054D01*
X5278988Y9314743D01*
X5264877Y9339184D01*
X5226060Y9397278D01*
X5212662Y9429623D01*
X5200672Y9450390D01*
X5194465Y9473552D01*
X5181066Y9505901D01*
X5167433Y9574437D01*
X5160133Y9601684D01*
X5160133Y9611142D01*
X5158130Y9621212D01*
X5158130Y9738789D01*
X5160133Y9748860D01*
X5160133Y9758316D01*
X5167433Y9785561D01*
X5181066Y9854100D01*
X5194466Y9886452D01*
X5200672Y9909610D01*
X5212660Y9930376D01*
X5226060Y9962723D01*
X5264881Y10020825D01*
X5278988Y10045257D01*
X5285675Y10051945D01*
X5291380Y10060482D01*
X5374518Y10143620D01*
X5383055Y10149325D01*
X5389743Y10156012D01*
X5414175Y10170119D01*
X5472277Y10208940D01*
X5504624Y10222340D01*
X5525390Y10234328D01*
X5548548Y10240534D01*
X5580900Y10253934D01*
X5649440Y10267568D01*
X5676684Y10274867D01*
X5690787Y10275792D01*
X5697422Y10277111D01*
X5751313Y10279759D01*
X5755000Y10280000D01*
X6855000Y10280000D01*
X6858686Y10279759D01*
G37*
G36*
X40343685Y10917031D02*
G01*
X40352358Y10913202D01*
X40359925Y10912099D01*
X40407223Y10888977D01*
X40444541Y10872499D01*
X40447996Y10869044D01*
X40448920Y10868592D01*
X40518591Y10798921D01*
X40519042Y10797998D01*
X40522499Y10794541D01*
X40538978Y10757218D01*
X40562098Y10709927D01*
X40563200Y10702361D01*
X40567031Y10693685D01*
X40575000Y10625000D01*
X40575000Y10225000D01*
X40567031Y10156315D01*
X40563199Y10147639D01*
X40562098Y10140075D01*
X40538985Y10092798D01*
X40522499Y10055459D01*
X40519041Y10052002D01*
X40518591Y10051080D01*
X40448920Y9981409D01*
X40447998Y9980959D01*
X40444541Y9977501D01*
X40407207Y9961017D01*
X40359926Y9937902D01*
X40352361Y9936800D01*
X40343685Y9932969D01*
X40275000Y9925000D01*
X39725000Y9925000D01*
X39656315Y9932969D01*
X39647638Y9936800D01*
X39640074Y9937902D01*
X39592787Y9961019D01*
X39555459Y9977501D01*
X39552002Y9980958D01*
X39551079Y9981409D01*
X39481408Y10051080D01*
X39480956Y10052004D01*
X39477501Y10055459D01*
X39461025Y10092772D01*
X39437901Y10140074D01*
X39436798Y10147643D01*
X39432969Y10156315D01*
X39425000Y10225000D01*
X39425000Y10625000D01*
X39432969Y10693685D01*
X39436798Y10702358D01*
X39437901Y10709926D01*
X39461028Y10757234D01*
X39477501Y10794541D01*
X39480955Y10797996D01*
X39481408Y10798921D01*
X39551079Y10868592D01*
X39552004Y10869045D01*
X39555459Y10872499D01*
X39592761Y10888970D01*
X39640073Y10912099D01*
X39647642Y10913202D01*
X39656315Y10917031D01*
X39725000Y10925000D01*
X40275000Y10925000D01*
X40343685Y10917031D01*
G37*
G36*
X41834116Y11013926D02*
G01*
X41839447Y11011440D01*
X41842061Y11011059D01*
X41879201Y10992903D01*
X41936412Y10966224D01*
X42016224Y10886412D01*
X42042912Y10829179D01*
X42061058Y10792062D01*
X42061438Y10789451D01*
X42063926Y10784116D01*
X42075000Y10700000D01*
X42075000Y10250000D01*
X42063926Y10165884D01*
X42061438Y10160550D01*
X42061058Y10157939D01*
X42042922Y10120843D01*
X42016224Y10063588D01*
X41936412Y9983776D01*
X41879157Y9957078D01*
X41842061Y9938942D01*
X41839450Y9938562D01*
X41834116Y9936074D01*
X41750000Y9925000D01*
X41250000Y9925000D01*
X41165884Y9936074D01*
X41160549Y9938562D01*
X41157938Y9938942D01*
X41120821Y9957088D01*
X41063588Y9983776D01*
X40983776Y10063588D01*
X40957097Y10120799D01*
X40938941Y10157939D01*
X40938560Y10160553D01*
X40936074Y10165884D01*
X40925000Y10250000D01*
X40925000Y10700000D01*
X40936074Y10784116D01*
X40938560Y10789448D01*
X40938941Y10792062D01*
X40957108Y10829224D01*
X40983776Y10886412D01*
X41063588Y10966224D01*
X41120776Y10992892D01*
X41157938Y11011059D01*
X41160552Y11011440D01*
X41165884Y11013926D01*
X41250000Y11025000D01*
X41750000Y11025000D01*
X41834116Y11013926D01*
G37*
G36*
X44260549Y12711878D02*
G01*
X44452686Y12649449D01*
X44632691Y12557732D01*
X44796132Y12438985D01*
X44938985Y12296132D01*
X45057732Y12132691D01*
X45149449Y11952686D01*
X45211878Y11760549D01*
X45243481Y11561012D01*
X45243481Y11358988D01*
X45211878Y11159451D01*
X45149449Y10967314D01*
X45057732Y10787309D01*
X44938985Y10623868D01*
X44796132Y10481015D01*
X44632691Y10362268D01*
X44452686Y10270551D01*
X44260549Y10208122D01*
X44061012Y10176519D01*
X43858988Y10176519D01*
X43659451Y10208122D01*
X43467314Y10270551D01*
X43287309Y10362268D01*
X43123868Y10481015D01*
X42981015Y10623868D01*
X42862268Y10787309D01*
X42770551Y10967314D01*
X42708122Y11159451D01*
X42676519Y11358988D01*
X42676519Y11561012D01*
X42708122Y11760549D01*
X42770551Y11952686D01*
X42862268Y12132691D01*
X42981015Y12296132D01*
X43123868Y12438985D01*
X43287309Y12557732D01*
X43467314Y12649449D01*
X43659451Y12711878D01*
X43858988Y12743481D01*
X44061012Y12743481D01*
X44260549Y12711878D01*
G37*
G36*
X47435549Y12711878D02*
G01*
X47627686Y12649449D01*
X47807691Y12557732D01*
X47971132Y12438985D01*
X48113985Y12296132D01*
X48232732Y12132691D01*
X48324449Y11952686D01*
X48386878Y11760549D01*
X48418481Y11561012D01*
X48418481Y11358988D01*
X48386878Y11159451D01*
X48324449Y10967314D01*
X48232732Y10787309D01*
X48113985Y10623868D01*
X47971132Y10481015D01*
X47807691Y10362268D01*
X47627686Y10270551D01*
X47435549Y10208122D01*
X47236012Y10176519D01*
X47033988Y10176519D01*
X46834451Y10208122D01*
X46642314Y10270551D01*
X46462309Y10362268D01*
X46298868Y10481015D01*
X46156015Y10623868D01*
X46037268Y10787309D01*
X45945551Y10967314D01*
X45883122Y11159451D01*
X45851519Y11358988D01*
X45851519Y11561012D01*
X45883122Y11760549D01*
X45945551Y11952686D01*
X46037268Y12132691D01*
X46156015Y12296132D01*
X46298868Y12438985D01*
X46462309Y12557732D01*
X46642314Y12649449D01*
X46834451Y12711878D01*
X47033988Y12743481D01*
X47236012Y12743481D01*
X47435549Y12711878D01*
G37*
G36*
X7309047Y17599195D02*
G01*
X7360408Y17593236D01*
X7377954Y17585489D01*
X7400671Y17580970D01*
X7424991Y17564720D01*
X7445793Y17555535D01*
X7460000Y17541328D01*
X7481777Y17526777D01*
X7496327Y17505001D01*
X7510534Y17490794D01*
X7519718Y17469994D01*
X7535970Y17445671D01*
X7540489Y17422952D01*
X7548235Y17405409D01*
X7554192Y17354060D01*
X7555000Y17350000D01*
X7555000Y17050000D01*
X7554192Y17045941D01*
X7548235Y16994592D01*
X7540489Y16977050D01*
X7535970Y16954329D01*
X7519716Y16930005D01*
X7510534Y16909207D01*
X7496329Y16895003D01*
X7481777Y16873223D01*
X7459997Y16858671D01*
X7445792Y16844465D01*
X7424994Y16835283D01*
X7418874Y16831193D01*
X7418874Y16768808D01*
X7424993Y16764719D01*
X7445792Y16755536D01*
X7460000Y16741328D01*
X7481777Y16726777D01*
X7496327Y16705001D01*
X7510534Y16690794D01*
X7519718Y16669994D01*
X7535970Y16645671D01*
X7540489Y16622952D01*
X7548235Y16605409D01*
X7554192Y16554060D01*
X7555000Y16550000D01*
X7555000Y16250000D01*
X7554192Y16245941D01*
X7548235Y16194592D01*
X7540489Y16177050D01*
X7535970Y16154329D01*
X7519716Y16130005D01*
X7510533Y16109205D01*
X7496327Y16095001D01*
X7481777Y16073223D01*
X7459998Y16058672D01*
X7437290Y16035963D01*
X7441925Y15988895D01*
X7444508Y15987169D01*
X7446970Y15986679D01*
X7503744Y15948744D01*
X7541679Y15891970D01*
X7555000Y15825000D01*
X7555000Y15675000D01*
X7541679Y15608030D01*
X7503744Y15551256D01*
X7465300Y15525569D01*
X7465300Y15474432D01*
X7503744Y15448744D01*
X7541679Y15391970D01*
X7555000Y15325000D01*
X7555000Y15175000D01*
X7541679Y15108030D01*
X7503744Y15051256D01*
X7465300Y15025569D01*
X7465300Y14974432D01*
X7503744Y14948744D01*
X7541679Y14891970D01*
X7555000Y14825000D01*
X7555000Y14675000D01*
X7541679Y14608030D01*
X7503744Y14551256D01*
X7465300Y14525569D01*
X7465300Y14474432D01*
X7503744Y14448744D01*
X7541679Y14391970D01*
X7555000Y14325000D01*
X7555000Y14175000D01*
X7541679Y14108030D01*
X7503744Y14051256D01*
X7465300Y14025569D01*
X7465300Y13974432D01*
X7503744Y13948744D01*
X7541679Y13891970D01*
X7555000Y13825000D01*
X7555000Y13675000D01*
X7541679Y13608030D01*
X7503744Y13551256D01*
X7465300Y13525569D01*
X7465300Y13474432D01*
X7503744Y13448744D01*
X7541679Y13391970D01*
X7555000Y13325000D01*
X7555000Y13175000D01*
X7541679Y13108030D01*
X7503744Y13051256D01*
X7465300Y13025569D01*
X7465300Y12974432D01*
X7503744Y12948744D01*
X7541679Y12891970D01*
X7555000Y12825000D01*
X7555000Y12675000D01*
X7541679Y12608030D01*
X7503744Y12551256D01*
X7465300Y12525569D01*
X7465300Y12474432D01*
X7503744Y12448744D01*
X7541679Y12391970D01*
X7555000Y12325000D01*
X7555000Y12175000D01*
X7541679Y12108030D01*
X7503744Y12051256D01*
X7446970Y12013321D01*
X7444505Y12012831D01*
X7441926Y12011107D01*
X7437290Y11964039D01*
X7460002Y11941327D01*
X7481777Y11926777D01*
X7496327Y11905002D01*
X7510534Y11890794D01*
X7519718Y11869994D01*
X7535970Y11845671D01*
X7540489Y11822952D01*
X7548235Y11805409D01*
X7554192Y11754060D01*
X7555000Y11750000D01*
X7555000Y11450000D01*
X7554192Y11445941D01*
X7548235Y11394592D01*
X7540489Y11377050D01*
X7535970Y11354329D01*
X7519716Y11330005D01*
X7510534Y11309207D01*
X7496329Y11295003D01*
X7481777Y11273223D01*
X7459997Y11258671D01*
X7445792Y11244465D01*
X7424994Y11235283D01*
X7418874Y11231193D01*
X7418874Y11168808D01*
X7424993Y11164719D01*
X7445792Y11155536D01*
X7460000Y11141328D01*
X7481777Y11126777D01*
X7496327Y11105001D01*
X7510534Y11090794D01*
X7519718Y11069994D01*
X7535970Y11045671D01*
X7540489Y11022952D01*
X7548235Y11005409D01*
X7554192Y10954060D01*
X7555000Y10950000D01*
X7555000Y10650000D01*
X7554192Y10645941D01*
X7548235Y10594592D01*
X7540489Y10577050D01*
X7535970Y10554329D01*
X7519716Y10530005D01*
X7510534Y10509207D01*
X7496329Y10495003D01*
X7481777Y10473223D01*
X7459997Y10458671D01*
X7445793Y10444466D01*
X7424995Y10435284D01*
X7400671Y10419030D01*
X7377950Y10414511D01*
X7360408Y10406765D01*
X7309061Y10400808D01*
X7305000Y10400000D01*
X6605000Y10400000D01*
X6600941Y10400808D01*
X6549591Y10406765D01*
X6532048Y10414511D01*
X6509329Y10419030D01*
X6485006Y10435282D01*
X6464206Y10444466D01*
X6449999Y10458673D01*
X6428223Y10473223D01*
X6413672Y10495000D01*
X6399465Y10509207D01*
X6390280Y10530009D01*
X6374030Y10554329D01*
X6369511Y10577046D01*
X6361764Y10594592D01*
X6355805Y10645951D01*
X6355000Y10650000D01*
X6355000Y10950000D01*
X6355804Y10954047D01*
X6361764Y11005409D01*
X6369511Y11022957D01*
X6374030Y11045671D01*
X6390278Y11069990D01*
X6399465Y11090794D01*
X6413674Y11105004D01*
X6428223Y11126777D01*
X6449996Y11141326D01*
X6464207Y11155536D01*
X6485015Y11164725D01*
X6491125Y11168807D01*
X6491125Y11231194D01*
X6485014Y11235277D01*
X6464207Y11244465D01*
X6449999Y11258673D01*
X6428223Y11273223D01*
X6413672Y11295000D01*
X6399465Y11309207D01*
X6390280Y11330009D01*
X6374030Y11354329D01*
X6369511Y11377046D01*
X6361764Y11394592D01*
X6355805Y11445951D01*
X6355000Y11450000D01*
X6355000Y11750000D01*
X6355804Y11754047D01*
X6361764Y11805409D01*
X6369511Y11822956D01*
X6374030Y11845671D01*
X6390279Y11869990D01*
X6399466Y11890796D01*
X6413677Y11905008D01*
X6428223Y11926777D01*
X6446613Y11939066D01*
X6421369Y12000000D01*
X6380000Y12000000D01*
X6313030Y12013321D01*
X6256256Y12051256D01*
X6218321Y12108030D01*
X6205000Y12175000D01*
X6205000Y12325000D01*
X6218321Y12391970D01*
X6256256Y12448744D01*
X6294699Y12474431D01*
X6294699Y12525570D01*
X6256256Y12551256D01*
X6218321Y12608030D01*
X6205000Y12675000D01*
X6205000Y12825000D01*
X6218321Y12891970D01*
X6256256Y12948744D01*
X6294699Y12974431D01*
X6294699Y13025570D01*
X6256256Y13051256D01*
X6218321Y13108030D01*
X6205000Y13175000D01*
X6205000Y13325000D01*
X6218321Y13391970D01*
X6256256Y13448744D01*
X6294699Y13474431D01*
X6294699Y13525570D01*
X6256256Y13551256D01*
X6218321Y13608030D01*
X6205000Y13675000D01*
X6205000Y13825000D01*
X6218321Y13891970D01*
X6256256Y13948744D01*
X6294699Y13974431D01*
X6294699Y14025570D01*
X6256256Y14051256D01*
X6218321Y14108030D01*
X6205000Y14175000D01*
X6205000Y14325000D01*
X6218321Y14391970D01*
X6256256Y14448744D01*
X6294699Y14474431D01*
X6294699Y14525570D01*
X6256256Y14551256D01*
X6218321Y14608030D01*
X6205000Y14675000D01*
X6205000Y14825000D01*
X6218321Y14891970D01*
X6256256Y14948744D01*
X6294699Y14974431D01*
X6294699Y15025570D01*
X6256256Y15051256D01*
X6218321Y15108030D01*
X6205000Y15175000D01*
X6205000Y15325000D01*
X6218321Y15391970D01*
X6256256Y15448744D01*
X6294699Y15474431D01*
X6294699Y15525570D01*
X6256256Y15551256D01*
X6218321Y15608030D01*
X6205000Y15675000D01*
X6205000Y15825000D01*
X6218321Y15891970D01*
X6256256Y15948744D01*
X6313030Y15986679D01*
X6380000Y16000000D01*
X6384926Y16000000D01*
X6421375Y16000004D01*
X6446609Y16060938D01*
X6428223Y16073223D01*
X6413673Y16094999D01*
X6399465Y16109207D01*
X6390280Y16130009D01*
X6374030Y16154329D01*
X6369511Y16177046D01*
X6361764Y16194592D01*
X6355805Y16245951D01*
X6355000Y16250000D01*
X6355000Y16550000D01*
X6355804Y16554047D01*
X6361764Y16605409D01*
X6369511Y16622957D01*
X6374030Y16645671D01*
X6390278Y16669990D01*
X6399465Y16690794D01*
X6413674Y16705004D01*
X6428223Y16726777D01*
X6449996Y16741326D01*
X6464207Y16755536D01*
X6485015Y16764725D01*
X6491125Y16768807D01*
X6491125Y16831194D01*
X6485014Y16835277D01*
X6464207Y16844465D01*
X6449999Y16858673D01*
X6428223Y16873223D01*
X6413672Y16895000D01*
X6399465Y16909207D01*
X6390280Y16930009D01*
X6374030Y16954329D01*
X6369511Y16977046D01*
X6361764Y16994592D01*
X6355805Y17045951D01*
X6355000Y17050000D01*
X6355000Y17350000D01*
X6355804Y17354047D01*
X6361764Y17405409D01*
X6369511Y17422957D01*
X6374030Y17445671D01*
X6390278Y17469990D01*
X6399465Y17490794D01*
X6413674Y17505004D01*
X6428223Y17526777D01*
X6449996Y17541326D01*
X6464206Y17555535D01*
X6485010Y17564722D01*
X6509329Y17580970D01*
X6532043Y17585489D01*
X6549591Y17593236D01*
X6600952Y17599195D01*
X6605000Y17600000D01*
X7305000Y17600000D01*
X7309047Y17599195D01*
G37*
G36*
X5967640Y11502649D02*
G01*
X6063724Y11447175D01*
X6142175Y11368724D01*
X6197649Y11272640D01*
X6226364Y11165474D01*
X6226364Y11054526D01*
X6197649Y10947360D01*
X6142175Y10851276D01*
X6063724Y10772825D01*
X5967640Y10717351D01*
X5860474Y10688636D01*
X5749526Y10688636D01*
X5642360Y10717351D01*
X5546276Y10772825D01*
X5467825Y10851276D01*
X5412351Y10947360D01*
X5383636Y11054526D01*
X5383636Y11165474D01*
X5412351Y11272640D01*
X5467825Y11368724D01*
X5546276Y11447175D01*
X5642360Y11502649D01*
X5749526Y11531364D01*
X5860474Y11531364D01*
X5967640Y11502649D01*
G37*
G36*
X20784116Y12063926D02*
G01*
X20789447Y12061440D01*
X20792061Y12061059D01*
X20829201Y12042903D01*
X20886412Y12016224D01*
X20966224Y11936412D01*
X20992912Y11879179D01*
X21011058Y11842062D01*
X21011438Y11839451D01*
X21013926Y11834116D01*
X21025000Y11750000D01*
X21025000Y11250000D01*
X21013926Y11165884D01*
X21011438Y11160550D01*
X21011058Y11157939D01*
X20992922Y11120843D01*
X20966224Y11063588D01*
X20886412Y10983776D01*
X20829157Y10957078D01*
X20792061Y10938942D01*
X20789450Y10938562D01*
X20784116Y10936074D01*
X20700000Y10925000D01*
X20250000Y10925000D01*
X20165884Y10936074D01*
X20160549Y10938562D01*
X20157938Y10938942D01*
X20120821Y10957088D01*
X20063588Y10983776D01*
X19983776Y11063588D01*
X19957097Y11120799D01*
X19938941Y11157939D01*
X19938560Y11160553D01*
X19936074Y11165884D01*
X19925000Y11250000D01*
X19925000Y11750000D01*
X19936074Y11834116D01*
X19938560Y11839448D01*
X19938941Y11842062D01*
X19957108Y11879224D01*
X19983776Y11936412D01*
X20063588Y12016224D01*
X20120776Y12042892D01*
X20157938Y12061059D01*
X20160552Y12061440D01*
X20165884Y12063926D01*
X20250000Y12075000D01*
X20700000Y12075000D01*
X20784116Y12063926D01*
G37*
G36*
X22334116Y12063926D02*
G01*
X22339447Y12061440D01*
X22342061Y12061059D01*
X22379201Y12042903D01*
X22436412Y12016224D01*
X22516224Y11936412D01*
X22542912Y11879179D01*
X22561058Y11842062D01*
X22561438Y11839451D01*
X22563926Y11834116D01*
X22575000Y11750000D01*
X22575000Y11250000D01*
X22563926Y11165884D01*
X22561438Y11160550D01*
X22561058Y11157939D01*
X22542922Y11120843D01*
X22516224Y11063588D01*
X22436412Y10983776D01*
X22379157Y10957078D01*
X22342061Y10938942D01*
X22339450Y10938562D01*
X22334116Y10936074D01*
X22250000Y10925000D01*
X21800000Y10925000D01*
X21715884Y10936074D01*
X21710549Y10938562D01*
X21707938Y10938942D01*
X21670821Y10957088D01*
X21613588Y10983776D01*
X21533776Y11063588D01*
X21507097Y11120799D01*
X21488941Y11157939D01*
X21488560Y11160553D01*
X21486074Y11165884D01*
X21475000Y11250000D01*
X21475000Y11750000D01*
X21486074Y11834116D01*
X21488560Y11839448D01*
X21488941Y11842062D01*
X21507108Y11879224D01*
X21533776Y11936412D01*
X21613588Y12016224D01*
X21670776Y12042892D01*
X21707938Y12061059D01*
X21710552Y12061440D01*
X21715884Y12063926D01*
X21800000Y12075000D01*
X22250000Y12075000D01*
X22334116Y12063926D01*
G37*
G36*
X24443685Y12067031D02*
G01*
X24452358Y12063202D01*
X24459925Y12062099D01*
X24507223Y12038977D01*
X24544541Y12022499D01*
X24547996Y12019044D01*
X24548920Y12018592D01*
X24618591Y11948921D01*
X24619042Y11947998D01*
X24622499Y11944541D01*
X24638978Y11907218D01*
X24662098Y11859927D01*
X24663200Y11852361D01*
X24667031Y11843685D01*
X24675000Y11775000D01*
X24675000Y11225000D01*
X24667031Y11156315D01*
X24663199Y11147639D01*
X24662098Y11140075D01*
X24638985Y11092798D01*
X24622499Y11055459D01*
X24619041Y11052002D01*
X24618591Y11051080D01*
X24548920Y10981409D01*
X24547998Y10980959D01*
X24544541Y10977501D01*
X24507207Y10961017D01*
X24459926Y10937902D01*
X24452361Y10936800D01*
X24443685Y10932969D01*
X24375000Y10925000D01*
X23975000Y10925000D01*
X23906315Y10932969D01*
X23897638Y10936800D01*
X23890074Y10937902D01*
X23842787Y10961019D01*
X23805459Y10977501D01*
X23802002Y10980958D01*
X23801079Y10981409D01*
X23731408Y11051080D01*
X23730956Y11052004D01*
X23727501Y11055459D01*
X23711025Y11092772D01*
X23687901Y11140074D01*
X23686798Y11147643D01*
X23682969Y11156315D01*
X23675000Y11225000D01*
X23675000Y11775000D01*
X23682969Y11843685D01*
X23686798Y11852358D01*
X23687901Y11859926D01*
X23711028Y11907234D01*
X23727501Y11944541D01*
X23730955Y11947996D01*
X23731408Y11948921D01*
X23801079Y12018592D01*
X23802004Y12019045D01*
X23805459Y12022499D01*
X23842761Y12038970D01*
X23890073Y12062099D01*
X23897642Y12063202D01*
X23906315Y12067031D01*
X23975000Y12075000D01*
X24375000Y12075000D01*
X24443685Y12067031D01*
G37*
G36*
X26093685Y12067031D02*
G01*
X26102358Y12063202D01*
X26109925Y12062099D01*
X26157223Y12038977D01*
X26194541Y12022499D01*
X26197996Y12019044D01*
X26198920Y12018592D01*
X26268591Y11948921D01*
X26269042Y11947998D01*
X26272499Y11944541D01*
X26288978Y11907218D01*
X26312098Y11859927D01*
X26313200Y11852361D01*
X26317031Y11843685D01*
X26325000Y11775000D01*
X26325000Y11225000D01*
X26317031Y11156315D01*
X26313199Y11147639D01*
X26312098Y11140075D01*
X26288985Y11092798D01*
X26272499Y11055459D01*
X26269041Y11052002D01*
X26268591Y11051080D01*
X26198920Y10981409D01*
X26197998Y10980959D01*
X26194541Y10977501D01*
X26157207Y10961017D01*
X26109926Y10937902D01*
X26102361Y10936800D01*
X26093685Y10932969D01*
X26025000Y10925000D01*
X25625000Y10925000D01*
X25556315Y10932969D01*
X25547638Y10936800D01*
X25540074Y10937902D01*
X25492787Y10961019D01*
X25455459Y10977501D01*
X25452002Y10980958D01*
X25451079Y10981409D01*
X25381408Y11051080D01*
X25380956Y11052004D01*
X25377501Y11055459D01*
X25361025Y11092772D01*
X25337901Y11140074D01*
X25336798Y11147643D01*
X25332969Y11156315D01*
X25325000Y11225000D01*
X25325000Y11775000D01*
X25332969Y11843685D01*
X25336798Y11852358D01*
X25337901Y11859926D01*
X25361028Y11907234D01*
X25377501Y11944541D01*
X25380955Y11947996D01*
X25381408Y11948921D01*
X25451079Y12018592D01*
X25452004Y12019045D01*
X25455459Y12022499D01*
X25492761Y12038970D01*
X25540073Y12062099D01*
X25547642Y12063202D01*
X25556315Y12067031D01*
X25625000Y12075000D01*
X26025000Y12075000D01*
X26093685Y12067031D01*
G37*
G36*
X28816970Y16986679D02*
G01*
X28873744Y16948744D01*
X28911679Y16891970D01*
X28925000Y16825000D01*
X28925000Y16675000D01*
X28911679Y16608030D01*
X28873744Y16551256D01*
X28835300Y16525569D01*
X28835300Y16474432D01*
X28873744Y16448744D01*
X28911679Y16391970D01*
X28925000Y16325000D01*
X28925000Y16175000D01*
X28911679Y16108030D01*
X28873744Y16051256D01*
X28835300Y16025569D01*
X28835300Y15974432D01*
X28873744Y15948744D01*
X28911679Y15891970D01*
X28925000Y15825000D01*
X28925000Y15675000D01*
X28911679Y15608030D01*
X28873744Y15551256D01*
X28835300Y15525569D01*
X28835300Y15474432D01*
X28873744Y15448744D01*
X28911679Y15391970D01*
X28925000Y15325000D01*
X28925000Y15175000D01*
X28911679Y15108030D01*
X28873744Y15051256D01*
X28835300Y15025569D01*
X28835300Y14974432D01*
X28873744Y14948744D01*
X28911679Y14891970D01*
X28925000Y14825000D01*
X28925000Y14675000D01*
X28911679Y14608030D01*
X28873744Y14551256D01*
X28835300Y14525569D01*
X28835300Y14474432D01*
X28873744Y14448744D01*
X28911679Y14391970D01*
X28925000Y14325000D01*
X28925000Y14175000D01*
X28911679Y14108030D01*
X28873744Y14051256D01*
X28835300Y14025569D01*
X28835300Y13974432D01*
X28873744Y13948744D01*
X28911679Y13891970D01*
X28925000Y13825000D01*
X28925000Y13675000D01*
X28911679Y13608030D01*
X28873744Y13551256D01*
X28835300Y13525569D01*
X28835300Y13474432D01*
X28873744Y13448744D01*
X28911679Y13391970D01*
X28925000Y13325000D01*
X28925000Y13175000D01*
X28911679Y13108030D01*
X28873744Y13051256D01*
X28835300Y13025569D01*
X28835300Y12974432D01*
X28873744Y12948744D01*
X28911679Y12891970D01*
X28925000Y12825000D01*
X28925000Y12675000D01*
X28911679Y12608030D01*
X28873744Y12551256D01*
X28835300Y12525569D01*
X28835300Y12474432D01*
X28873744Y12448744D01*
X28911679Y12391970D01*
X28925000Y12325000D01*
X28925000Y12175000D01*
X28911679Y12108030D01*
X28873744Y12051256D01*
X28835300Y12025569D01*
X28835300Y11974432D01*
X28873744Y11948744D01*
X28911679Y11891970D01*
X28925000Y11825000D01*
X28925000Y11675000D01*
X28911679Y11608030D01*
X28873744Y11551256D01*
X28835300Y11525569D01*
X28835300Y11474432D01*
X28873744Y11448744D01*
X28911679Y11391970D01*
X28925000Y11325000D01*
X28925000Y11175000D01*
X28911679Y11108030D01*
X28873744Y11051256D01*
X28816970Y11013321D01*
X28750000Y11000000D01*
X27425000Y11000000D01*
X27358030Y11013321D01*
X27301256Y11051256D01*
X27263321Y11108030D01*
X27250000Y11175000D01*
X27250000Y11325000D01*
X27263321Y11391970D01*
X27301256Y11448744D01*
X27339699Y11474431D01*
X27339699Y11525570D01*
X27301256Y11551256D01*
X27263321Y11608030D01*
X27250000Y11675000D01*
X27250000Y11825000D01*
X27263321Y11891970D01*
X27301256Y11948744D01*
X27339699Y11974431D01*
X27339699Y12025570D01*
X27301256Y12051256D01*
X27263321Y12108030D01*
X27250000Y12175000D01*
X27250000Y12325000D01*
X27263321Y12391970D01*
X27301256Y12448744D01*
X27339699Y12474431D01*
X27339699Y12525570D01*
X27301256Y12551256D01*
X27263321Y12608030D01*
X27250000Y12675000D01*
X27250000Y12825000D01*
X27263321Y12891970D01*
X27301256Y12948744D01*
X27339699Y12974431D01*
X27339699Y13025570D01*
X27301256Y13051256D01*
X27263321Y13108030D01*
X27250000Y13175000D01*
X27250000Y13325000D01*
X27263321Y13391970D01*
X27301256Y13448744D01*
X27339699Y13474431D01*
X27339699Y13525570D01*
X27301256Y13551256D01*
X27263321Y13608030D01*
X27250000Y13675000D01*
X27250000Y13825000D01*
X27263321Y13891970D01*
X27301256Y13948744D01*
X27339699Y13974431D01*
X27339699Y14025570D01*
X27301256Y14051256D01*
X27263321Y14108030D01*
X27250000Y14175000D01*
X27250000Y14325000D01*
X27263321Y14391970D01*
X27301256Y14448744D01*
X27339699Y14474431D01*
X27339699Y14525570D01*
X27301256Y14551256D01*
X27263321Y14608030D01*
X27250000Y14675000D01*
X27250000Y14825000D01*
X27263321Y14891970D01*
X27301256Y14948744D01*
X27339699Y14974431D01*
X27339699Y15025570D01*
X27301256Y15051256D01*
X27263321Y15108030D01*
X27250000Y15175000D01*
X27250000Y15325000D01*
X27263321Y15391970D01*
X27301256Y15448744D01*
X27339699Y15474431D01*
X27339699Y15525570D01*
X27301256Y15551256D01*
X27263321Y15608030D01*
X27250000Y15675000D01*
X27250000Y15825000D01*
X27263321Y15891970D01*
X27301256Y15948744D01*
X27339699Y15974431D01*
X27339699Y16025570D01*
X27301256Y16051256D01*
X27263321Y16108030D01*
X27250000Y16175000D01*
X27250000Y16325000D01*
X27263321Y16391970D01*
X27301256Y16448744D01*
X27339699Y16474431D01*
X27339699Y16525570D01*
X27301256Y16551256D01*
X27263321Y16608030D01*
X27250000Y16675000D01*
X27250000Y16825000D01*
X27263321Y16891970D01*
X27301256Y16948744D01*
X27358030Y16986679D01*
X27425000Y17000000D01*
X28750000Y17000000D01*
X28816970Y16986679D01*
G37*
G36*
X37141970Y16986679D02*
G01*
X37198744Y16948744D01*
X37236679Y16891970D01*
X37250000Y16825000D01*
X37250000Y16675000D01*
X37236679Y16608030D01*
X37198744Y16551256D01*
X37160300Y16525569D01*
X37160300Y16474432D01*
X37198744Y16448744D01*
X37236679Y16391970D01*
X37250000Y16325000D01*
X37250000Y16175000D01*
X37236679Y16108030D01*
X37198744Y16051256D01*
X37160300Y16025569D01*
X37160300Y15974432D01*
X37198744Y15948744D01*
X37236679Y15891970D01*
X37250000Y15825000D01*
X37250000Y15675000D01*
X37236679Y15608030D01*
X37198744Y15551256D01*
X37160300Y15525569D01*
X37160300Y15474432D01*
X37198744Y15448744D01*
X37236679Y15391970D01*
X37250000Y15325000D01*
X37250000Y15175000D01*
X37236679Y15108030D01*
X37198744Y15051256D01*
X37160300Y15025569D01*
X37160300Y14974432D01*
X37198744Y14948744D01*
X37236679Y14891970D01*
X37250000Y14825000D01*
X37250000Y14675000D01*
X37236679Y14608030D01*
X37198744Y14551256D01*
X37160300Y14525569D01*
X37160300Y14474432D01*
X37198744Y14448744D01*
X37236679Y14391970D01*
X37250000Y14325000D01*
X37250000Y14175000D01*
X37236679Y14108030D01*
X37198744Y14051256D01*
X37160300Y14025569D01*
X37160300Y13974432D01*
X37198744Y13948744D01*
X37236679Y13891970D01*
X37250000Y13825000D01*
X37250000Y13675000D01*
X37236679Y13608030D01*
X37198744Y13551256D01*
X37160300Y13525569D01*
X37160300Y13474432D01*
X37198744Y13448744D01*
X37236679Y13391970D01*
X37250000Y13325000D01*
X37250000Y13175000D01*
X37236679Y13108030D01*
X37198744Y13051256D01*
X37160300Y13025569D01*
X37160300Y12974432D01*
X37198744Y12948744D01*
X37236679Y12891970D01*
X37250000Y12825000D01*
X37250000Y12675000D01*
X37236679Y12608030D01*
X37198744Y12551256D01*
X37160300Y12525569D01*
X37160300Y12474432D01*
X37198744Y12448744D01*
X37236679Y12391970D01*
X37250000Y12325000D01*
X37250000Y12175000D01*
X37236679Y12108030D01*
X37198744Y12051256D01*
X37160300Y12025569D01*
X37160300Y11974432D01*
X37198744Y11948744D01*
X37236679Y11891970D01*
X37250000Y11825000D01*
X37250000Y11675000D01*
X37236679Y11608030D01*
X37198744Y11551256D01*
X37160300Y11525569D01*
X37160300Y11474432D01*
X37198744Y11448744D01*
X37236679Y11391970D01*
X37250000Y11325000D01*
X37250000Y11175000D01*
X37236679Y11108030D01*
X37198744Y11051256D01*
X37141970Y11013321D01*
X37075000Y11000000D01*
X35750000Y11000000D01*
X35683030Y11013321D01*
X35626256Y11051256D01*
X35588321Y11108030D01*
X35575000Y11175000D01*
X35575000Y11325000D01*
X35588321Y11391970D01*
X35626256Y11448744D01*
X35664699Y11474431D01*
X35664699Y11525570D01*
X35626256Y11551256D01*
X35588321Y11608030D01*
X35575000Y11675000D01*
X35575000Y11825000D01*
X35588321Y11891970D01*
X35626256Y11948744D01*
X35664699Y11974431D01*
X35664699Y12025570D01*
X35626256Y12051256D01*
X35588321Y12108030D01*
X35575000Y12175000D01*
X35575000Y12325000D01*
X35588321Y12391970D01*
X35626256Y12448744D01*
X35664699Y12474431D01*
X35664699Y12525570D01*
X35626256Y12551256D01*
X35588321Y12608030D01*
X35575000Y12675000D01*
X35575000Y12825000D01*
X35588321Y12891970D01*
X35626256Y12948744D01*
X35664699Y12974431D01*
X35664699Y13025570D01*
X35626256Y13051256D01*
X35588321Y13108030D01*
X35575000Y13175000D01*
X35575000Y13325000D01*
X35588321Y13391970D01*
X35626256Y13448744D01*
X35664699Y13474431D01*
X35664699Y13525570D01*
X35626256Y13551256D01*
X35588321Y13608030D01*
X35575000Y13675000D01*
X35575000Y13825000D01*
X35588321Y13891970D01*
X35626256Y13948744D01*
X35664699Y13974431D01*
X35664699Y14025570D01*
X35626256Y14051256D01*
X35588321Y14108030D01*
X35575000Y14175000D01*
X35575000Y14325000D01*
X35588321Y14391970D01*
X35626256Y14448744D01*
X35664699Y14474431D01*
X35664699Y14525570D01*
X35626256Y14551256D01*
X35588321Y14608030D01*
X35575000Y14675000D01*
X35575000Y14825000D01*
X35588321Y14891970D01*
X35626256Y14948744D01*
X35664699Y14974431D01*
X35664699Y15025570D01*
X35626256Y15051256D01*
X35588321Y15108030D01*
X35575000Y15175000D01*
X35575000Y15325000D01*
X35588321Y15391970D01*
X35626256Y15448744D01*
X35664699Y15474431D01*
X35664699Y15525570D01*
X35626256Y15551256D01*
X35588321Y15608030D01*
X35575000Y15675000D01*
X35575000Y15825000D01*
X35588321Y15891970D01*
X35626256Y15948744D01*
X35664699Y15974431D01*
X35664699Y16025570D01*
X35626256Y16051256D01*
X35588321Y16108030D01*
X35575000Y16175000D01*
X35575000Y16325000D01*
X35588321Y16391970D01*
X35626256Y16448744D01*
X35664699Y16474431D01*
X35664699Y16525570D01*
X35626256Y16551256D01*
X35588321Y16608030D01*
X35575000Y16675000D01*
X35575000Y16825000D01*
X35588321Y16891970D01*
X35626256Y16948744D01*
X35683030Y16986679D01*
X35750000Y17000000D01*
X37075000Y17000000D01*
X37141970Y16986679D01*
G37*
G36*
X41834116Y12563926D02*
G01*
X41839447Y12561440D01*
X41842061Y12561059D01*
X41879201Y12542903D01*
X41936412Y12516224D01*
X42016224Y12436412D01*
X42042912Y12379179D01*
X42061058Y12342062D01*
X42061438Y12339451D01*
X42063926Y12334116D01*
X42075000Y12250000D01*
X42075000Y11800000D01*
X42063926Y11715884D01*
X42061438Y11710550D01*
X42061058Y11707939D01*
X42042922Y11670843D01*
X42016224Y11613588D01*
X41936412Y11533776D01*
X41879157Y11507078D01*
X41842061Y11488942D01*
X41839450Y11488562D01*
X41834116Y11486074D01*
X41750000Y11475000D01*
X41250000Y11475000D01*
X41165884Y11486074D01*
X41160549Y11488562D01*
X41157938Y11488942D01*
X41120821Y11507088D01*
X41063588Y11533776D01*
X40983776Y11613588D01*
X40957097Y11670799D01*
X40938941Y11707939D01*
X40938560Y11710553D01*
X40936074Y11715884D01*
X40925000Y11800000D01*
X40925000Y12250000D01*
X40936074Y12334116D01*
X40938560Y12339448D01*
X40938941Y12342062D01*
X40957108Y12379224D01*
X40983776Y12436412D01*
X41063588Y12516224D01*
X41120776Y12542892D01*
X41157938Y12561059D01*
X41160552Y12561440D01*
X41165884Y12563926D01*
X41250000Y12575000D01*
X41750000Y12575000D01*
X41834116Y12563926D01*
G37*
G36*
X40343685Y12567031D02*
G01*
X40352358Y12563202D01*
X40359925Y12562099D01*
X40407223Y12538977D01*
X40444541Y12522499D01*
X40447996Y12519044D01*
X40448920Y12518592D01*
X40518591Y12448921D01*
X40519042Y12447998D01*
X40522499Y12444541D01*
X40538978Y12407218D01*
X40562098Y12359927D01*
X40563200Y12352361D01*
X40567031Y12343685D01*
X40575000Y12275000D01*
X40575000Y11875000D01*
X40567031Y11806315D01*
X40563199Y11797639D01*
X40562098Y11790075D01*
X40538985Y11742798D01*
X40522499Y11705459D01*
X40519041Y11702002D01*
X40518591Y11701080D01*
X40448920Y11631409D01*
X40447998Y11630959D01*
X40444541Y11627501D01*
X40407207Y11611017D01*
X40359926Y11587902D01*
X40352361Y11586800D01*
X40343685Y11582969D01*
X40275000Y11575000D01*
X39725000Y11575000D01*
X39656315Y11582969D01*
X39647638Y11586800D01*
X39640074Y11587902D01*
X39592787Y11611019D01*
X39555459Y11627501D01*
X39552002Y11630958D01*
X39551079Y11631409D01*
X39481408Y11701080D01*
X39480956Y11702004D01*
X39477501Y11705459D01*
X39461025Y11742772D01*
X39437901Y11790074D01*
X39436798Y11797643D01*
X39432969Y11806315D01*
X39425000Y11875000D01*
X39425000Y12275000D01*
X39432969Y12343685D01*
X39436798Y12352358D01*
X39437901Y12359926D01*
X39461028Y12407234D01*
X39477501Y12444541D01*
X39480955Y12447996D01*
X39481408Y12448921D01*
X39551079Y12518592D01*
X39552004Y12519045D01*
X39555459Y12522499D01*
X39592761Y12538970D01*
X39640073Y12562099D01*
X39647642Y12563202D01*
X39656315Y12567031D01*
X39725000Y12575000D01*
X40275000Y12575000D01*
X40343685Y12567031D01*
G37*
G36*
X49108312Y13574207D02*
G01*
X49117702Y13574207D01*
X49144752Y13566959D01*
X49212734Y13553437D01*
X49244827Y13540144D01*
X49267811Y13533985D01*
X49288417Y13522088D01*
X49320507Y13508796D01*
X49378130Y13470293D01*
X49402396Y13456283D01*
X49409039Y13449640D01*
X49417499Y13443987D01*
X49499986Y13361500D01*
X49505638Y13353041D01*
X49512283Y13346396D01*
X49526294Y13322128D01*
X49564795Y13264508D01*
X49578085Y13232422D01*
X49589985Y13211811D01*
X49596144Y13188824D01*
X49609436Y13156735D01*
X49622958Y13088756D01*
X49630207Y13061702D01*
X49630207Y13052313D01*
X49632193Y13042328D01*
X49632193Y12925673D01*
X49630207Y12915689D01*
X49630207Y12906298D01*
X49622957Y12879242D01*
X49609436Y12811266D01*
X49596145Y12779180D01*
X49589985Y12756189D01*
X49578084Y12735577D01*
X49564795Y12703493D01*
X49526298Y12645881D01*
X49512283Y12621604D01*
X49505636Y12614958D01*
X49499986Y12606501D01*
X49417499Y12524014D01*
X49409042Y12518364D01*
X49402396Y12511717D01*
X49378119Y12497702D01*
X49320507Y12459205D01*
X49288423Y12445916D01*
X49267811Y12434015D01*
X49244820Y12427855D01*
X49212734Y12414564D01*
X49144758Y12401043D01*
X49117702Y12393793D01*
X49108311Y12393793D01*
X49098327Y12391807D01*
X48981673Y12391807D01*
X48971689Y12393793D01*
X48962298Y12393793D01*
X48935243Y12401043D01*
X48867265Y12414564D01*
X48835176Y12427856D01*
X48812189Y12434015D01*
X48791578Y12445915D01*
X48759492Y12459205D01*
X48701872Y12497706D01*
X48677604Y12511717D01*
X48670959Y12518362D01*
X48662500Y12524014D01*
X48580013Y12606501D01*
X48574360Y12614961D01*
X48567717Y12621604D01*
X48553707Y12645870D01*
X48515204Y12703493D01*
X48501912Y12735583D01*
X48490015Y12756189D01*
X48483856Y12779173D01*
X48470563Y12811266D01*
X48457041Y12879248D01*
X48449793Y12906298D01*
X48449793Y12915689D01*
X48447807Y12925673D01*
X48447807Y13042328D01*
X48449793Y13052313D01*
X48449793Y13061702D01*
X48457040Y13088750D01*
X48470563Y13156735D01*
X48483857Y13188831D01*
X48490015Y13211811D01*
X48501910Y13232416D01*
X48515204Y13264508D01*
X48553711Y13322139D01*
X48567717Y13346396D01*
X48574358Y13353038D01*
X48580013Y13361500D01*
X48662500Y13443987D01*
X48670962Y13449642D01*
X48677604Y13456283D01*
X48701861Y13470289D01*
X48759492Y13508796D01*
X48791584Y13522090D01*
X48812189Y13533985D01*
X48835169Y13540143D01*
X48867265Y13553437D01*
X48935248Y13566960D01*
X48962298Y13574207D01*
X48971688Y13574207D01*
X48981673Y13576193D01*
X49098327Y13576193D01*
X49108312Y13574207D01*
G37*
G36*
X26074868Y13635450D02*
G01*
X26080586Y13632655D01*
X26082962Y13632278D01*
X26120987Y13612904D01*
X26178377Y13584847D01*
X26259847Y13503377D01*
X26287907Y13445980D01*
X26307276Y13407966D01*
X26307652Y13405592D01*
X26310450Y13399868D01*
X26325000Y13300000D01*
X26325000Y12800000D01*
X26310450Y12700132D01*
X26307652Y12694411D01*
X26307277Y12692038D01*
X26287926Y12654061D01*
X26259847Y12596623D01*
X26178377Y12515153D01*
X26120955Y12487081D01*
X26082965Y12467724D01*
X26080591Y12467349D01*
X26074868Y12464550D01*
X25975000Y12450000D01*
X25025000Y12450000D01*
X24925132Y12464550D01*
X24919410Y12467348D01*
X24917037Y12467723D01*
X24879035Y12487086D01*
X24821623Y12515153D01*
X24740153Y12596623D01*
X24712104Y12653997D01*
X24692723Y12692035D01*
X24692346Y12694412D01*
X24689550Y12700132D01*
X24675000Y12800000D01*
X24675000Y13300000D01*
X24689550Y13399868D01*
X24692345Y13405587D01*
X24692722Y13407963D01*
X24712108Y13446013D01*
X24740153Y13503377D01*
X24821623Y13584847D01*
X24878971Y13612884D01*
X24917034Y13632277D01*
X24919411Y13632654D01*
X24925132Y13635450D01*
X25025000Y13650000D01*
X25975000Y13650000D01*
X26074868Y13635450D01*
G37*
G36*
X11379047Y13449195D02*
G01*
X11430408Y13443236D01*
X11447954Y13435489D01*
X11470671Y13430970D01*
X11494991Y13414720D01*
X11515793Y13405535D01*
X11530000Y13391328D01*
X11551777Y13376777D01*
X11566327Y13355001D01*
X11580534Y13340794D01*
X11589718Y13319994D01*
X11605970Y13295671D01*
X11610489Y13272952D01*
X11618235Y13255409D01*
X11624192Y13204060D01*
X11625000Y13200000D01*
X11625000Y12900000D01*
X11624192Y12895941D01*
X11618235Y12844592D01*
X11610489Y12827050D01*
X11605970Y12804329D01*
X11589716Y12780005D01*
X11580534Y12759207D01*
X11566329Y12745003D01*
X11551777Y12723223D01*
X11529997Y12708671D01*
X11515793Y12694466D01*
X11494995Y12685284D01*
X11470671Y12669030D01*
X11447950Y12664511D01*
X11430408Y12656765D01*
X11379061Y12650808D01*
X11375000Y12650000D01*
X10350000Y12650000D01*
X10345941Y12650808D01*
X10294591Y12656765D01*
X10277048Y12664511D01*
X10254329Y12669030D01*
X10230006Y12685282D01*
X10209206Y12694466D01*
X10194999Y12708673D01*
X10173223Y12723223D01*
X10158672Y12745000D01*
X10144465Y12759207D01*
X10135280Y12780009D01*
X10119030Y12804329D01*
X10114511Y12827046D01*
X10106764Y12844592D01*
X10100805Y12895951D01*
X10100000Y12900000D01*
X10100000Y13200000D01*
X10100804Y13204047D01*
X10106764Y13255409D01*
X10114511Y13272957D01*
X10119030Y13295671D01*
X10135278Y13319990D01*
X10144465Y13340794D01*
X10158674Y13355004D01*
X10173223Y13376777D01*
X10194996Y13391326D01*
X10209206Y13405535D01*
X10230010Y13414722D01*
X10254329Y13430970D01*
X10277043Y13435489D01*
X10294591Y13443236D01*
X10345952Y13449195D01*
X10350000Y13450000D01*
X11375000Y13450000D01*
X11379047Y13449195D01*
G37*
G36*
X13654047Y13449195D02*
G01*
X13705408Y13443236D01*
X13722954Y13435489D01*
X13745671Y13430970D01*
X13769991Y13414720D01*
X13790793Y13405535D01*
X13805000Y13391328D01*
X13826777Y13376777D01*
X13841327Y13355001D01*
X13855534Y13340794D01*
X13864718Y13319994D01*
X13880970Y13295671D01*
X13885489Y13272952D01*
X13893235Y13255409D01*
X13899192Y13204060D01*
X13900000Y13200000D01*
X13900000Y12900000D01*
X13899192Y12895941D01*
X13893235Y12844592D01*
X13885489Y12827050D01*
X13880970Y12804329D01*
X13864716Y12780005D01*
X13855534Y12759207D01*
X13841329Y12745003D01*
X13826777Y12723223D01*
X13804997Y12708671D01*
X13790793Y12694466D01*
X13769995Y12685284D01*
X13745671Y12669030D01*
X13722950Y12664511D01*
X13705408Y12656765D01*
X13654061Y12650808D01*
X13650000Y12650000D01*
X12625000Y12650000D01*
X12620941Y12650808D01*
X12569591Y12656765D01*
X12552048Y12664511D01*
X12529329Y12669030D01*
X12505006Y12685282D01*
X12484206Y12694466D01*
X12469999Y12708673D01*
X12448223Y12723223D01*
X12433672Y12745000D01*
X12419465Y12759207D01*
X12410280Y12780009D01*
X12394030Y12804329D01*
X12389511Y12827046D01*
X12381764Y12844592D01*
X12375805Y12895951D01*
X12375000Y12900000D01*
X12375000Y13200000D01*
X12375804Y13204047D01*
X12381764Y13255409D01*
X12389511Y13272957D01*
X12394030Y13295671D01*
X12410278Y13319990D01*
X12419465Y13340794D01*
X12433674Y13355004D01*
X12448223Y13376777D01*
X12469996Y13391326D01*
X12484206Y13405535D01*
X12505010Y13414722D01*
X12529329Y13430970D01*
X12552043Y13435489D01*
X12569591Y13443236D01*
X12620952Y13449195D01*
X12625000Y13450000D01*
X13650000Y13450000D01*
X13654047Y13449195D01*
G37*
G36*
X18684253Y15260727D02*
G01*
X18745083Y15220083D01*
X18785727Y15159253D01*
X18800000Y15087500D01*
X18800000Y14912500D01*
X18785727Y14840747D01*
X18745083Y14779917D01*
X18742992Y14778521D01*
X18734070Y14765167D01*
X18734070Y14734833D01*
X18742992Y14721480D01*
X18745083Y14720083D01*
X18785727Y14659253D01*
X18800000Y14587500D01*
X18800000Y14412500D01*
X18785727Y14340747D01*
X18745083Y14279917D01*
X18742992Y14278521D01*
X18734070Y14265167D01*
X18734070Y14234833D01*
X18742992Y14221480D01*
X18745083Y14220083D01*
X18785727Y14159253D01*
X18800000Y14087500D01*
X18800000Y13912500D01*
X18785727Y13840747D01*
X18745083Y13779917D01*
X18742992Y13778521D01*
X18734070Y13765167D01*
X18734070Y13734833D01*
X18742992Y13721480D01*
X18745083Y13720083D01*
X18785727Y13659253D01*
X18800000Y13587500D01*
X18800000Y13412500D01*
X18785727Y13340747D01*
X18745083Y13279917D01*
X18742992Y13278521D01*
X18734070Y13265167D01*
X18734070Y13234833D01*
X18742992Y13221480D01*
X18745083Y13220083D01*
X18785727Y13159253D01*
X18800000Y13087500D01*
X18800000Y12912500D01*
X18785727Y12840747D01*
X18745083Y12779917D01*
X18684253Y12739273D01*
X18612500Y12725000D01*
X17162500Y12725000D01*
X17090747Y12739273D01*
X17029917Y12779917D01*
X16989273Y12840747D01*
X16975000Y12912500D01*
X16975000Y13087500D01*
X16989273Y13159253D01*
X17029917Y13220083D01*
X17032005Y13221479D01*
X17040929Y13234833D01*
X17040929Y13265167D01*
X17032006Y13278522D01*
X17029917Y13279917D01*
X16989273Y13340747D01*
X16975000Y13412500D01*
X16975000Y13587500D01*
X16989273Y13659253D01*
X17029917Y13720083D01*
X17032005Y13721479D01*
X17040929Y13734833D01*
X17040929Y13765167D01*
X17032006Y13778522D01*
X17029917Y13779917D01*
X16989273Y13840747D01*
X16975000Y13912500D01*
X16975000Y14087500D01*
X16989273Y14159253D01*
X17029917Y14220083D01*
X17032005Y14221479D01*
X17040929Y14234833D01*
X17040929Y14265167D01*
X17032006Y14278522D01*
X17029917Y14279917D01*
X16989273Y14340747D01*
X16975000Y14412500D01*
X16975000Y14587500D01*
X16989273Y14659253D01*
X17029917Y14720083D01*
X17032005Y14721479D01*
X17040929Y14734833D01*
X17040929Y14765167D01*
X17032006Y14778522D01*
X17029917Y14779917D01*
X16989273Y14840747D01*
X16975000Y14912500D01*
X16975000Y15087500D01*
X16989273Y15159253D01*
X17029917Y15220083D01*
X17090747Y15260727D01*
X17162500Y15275000D01*
X18612500Y15275000D01*
X18684253Y15260727D01*
G37*
G36*
X22909253Y15260727D02*
G01*
X22970083Y15220083D01*
X23010727Y15159253D01*
X23025000Y15087500D01*
X23025000Y14912500D01*
X23010727Y14840747D01*
X22970083Y14779917D01*
X22967992Y14778521D01*
X22959070Y14765167D01*
X22959070Y14734833D01*
X22967992Y14721480D01*
X22970083Y14720083D01*
X23010727Y14659253D01*
X23025000Y14587500D01*
X23025000Y14412500D01*
X23010727Y14340747D01*
X22970083Y14279917D01*
X22967992Y14278521D01*
X22959070Y14265167D01*
X22959070Y14234833D01*
X22967992Y14221480D01*
X22970083Y14220083D01*
X23010727Y14159253D01*
X23025000Y14087500D01*
X23025000Y13912500D01*
X23010727Y13840747D01*
X22970083Y13779917D01*
X22967992Y13778521D01*
X22959070Y13765167D01*
X22959070Y13734833D01*
X22967992Y13721480D01*
X22970083Y13720083D01*
X23010727Y13659253D01*
X23025000Y13587500D01*
X23025000Y13412500D01*
X23010727Y13340747D01*
X22970083Y13279917D01*
X22967992Y13278521D01*
X22959070Y13265167D01*
X22959070Y13234833D01*
X22967992Y13221480D01*
X22970083Y13220083D01*
X23010727Y13159253D01*
X23025000Y13087500D01*
X23025000Y12912500D01*
X23010727Y12840747D01*
X22970083Y12779917D01*
X22909253Y12739273D01*
X22837500Y12725000D01*
X21387500Y12725000D01*
X21315747Y12739273D01*
X21254917Y12779917D01*
X21214273Y12840747D01*
X21200000Y12912500D01*
X21200000Y13087500D01*
X21214273Y13159253D01*
X21254917Y13220083D01*
X21257005Y13221479D01*
X21265929Y13234833D01*
X21265929Y13265167D01*
X21257006Y13278522D01*
X21254917Y13279917D01*
X21214273Y13340747D01*
X21200000Y13412500D01*
X21200000Y13587500D01*
X21214273Y13659253D01*
X21254917Y13720083D01*
X21257005Y13721479D01*
X21265929Y13734833D01*
X21265929Y13765167D01*
X21257006Y13778522D01*
X21254917Y13779917D01*
X21214273Y13840747D01*
X21200000Y13912500D01*
X21200000Y14087500D01*
X21214273Y14159253D01*
X21254917Y14220083D01*
X21257005Y14221479D01*
X21265929Y14234833D01*
X21265929Y14265167D01*
X21257006Y14278522D01*
X21254917Y14279917D01*
X21214273Y14340747D01*
X21200000Y14412500D01*
X21200000Y14587500D01*
X21214273Y14659253D01*
X21254917Y14720083D01*
X21257005Y14721479D01*
X21265929Y14734833D01*
X21265929Y14765167D01*
X21257006Y14778522D01*
X21254917Y14779917D01*
X21214273Y14840747D01*
X21200000Y14912500D01*
X21200000Y15087500D01*
X21214273Y15159253D01*
X21254917Y15220083D01*
X21315747Y15260727D01*
X21387500Y15275000D01*
X22837500Y15275000D01*
X22909253Y15260727D01*
G37*
G36*
X45418931Y13821119D02*
G01*
X45530546Y13756679D01*
X45621679Y13665546D01*
X45686119Y13553931D01*
X45719476Y13429441D01*
X45719476Y13300559D01*
X45686119Y13176069D01*
X45621679Y13064454D01*
X45530546Y12973321D01*
X45418931Y12908881D01*
X45294441Y12875524D01*
X45165559Y12875524D01*
X45041069Y12908881D01*
X44929454Y12973321D01*
X44838321Y13064454D01*
X44773881Y13176069D01*
X44740524Y13300559D01*
X44740524Y13429441D01*
X44773881Y13553931D01*
X44838321Y13665546D01*
X44929454Y13756679D01*
X45041069Y13821119D01*
X45165559Y13854476D01*
X45294441Y13854476D01*
X45418931Y13821119D01*
G37*
G36*
X46688931Y13821119D02*
G01*
X46800546Y13756679D01*
X46891679Y13665546D01*
X46956119Y13553931D01*
X46989476Y13429441D01*
X46989476Y13300559D01*
X46956119Y13176069D01*
X46891679Y13064454D01*
X46800546Y12973321D01*
X46688931Y12908881D01*
X46564441Y12875524D01*
X46435559Y12875524D01*
X46311069Y12908881D01*
X46199454Y12973321D01*
X46108321Y13064454D01*
X46043881Y13176069D01*
X46010524Y13300559D01*
X46010524Y13429441D01*
X46043881Y13553931D01*
X46108321Y13665546D01*
X46199454Y13756679D01*
X46311069Y13821119D01*
X46435559Y13854476D01*
X46564441Y13854476D01*
X46688931Y13821119D01*
G37*
G36*
X47958931Y13821119D02*
G01*
X48070546Y13756679D01*
X48161679Y13665546D01*
X48226119Y13553931D01*
X48259476Y13429441D01*
X48259476Y13300559D01*
X48226119Y13176069D01*
X48161679Y13064454D01*
X48070546Y12973321D01*
X47958931Y12908881D01*
X47834441Y12875524D01*
X47705559Y12875524D01*
X47581069Y12908881D01*
X47469454Y12973321D01*
X47378321Y13064454D01*
X47313881Y13176069D01*
X47280524Y13300559D01*
X47280524Y13429441D01*
X47313881Y13553931D01*
X47378321Y13665546D01*
X47469454Y13756679D01*
X47581069Y13821119D01*
X47705559Y13854476D01*
X47834441Y13854476D01*
X47958931Y13821119D01*
G37*
G36*
X44028312Y14590207D02*
G01*
X44037702Y14590207D01*
X44064752Y14582959D01*
X44132734Y14569437D01*
X44164827Y14556144D01*
X44187811Y14549985D01*
X44208417Y14538088D01*
X44240507Y14524796D01*
X44298130Y14486293D01*
X44322396Y14472283D01*
X44329039Y14465640D01*
X44337499Y14459987D01*
X44419986Y14377500D01*
X44425638Y14369041D01*
X44432283Y14362396D01*
X44446294Y14338128D01*
X44484795Y14280508D01*
X44498085Y14248422D01*
X44509985Y14227811D01*
X44516144Y14204824D01*
X44529436Y14172735D01*
X44542958Y14104756D01*
X44550207Y14077702D01*
X44550207Y14068313D01*
X44552193Y14058328D01*
X44552193Y13941673D01*
X44550207Y13931689D01*
X44550207Y13922298D01*
X44542957Y13895242D01*
X44529436Y13827266D01*
X44516145Y13795180D01*
X44509985Y13772189D01*
X44498084Y13751577D01*
X44484795Y13719493D01*
X44446298Y13661881D01*
X44432283Y13637604D01*
X44425636Y13630958D01*
X44419986Y13622501D01*
X44337499Y13540014D01*
X44329042Y13534364D01*
X44322396Y13527717D01*
X44298119Y13513702D01*
X44240507Y13475205D01*
X44208423Y13461916D01*
X44187811Y13450015D01*
X44164820Y13443855D01*
X44132734Y13430564D01*
X44064758Y13417043D01*
X44037702Y13409793D01*
X44028311Y13409793D01*
X44018327Y13407807D01*
X43901673Y13407807D01*
X43891689Y13409793D01*
X43882298Y13409793D01*
X43855243Y13417043D01*
X43787265Y13430564D01*
X43755176Y13443856D01*
X43732189Y13450015D01*
X43711578Y13461915D01*
X43679492Y13475205D01*
X43621872Y13513706D01*
X43597604Y13527717D01*
X43590959Y13534362D01*
X43582500Y13540014D01*
X43500013Y13622501D01*
X43494360Y13630961D01*
X43487717Y13637604D01*
X43473707Y13661870D01*
X43435204Y13719493D01*
X43421912Y13751583D01*
X43410015Y13772189D01*
X43403856Y13795173D01*
X43390563Y13827266D01*
X43377041Y13895248D01*
X43369793Y13922298D01*
X43369793Y13931689D01*
X43367807Y13941673D01*
X43367807Y14058328D01*
X43369793Y14068313D01*
X43369793Y14077702D01*
X43377040Y14104750D01*
X43390563Y14172735D01*
X43403857Y14204831D01*
X43410015Y14227811D01*
X43421910Y14248416D01*
X43435204Y14280508D01*
X43473711Y14338139D01*
X43487717Y14362396D01*
X43494358Y14369038D01*
X43500013Y14377500D01*
X43582500Y14459987D01*
X43590962Y14465642D01*
X43597604Y14472283D01*
X43621861Y14486289D01*
X43679492Y14524796D01*
X43711584Y14538090D01*
X43732189Y14549985D01*
X43755169Y14556143D01*
X43787265Y14569437D01*
X43855248Y14582960D01*
X43882298Y14590207D01*
X43891688Y14590207D01*
X43901673Y14592193D01*
X44018327Y14592193D01*
X44028312Y14590207D01*
G37*
G36*
X11379047Y14399195D02*
G01*
X11430408Y14393236D01*
X11447954Y14385489D01*
X11470671Y14380970D01*
X11494991Y14364720D01*
X11515793Y14355535D01*
X11530000Y14341328D01*
X11551777Y14326777D01*
X11566327Y14305001D01*
X11580534Y14290794D01*
X11589718Y14269994D01*
X11605970Y14245671D01*
X11610489Y14222952D01*
X11618235Y14205409D01*
X11624192Y14154060D01*
X11625000Y14150000D01*
X11625000Y13850000D01*
X11624192Y13845941D01*
X11618235Y13794592D01*
X11610489Y13777050D01*
X11605970Y13754329D01*
X11589716Y13730005D01*
X11580534Y13709207D01*
X11566329Y13695003D01*
X11551777Y13673223D01*
X11529997Y13658671D01*
X11515793Y13644466D01*
X11494995Y13635284D01*
X11470671Y13619030D01*
X11447950Y13614511D01*
X11430408Y13606765D01*
X11379061Y13600808D01*
X11375000Y13600000D01*
X10350000Y13600000D01*
X10345941Y13600808D01*
X10294591Y13606765D01*
X10277048Y13614511D01*
X10254329Y13619030D01*
X10230006Y13635282D01*
X10209206Y13644466D01*
X10194999Y13658673D01*
X10173223Y13673223D01*
X10158672Y13695000D01*
X10144465Y13709207D01*
X10135280Y13730009D01*
X10119030Y13754329D01*
X10114511Y13777046D01*
X10106764Y13794592D01*
X10100805Y13845951D01*
X10100000Y13850000D01*
X10100000Y14150000D01*
X10100804Y14154047D01*
X10106764Y14205409D01*
X10114511Y14222957D01*
X10119030Y14245671D01*
X10135278Y14269990D01*
X10144465Y14290794D01*
X10158674Y14305004D01*
X10173223Y14326777D01*
X10194996Y14341326D01*
X10209206Y14355535D01*
X10230010Y14364722D01*
X10254329Y14380970D01*
X10277043Y14385489D01*
X10294591Y14393236D01*
X10345952Y14399195D01*
X10350000Y14400000D01*
X11375000Y14400000D01*
X11379047Y14399195D01*
G37*
G36*
X13654047Y14399195D02*
G01*
X13705408Y14393236D01*
X13722954Y14385489D01*
X13745671Y14380970D01*
X13769991Y14364720D01*
X13790793Y14355535D01*
X13805000Y14341328D01*
X13826777Y14326777D01*
X13841327Y14305001D01*
X13855534Y14290794D01*
X13864718Y14269994D01*
X13880970Y14245671D01*
X13885489Y14222952D01*
X13893235Y14205409D01*
X13899192Y14154060D01*
X13900000Y14150000D01*
X13900000Y13850000D01*
X13899192Y13845941D01*
X13893235Y13794592D01*
X13885489Y13777050D01*
X13880970Y13754329D01*
X13864716Y13730005D01*
X13855534Y13709207D01*
X13841329Y13695003D01*
X13826777Y13673223D01*
X13804997Y13658671D01*
X13790793Y13644466D01*
X13769995Y13635284D01*
X13745671Y13619030D01*
X13722950Y13614511D01*
X13705408Y13606765D01*
X13654061Y13600808D01*
X13650000Y13600000D01*
X12625000Y13600000D01*
X12620941Y13600808D01*
X12569591Y13606765D01*
X12552048Y13614511D01*
X12529329Y13619030D01*
X12505006Y13635282D01*
X12484206Y13644466D01*
X12469999Y13658673D01*
X12448223Y13673223D01*
X12433672Y13695000D01*
X12419465Y13709207D01*
X12410280Y13730009D01*
X12394030Y13754329D01*
X12389511Y13777046D01*
X12381764Y13794592D01*
X12375805Y13845951D01*
X12375000Y13850000D01*
X12375000Y14150000D01*
X12375804Y14154047D01*
X12381764Y14205409D01*
X12389511Y14222957D01*
X12394030Y14245671D01*
X12410278Y14269990D01*
X12419465Y14290794D01*
X12433674Y14305004D01*
X12448223Y14326777D01*
X12469996Y14341326D01*
X12484206Y14355535D01*
X12505010Y14364722D01*
X12529329Y14380970D01*
X12552043Y14385489D01*
X12569591Y14393236D01*
X12620952Y14399195D01*
X12625000Y14400000D01*
X13650000Y14400000D01*
X13654047Y14399195D01*
G37*
G36*
X45418931Y15091119D02*
G01*
X45530546Y15026679D01*
X45621679Y14935546D01*
X45686119Y14823931D01*
X45719476Y14699441D01*
X45719476Y14570559D01*
X45686119Y14446069D01*
X45621679Y14334454D01*
X45530546Y14243321D01*
X45418931Y14178881D01*
X45294441Y14145524D01*
X45165559Y14145524D01*
X45041069Y14178881D01*
X44929454Y14243321D01*
X44838321Y14334454D01*
X44773881Y14446069D01*
X44740524Y14570559D01*
X44740524Y14699441D01*
X44773881Y14823931D01*
X44838321Y14935546D01*
X44929454Y15026679D01*
X45041069Y15091119D01*
X45165559Y15124476D01*
X45294441Y15124476D01*
X45418931Y15091119D01*
G37*
G36*
X46688931Y15091119D02*
G01*
X46800546Y15026679D01*
X46891679Y14935546D01*
X46956119Y14823931D01*
X46989476Y14699441D01*
X46989476Y14570559D01*
X46956119Y14446069D01*
X46891679Y14334454D01*
X46800546Y14243321D01*
X46688931Y14178881D01*
X46564441Y14145524D01*
X46435559Y14145524D01*
X46311069Y14178881D01*
X46199454Y14243321D01*
X46108321Y14334454D01*
X46043881Y14446069D01*
X46010524Y14570559D01*
X46010524Y14699441D01*
X46043881Y14823931D01*
X46108321Y14935546D01*
X46199454Y15026679D01*
X46311069Y15091119D01*
X46435559Y15124476D01*
X46564441Y15124476D01*
X46688931Y15091119D01*
G37*
G36*
X47958931Y15091119D02*
G01*
X48070546Y15026679D01*
X48161679Y14935546D01*
X48226119Y14823931D01*
X48259476Y14699441D01*
X48259476Y14570559D01*
X48226119Y14446069D01*
X48161679Y14334454D01*
X48070546Y14243321D01*
X47958931Y14178881D01*
X47834441Y14145524D01*
X47705559Y14145524D01*
X47581069Y14178881D01*
X47469454Y14243321D01*
X47378321Y14334454D01*
X47313881Y14446069D01*
X47280524Y14570559D01*
X47280524Y14699441D01*
X47313881Y14823931D01*
X47378321Y14935546D01*
X47469454Y15026679D01*
X47581069Y15091119D01*
X47705559Y15124476D01*
X47834441Y15124476D01*
X47958931Y15091119D01*
G37*
G36*
X26074868Y15535450D02*
G01*
X26080586Y15532655D01*
X26082962Y15532278D01*
X26120987Y15512904D01*
X26178377Y15484847D01*
X26259847Y15403377D01*
X26287907Y15345980D01*
X26307276Y15307966D01*
X26307652Y15305592D01*
X26310450Y15299868D01*
X26325000Y15200000D01*
X26325000Y14700000D01*
X26310450Y14600132D01*
X26307652Y14594411D01*
X26307277Y14592038D01*
X26287926Y14554061D01*
X26259847Y14496623D01*
X26178377Y14415153D01*
X26120955Y14387081D01*
X26082965Y14367724D01*
X26080591Y14367349D01*
X26074868Y14364550D01*
X25975000Y14350000D01*
X25025000Y14350000D01*
X24925132Y14364550D01*
X24919410Y14367348D01*
X24917037Y14367723D01*
X24879035Y14387086D01*
X24821623Y14415153D01*
X24740153Y14496623D01*
X24712104Y14553997D01*
X24692723Y14592035D01*
X24692346Y14594412D01*
X24689550Y14600132D01*
X24675000Y14700000D01*
X24675000Y15200000D01*
X24689550Y15299868D01*
X24692345Y15305587D01*
X24692722Y15307963D01*
X24712108Y15346013D01*
X24740153Y15403377D01*
X24821623Y15484847D01*
X24878971Y15512884D01*
X24917034Y15532277D01*
X24919411Y15532654D01*
X24925132Y15535450D01*
X25025000Y15550000D01*
X25975000Y15550000D01*
X26074868Y15535450D01*
G37*
G36*
X49108312Y15606207D02*
G01*
X49117702Y15606207D01*
X49144752Y15598959D01*
X49212734Y15585437D01*
X49244827Y15572144D01*
X49267811Y15565985D01*
X49288417Y15554088D01*
X49320507Y15540796D01*
X49378130Y15502293D01*
X49402396Y15488283D01*
X49409039Y15481640D01*
X49417499Y15475987D01*
X49499986Y15393500D01*
X49505638Y15385041D01*
X49512283Y15378396D01*
X49526294Y15354128D01*
X49564795Y15296508D01*
X49578085Y15264422D01*
X49589985Y15243811D01*
X49596144Y15220824D01*
X49609436Y15188735D01*
X49622958Y15120756D01*
X49630207Y15093702D01*
X49630207Y15084313D01*
X49632193Y15074328D01*
X49632193Y14957673D01*
X49630207Y14947689D01*
X49630207Y14938298D01*
X49622957Y14911242D01*
X49609436Y14843266D01*
X49596145Y14811180D01*
X49589985Y14788189D01*
X49578084Y14767577D01*
X49564795Y14735493D01*
X49526298Y14677881D01*
X49512283Y14653604D01*
X49505636Y14646958D01*
X49499986Y14638501D01*
X49417499Y14556014D01*
X49409042Y14550364D01*
X49402396Y14543717D01*
X49378119Y14529702D01*
X49320507Y14491205D01*
X49288423Y14477916D01*
X49267811Y14466015D01*
X49244820Y14459855D01*
X49212734Y14446564D01*
X49144758Y14433043D01*
X49117702Y14425793D01*
X49108311Y14425793D01*
X49098327Y14423807D01*
X48981673Y14423807D01*
X48971689Y14425793D01*
X48962298Y14425793D01*
X48935243Y14433043D01*
X48867265Y14446564D01*
X48835176Y14459856D01*
X48812189Y14466015D01*
X48791578Y14477915D01*
X48759492Y14491205D01*
X48701872Y14529706D01*
X48677604Y14543717D01*
X48670959Y14550362D01*
X48662500Y14556014D01*
X48580013Y14638501D01*
X48574360Y14646961D01*
X48567717Y14653604D01*
X48553707Y14677870D01*
X48515204Y14735493D01*
X48501912Y14767583D01*
X48490015Y14788189D01*
X48483856Y14811173D01*
X48470563Y14843266D01*
X48457041Y14911248D01*
X48449793Y14938298D01*
X48449793Y14947689D01*
X48447807Y14957673D01*
X48447807Y15074328D01*
X48449793Y15084313D01*
X48449793Y15093702D01*
X48457040Y15120750D01*
X48470563Y15188735D01*
X48483857Y15220831D01*
X48490015Y15243811D01*
X48501910Y15264416D01*
X48515204Y15296508D01*
X48553711Y15354139D01*
X48567717Y15378396D01*
X48574358Y15385038D01*
X48580013Y15393500D01*
X48662500Y15475987D01*
X48670962Y15481642D01*
X48677604Y15488283D01*
X48701861Y15502289D01*
X48759492Y15540796D01*
X48791584Y15554090D01*
X48812189Y15565985D01*
X48835169Y15572143D01*
X48867265Y15585437D01*
X48935248Y15598960D01*
X48962298Y15606207D01*
X48971688Y15606207D01*
X48981673Y15608193D01*
X49098327Y15608193D01*
X49108312Y15606207D01*
G37*
G36*
X11379047Y15349195D02*
G01*
X11430408Y15343236D01*
X11447954Y15335489D01*
X11470671Y15330970D01*
X11494991Y15314720D01*
X11515793Y15305535D01*
X11530000Y15291328D01*
X11551777Y15276777D01*
X11566327Y15255001D01*
X11580534Y15240794D01*
X11589718Y15219994D01*
X11605970Y15195671D01*
X11610489Y15172952D01*
X11618235Y15155409D01*
X11624192Y15104060D01*
X11625000Y15100000D01*
X11625000Y14800000D01*
X11624192Y14795941D01*
X11618235Y14744592D01*
X11610489Y14727050D01*
X11605970Y14704329D01*
X11589716Y14680005D01*
X11580534Y14659207D01*
X11566329Y14645003D01*
X11551777Y14623223D01*
X11529997Y14608671D01*
X11515793Y14594466D01*
X11494995Y14585284D01*
X11470671Y14569030D01*
X11447950Y14564511D01*
X11430408Y14556765D01*
X11379061Y14550808D01*
X11375000Y14550000D01*
X10350000Y14550000D01*
X10345941Y14550808D01*
X10294591Y14556765D01*
X10277048Y14564511D01*
X10254329Y14569030D01*
X10230006Y14585282D01*
X10209206Y14594466D01*
X10194999Y14608673D01*
X10173223Y14623223D01*
X10158672Y14645000D01*
X10144465Y14659207D01*
X10135280Y14680009D01*
X10119030Y14704329D01*
X10114511Y14727046D01*
X10106764Y14744592D01*
X10100805Y14795951D01*
X10100000Y14800000D01*
X10100000Y15100000D01*
X10100804Y15104047D01*
X10106764Y15155409D01*
X10114511Y15172957D01*
X10119030Y15195671D01*
X10135278Y15219990D01*
X10144465Y15240794D01*
X10158674Y15255004D01*
X10173223Y15276777D01*
X10194996Y15291326D01*
X10209206Y15305535D01*
X10230010Y15314722D01*
X10254329Y15330970D01*
X10277043Y15335489D01*
X10294591Y15343236D01*
X10345952Y15349195D01*
X10350000Y15350000D01*
X11375000Y15350000D01*
X11379047Y15349195D01*
G37*
G36*
X13654047Y15349195D02*
G01*
X13705408Y15343236D01*
X13722954Y15335489D01*
X13745671Y15330970D01*
X13769991Y15314720D01*
X13790793Y15305535D01*
X13805000Y15291328D01*
X13826777Y15276777D01*
X13841327Y15255001D01*
X13855534Y15240794D01*
X13864718Y15219994D01*
X13880970Y15195671D01*
X13885489Y15172952D01*
X13893235Y15155409D01*
X13899192Y15104060D01*
X13900000Y15100000D01*
X13900000Y14800000D01*
X13899192Y14795941D01*
X13893235Y14744592D01*
X13885489Y14727050D01*
X13880970Y14704329D01*
X13864716Y14680005D01*
X13855534Y14659207D01*
X13841329Y14645003D01*
X13826777Y14623223D01*
X13804997Y14608671D01*
X13790793Y14594466D01*
X13769995Y14585284D01*
X13745671Y14569030D01*
X13722950Y14564511D01*
X13705408Y14556765D01*
X13654061Y14550808D01*
X13650000Y14550000D01*
X12625000Y14550000D01*
X12620941Y14550808D01*
X12569591Y14556765D01*
X12552048Y14564511D01*
X12529329Y14569030D01*
X12505006Y14585282D01*
X12484206Y14594466D01*
X12469999Y14608673D01*
X12448223Y14623223D01*
X12433672Y14645000D01*
X12419465Y14659207D01*
X12410280Y14680009D01*
X12394030Y14704329D01*
X12389511Y14727046D01*
X12381764Y14744592D01*
X12375805Y14795951D01*
X12375000Y14800000D01*
X12375000Y15100000D01*
X12375804Y15104047D01*
X12381764Y15155409D01*
X12389511Y15172957D01*
X12394030Y15195671D01*
X12410278Y15219990D01*
X12419465Y15240794D01*
X12433674Y15255004D01*
X12448223Y15276777D01*
X12469996Y15291326D01*
X12484206Y15305535D01*
X12505010Y15314722D01*
X12529329Y15330970D01*
X12552043Y15335489D01*
X12569591Y15343236D01*
X12620952Y15349195D01*
X12625000Y15350000D01*
X13650000Y15350000D01*
X13654047Y15349195D01*
G37*
G36*
X44260549Y17791878D02*
G01*
X44452686Y17729449D01*
X44632691Y17637732D01*
X44796132Y17518985D01*
X44938985Y17376132D01*
X45057732Y17212691D01*
X45149449Y17032686D01*
X45211878Y16840549D01*
X45243481Y16641012D01*
X45243481Y16438988D01*
X45211878Y16239451D01*
X45149449Y16047314D01*
X45057732Y15867309D01*
X44938985Y15703868D01*
X44796132Y15561015D01*
X44632691Y15442268D01*
X44452686Y15350551D01*
X44260549Y15288122D01*
X44061012Y15256519D01*
X43858988Y15256519D01*
X43659451Y15288122D01*
X43467314Y15350551D01*
X43287309Y15442268D01*
X43123868Y15561015D01*
X42981015Y15703868D01*
X42862268Y15867309D01*
X42770551Y16047314D01*
X42708122Y16239451D01*
X42676519Y16438988D01*
X42676519Y16641012D01*
X42708122Y16840549D01*
X42770551Y17032686D01*
X42862268Y17212691D01*
X42981015Y17376132D01*
X43123868Y17518985D01*
X43287309Y17637732D01*
X43467314Y17729449D01*
X43659451Y17791878D01*
X43858988Y17823481D01*
X44061012Y17823481D01*
X44260549Y17791878D01*
G37*
G36*
X47435549Y17791878D02*
G01*
X47627686Y17729449D01*
X47807691Y17637732D01*
X47971132Y17518985D01*
X48113985Y17376132D01*
X48232732Y17212691D01*
X48324449Y17032686D01*
X48386878Y16840549D01*
X48418481Y16641012D01*
X48418481Y16438988D01*
X48386878Y16239451D01*
X48324449Y16047314D01*
X48232732Y15867309D01*
X48113985Y15703868D01*
X47971132Y15561015D01*
X47807691Y15442268D01*
X47627686Y15350551D01*
X47435549Y15288122D01*
X47236012Y15256519D01*
X47033988Y15256519D01*
X46834451Y15288122D01*
X46642314Y15350551D01*
X46462309Y15442268D01*
X46298868Y15561015D01*
X46156015Y15703868D01*
X46037268Y15867309D01*
X45945551Y16047314D01*
X45883122Y16239451D01*
X45851519Y16438988D01*
X45851519Y16641012D01*
X45883122Y16840549D01*
X45945551Y17032686D01*
X46037268Y17212691D01*
X46156015Y17376132D01*
X46298868Y17518985D01*
X46462309Y17637732D01*
X46642314Y17729449D01*
X46834451Y17791878D01*
X47033988Y17823481D01*
X47236012Y17823481D01*
X47435549Y17791878D01*
G37*
G36*
X11443685Y17067031D02*
G01*
X11452358Y17063202D01*
X11459925Y17062099D01*
X11507223Y17038977D01*
X11544541Y17022499D01*
X11547996Y17019044D01*
X11548920Y17018592D01*
X11618591Y16948921D01*
X11619042Y16947998D01*
X11622499Y16944541D01*
X11638978Y16907218D01*
X11662098Y16859927D01*
X11663200Y16852361D01*
X11667031Y16843685D01*
X11675000Y16775000D01*
X11675000Y16225000D01*
X11667031Y16156315D01*
X11663199Y16147639D01*
X11662098Y16140075D01*
X11638985Y16092798D01*
X11622499Y16055459D01*
X11619041Y16052002D01*
X11618591Y16051080D01*
X11548920Y15981409D01*
X11547998Y15980959D01*
X11544541Y15977501D01*
X11507207Y15961017D01*
X11459926Y15937902D01*
X11452361Y15936800D01*
X11443685Y15932969D01*
X11375000Y15925000D01*
X10975000Y15925000D01*
X10906315Y15932969D01*
X10897638Y15936800D01*
X10890074Y15937902D01*
X10842787Y15961019D01*
X10805459Y15977501D01*
X10802002Y15980958D01*
X10801079Y15981409D01*
X10731408Y16051080D01*
X10730956Y16052004D01*
X10727501Y16055459D01*
X10711025Y16092772D01*
X10687901Y16140074D01*
X10686798Y16147643D01*
X10682969Y16156315D01*
X10675000Y16225000D01*
X10675000Y16775000D01*
X10682969Y16843685D01*
X10686798Y16852358D01*
X10687901Y16859926D01*
X10711028Y16907234D01*
X10727501Y16944541D01*
X10730955Y16947996D01*
X10731408Y16948921D01*
X10801079Y17018592D01*
X10802004Y17019045D01*
X10805459Y17022499D01*
X10842761Y17038970D01*
X10890073Y17062099D01*
X10897642Y17063202D01*
X10906315Y17067031D01*
X10975000Y17075000D01*
X11375000Y17075000D01*
X11443685Y17067031D01*
G37*
G36*
X13093685Y17067031D02*
G01*
X13102358Y17063202D01*
X13109925Y17062099D01*
X13157223Y17038977D01*
X13194541Y17022499D01*
X13197996Y17019044D01*
X13198920Y17018592D01*
X13268591Y16948921D01*
X13269042Y16947998D01*
X13272499Y16944541D01*
X13288978Y16907218D01*
X13312098Y16859927D01*
X13313200Y16852361D01*
X13317031Y16843685D01*
X13325000Y16775000D01*
X13325000Y16225000D01*
X13317031Y16156315D01*
X13313199Y16147639D01*
X13312098Y16140075D01*
X13288985Y16092798D01*
X13272499Y16055459D01*
X13269041Y16052002D01*
X13268591Y16051080D01*
X13198920Y15981409D01*
X13197998Y15980959D01*
X13194541Y15977501D01*
X13157207Y15961017D01*
X13109926Y15937902D01*
X13102361Y15936800D01*
X13093685Y15932969D01*
X13025000Y15925000D01*
X12625000Y15925000D01*
X12556315Y15932969D01*
X12547638Y15936800D01*
X12540074Y15937902D01*
X12492787Y15961019D01*
X12455459Y15977501D01*
X12452002Y15980958D01*
X12451079Y15981409D01*
X12381408Y16051080D01*
X12380956Y16052004D01*
X12377501Y16055459D01*
X12361025Y16092772D01*
X12337901Y16140074D01*
X12336798Y16147643D01*
X12332969Y16156315D01*
X12325000Y16225000D01*
X12325000Y16775000D01*
X12332969Y16843685D01*
X12336798Y16852358D01*
X12337901Y16859926D01*
X12361028Y16907234D01*
X12377501Y16944541D01*
X12380955Y16947996D01*
X12381408Y16948921D01*
X12451079Y17018592D01*
X12452004Y17019045D01*
X12455459Y17022499D01*
X12492761Y17038970D01*
X12540073Y17062099D01*
X12547642Y17063202D01*
X12556315Y17067031D01*
X12625000Y17075000D01*
X13025000Y17075000D01*
X13093685Y17067031D01*
G37*
G36*
X21034116Y17063926D02*
G01*
X21039447Y17061440D01*
X21042061Y17061059D01*
X21079201Y17042903D01*
X21136412Y17016224D01*
X21216224Y16936412D01*
X21242912Y16879179D01*
X21261058Y16842062D01*
X21261438Y16839451D01*
X21263926Y16834116D01*
X21275000Y16750000D01*
X21275000Y16250000D01*
X21263926Y16165884D01*
X21261438Y16160550D01*
X21261058Y16157939D01*
X21242922Y16120843D01*
X21216224Y16063588D01*
X21136412Y15983776D01*
X21079157Y15957078D01*
X21042061Y15938942D01*
X21039450Y15938562D01*
X21034116Y15936074D01*
X20950000Y15925000D01*
X20500000Y15925000D01*
X20415884Y15936074D01*
X20410549Y15938562D01*
X20407938Y15938942D01*
X20370821Y15957088D01*
X20313588Y15983776D01*
X20233776Y16063588D01*
X20207097Y16120799D01*
X20188941Y16157939D01*
X20188560Y16160553D01*
X20186074Y16165884D01*
X20175000Y16250000D01*
X20175000Y16750000D01*
X20186074Y16834116D01*
X20188560Y16839448D01*
X20188941Y16842062D01*
X20207108Y16879224D01*
X20233776Y16936412D01*
X20313588Y17016224D01*
X20370776Y17042892D01*
X20407938Y17061059D01*
X20410552Y17061440D01*
X20415884Y17063926D01*
X20500000Y17075000D01*
X20950000Y17075000D01*
X21034116Y17063926D01*
G37*
G36*
X22584116Y17063926D02*
G01*
X22589447Y17061440D01*
X22592061Y17061059D01*
X22629201Y17042903D01*
X22686412Y17016224D01*
X22766224Y16936412D01*
X22792912Y16879179D01*
X22811058Y16842062D01*
X22811438Y16839451D01*
X22813926Y16834116D01*
X22825000Y16750000D01*
X22825000Y16250000D01*
X22813926Y16165884D01*
X22811438Y16160550D01*
X22811058Y16157939D01*
X22792922Y16120843D01*
X22766224Y16063588D01*
X22686412Y15983776D01*
X22629157Y15957078D01*
X22592061Y15938942D01*
X22589450Y15938562D01*
X22584116Y15936074D01*
X22500000Y15925000D01*
X22050000Y15925000D01*
X21965884Y15936074D01*
X21960549Y15938562D01*
X21957938Y15938942D01*
X21920821Y15957088D01*
X21863588Y15983776D01*
X21783776Y16063588D01*
X21757097Y16120799D01*
X21738941Y16157939D01*
X21738560Y16160553D01*
X21736074Y16165884D01*
X21725000Y16250000D01*
X21725000Y16750000D01*
X21736074Y16834116D01*
X21738560Y16839448D01*
X21738941Y16842062D01*
X21757108Y16879224D01*
X21783776Y16936412D01*
X21863588Y17016224D01*
X21920776Y17042892D01*
X21957938Y17061059D01*
X21960552Y17061440D01*
X21965884Y17063926D01*
X22050000Y17075000D01*
X22500000Y17075000D01*
X22584116Y17063926D01*
G37*
G36*
X5967640Y17282649D02*
G01*
X6063724Y17227175D01*
X6142175Y17148724D01*
X6197649Y17052640D01*
X6226364Y16945474D01*
X6226364Y16834526D01*
X6197649Y16727360D01*
X6142175Y16631276D01*
X6063724Y16552825D01*
X5967640Y16497351D01*
X5860474Y16468636D01*
X5749526Y16468636D01*
X5642360Y16497351D01*
X5546276Y16552825D01*
X5467825Y16631276D01*
X5412351Y16727360D01*
X5383636Y16834526D01*
X5383636Y16945474D01*
X5412351Y17052640D01*
X5467825Y17148724D01*
X5546276Y17227175D01*
X5642360Y17282649D01*
X5749526Y17311364D01*
X5860474Y17311364D01*
X5967640Y17282649D01*
G37*
G36*
X29641970Y18986679D02*
G01*
X29698744Y18948744D01*
X29724431Y18910301D01*
X29775569Y18910301D01*
X29801256Y18948744D01*
X29858030Y18986679D01*
X29925000Y19000000D01*
X30075000Y19000000D01*
X30141970Y18986679D01*
X30198744Y18948744D01*
X30224431Y18910301D01*
X30275569Y18910301D01*
X30301256Y18948744D01*
X30358030Y18986679D01*
X30425000Y19000000D01*
X30575000Y19000000D01*
X30641970Y18986679D01*
X30698744Y18948744D01*
X30724431Y18910301D01*
X30775569Y18910301D01*
X30801256Y18948744D01*
X30858030Y18986679D01*
X30925000Y19000000D01*
X31075000Y19000000D01*
X31141970Y18986679D01*
X31198744Y18948744D01*
X31224431Y18910301D01*
X31275569Y18910301D01*
X31301256Y18948744D01*
X31358030Y18986679D01*
X31425000Y19000000D01*
X31575000Y19000000D01*
X31641970Y18986679D01*
X31698744Y18948744D01*
X31724431Y18910301D01*
X31775569Y18910301D01*
X31801256Y18948744D01*
X31858030Y18986679D01*
X31925000Y19000000D01*
X32075000Y19000000D01*
X32141970Y18986679D01*
X32198744Y18948744D01*
X32224431Y18910301D01*
X32275569Y18910301D01*
X32301256Y18948744D01*
X32358030Y18986679D01*
X32425000Y19000000D01*
X32575000Y19000000D01*
X32641970Y18986679D01*
X32698744Y18948744D01*
X32724431Y18910301D01*
X32775569Y18910301D01*
X32801256Y18948744D01*
X32858030Y18986679D01*
X32925000Y19000000D01*
X33075000Y19000000D01*
X33141970Y18986679D01*
X33198744Y18948744D01*
X33224431Y18910301D01*
X33275569Y18910301D01*
X33301256Y18948744D01*
X33358030Y18986679D01*
X33425000Y19000000D01*
X33575000Y19000000D01*
X33641970Y18986679D01*
X33698744Y18948744D01*
X33724431Y18910301D01*
X33775569Y18910301D01*
X33801256Y18948744D01*
X33858030Y18986679D01*
X33925000Y19000000D01*
X34075000Y19000000D01*
X34141970Y18986679D01*
X34198744Y18948744D01*
X34224431Y18910301D01*
X34275569Y18910301D01*
X34301256Y18948744D01*
X34358030Y18986679D01*
X34425000Y19000000D01*
X34575000Y19000000D01*
X34641970Y18986679D01*
X34698744Y18948744D01*
X34724431Y18910301D01*
X34775569Y18910301D01*
X34801256Y18948744D01*
X34858030Y18986679D01*
X34925000Y19000000D01*
X35075000Y19000000D01*
X35141970Y18986679D01*
X35198744Y18948744D01*
X35236679Y18891970D01*
X35250000Y18825000D01*
X35250000Y17500000D01*
X35236679Y17433030D01*
X35198744Y17376256D01*
X35141970Y17338321D01*
X35075000Y17325000D01*
X34925000Y17325000D01*
X34858030Y17338321D01*
X34801256Y17376256D01*
X34775569Y17414700D01*
X34724431Y17414700D01*
X34698744Y17376256D01*
X34641970Y17338321D01*
X34575000Y17325000D01*
X34425000Y17325000D01*
X34358030Y17338321D01*
X34301256Y17376256D01*
X34275569Y17414700D01*
X34224431Y17414700D01*
X34198744Y17376256D01*
X34141970Y17338321D01*
X34075000Y17325000D01*
X33925000Y17325000D01*
X33858030Y17338321D01*
X33801256Y17376256D01*
X33775569Y17414700D01*
X33724431Y17414700D01*
X33698744Y17376256D01*
X33641970Y17338321D01*
X33575000Y17325000D01*
X33425000Y17325000D01*
X33358030Y17338321D01*
X33301256Y17376256D01*
X33275569Y17414700D01*
X33224431Y17414700D01*
X33198744Y17376256D01*
X33141970Y17338321D01*
X33075000Y17325000D01*
X32925000Y17325000D01*
X32858030Y17338321D01*
X32801256Y17376256D01*
X32775569Y17414700D01*
X32724431Y17414700D01*
X32698744Y17376256D01*
X32641970Y17338321D01*
X32575000Y17325000D01*
X32425000Y17325000D01*
X32358030Y17338321D01*
X32301256Y17376256D01*
X32275569Y17414700D01*
X32224431Y17414700D01*
X32198744Y17376256D01*
X32141970Y17338321D01*
X32075000Y17325000D01*
X31925000Y17325000D01*
X31858030Y17338321D01*
X31801256Y17376256D01*
X31775569Y17414700D01*
X31724431Y17414700D01*
X31698744Y17376256D01*
X31641970Y17338321D01*
X31575000Y17325000D01*
X31425000Y17325000D01*
X31358030Y17338321D01*
X31301256Y17376256D01*
X31275569Y17414700D01*
X31224431Y17414700D01*
X31198744Y17376256D01*
X31141970Y17338321D01*
X31075000Y17325000D01*
X30925000Y17325000D01*
X30858030Y17338321D01*
X30801256Y17376256D01*
X30775569Y17414700D01*
X30724431Y17414700D01*
X30698744Y17376256D01*
X30641970Y17338321D01*
X30575000Y17325000D01*
X30425000Y17325000D01*
X30358030Y17338321D01*
X30301256Y17376256D01*
X30275569Y17414700D01*
X30224431Y17414700D01*
X30198744Y17376256D01*
X30141970Y17338321D01*
X30075000Y17325000D01*
X29925000Y17325000D01*
X29858030Y17338321D01*
X29801256Y17376256D01*
X29775569Y17414700D01*
X29724431Y17414700D01*
X29698744Y17376256D01*
X29641970Y17338321D01*
X29575000Y17325000D01*
X29425000Y17325000D01*
X29358030Y17338321D01*
X29301256Y17376256D01*
X29263321Y17433030D01*
X29250000Y17500000D01*
X29250000Y18825000D01*
X29263321Y18891970D01*
X29301256Y18948744D01*
X29358030Y18986679D01*
X29425000Y19000000D01*
X29575000Y19000000D01*
X29641970Y18986679D01*
G37*
G36*
X11584116Y18488926D02*
G01*
X11589447Y18486440D01*
X11592061Y18486059D01*
X11629201Y18467903D01*
X11686412Y18441224D01*
X11766224Y18361412D01*
X11792912Y18304179D01*
X11811058Y18267062D01*
X11811438Y18264451D01*
X11813926Y18259116D01*
X11825000Y18175000D01*
X11825000Y17725000D01*
X11813926Y17640884D01*
X11811438Y17635550D01*
X11811058Y17632939D01*
X11792922Y17595843D01*
X11766224Y17538588D01*
X11686412Y17458776D01*
X11629157Y17432078D01*
X11592061Y17413942D01*
X11589450Y17413562D01*
X11584116Y17411074D01*
X11500000Y17400000D01*
X11000000Y17400000D01*
X10915884Y17411074D01*
X10910549Y17413562D01*
X10907938Y17413942D01*
X10870821Y17432088D01*
X10813588Y17458776D01*
X10733776Y17538588D01*
X10707097Y17595799D01*
X10688941Y17632939D01*
X10688560Y17635553D01*
X10686074Y17640884D01*
X10675000Y17725000D01*
X10675000Y18175000D01*
X10686074Y18259116D01*
X10688560Y18264448D01*
X10688941Y18267062D01*
X10707108Y18304224D01*
X10733776Y18361412D01*
X10813588Y18441224D01*
X10870776Y18467892D01*
X10907938Y18486059D01*
X10910552Y18486440D01*
X10915884Y18488926D01*
X11000000Y18500000D01*
X11500000Y18500000D01*
X11584116Y18488926D01*
G37*
G36*
X13084116Y18488926D02*
G01*
X13089447Y18486440D01*
X13092061Y18486059D01*
X13129201Y18467903D01*
X13186412Y18441224D01*
X13266224Y18361412D01*
X13292912Y18304179D01*
X13311058Y18267062D01*
X13311438Y18264451D01*
X13313926Y18259116D01*
X13325000Y18175000D01*
X13325000Y17725000D01*
X13313926Y17640884D01*
X13311438Y17635550D01*
X13311058Y17632939D01*
X13292922Y17595843D01*
X13266224Y17538588D01*
X13186412Y17458776D01*
X13129157Y17432078D01*
X13092061Y17413942D01*
X13089450Y17413562D01*
X13084116Y17411074D01*
X13000000Y17400000D01*
X12500000Y17400000D01*
X12415884Y17411074D01*
X12410549Y17413562D01*
X12407938Y17413942D01*
X12370821Y17432088D01*
X12313588Y17458776D01*
X12233776Y17538588D01*
X12207097Y17595799D01*
X12188941Y17632939D01*
X12188560Y17635553D01*
X12186074Y17640884D01*
X12175000Y17725000D01*
X12175000Y18175000D01*
X12186074Y18259116D01*
X12188560Y18264448D01*
X12188941Y18267062D01*
X12207108Y18304224D01*
X12233776Y18361412D01*
X12313588Y18441224D01*
X12370776Y18467892D01*
X12407938Y18486059D01*
X12410552Y18486440D01*
X12415884Y18488926D01*
X12500000Y18500000D01*
X13000000Y18500000D01*
X13084116Y18488926D01*
G37*
G36*
X2528686Y18919759D02*
G01*
X2582577Y18917111D01*
X2589210Y18915792D01*
X2603316Y18914867D01*
X2630562Y18907567D01*
X2699099Y18893934D01*
X2731448Y18880535D01*
X2754610Y18874328D01*
X2775377Y18862338D01*
X2807722Y18848940D01*
X2865816Y18810123D01*
X2890257Y18796012D01*
X2896946Y18789323D01*
X2905481Y18783620D01*
X2988619Y18700482D01*
X2994321Y18691948D01*
X3001012Y18685257D01*
X3015124Y18660814D01*
X3053939Y18602723D01*
X3067335Y18570382D01*
X3079328Y18549610D01*
X3085535Y18526445D01*
X3098933Y18494100D01*
X3112565Y18425567D01*
X3119867Y18398316D01*
X3119867Y18388859D01*
X3121870Y18378789D01*
X3121870Y18261212D01*
X3119867Y18251143D01*
X3119867Y18241684D01*
X3112564Y18214431D01*
X3098933Y18145901D01*
X3085535Y18113559D01*
X3079328Y18090390D01*
X3067334Y18069617D01*
X3053939Y18037278D01*
X3015128Y17979195D01*
X3001012Y17954743D01*
X2994319Y17948051D01*
X2988619Y17939519D01*
X2905481Y17856381D01*
X2896949Y17850681D01*
X2890257Y17843988D01*
X2865805Y17829872D01*
X2807722Y17791061D01*
X2775383Y17777666D01*
X2754610Y17765672D01*
X2731441Y17759465D01*
X2699099Y17746067D01*
X2630576Y17732438D01*
X2603316Y17725133D01*
X2589203Y17724209D01*
X2582577Y17722890D01*
X2528691Y17720242D01*
X2525000Y17720000D01*
X2523768Y17720000D01*
X1726232Y17720000D01*
X1725000Y17720000D01*
X1721308Y17720242D01*
X1667422Y17722890D01*
X1660795Y17724209D01*
X1646684Y17725133D01*
X1619426Y17732437D01*
X1550900Y17746067D01*
X1518555Y17759465D01*
X1495390Y17765672D01*
X1474618Y17777665D01*
X1442277Y17791061D01*
X1384186Y17829876D01*
X1359743Y17843988D01*
X1353052Y17850679D01*
X1344518Y17856381D01*
X1261380Y17939519D01*
X1255677Y17948054D01*
X1248988Y17954743D01*
X1234877Y17979184D01*
X1196060Y18037278D01*
X1182662Y18069623D01*
X1170672Y18090390D01*
X1164465Y18113552D01*
X1151066Y18145901D01*
X1137433Y18214437D01*
X1130133Y18241684D01*
X1130133Y18251142D01*
X1128130Y18261212D01*
X1128130Y18378789D01*
X1130133Y18388860D01*
X1130133Y18398316D01*
X1137433Y18425561D01*
X1151066Y18494100D01*
X1164466Y18526452D01*
X1170672Y18549610D01*
X1182660Y18570376D01*
X1196060Y18602723D01*
X1234881Y18660825D01*
X1248988Y18685257D01*
X1255675Y18691945D01*
X1261380Y18700482D01*
X1344518Y18783620D01*
X1353055Y18789325D01*
X1359743Y18796012D01*
X1384175Y18810119D01*
X1442277Y18848940D01*
X1474624Y18862340D01*
X1495390Y18874328D01*
X1518548Y18880534D01*
X1550900Y18893934D01*
X1619440Y18907568D01*
X1646684Y18914867D01*
X1660787Y18915792D01*
X1667422Y18917111D01*
X1721313Y18919759D01*
X1725000Y18920000D01*
X2525000Y18920000D01*
X2528686Y18919759D01*
G37*
G36*
X6858686Y18919759D02*
G01*
X6912577Y18917111D01*
X6919210Y18915792D01*
X6933316Y18914867D01*
X6960562Y18907567D01*
X7029099Y18893934D01*
X7061448Y18880535D01*
X7084610Y18874328D01*
X7105377Y18862338D01*
X7137722Y18848940D01*
X7195816Y18810123D01*
X7220257Y18796012D01*
X7226946Y18789323D01*
X7235481Y18783620D01*
X7318619Y18700482D01*
X7324321Y18691948D01*
X7331012Y18685257D01*
X7345124Y18660814D01*
X7383939Y18602723D01*
X7397335Y18570382D01*
X7409328Y18549610D01*
X7415535Y18526445D01*
X7428933Y18494100D01*
X7442565Y18425567D01*
X7449867Y18398316D01*
X7449867Y18388859D01*
X7451870Y18378789D01*
X7451870Y18261212D01*
X7449867Y18251143D01*
X7449867Y18241684D01*
X7442564Y18214431D01*
X7428933Y18145901D01*
X7415535Y18113559D01*
X7409328Y18090390D01*
X7397334Y18069617D01*
X7383939Y18037278D01*
X7345128Y17979195D01*
X7331012Y17954743D01*
X7324319Y17948051D01*
X7318619Y17939519D01*
X7235481Y17856381D01*
X7226949Y17850681D01*
X7220257Y17843988D01*
X7195805Y17829872D01*
X7137722Y17791061D01*
X7105383Y17777666D01*
X7084610Y17765672D01*
X7061441Y17759465D01*
X7029099Y17746067D01*
X6960576Y17732438D01*
X6933316Y17725133D01*
X6919203Y17724209D01*
X6912577Y17722890D01*
X6858691Y17720242D01*
X6855000Y17720000D01*
X6853768Y17720000D01*
X5756232Y17720000D01*
X5755000Y17720000D01*
X5751308Y17720242D01*
X5697422Y17722890D01*
X5690795Y17724209D01*
X5676684Y17725133D01*
X5649426Y17732437D01*
X5580900Y17746067D01*
X5548555Y17759465D01*
X5525390Y17765672D01*
X5504618Y17777665D01*
X5472277Y17791061D01*
X5414186Y17829876D01*
X5389743Y17843988D01*
X5383052Y17850679D01*
X5374518Y17856381D01*
X5291380Y17939519D01*
X5285677Y17948054D01*
X5278988Y17954743D01*
X5264877Y17979184D01*
X5226060Y18037278D01*
X5212662Y18069623D01*
X5200672Y18090390D01*
X5194465Y18113552D01*
X5181066Y18145901D01*
X5167433Y18214437D01*
X5160133Y18241684D01*
X5160133Y18251142D01*
X5158130Y18261212D01*
X5158130Y18378789D01*
X5160133Y18388860D01*
X5160133Y18398316D01*
X5167433Y18425561D01*
X5181066Y18494100D01*
X5194466Y18526452D01*
X5200672Y18549610D01*
X5212660Y18570376D01*
X5226060Y18602723D01*
X5264881Y18660825D01*
X5278988Y18685257D01*
X5285675Y18691945D01*
X5291380Y18700482D01*
X5374518Y18783620D01*
X5383055Y18789325D01*
X5389743Y18796012D01*
X5414175Y18810119D01*
X5472277Y18848940D01*
X5504624Y18862340D01*
X5525390Y18874328D01*
X5548548Y18880534D01*
X5580900Y18893934D01*
X5649440Y18907568D01*
X5676684Y18914867D01*
X5690787Y18915792D01*
X5697422Y18917111D01*
X5751313Y18919759D01*
X5755000Y18920000D01*
X6855000Y18920000D01*
X6858686Y18919759D01*
G37*
G36*
X11584116Y20038926D02*
G01*
X11589447Y20036440D01*
X11592061Y20036059D01*
X11629201Y20017903D01*
X11686412Y19991224D01*
X11766224Y19911412D01*
X11792912Y19854179D01*
X11811058Y19817062D01*
X11811438Y19814451D01*
X11813926Y19809116D01*
X11825000Y19725000D01*
X11825000Y19275000D01*
X11813926Y19190884D01*
X11811438Y19185550D01*
X11811058Y19182939D01*
X11792922Y19145843D01*
X11766224Y19088588D01*
X11686412Y19008776D01*
X11629157Y18982078D01*
X11592061Y18963942D01*
X11589450Y18963562D01*
X11584116Y18961074D01*
X11500000Y18950000D01*
X11000000Y18950000D01*
X10915884Y18961074D01*
X10910549Y18963562D01*
X10907938Y18963942D01*
X10870821Y18982088D01*
X10813588Y19008776D01*
X10733776Y19088588D01*
X10707097Y19145799D01*
X10688941Y19182939D01*
X10688560Y19185553D01*
X10686074Y19190884D01*
X10675000Y19275000D01*
X10675000Y19725000D01*
X10686074Y19809116D01*
X10688560Y19814448D01*
X10688941Y19817062D01*
X10707108Y19854224D01*
X10733776Y19911412D01*
X10813588Y19991224D01*
X10870776Y20017892D01*
X10907938Y20036059D01*
X10910552Y20036440D01*
X10915884Y20038926D01*
X11000000Y20050000D01*
X11500000Y20050000D01*
X11584116Y20038926D01*
G37*
G36*
X13084116Y20038926D02*
G01*
X13089447Y20036440D01*
X13092061Y20036059D01*
X13129201Y20017903D01*
X13186412Y19991224D01*
X13266224Y19911412D01*
X13292912Y19854179D01*
X13311058Y19817062D01*
X13311438Y19814451D01*
X13313926Y19809116D01*
X13325000Y19725000D01*
X13325000Y19275000D01*
X13313926Y19190884D01*
X13311438Y19185550D01*
X13311058Y19182939D01*
X13292922Y19145843D01*
X13266224Y19088588D01*
X13186412Y19008776D01*
X13129157Y18982078D01*
X13092061Y18963942D01*
X13089450Y18963562D01*
X13084116Y18961074D01*
X13000000Y18950000D01*
X12500000Y18950000D01*
X12415884Y18961074D01*
X12410549Y18963562D01*
X12407938Y18963942D01*
X12370821Y18982088D01*
X12313588Y19008776D01*
X12233776Y19088588D01*
X12207097Y19145799D01*
X12188941Y19182939D01*
X12188560Y19185553D01*
X12186074Y19190884D01*
X12175000Y19275000D01*
X12175000Y19725000D01*
X12186074Y19809116D01*
X12188560Y19814448D01*
X12188941Y19817062D01*
X12207108Y19854224D01*
X12233776Y19911412D01*
X12313588Y19991224D01*
X12370776Y20017892D01*
X12407938Y20036059D01*
X12410552Y20036440D01*
X12415884Y20038926D01*
X12500000Y20050000D01*
X13000000Y20050000D01*
X13084116Y20038926D01*
G37*
G36*
X28259116Y20563926D02*
G01*
X28264447Y20561440D01*
X28267061Y20561059D01*
X28304201Y20542903D01*
X28361412Y20516224D01*
X28441224Y20436412D01*
X28467912Y20379179D01*
X28486058Y20342062D01*
X28486438Y20339451D01*
X28488926Y20334116D01*
X28500000Y20250000D01*
X28500000Y19750000D01*
X28488926Y19665884D01*
X28486438Y19660550D01*
X28486058Y19657939D01*
X28467922Y19620843D01*
X28441224Y19563588D01*
X28361412Y19483776D01*
X28304157Y19457078D01*
X28267061Y19438942D01*
X28264450Y19438562D01*
X28259116Y19436074D01*
X28175000Y19425000D01*
X27725000Y19425000D01*
X27640884Y19436074D01*
X27635549Y19438562D01*
X27632938Y19438942D01*
X27595821Y19457088D01*
X27538588Y19483776D01*
X27458776Y19563588D01*
X27432097Y19620799D01*
X27413941Y19657939D01*
X27413560Y19660553D01*
X27411074Y19665884D01*
X27400000Y19750000D01*
X27400000Y20250000D01*
X27411074Y20334116D01*
X27413560Y20339448D01*
X27413941Y20342062D01*
X27432108Y20379224D01*
X27458776Y20436412D01*
X27538588Y20516224D01*
X27595776Y20542892D01*
X27632938Y20561059D01*
X27635552Y20561440D01*
X27640884Y20563926D01*
X27725000Y20575000D01*
X28175000Y20575000D01*
X28259116Y20563926D01*
G37*
G36*
X29809116Y20563926D02*
G01*
X29814447Y20561440D01*
X29817061Y20561059D01*
X29854201Y20542903D01*
X29911412Y20516224D01*
X29991224Y20436412D01*
X30017912Y20379179D01*
X30036058Y20342062D01*
X30036438Y20339451D01*
X30038926Y20334116D01*
X30050000Y20250000D01*
X30050000Y19750000D01*
X30038926Y19665884D01*
X30036438Y19660550D01*
X30036058Y19657939D01*
X30017922Y19620843D01*
X29991224Y19563588D01*
X29911412Y19483776D01*
X29854157Y19457078D01*
X29817061Y19438942D01*
X29814450Y19438562D01*
X29809116Y19436074D01*
X29725000Y19425000D01*
X29275000Y19425000D01*
X29190884Y19436074D01*
X29185549Y19438562D01*
X29182938Y19438942D01*
X29145821Y19457088D01*
X29088588Y19483776D01*
X29008776Y19563588D01*
X28982097Y19620799D01*
X28963941Y19657939D01*
X28963560Y19660553D01*
X28961074Y19665884D01*
X28950000Y19750000D01*
X28950000Y20250000D01*
X28961074Y20334116D01*
X28963560Y20339448D01*
X28963941Y20342062D01*
X28982108Y20379224D01*
X29008776Y20436412D01*
X29088588Y20516224D01*
X29145776Y20542892D01*
X29182938Y20561059D01*
X29185552Y20561440D01*
X29190884Y20563926D01*
X29275000Y20575000D01*
X29725000Y20575000D01*
X29809116Y20563926D01*
G37*
G36*
X32534116Y20563926D02*
G01*
X32539447Y20561440D01*
X32542061Y20561059D01*
X32579201Y20542903D01*
X32636412Y20516224D01*
X32716224Y20436412D01*
X32742912Y20379179D01*
X32761058Y20342062D01*
X32761438Y20339451D01*
X32763926Y20334116D01*
X32775000Y20250000D01*
X32775000Y19750000D01*
X32763926Y19665884D01*
X32761438Y19660550D01*
X32761058Y19657939D01*
X32742922Y19620843D01*
X32716224Y19563588D01*
X32636412Y19483776D01*
X32579157Y19457078D01*
X32542061Y19438942D01*
X32539450Y19438562D01*
X32534116Y19436074D01*
X32450000Y19425000D01*
X32000000Y19425000D01*
X31915884Y19436074D01*
X31910549Y19438562D01*
X31907938Y19438942D01*
X31870821Y19457088D01*
X31813588Y19483776D01*
X31733776Y19563588D01*
X31707097Y19620799D01*
X31688941Y19657939D01*
X31688560Y19660553D01*
X31686074Y19665884D01*
X31675000Y19750000D01*
X31675000Y20250000D01*
X31686074Y20334116D01*
X31688560Y20339448D01*
X31688941Y20342062D01*
X31707108Y20379224D01*
X31733776Y20436412D01*
X31813588Y20516224D01*
X31870776Y20542892D01*
X31907938Y20561059D01*
X31910552Y20561440D01*
X31915884Y20563926D01*
X32000000Y20575000D01*
X32450000Y20575000D01*
X32534116Y20563926D01*
G37*
G36*
X34084116Y20563926D02*
G01*
X34089447Y20561440D01*
X34092061Y20561059D01*
X34129201Y20542903D01*
X34186412Y20516224D01*
X34266224Y20436412D01*
X34292912Y20379179D01*
X34311058Y20342062D01*
X34311438Y20339451D01*
X34313926Y20334116D01*
X34325000Y20250000D01*
X34325000Y19750000D01*
X34313926Y19665884D01*
X34311438Y19660550D01*
X34311058Y19657939D01*
X34292922Y19620843D01*
X34266224Y19563588D01*
X34186412Y19483776D01*
X34129157Y19457078D01*
X34092061Y19438942D01*
X34089450Y19438562D01*
X34084116Y19436074D01*
X34000000Y19425000D01*
X33550000Y19425000D01*
X33465884Y19436074D01*
X33460549Y19438562D01*
X33457938Y19438942D01*
X33420821Y19457088D01*
X33363588Y19483776D01*
X33283776Y19563588D01*
X33257097Y19620799D01*
X33238941Y19657939D01*
X33238560Y19660553D01*
X33236074Y19665884D01*
X33225000Y19750000D01*
X33225000Y20250000D01*
X33236074Y20334116D01*
X33238560Y20339448D01*
X33238941Y20342062D01*
X33257108Y20379224D01*
X33283776Y20436412D01*
X33363588Y20516224D01*
X33420776Y20542892D01*
X33457938Y20561059D01*
X33460552Y20561440D01*
X33465884Y20563926D01*
X33550000Y20575000D01*
X34000000Y20575000D01*
X34084116Y20563926D01*
G37*
G36*
X7693685Y20817031D02*
G01*
X7702358Y20813202D01*
X7709925Y20812099D01*
X7757223Y20788977D01*
X7794541Y20772499D01*
X7797996Y20769044D01*
X7798920Y20768592D01*
X7868591Y20698921D01*
X7869042Y20697998D01*
X7872499Y20694541D01*
X7888978Y20657218D01*
X7912098Y20609927D01*
X7913200Y20602361D01*
X7917031Y20593685D01*
X7925000Y20525000D01*
X7925000Y19975000D01*
X7917031Y19906315D01*
X7913199Y19897639D01*
X7912098Y19890075D01*
X7888985Y19842798D01*
X7872499Y19805459D01*
X7869041Y19802002D01*
X7868591Y19801080D01*
X7798920Y19731409D01*
X7797998Y19730959D01*
X7794541Y19727501D01*
X7757207Y19711017D01*
X7709926Y19687902D01*
X7702361Y19686800D01*
X7693685Y19682969D01*
X7625000Y19675000D01*
X7225000Y19675000D01*
X7156315Y19682969D01*
X7147638Y19686800D01*
X7140074Y19687902D01*
X7092787Y19711019D01*
X7055459Y19727501D01*
X7052002Y19730958D01*
X7051079Y19731409D01*
X6981408Y19801080D01*
X6980956Y19802004D01*
X6977501Y19805459D01*
X6961025Y19842772D01*
X6937901Y19890074D01*
X6936798Y19897643D01*
X6932969Y19906315D01*
X6925000Y19975000D01*
X6925000Y20525000D01*
X6932969Y20593685D01*
X6936798Y20602358D01*
X6937901Y20609926D01*
X6961028Y20657234D01*
X6977501Y20694541D01*
X6980955Y20697996D01*
X6981408Y20698921D01*
X7051079Y20768592D01*
X7052004Y20769045D01*
X7055459Y20772499D01*
X7092761Y20788970D01*
X7140073Y20812099D01*
X7147642Y20813202D01*
X7156315Y20817031D01*
X7225000Y20825000D01*
X7625000Y20825000D01*
X7693685Y20817031D01*
G37*
G36*
X9343685Y20817031D02*
G01*
X9352358Y20813202D01*
X9359925Y20812099D01*
X9407223Y20788977D01*
X9444541Y20772499D01*
X9447996Y20769044D01*
X9448920Y20768592D01*
X9518591Y20698921D01*
X9519042Y20697998D01*
X9522499Y20694541D01*
X9538978Y20657218D01*
X9562098Y20609927D01*
X9563200Y20602361D01*
X9567031Y20593685D01*
X9575000Y20525000D01*
X9575000Y19975000D01*
X9567031Y19906315D01*
X9563199Y19897639D01*
X9562098Y19890075D01*
X9538985Y19842798D01*
X9522499Y19805459D01*
X9519041Y19802002D01*
X9518591Y19801080D01*
X9448920Y19731409D01*
X9447998Y19730959D01*
X9444541Y19727501D01*
X9407207Y19711017D01*
X9359926Y19687902D01*
X9352361Y19686800D01*
X9343685Y19682969D01*
X9275000Y19675000D01*
X8875000Y19675000D01*
X8806315Y19682969D01*
X8797638Y19686800D01*
X8790074Y19687902D01*
X8742787Y19711019D01*
X8705459Y19727501D01*
X8702002Y19730958D01*
X8701079Y19731409D01*
X8631408Y19801080D01*
X8630956Y19802004D01*
X8627501Y19805459D01*
X8611025Y19842772D01*
X8587901Y19890074D01*
X8586798Y19897643D01*
X8582969Y19906315D01*
X8575000Y19975000D01*
X8575000Y20525000D01*
X8582969Y20593685D01*
X8586798Y20602358D01*
X8587901Y20609926D01*
X8611028Y20657234D01*
X8627501Y20694541D01*
X8630955Y20697996D01*
X8631408Y20698921D01*
X8701079Y20768592D01*
X8702004Y20769045D01*
X8705459Y20772499D01*
X8742761Y20788970D01*
X8790073Y20812099D01*
X8797642Y20813202D01*
X8806315Y20817031D01*
X8875000Y20825000D01*
X9275000Y20825000D01*
X9343685Y20817031D01*
G37*
G36*
X19534116Y21313926D02*
G01*
X19539447Y21311440D01*
X19542061Y21311059D01*
X19579201Y21292903D01*
X19636412Y21266224D01*
X19716224Y21186412D01*
X19742912Y21129179D01*
X19761058Y21092062D01*
X19761438Y21089451D01*
X19763926Y21084116D01*
X19775000Y21000000D01*
X19775000Y20500000D01*
X19763926Y20415884D01*
X19761438Y20410550D01*
X19761058Y20407939D01*
X19742922Y20370843D01*
X19716224Y20313588D01*
X19636412Y20233776D01*
X19579157Y20207078D01*
X19542061Y20188942D01*
X19539450Y20188562D01*
X19534116Y20186074D01*
X19450000Y20175000D01*
X19000000Y20175000D01*
X18915884Y20186074D01*
X18910549Y20188562D01*
X18907938Y20188942D01*
X18870821Y20207088D01*
X18813588Y20233776D01*
X18733776Y20313588D01*
X18707097Y20370799D01*
X18688941Y20407939D01*
X18688560Y20410553D01*
X18686074Y20415884D01*
X18675000Y20500000D01*
X18675000Y21000000D01*
X18686074Y21084116D01*
X18688560Y21089448D01*
X18688941Y21092062D01*
X18707108Y21129224D01*
X18733776Y21186412D01*
X18813588Y21266224D01*
X18870776Y21292892D01*
X18907938Y21311059D01*
X18910552Y21311440D01*
X18915884Y21313926D01*
X19000000Y21325000D01*
X19450000Y21325000D01*
X19534116Y21313926D01*
G37*
G36*
X21084116Y21313926D02*
G01*
X21089447Y21311440D01*
X21092061Y21311059D01*
X21129201Y21292903D01*
X21186412Y21266224D01*
X21266224Y21186412D01*
X21292912Y21129179D01*
X21311058Y21092062D01*
X21311438Y21089451D01*
X21313926Y21084116D01*
X21325000Y21000000D01*
X21325000Y20500000D01*
X21313926Y20415884D01*
X21311438Y20410550D01*
X21311058Y20407939D01*
X21292922Y20370843D01*
X21266224Y20313588D01*
X21186412Y20233776D01*
X21129157Y20207078D01*
X21092061Y20188942D01*
X21089450Y20188562D01*
X21084116Y20186074D01*
X21000000Y20175000D01*
X20550000Y20175000D01*
X20465884Y20186074D01*
X20460549Y20188562D01*
X20457938Y20188942D01*
X20420821Y20207088D01*
X20363588Y20233776D01*
X20283776Y20313588D01*
X20257097Y20370799D01*
X20238941Y20407939D01*
X20238560Y20410553D01*
X20236074Y20415884D01*
X20225000Y20500000D01*
X20225000Y21000000D01*
X20236074Y21084116D01*
X20238560Y21089448D01*
X20238941Y21092062D01*
X20257108Y21129224D01*
X20283776Y21186412D01*
X20363588Y21266224D01*
X20420776Y21292892D01*
X20457938Y21311059D01*
X20460552Y21311440D01*
X20465884Y21313926D01*
X20550000Y21325000D01*
X21000000Y21325000D01*
X21084116Y21313926D01*
G37*
G36*
X4434211Y27264282D02*
G01*
X4751835Y27201103D01*
X5061737Y27107095D01*
X5360932Y26983165D01*
X5646539Y26830504D01*
X5915808Y26650585D01*
X6166145Y26445139D01*
X6395139Y26216145D01*
X6600585Y25965808D01*
X6780504Y25696539D01*
X6933165Y25410932D01*
X7057095Y25111737D01*
X7151103Y24801835D01*
X7214282Y24484211D01*
X7246025Y24161923D01*
X7246025Y23838077D01*
X7214282Y23515789D01*
X7151103Y23198165D01*
X7057095Y22888263D01*
X6933165Y22589068D01*
X6780504Y22303461D01*
X6600585Y22034192D01*
X6395139Y21783855D01*
X6166145Y21554861D01*
X5915808Y21349415D01*
X5646539Y21169496D01*
X5360932Y21016835D01*
X5061737Y20892905D01*
X4751835Y20798897D01*
X4434211Y20735718D01*
X4111923Y20703975D01*
X3788077Y20703975D01*
X3465789Y20735718D01*
X3148165Y20798897D01*
X2838263Y20892905D01*
X2539068Y21016835D01*
X2253461Y21169496D01*
X1984192Y21349415D01*
X1733855Y21554861D01*
X1504861Y21783855D01*
X1299415Y22034192D01*
X1119496Y22303461D01*
X966835Y22589068D01*
X842905Y22888263D01*
X748897Y23198165D01*
X685718Y23515789D01*
X653975Y23838077D01*
X653975Y24161923D01*
X685718Y24484211D01*
X748897Y24801835D01*
X842905Y25111737D01*
X966835Y25410932D01*
X1119496Y25696539D01*
X1299415Y25965808D01*
X1504861Y26216145D01*
X1733855Y26445139D01*
X1984192Y26650585D01*
X2253461Y26830504D01*
X2539068Y26983165D01*
X2838263Y27107095D01*
X3148165Y27201103D01*
X3465789Y27264282D01*
X3788077Y27296025D01*
X4111923Y27296025D01*
X4434211Y27264282D01*
G37*
G36*
X49484211Y27264282D02*
G01*
X49801835Y27201103D01*
X50111737Y27107095D01*
X50410932Y26983165D01*
X50696539Y26830504D01*
X50965808Y26650585D01*
X51216145Y26445139D01*
X51445139Y26216145D01*
X51650585Y25965808D01*
X51830504Y25696539D01*
X51983165Y25410932D01*
X52107095Y25111737D01*
X52201103Y24801835D01*
X52264282Y24484211D01*
X52296025Y24161923D01*
X52296025Y23838077D01*
X52264282Y23515789D01*
X52201103Y23198165D01*
X52107095Y22888263D01*
X51983165Y22589068D01*
X51830504Y22303461D01*
X51650585Y22034192D01*
X51445139Y21783855D01*
X51216145Y21554861D01*
X50965808Y21349415D01*
X50696539Y21169496D01*
X50410932Y21016835D01*
X50111737Y20892905D01*
X49801835Y20798897D01*
X49484211Y20735718D01*
X49161923Y20703975D01*
X48838077Y20703975D01*
X48515789Y20735718D01*
X48198165Y20798897D01*
X47888263Y20892905D01*
X47589068Y21016835D01*
X47303461Y21169496D01*
X47034192Y21349415D01*
X46783855Y21554861D01*
X46554861Y21783855D01*
X46349415Y22034192D01*
X46169496Y22303461D01*
X46016835Y22589068D01*
X45892905Y22888263D01*
X45798897Y23198165D01*
X45735718Y23515789D01*
X45703975Y23838077D01*
X45703975Y24161923D01*
X45735718Y24484211D01*
X45798897Y24801835D01*
X45892905Y25111737D01*
X46016835Y25410932D01*
X46169496Y25696539D01*
X46349415Y25965808D01*
X46554861Y26216145D01*
X46783855Y26445139D01*
X47034192Y26650585D01*
X47303461Y26830504D01*
X47589068Y26983165D01*
X47888263Y27107095D01*
X48198165Y27201103D01*
X48515789Y27264282D01*
X48838077Y27296025D01*
X49161923Y27296025D01*
X49484211Y27264282D01*
G37*
G36*
X32443685Y22067031D02*
G01*
X32452358Y22063202D01*
X32459925Y22062099D01*
X32507223Y22038977D01*
X32544541Y22022499D01*
X32547996Y22019044D01*
X32548920Y22018592D01*
X32618591Y21948921D01*
X32619042Y21947998D01*
X32622499Y21944541D01*
X32638978Y21907218D01*
X32662098Y21859927D01*
X32663200Y21852361D01*
X32667031Y21843685D01*
X32675000Y21775000D01*
X32675000Y21225000D01*
X32667031Y21156315D01*
X32663199Y21147639D01*
X32662098Y21140075D01*
X32638985Y21092798D01*
X32622499Y21055459D01*
X32619041Y21052002D01*
X32618591Y21051080D01*
X32548920Y20981409D01*
X32547998Y20980959D01*
X32544541Y20977501D01*
X32507207Y20961017D01*
X32459926Y20937902D01*
X32452361Y20936800D01*
X32443685Y20932969D01*
X32375000Y20925000D01*
X31975000Y20925000D01*
X31906315Y20932969D01*
X31897638Y20936800D01*
X31890074Y20937902D01*
X31842787Y20961019D01*
X31805459Y20977501D01*
X31802002Y20980958D01*
X31801079Y20981409D01*
X31731408Y21051080D01*
X31730956Y21052004D01*
X31727501Y21055459D01*
X31711025Y21092772D01*
X31687901Y21140074D01*
X31686798Y21147643D01*
X31682969Y21156315D01*
X31675000Y21225000D01*
X31675000Y21775000D01*
X31682969Y21843685D01*
X31686798Y21852358D01*
X31687901Y21859926D01*
X31711028Y21907234D01*
X31727501Y21944541D01*
X31730955Y21947996D01*
X31731408Y21948921D01*
X31801079Y22018592D01*
X31802004Y22019045D01*
X31805459Y22022499D01*
X31842761Y22038970D01*
X31890073Y22062099D01*
X31897642Y22063202D01*
X31906315Y22067031D01*
X31975000Y22075000D01*
X32375000Y22075000D01*
X32443685Y22067031D01*
G37*
G36*
X34093685Y22067031D02*
G01*
X34102358Y22063202D01*
X34109925Y22062099D01*
X34157223Y22038977D01*
X34194541Y22022499D01*
X34197996Y22019044D01*
X34198920Y22018592D01*
X34268591Y21948921D01*
X34269042Y21947998D01*
X34272499Y21944541D01*
X34288978Y21907218D01*
X34312098Y21859927D01*
X34313200Y21852361D01*
X34317031Y21843685D01*
X34325000Y21775000D01*
X34325000Y21225000D01*
X34317031Y21156315D01*
X34313199Y21147639D01*
X34312098Y21140075D01*
X34288985Y21092798D01*
X34272499Y21055459D01*
X34269041Y21052002D01*
X34268591Y21051080D01*
X34198920Y20981409D01*
X34197998Y20980959D01*
X34194541Y20977501D01*
X34157207Y20961017D01*
X34109926Y20937902D01*
X34102361Y20936800D01*
X34093685Y20932969D01*
X34025000Y20925000D01*
X33625000Y20925000D01*
X33556315Y20932969D01*
X33547638Y20936800D01*
X33540074Y20937902D01*
X33492787Y20961019D01*
X33455459Y20977501D01*
X33452002Y20980958D01*
X33451079Y20981409D01*
X33381408Y21051080D01*
X33380956Y21052004D01*
X33377501Y21055459D01*
X33361025Y21092772D01*
X33337901Y21140074D01*
X33336798Y21147643D01*
X33332969Y21156315D01*
X33325000Y21225000D01*
X33325000Y21775000D01*
X33332969Y21843685D01*
X33336798Y21852358D01*
X33337901Y21859926D01*
X33361028Y21907234D01*
X33377501Y21944541D01*
X33380955Y21947996D01*
X33381408Y21948921D01*
X33451079Y22018592D01*
X33452004Y22019045D01*
X33455459Y22022499D01*
X33492761Y22038970D01*
X33540073Y22062099D01*
X33547642Y22063202D01*
X33556315Y22067031D01*
X33625000Y22075000D01*
X34025000Y22075000D01*
X34093685Y22067031D01*
G37*
G36*
X17324868Y22635450D02*
G01*
X17330586Y22632655D01*
X17332962Y22632278D01*
X17370987Y22612904D01*
X17428377Y22584847D01*
X17509847Y22503377D01*
X17537907Y22445980D01*
X17557276Y22407966D01*
X17557652Y22405592D01*
X17560450Y22399868D01*
X17575000Y22300000D01*
X17575000Y21800000D01*
X17560450Y21700132D01*
X17557652Y21694411D01*
X17557277Y21692038D01*
X17537926Y21654061D01*
X17509847Y21596623D01*
X17428377Y21515153D01*
X17370955Y21487081D01*
X17332965Y21467724D01*
X17330591Y21467349D01*
X17324868Y21464550D01*
X17225000Y21450000D01*
X16275000Y21450000D01*
X16175132Y21464550D01*
X16169410Y21467348D01*
X16167037Y21467723D01*
X16129035Y21487086D01*
X16071623Y21515153D01*
X15990153Y21596623D01*
X15962104Y21653997D01*
X15942723Y21692035D01*
X15942346Y21694412D01*
X15939550Y21700132D01*
X15925000Y21800000D01*
X15925000Y22300000D01*
X15939550Y22399868D01*
X15942345Y22405587D01*
X15942722Y22407963D01*
X15962108Y22446013D01*
X15990153Y22503377D01*
X16071623Y22584847D01*
X16128971Y22612884D01*
X16167034Y22632277D01*
X16169411Y22632654D01*
X16175132Y22635450D01*
X16275000Y22650000D01*
X17225000Y22650000D01*
X17324868Y22635450D01*
G37*
G36*
X23824868Y22635450D02*
G01*
X23830586Y22632655D01*
X23832962Y22632278D01*
X23870987Y22612904D01*
X23928377Y22584847D01*
X24009847Y22503377D01*
X24037907Y22445980D01*
X24057276Y22407966D01*
X24057652Y22405592D01*
X24060450Y22399868D01*
X24075000Y22300000D01*
X24075000Y21800000D01*
X24060450Y21700132D01*
X24057652Y21694411D01*
X24057277Y21692038D01*
X24037926Y21654061D01*
X24009847Y21596623D01*
X23928377Y21515153D01*
X23870955Y21487081D01*
X23832965Y21467724D01*
X23830591Y21467349D01*
X23824868Y21464550D01*
X23725000Y21450000D01*
X22775000Y21450000D01*
X22675132Y21464550D01*
X22669410Y21467348D01*
X22667037Y21467723D01*
X22629035Y21487086D01*
X22571623Y21515153D01*
X22490153Y21596623D01*
X22462104Y21653997D01*
X22442723Y21692035D01*
X22442346Y21694412D01*
X22439550Y21700132D01*
X22425000Y21800000D01*
X22425000Y22300000D01*
X22439550Y22399868D01*
X22442345Y22405587D01*
X22442722Y22407963D01*
X22462108Y22446013D01*
X22490153Y22503377D01*
X22571623Y22584847D01*
X22628971Y22612884D01*
X22667034Y22632277D01*
X22669411Y22632654D01*
X22675132Y22635450D01*
X22775000Y22650000D01*
X23725000Y22650000D01*
X23824868Y22635450D01*
G37*
G36*
X19379047Y22699195D02*
G01*
X19430408Y22693236D01*
X19447954Y22685489D01*
X19470671Y22680970D01*
X19494991Y22664720D01*
X19515793Y22655535D01*
X19530000Y22641328D01*
X19551777Y22626777D01*
X19566327Y22605001D01*
X19580534Y22590794D01*
X19589718Y22569994D01*
X19605970Y22545671D01*
X19610489Y22522952D01*
X19618235Y22505409D01*
X19624192Y22454060D01*
X19625000Y22450000D01*
X19625000Y22150000D01*
X19624192Y22145941D01*
X19618235Y22094592D01*
X19610489Y22077050D01*
X19605970Y22054329D01*
X19589716Y22030005D01*
X19580534Y22009207D01*
X19566329Y21995003D01*
X19551777Y21973223D01*
X19529997Y21958671D01*
X19515793Y21944466D01*
X19494995Y21935284D01*
X19470671Y21919030D01*
X19447950Y21914511D01*
X19430408Y21906765D01*
X19379061Y21900808D01*
X19375000Y21900000D01*
X18350000Y21900000D01*
X18345941Y21900808D01*
X18294591Y21906765D01*
X18277048Y21914511D01*
X18254329Y21919030D01*
X18230006Y21935282D01*
X18209206Y21944466D01*
X18194999Y21958673D01*
X18173223Y21973223D01*
X18158672Y21995000D01*
X18144465Y22009207D01*
X18135280Y22030009D01*
X18119030Y22054329D01*
X18114511Y22077046D01*
X18106764Y22094592D01*
X18100805Y22145951D01*
X18100000Y22150000D01*
X18100000Y22450000D01*
X18100804Y22454047D01*
X18106764Y22505409D01*
X18114511Y22522957D01*
X18119030Y22545671D01*
X18135278Y22569990D01*
X18144465Y22590794D01*
X18158674Y22605004D01*
X18173223Y22626777D01*
X18194996Y22641326D01*
X18209206Y22655535D01*
X18230010Y22664722D01*
X18254329Y22680970D01*
X18277043Y22685489D01*
X18294591Y22693236D01*
X18345952Y22699195D01*
X18350000Y22700000D01*
X19375000Y22700000D01*
X19379047Y22699195D01*
G37*
G36*
X21654047Y22699195D02*
G01*
X21705408Y22693236D01*
X21722954Y22685489D01*
X21745671Y22680970D01*
X21769991Y22664720D01*
X21790793Y22655535D01*
X21805000Y22641328D01*
X21826777Y22626777D01*
X21841327Y22605001D01*
X21855534Y22590794D01*
X21864718Y22569994D01*
X21880970Y22545671D01*
X21885489Y22522952D01*
X21893235Y22505409D01*
X21899192Y22454060D01*
X21900000Y22450000D01*
X21900000Y22150000D01*
X21899192Y22145941D01*
X21893235Y22094592D01*
X21885489Y22077050D01*
X21880970Y22054329D01*
X21864716Y22030005D01*
X21855534Y22009207D01*
X21841329Y21995003D01*
X21826777Y21973223D01*
X21804997Y21958671D01*
X21790793Y21944466D01*
X21769995Y21935284D01*
X21745671Y21919030D01*
X21722950Y21914511D01*
X21705408Y21906765D01*
X21654061Y21900808D01*
X21650000Y21900000D01*
X20625000Y21900000D01*
X20620941Y21900808D01*
X20569591Y21906765D01*
X20552048Y21914511D01*
X20529329Y21919030D01*
X20505006Y21935282D01*
X20484206Y21944466D01*
X20469999Y21958673D01*
X20448223Y21973223D01*
X20433672Y21995000D01*
X20419465Y22009207D01*
X20410280Y22030009D01*
X20394030Y22054329D01*
X20389511Y22077046D01*
X20381764Y22094592D01*
X20375805Y22145951D01*
X20375000Y22150000D01*
X20375000Y22450000D01*
X20375804Y22454047D01*
X20381764Y22505409D01*
X20389511Y22522957D01*
X20394030Y22545671D01*
X20410278Y22569990D01*
X20419465Y22590794D01*
X20433674Y22605004D01*
X20448223Y22626777D01*
X20469996Y22641326D01*
X20484206Y22655535D01*
X20505010Y22664722D01*
X20529329Y22680970D01*
X20552043Y22685489D01*
X20569591Y22693236D01*
X20620952Y22699195D01*
X20625000Y22700000D01*
X21650000Y22700000D01*
X21654047Y22699195D01*
G37*
G36*
X19379047Y23649195D02*
G01*
X19430408Y23643236D01*
X19447954Y23635489D01*
X19470671Y23630970D01*
X19494991Y23614720D01*
X19515793Y23605535D01*
X19530000Y23591328D01*
X19551777Y23576777D01*
X19566327Y23555001D01*
X19580534Y23540794D01*
X19589718Y23519994D01*
X19605970Y23495671D01*
X19610489Y23472952D01*
X19618235Y23455409D01*
X19624192Y23404060D01*
X19625000Y23400000D01*
X19625000Y23100000D01*
X19624192Y23095941D01*
X19618235Y23044592D01*
X19610489Y23027050D01*
X19605970Y23004329D01*
X19589716Y22980005D01*
X19580534Y22959207D01*
X19566329Y22945003D01*
X19551777Y22923223D01*
X19529997Y22908671D01*
X19515793Y22894466D01*
X19494995Y22885284D01*
X19470671Y22869030D01*
X19447950Y22864511D01*
X19430408Y22856765D01*
X19379061Y22850808D01*
X19375000Y22850000D01*
X18350000Y22850000D01*
X18345941Y22850808D01*
X18294591Y22856765D01*
X18277048Y22864511D01*
X18254329Y22869030D01*
X18230006Y22885282D01*
X18209206Y22894466D01*
X18194999Y22908673D01*
X18173223Y22923223D01*
X18158672Y22945000D01*
X18144465Y22959207D01*
X18135280Y22980009D01*
X18119030Y23004329D01*
X18114511Y23027046D01*
X18106764Y23044592D01*
X18100805Y23095951D01*
X18100000Y23100000D01*
X18100000Y23400000D01*
X18100804Y23404047D01*
X18106764Y23455409D01*
X18114511Y23472957D01*
X18119030Y23495671D01*
X18135278Y23519990D01*
X18144465Y23540794D01*
X18158674Y23555004D01*
X18173223Y23576777D01*
X18194996Y23591326D01*
X18209206Y23605535D01*
X18230010Y23614722D01*
X18254329Y23630970D01*
X18277043Y23635489D01*
X18294591Y23643236D01*
X18345952Y23649195D01*
X18350000Y23650000D01*
X19375000Y23650000D01*
X19379047Y23649195D01*
G37*
G36*
X9290285Y24956940D02*
G01*
X9471397Y24881921D01*
X9634393Y24773010D01*
X9773010Y24634393D01*
X9881921Y24471397D01*
X9956940Y24290285D01*
X9995185Y24098017D01*
X9995185Y23901983D01*
X9956940Y23709715D01*
X9881921Y23528603D01*
X9773010Y23365607D01*
X9634393Y23226990D01*
X9471397Y23118079D01*
X9290285Y23043060D01*
X9098017Y23004815D01*
X8901983Y23004815D01*
X8709715Y23043060D01*
X8528603Y23118079D01*
X8365607Y23226990D01*
X8226990Y23365607D01*
X8118079Y23528603D01*
X8043060Y23709715D01*
X8004815Y23901983D01*
X8004815Y24098017D01*
X8043060Y24290285D01*
X8118079Y24471397D01*
X8226990Y24634393D01*
X8365607Y24773010D01*
X8528603Y24881921D01*
X8709715Y24956940D01*
X8901983Y24995185D01*
X9098017Y24995185D01*
X9290285Y24956940D01*
G37*
G36*
X17324868Y24535450D02*
G01*
X17330586Y24532655D01*
X17332962Y24532278D01*
X17370987Y24512904D01*
X17428377Y24484847D01*
X17509847Y24403377D01*
X17537907Y24345980D01*
X17557276Y24307966D01*
X17557652Y24305592D01*
X17560450Y24299868D01*
X17575000Y24200000D01*
X17575000Y23700000D01*
X17560450Y23600132D01*
X17557652Y23594411D01*
X17557277Y23592038D01*
X17537926Y23554061D01*
X17509847Y23496623D01*
X17428377Y23415153D01*
X17370955Y23387081D01*
X17332965Y23367724D01*
X17330591Y23367349D01*
X17324868Y23364550D01*
X17225000Y23350000D01*
X16275000Y23350000D01*
X16175132Y23364550D01*
X16169410Y23367348D01*
X16167037Y23367723D01*
X16129035Y23387086D01*
X16071623Y23415153D01*
X15990153Y23496623D01*
X15962104Y23553997D01*
X15942723Y23592035D01*
X15942346Y23594412D01*
X15939550Y23600132D01*
X15925000Y23700000D01*
X15925000Y24200000D01*
X15939550Y24299868D01*
X15942345Y24305587D01*
X15942722Y24307963D01*
X15962108Y24346013D01*
X15990153Y24403377D01*
X16071623Y24484847D01*
X16128971Y24512884D01*
X16167034Y24532277D01*
X16169411Y24532654D01*
X16175132Y24535450D01*
X16275000Y24550000D01*
X17225000Y24550000D01*
X17324868Y24535450D01*
G37*
G36*
X23824868Y24535450D02*
G01*
X23830586Y24532655D01*
X23832962Y24532278D01*
X23870987Y24512904D01*
X23928377Y24484847D01*
X24009847Y24403377D01*
X24037907Y24345980D01*
X24057276Y24307966D01*
X24057652Y24305592D01*
X24060450Y24299868D01*
X24075000Y24200000D01*
X24075000Y23700000D01*
X24060450Y23600132D01*
X24057652Y23594411D01*
X24057277Y23592038D01*
X24037926Y23554061D01*
X24009847Y23496623D01*
X23928377Y23415153D01*
X23870955Y23387081D01*
X23832965Y23367724D01*
X23830591Y23367349D01*
X23824868Y23364550D01*
X23725000Y23350000D01*
X22775000Y23350000D01*
X22675132Y23364550D01*
X22669410Y23367348D01*
X22667037Y23367723D01*
X22629035Y23387086D01*
X22571623Y23415153D01*
X22490153Y23496623D01*
X22462104Y23553997D01*
X22442723Y23592035D01*
X22442346Y23594412D01*
X22439550Y23600132D01*
X22425000Y23700000D01*
X22425000Y24200000D01*
X22439550Y24299868D01*
X22442345Y24305587D01*
X22442722Y24307963D01*
X22462108Y24346013D01*
X22490153Y24403377D01*
X22571623Y24484847D01*
X22628971Y24512884D01*
X22667034Y24532277D01*
X22669411Y24532654D01*
X22675132Y24535450D01*
X22775000Y24550000D01*
X23725000Y24550000D01*
X23824868Y24535450D01*
G37*
G36*
X19379047Y24599195D02*
G01*
X19430408Y24593236D01*
X19447954Y24585489D01*
X19470671Y24580970D01*
X19494991Y24564720D01*
X19515793Y24555535D01*
X19530000Y24541328D01*
X19551777Y24526777D01*
X19566327Y24505001D01*
X19580534Y24490794D01*
X19589718Y24469994D01*
X19605970Y24445671D01*
X19610489Y24422952D01*
X19618235Y24405409D01*
X19624192Y24354060D01*
X19625000Y24350000D01*
X19625000Y24050000D01*
X19624192Y24045941D01*
X19618235Y23994592D01*
X19610489Y23977050D01*
X19605970Y23954329D01*
X19589716Y23930005D01*
X19580534Y23909207D01*
X19566329Y23895003D01*
X19551777Y23873223D01*
X19529997Y23858671D01*
X19515793Y23844466D01*
X19494995Y23835284D01*
X19470671Y23819030D01*
X19447950Y23814511D01*
X19430408Y23806765D01*
X19379061Y23800808D01*
X19375000Y23800000D01*
X18350000Y23800000D01*
X18345941Y23800808D01*
X18294591Y23806765D01*
X18277048Y23814511D01*
X18254329Y23819030D01*
X18230006Y23835282D01*
X18209206Y23844466D01*
X18194999Y23858673D01*
X18173223Y23873223D01*
X18158672Y23895000D01*
X18144465Y23909207D01*
X18135280Y23930009D01*
X18119030Y23954329D01*
X18114511Y23977046D01*
X18106764Y23994592D01*
X18100805Y24045951D01*
X18100000Y24050000D01*
X18100000Y24350000D01*
X18100804Y24354047D01*
X18106764Y24405409D01*
X18114511Y24422957D01*
X18119030Y24445671D01*
X18135278Y24469990D01*
X18144465Y24490794D01*
X18158674Y24505004D01*
X18173223Y24526777D01*
X18194996Y24541326D01*
X18209206Y24555535D01*
X18230010Y24564722D01*
X18254329Y24580970D01*
X18277043Y24585489D01*
X18294591Y24593236D01*
X18345952Y24599195D01*
X18350000Y24600000D01*
X19375000Y24600000D01*
X19379047Y24599195D01*
G37*
G36*
X21654047Y24599195D02*
G01*
X21705408Y24593236D01*
X21722954Y24585489D01*
X21745671Y24580970D01*
X21769991Y24564720D01*
X21790793Y24555535D01*
X21805000Y24541328D01*
X21826777Y24526777D01*
X21841327Y24505001D01*
X21855534Y24490794D01*
X21864718Y24469994D01*
X21880970Y24445671D01*
X21885489Y24422952D01*
X21893235Y24405409D01*
X21899192Y24354060D01*
X21900000Y24350000D01*
X21900000Y24050000D01*
X21899192Y24045941D01*
X21893235Y23994592D01*
X21885489Y23977050D01*
X21880970Y23954329D01*
X21864716Y23930005D01*
X21855534Y23909207D01*
X21841329Y23895003D01*
X21826777Y23873223D01*
X21804997Y23858671D01*
X21790793Y23844466D01*
X21769995Y23835284D01*
X21745671Y23819030D01*
X21722950Y23814511D01*
X21705408Y23806765D01*
X21654061Y23800808D01*
X21650000Y23800000D01*
X20625000Y23800000D01*
X20620941Y23800808D01*
X20569591Y23806765D01*
X20552048Y23814511D01*
X20529329Y23819030D01*
X20505006Y23835282D01*
X20484206Y23844466D01*
X20469999Y23858673D01*
X20448223Y23873223D01*
X20433672Y23895000D01*
X20419465Y23909207D01*
X20410280Y23930009D01*
X20394030Y23954329D01*
X20389511Y23977046D01*
X20381764Y23994592D01*
X20375805Y24045951D01*
X20375000Y24050000D01*
X20375000Y24350000D01*
X20375804Y24354047D01*
X20381764Y24405409D01*
X20389511Y24422957D01*
X20394030Y24445671D01*
X20410278Y24469990D01*
X20419465Y24490794D01*
X20433674Y24505004D01*
X20448223Y24526777D01*
X20469996Y24541326D01*
X20484206Y24555535D01*
X20505010Y24564722D01*
X20529329Y24580970D01*
X20552043Y24585489D01*
X20569591Y24593236D01*
X20620952Y24599195D01*
X20625000Y24600000D01*
X21650000Y24600000D01*
X21654047Y24599195D01*
G37*
M02*
