M48
; DRILL file {KiCad 9.0.7} date 2026-02-10T20:50:18+0800
; FORMAT={-:-/ absolute / metric / decimal}
; #@! TF.CreationDate,2026-02-10T20:50:18+08:00
; #@! TF.GenerationSoftware,Kicad,Pcbnew,9.0.7
; #@! TF.FileFunction,Plated,1,2,PTH
FMAT,2
METRIC
; #@! TA.AperFunction,Plated,PTH,ViaDrill
T1C0.300
; #@! TA.AperFunction,Plated,PTH,ComponentDrill
T2C0.500
; #@! TA.AperFunction,Plated,PTH,ComponentDrill
T3C0.600
; #@! TA.AperFunction,Plated,PTH,ComponentDrill
T4C3.200
%
G90
G05
T1
X1.2Y16.4
X1.3Y12.1
X3.4Y15.3
X3.8Y19.4
X4.6Y11.6
X4.739Y14.839
X5.696Y15.967
X6.4Y7.8
X7.9Y18.3
X7.9Y9.7
X8.0Y17.25
X8.0Y10.75
X8.0Y1.4
X8.2Y5.9
X9.1Y21.3
X9.2Y12.2
X9.7Y14.0
X9.8Y26.7
X11.25Y20.5
X11.4Y22.5
X11.4Y9.7
X12.5Y1.4
X12.7Y5.9
X12.75Y20.5
X13.9Y24.4
X14.2Y16.0
X14.6Y18.0
X14.6Y9.4
X15.3Y20.1
X15.5Y22.0
X16.4Y26.8
X16.4Y14.2
X16.75Y21.0
X17.4Y1.4
X17.9Y17.7
X18.25Y20.75
X18.8Y8.7
X18.8Y7.3
X19.1Y10.0
X19.2Y6.0
X19.25Y19.75
X19.25Y13.7
X20.2Y23.25
X20.2Y5.1
X20.5Y10.4
X20.7Y17.5
X21.0Y8.75
X21.6Y5.1
X22.0Y10.6
X22.6Y26.5
X22.8Y4.7
X23.0Y9.0
X23.2Y11.5
X23.25Y21.0
X23.6Y10.4
X23.6Y1.1
X23.7Y19.5
X24.0Y4.6
X24.25Y13.5
X24.25Y12.75
X24.5Y22.0
X24.8Y9.0
X25.0Y5.0
X25.1Y10.4
X25.5Y18.1
X25.5Y16.2
X26.0Y4.5
X26.2Y9.0
X27.0Y20.0
X27.0Y5.25
X27.1Y23.4
X27.5Y4.5
X27.5Y3.55
X28.0Y21.0
X28.0Y19.0
X28.1Y9.4
X28.6Y8.6
X28.8Y1.2
X29.5Y13.75
X29.5Y12.5
X29.6Y3.55
X29.9Y16.6
X30.3Y26.6
X30.4Y1.65
X30.5Y2.8
X30.7Y11.4
X30.9Y19.9
X31.2Y15.5
X31.25Y21.5
X31.7Y16.6
X32.2Y22.5
X32.25Y3.25
X32.5Y11.3
X32.9Y15.4
X33.1Y24.4
X33.1Y16.6
X33.1Y13.9
X33.3Y4.75
X34.7Y16.6
X34.7Y15.2
X34.8Y13.6
X34.9Y12.2
X35.5Y22.3
X35.5Y4.0
X35.8Y19.7
X36.0Y6.25
X36.2Y2.5
X37.7Y26.7
X38.05Y10.652
X38.1Y18.3
X39.0Y8.3
X39.6Y4.8
X39.7Y1.2
X40.2Y23.2
X41.5Y13.0
X41.7Y19.8
X43.1Y8.2
X44.1Y26.8
X44.1Y23.4
X44.3Y1.2
X47.0Y20.1
X47.2Y9.4
X49.0Y11.75
X49.75Y14.0
X51.6Y9.0
X51.7Y18.1
X51.8Y13.2
T2
X1.55Y24.0
X1.6Y4.0
X2.253Y25.697
X2.253Y22.303
X2.303Y5.697
X2.303Y2.303
X3.95Y26.4
X3.95Y21.6
X4.0Y6.4
X4.0Y1.6
X5.647Y25.697
X5.647Y22.303
X5.697Y5.697
X5.697Y2.303
X6.35Y24.0
X6.4Y4.0
X46.6Y24.0
X46.6Y4.0
X47.303Y25.697
X47.303Y22.303
X47.303Y5.697
X47.303Y2.303
X49.0Y26.4
X49.0Y21.6
X49.0Y6.4
X49.0Y1.6
X50.697Y25.697
X50.697Y22.303
X50.697Y5.697
X50.697Y2.303
X51.4Y24.0
X51.4Y4.0
T4
X3.95Y24.0
X4.0Y4.0
X49.0Y24.0
X49.0Y4.0
T3
G00X2.525Y18.32
M15
G01X1.725Y18.32
M16
G05
G00X2.525Y9.68
M15
G01X1.725Y9.68
M16
G05
G00X6.855Y18.32
M15
G01X5.755Y18.32
M16
G05
G00X6.855Y9.68
M15
G01X5.755Y9.68
M16
G05
M30
