%TF.GenerationSoftware,KiCad,Pcbnew,9.0.7*%
%TF.CreationDate,2026-02-10T20:50:10+08:00*%
%TF.ProjectId,260209-MSPM0-phil165,32363032-3039-42d4-9d53-504d302d7068,v0.1*%
%TF.SameCoordinates,PX2bde780PY4692680*%
%TF.FileFunction,Paste,Top*%
%TF.FilePolarity,Positive*%
%FSLAX46Y46*%
G04 Gerber Fmt 4.6, Leading zero omitted, Abs format (unit mm)*
G04 Created by KiCad (PCBNEW 9.0.7) date 2026-02-10 20:50:10*
%MOMM*%
%LPD*%
G01*
G04 APERTURE LIST*
G04 Aperture macros list*
%AMRoundRect*
0 Rectangle with rounded corners*
0 $1 Rounding radius*
0 $2 $3 $4 $5 $6 $7 $8 $9 X,Y pos of 4 corners*
0 Add a 4 corners polygon primitive as box body*
4,1,4,$2,$3,$4,$5,$6,$7,$8,$9,$2,$3,0*
0 Add four circle primitives for the rounded corners*
1,1,$1+$1,$2,$3*
1,1,$1+$1,$4,$5*
1,1,$1+$1,$6,$7*
1,1,$1+$1,$8,$9*
0 Add four rect primitives between the rounded corners*
20,1,$1+$1,$2,$3,$4,$5,0*
20,1,$1+$1,$4,$5,$6,$7,0*
20,1,$1+$1,$6,$7,$8,$9,0*
20,1,$1+$1,$8,$9,$2,$3,0*%
G04 Aperture macros list end*
%ADD10O,1.800000X1.000000*%
%ADD11O,2.100000X1.000000*%
%ADD12RoundRect,0.150000X-0.350000X0.150000X-0.350000X-0.150000X0.350000X-0.150000X0.350000X0.150000X0*%
%ADD13RoundRect,0.075000X-0.500000X0.075000X-0.500000X-0.075000X0.500000X-0.075000X0.500000X0.075000X0*%
%ADD14RoundRect,0.225000X0.250000X-0.225000X0.250000X0.225000X-0.250000X0.225000X-0.250000X-0.225000X0*%
%ADD15RoundRect,0.250000X-0.475000X0.250000X-0.475000X-0.250000X0.475000X-0.250000X0.475000X0.250000X0*%
%ADD16RoundRect,0.150000X-0.512500X-0.150000X0.512500X-0.150000X0.512500X0.150000X-0.512500X0.150000X0*%
%ADD17RoundRect,0.200000X-0.200000X-0.275000X0.200000X-0.275000X0.200000X0.275000X-0.200000X0.275000X0*%
%ADD18RoundRect,0.200000X0.200000X0.275000X-0.200000X0.275000X-0.200000X-0.275000X0.200000X-0.275000X0*%
%ADD19RoundRect,0.087500X-0.725000X-0.087500X0.725000X-0.087500X0.725000X0.087500X-0.725000X0.087500X0*%
%ADD20RoundRect,0.075000X-0.075000X-0.662500X0.075000X-0.662500X0.075000X0.662500X-0.075000X0.662500X0*%
%ADD21RoundRect,0.075000X-0.662500X-0.075000X0.662500X-0.075000X0.662500X0.075000X-0.662500X0.075000X0*%
%ADD22RoundRect,0.050000X-0.050000X-0.112500X0.050000X-0.112500X0.050000X0.112500X-0.050000X0.112500X0*%
%ADD23RoundRect,0.050000X-0.112500X-0.050000X0.112500X-0.050000X0.112500X0.050000X-0.112500X0.050000X0*%
%ADD24RoundRect,0.250000X-0.450000X-0.350000X0.450000X-0.350000X0.450000X0.350000X-0.450000X0.350000X0*%
%ADD25RoundRect,0.225000X-0.250000X0.225000X-0.250000X-0.225000X0.250000X-0.225000X0.250000X0.225000X0*%
%ADD26RoundRect,0.225000X0.225000X0.250000X-0.225000X0.250000X-0.225000X-0.250000X0.225000X-0.250000X0*%
%ADD27RoundRect,0.200000X-0.275000X0.200000X-0.275000X-0.200000X0.275000X-0.200000X0.275000X0.200000X0*%
%ADD28RoundRect,0.225000X-0.225000X-0.250000X0.225000X-0.250000X0.225000X0.250000X-0.225000X0.250000X0*%
G04 APERTURE END LIST*
D10*
%TO.C,J1*%
X2125000Y9680000D03*
D11*
X6305000Y9680000D03*
D10*
X2125000Y18320000D03*
D11*
X6305000Y18320000D03*
D12*
X6955000Y17200000D03*
X6955000Y16400000D03*
D13*
X6880000Y15750000D03*
X6880000Y14750000D03*
X6880000Y13250000D03*
X6880000Y12250000D03*
D12*
X6955000Y11600000D03*
X6955000Y10800000D03*
X6955000Y10800000D03*
X6955000Y11600000D03*
D13*
X6880000Y12750000D03*
X6880000Y13750000D03*
X6880000Y14250000D03*
X6880000Y15250000D03*
D12*
X6955000Y16400000D03*
X6955000Y17200000D03*
%TD*%
D14*
%TO.C,C1*%
X11250000Y19500000D03*
X11250000Y17950000D03*
%TD*%
D15*
%TO.C,C3*%
X16750000Y22050000D03*
X16750000Y23950000D03*
%TD*%
%TO.C,C5*%
X23250000Y22050000D03*
X23250000Y23950000D03*
%TD*%
D14*
%TO.C,C8*%
X21000000Y7800000D03*
X21000000Y6250000D03*
%TD*%
D15*
%TO.C,C11*%
X25500000Y13050000D03*
X25500000Y14950000D03*
%TD*%
D16*
%TO.C,D1*%
X13137500Y14950000D03*
X13137500Y14000000D03*
X13137500Y13050000D03*
X10862500Y13050000D03*
X10862500Y14000000D03*
X10862500Y14950000D03*
%TD*%
D17*
%TO.C,R1*%
X12825000Y16500000D03*
X11175000Y16500000D03*
%TD*%
D18*
%TO.C,R2*%
X7350000Y7750000D03*
X9000000Y7750000D03*
%TD*%
D17*
%TO.C,R4*%
X25825000Y11500000D03*
X24175000Y11500000D03*
%TD*%
D18*
%TO.C,R5*%
X32175000Y21500000D03*
X33825000Y21500000D03*
%TD*%
D16*
%TO.C,U1*%
X21137500Y24200000D03*
X21137500Y22300000D03*
X18862500Y22300000D03*
X18862500Y23250000D03*
X18862500Y24200000D03*
%TD*%
D19*
%TO.C,U2*%
X22112500Y15000000D03*
X22112500Y14500000D03*
X22112500Y14000000D03*
X22112500Y13500000D03*
X22112500Y13000000D03*
X17887500Y13000000D03*
X17887500Y13500000D03*
X17887500Y14000000D03*
X17887500Y14500000D03*
X17887500Y15000000D03*
%TD*%
D20*
%TO.C,U3*%
X29500000Y18162500D03*
X30000000Y18162500D03*
X30500000Y18162500D03*
X31000000Y18162500D03*
X31500000Y18162500D03*
X32000000Y18162500D03*
X32500000Y18162500D03*
X33000000Y18162500D03*
X33500000Y18162500D03*
X34000000Y18162500D03*
X34500000Y18162500D03*
X35000000Y18162500D03*
D21*
X36412500Y16750000D03*
X36412500Y16250000D03*
X36412500Y15750000D03*
X36412500Y15250000D03*
X36412500Y14750000D03*
X36412500Y14250000D03*
X36412500Y13750000D03*
X36412500Y13250000D03*
X36412500Y12750000D03*
X36412500Y12250000D03*
X36412500Y11750000D03*
X36412500Y11250000D03*
D20*
X35000000Y9837500D03*
X34500000Y9837500D03*
X34000000Y9837500D03*
X33500000Y9837500D03*
X33000000Y9837500D03*
X32500000Y9837500D03*
X32000000Y9837500D03*
X31500000Y9837500D03*
X31000000Y9837500D03*
X30500000Y9837500D03*
X30000000Y9837500D03*
X29500000Y9837500D03*
D21*
X28087500Y11250000D03*
X28087500Y11750000D03*
X28087500Y12250000D03*
X28087500Y12750000D03*
X28087500Y13250000D03*
X28087500Y13750000D03*
X28087500Y14250000D03*
X28087500Y14750000D03*
X28087500Y15250000D03*
X28087500Y15750000D03*
X28087500Y16250000D03*
X28087500Y16750000D03*
%TD*%
D22*
%TO.C,U4*%
X31900000Y4037500D03*
X32250000Y4037500D03*
X32600000Y4037500D03*
D23*
X33012500Y3800000D03*
X33012500Y3450000D03*
X33012500Y3100000D03*
X33012500Y2750000D03*
D22*
X32600000Y2512500D03*
X32250000Y2512500D03*
X31900000Y2512500D03*
D23*
X31487500Y2750000D03*
X31487500Y3100000D03*
X31487500Y3450000D03*
X31487500Y3800000D03*
%TD*%
D24*
%TO.C,X1*%
X22900000Y6075000D03*
X25100000Y6075000D03*
X25100000Y7775000D03*
X22900000Y7775000D03*
%TD*%
D25*
%TO.C,C9*%
X27000000Y7800000D03*
X27000000Y6250000D03*
%TD*%
D14*
%TO.C,C2*%
X12750000Y17950000D03*
X12750000Y19500000D03*
%TD*%
D17*
%TO.C,R3*%
X7425000Y20250000D03*
X9075000Y20250000D03*
%TD*%
D26*
%TO.C,C7*%
X22275000Y16500000D03*
X20725000Y16500000D03*
%TD*%
D18*
%TO.C,R8*%
X34500000Y6250000D03*
X32850000Y6250000D03*
%TD*%
D17*
%TO.C,R7*%
X29850000Y6250000D03*
X31500000Y6250000D03*
%TD*%
D14*
%TO.C,C13*%
X41500000Y10475000D03*
X41500000Y12025000D03*
%TD*%
%TO.C,C14*%
X34500000Y2500000D03*
X34500000Y4050000D03*
%TD*%
D26*
%TO.C,C12*%
X29500000Y20000000D03*
X27950000Y20000000D03*
%TD*%
D27*
%TO.C,R6*%
X40000000Y12075000D03*
X40000000Y10425000D03*
%TD*%
D26*
%TO.C,C10*%
X33775000Y20000000D03*
X32225000Y20000000D03*
%TD*%
D28*
%TO.C,C6*%
X20475000Y11500000D03*
X22025000Y11500000D03*
%TD*%
D26*
%TO.C,C4*%
X20775000Y20750000D03*
X19225000Y20750000D03*
%TD*%
M02*
