%TF.GenerationSoftware,KiCad,Pcbnew,9.0.7*%
%TF.CreationDate,2026-02-10T20:50:10+08:00*%
%TF.ProjectId,260209-MSPM0-phil165,32363032-3039-42d4-9d53-504d302d7068,v0.1*%
%TF.SameCoordinates,PX2bde780PY4692680*%
%TF.FileFunction,Copper,L2,Bot*%
%TF.FilePolarity,Positive*%
%FSLAX46Y46*%
G04 Gerber Fmt 4.6, Leading zero omitted, Abs format (unit mm)*
G04 Created by KiCad (PCBNEW 9.0.7) date 2026-02-10 20:50:10*
%MOMM*%
%LPD*%
G01*
G04 APERTURE LIST*
%TA.AperFunction,HeatsinkPad*%
%ADD10O,1.800000X1.000000*%
%TD*%
%TA.AperFunction,HeatsinkPad*%
%ADD11O,2.100000X1.000000*%
%TD*%
%TA.AperFunction,ComponentPad*%
%ADD12C,0.800000*%
%TD*%
%TA.AperFunction,ComponentPad*%
%ADD13C,6.400000*%
%TD*%
%TA.AperFunction,ViaPad*%
%ADD14C,0.700000*%
%TD*%
%TA.AperFunction,Conductor*%
%ADD15C,0.500000*%
%TD*%
%TA.AperFunction,Conductor*%
%ADD16C,0.600000*%
%TD*%
G04 APERTURE END LIST*
D10*
%TO.P,J1,S1,SHIELD*%
%TO.N,GND*%
X2125000Y9680000D03*
D11*
X6305000Y9680000D03*
D10*
X2125000Y18320000D03*
D11*
X6305000Y18320000D03*
%TD*%
D12*
%TO.P,H1,1,1*%
%TO.N,GND*%
X6350000Y24000000D03*
X5647056Y22302944D03*
X5647056Y25697056D03*
X3950000Y21600000D03*
D13*
X3950000Y24000000D03*
D12*
X3950000Y26400000D03*
X2252944Y22302944D03*
X2252944Y25697056D03*
X1550000Y24000000D03*
%TD*%
%TO.P,H2,1,1*%
%TO.N,GND*%
X6400000Y4000000D03*
X5697056Y2302944D03*
X5697056Y5697056D03*
X4000000Y1600000D03*
D13*
X4000000Y4000000D03*
D12*
X4000000Y6400000D03*
X2302944Y2302944D03*
X2302944Y5697056D03*
X1600000Y4000000D03*
%TD*%
%TO.P,H3,1,1*%
%TO.N,GND*%
X51400000Y24000000D03*
X50697056Y22302944D03*
X50697056Y25697056D03*
X49000000Y21600000D03*
D13*
X49000000Y24000000D03*
D12*
X49000000Y26400000D03*
X47302944Y22302944D03*
X47302944Y25697056D03*
X46600000Y24000000D03*
%TD*%
%TO.P,H4,1,1*%
%TO.N,GND*%
X51400000Y4000000D03*
X50697056Y2302944D03*
X50697056Y5697056D03*
X49000000Y1600000D03*
D13*
X49000000Y4000000D03*
D12*
X49000000Y6400000D03*
X47302944Y2302944D03*
X47302944Y5697056D03*
X46600000Y4000000D03*
%TD*%
D14*
%TO.N,GND*%
X11400000Y9700000D03*
X1300000Y12100000D03*
X1200000Y16400000D03*
X4600000Y11600000D03*
X3400000Y15300000D03*
X3800000Y19400000D03*
X9200000Y12200000D03*
X14600000Y9400000D03*
X12700000Y5900000D03*
X40200000Y23200000D03*
X33100000Y24400000D03*
X13900000Y24400000D03*
X11400000Y22500000D03*
X9800000Y26700000D03*
X16400000Y26800000D03*
X15300000Y20100000D03*
X14600000Y18000000D03*
X14200000Y16000000D03*
X17900000Y17700000D03*
X23700000Y19500000D03*
X30900000Y19900000D03*
X35500000Y22300000D03*
X35800000Y19700000D03*
X38100000Y18300000D03*
X41700000Y19800000D03*
X27100000Y23400000D03*
X22600000Y26500000D03*
X30300000Y26600000D03*
X37700000Y26700000D03*
X44100000Y26800000D03*
X44100000Y23400000D03*
X47000000Y20100000D03*
X51700000Y18100000D03*
X51800000Y13200000D03*
X51600000Y9000000D03*
X47200000Y9400000D03*
X43100000Y8200000D03*
X39000000Y8300000D03*
X39600000Y4800000D03*
X44300000Y1200000D03*
X39700000Y1200000D03*
X28800000Y1200000D03*
X23600000Y1100000D03*
X17400000Y1400000D03*
X12500000Y1400000D03*
X8000000Y1400000D03*
X8200000Y5900000D03*
X33100000Y13900000D03*
X32900000Y15400000D03*
X31200000Y15500000D03*
X29900000Y16600000D03*
X31700000Y16600000D03*
X33100000Y16600000D03*
X34700000Y16600000D03*
X34700000Y15200000D03*
X34800000Y13600000D03*
X34900000Y12200000D03*
X32500000Y11300000D03*
X30700000Y11400000D03*
X29500000Y12500000D03*
X28600000Y8600000D03*
X21600000Y5100000D03*
X21000000Y8750000D03*
X6400000Y7800000D03*
X20500000Y10400000D03*
X23200000Y11500000D03*
X8000000Y17250000D03*
X7900000Y9700000D03*
X24000000Y4600000D03*
X24800000Y9000000D03*
X31250000Y21500000D03*
X28000000Y19000000D03*
X25000000Y5000000D03*
X19200000Y6000000D03*
X8000000Y10750000D03*
X29500000Y13750000D03*
X23600000Y10400000D03*
X41500000Y13000000D03*
X18800000Y8700000D03*
X27000000Y20000000D03*
X16400000Y14200000D03*
X26000000Y4500000D03*
X15500000Y22000000D03*
X32200000Y22500000D03*
X20200000Y5100000D03*
X11250000Y20500000D03*
X24500000Y22000000D03*
X49750000Y14000000D03*
X33300000Y4750000D03*
X9100000Y21300000D03*
X19250000Y13700000D03*
X7900000Y18300000D03*
X35500000Y4000000D03*
X18800000Y7300000D03*
X24250000Y13500000D03*
X24250000Y12750000D03*
X30500000Y2800000D03*
X20200000Y23250000D03*
X28000000Y21000000D03*
X27000000Y5250000D03*
X19250000Y19750000D03*
X12750000Y20500000D03*
X23000000Y9000000D03*
X20700000Y17500000D03*
X22000000Y10600000D03*
X9700000Y14000000D03*
X19100000Y10000000D03*
X16750000Y21000000D03*
X32250000Y3250000D03*
X22800000Y4700000D03*
X26200000Y9000000D03*
X23250000Y21000000D03*
X49000000Y11750000D03*
X18250000Y20750000D03*
X27500000Y4500000D03*
X25100000Y10400000D03*
%TO.N,+VBUS*%
X4738966Y14838966D03*
X5696154Y15967398D03*
%TO.N,+3V3*%
X29600000Y3550000D03*
X25500000Y16200000D03*
X30400000Y1650000D03*
X38050000Y10652000D03*
X36200000Y2500000D03*
X25500000Y18100000D03*
X27500000Y3550000D03*
X36000000Y6250000D03*
%TO.N,GND*%
X28100000Y9400000D03*
%TD*%
D15*
%TO.N,+VBUS*%
X4738966Y15010210D02*
X5696154Y15967398D01*
X4738966Y14838966D02*
X4738966Y15010210D01*
D16*
%TO.N,+3V3*%
X36000000Y6250000D02*
X36000000Y6800000D01*
X36000000Y6800000D02*
X38050000Y8850000D01*
D15*
X25500000Y16200000D02*
X25500000Y18100000D01*
D16*
X38050000Y8850000D02*
X38050000Y10652000D01*
X35350000Y1650000D02*
X36200000Y2500000D01*
X30400000Y1650000D02*
X35350000Y1650000D01*
X29600000Y3550000D02*
X27500000Y3550000D01*
%TD*%
%TA.AperFunction,Conductor*%
%TO.N,GND*%
G36*
X49002421Y27499381D02*
G01*
X49031158Y27497970D01*
X49338173Y27482887D01*
X49347815Y27481937D01*
X49677915Y27432971D01*
X49687421Y27431081D01*
X50011144Y27349992D01*
X50020415Y27347180D01*
X50334625Y27234754D01*
X50343594Y27231039D01*
X50645263Y27088360D01*
X50653826Y27083782D01*
X50940049Y26912227D01*
X50948127Y26906829D01*
X51216150Y26708049D01*
X51223660Y26701886D01*
X51470921Y26477782D01*
X51477781Y26470922D01*
X51603484Y26332230D01*
X51701885Y26223661D01*
X51708048Y26216151D01*
X51906828Y25948128D01*
X51912226Y25940050D01*
X52083781Y25653827D01*
X52088361Y25645259D01*
X52231036Y25343598D01*
X52234754Y25334622D01*
X52347175Y25020429D01*
X52349995Y25011132D01*
X52431077Y24687433D01*
X52432972Y24677904D01*
X52481934Y24347830D01*
X52482887Y24338162D01*
X52499381Y24002423D01*
X52499500Y23997565D01*
X52499500Y4002436D01*
X52499381Y3997578D01*
X52482887Y3661839D01*
X52481934Y3652171D01*
X52432972Y3322097D01*
X52431077Y3312568D01*
X52349995Y2988869D01*
X52347175Y2979572D01*
X52234754Y2665379D01*
X52231036Y2656403D01*
X52088361Y2354742D01*
X52083781Y2346174D01*
X51912226Y2059951D01*
X51906828Y2051873D01*
X51708048Y1783850D01*
X51701885Y1776340D01*
X51477786Y1529084D01*
X51470916Y1522214D01*
X51223660Y1298115D01*
X51216150Y1291952D01*
X50948127Y1093172D01*
X50940049Y1087774D01*
X50653826Y916219D01*
X50645258Y911639D01*
X50343597Y768964D01*
X50334621Y765246D01*
X50020428Y652825D01*
X50011131Y650005D01*
X49687432Y568923D01*
X49677903Y567028D01*
X49347829Y518066D01*
X49338161Y517113D01*
X49002422Y500619D01*
X48997564Y500500D01*
X4002436Y500500D01*
X3997578Y500619D01*
X3661838Y517113D01*
X3652170Y518066D01*
X3322096Y567028D01*
X3312567Y568923D01*
X2988868Y650005D01*
X2979571Y652825D01*
X2665378Y765246D01*
X2656402Y768964D01*
X2354741Y911639D01*
X2346173Y916219D01*
X2059950Y1087774D01*
X2051872Y1093172D01*
X1783849Y1291952D01*
X1776339Y1298115D01*
X1629628Y1431086D01*
X1529078Y1522219D01*
X1522218Y1529079D01*
X1345626Y1723919D01*
X29649500Y1723919D01*
X29649500Y1723918D01*
X29649500Y1576082D01*
X29678342Y1431087D01*
X29734916Y1294505D01*
X29817049Y1171584D01*
X29921584Y1067049D01*
X30044505Y984916D01*
X30181087Y928342D01*
X30326082Y899500D01*
X30326083Y899500D01*
X30473917Y899500D01*
X30473918Y899500D01*
X30618913Y928342D01*
X30642735Y938210D01*
X30651800Y941964D01*
X30689685Y949500D01*
X35418993Y949500D01*
X35418994Y949500D01*
X35554328Y976420D01*
X35681811Y1029225D01*
X35796543Y1105886D01*
X36490490Y1799835D01*
X36522607Y1821295D01*
X36555495Y1834916D01*
X36678416Y1917049D01*
X36782951Y2021584D01*
X36865084Y2144505D01*
X36921658Y2281087D01*
X36950500Y2426082D01*
X36950500Y2573918D01*
X36921658Y2718913D01*
X36865084Y2855495D01*
X36782951Y2978416D01*
X36678416Y3082951D01*
X36555495Y3165084D01*
X36555493Y3165085D01*
X36418914Y3221658D01*
X36273918Y3250500D01*
X36126082Y3250500D01*
X36126081Y3250500D01*
X35981085Y3221658D01*
X35844506Y3165085D01*
X35721585Y3082952D01*
X35617048Y2978415D01*
X35534914Y2855494D01*
X35521292Y2822607D01*
X35499833Y2790492D01*
X35088840Y2379497D01*
X35034323Y2351719D01*
X35018836Y2350500D01*
X30689685Y2350500D01*
X30651800Y2358036D01*
X30618914Y2371658D01*
X30473918Y2400500D01*
X30326082Y2400500D01*
X30326081Y2400500D01*
X30181085Y2371658D01*
X30044506Y2315085D01*
X29921585Y2232952D01*
X29817048Y2128415D01*
X29734915Y2005494D01*
X29678342Y1868915D01*
X29649500Y1723919D01*
X1345626Y1723919D01*
X1298114Y1776340D01*
X1291951Y1783850D01*
X1115635Y2021584D01*
X1093169Y2051875D01*
X1087773Y2059951D01*
X1046737Y2128415D01*
X916216Y2346177D01*
X911638Y2354742D01*
X903637Y2371658D01*
X768961Y2656406D01*
X765245Y2665379D01*
X746090Y2718913D01*
X652820Y2979585D01*
X650008Y2988856D01*
X568919Y3312579D01*
X567029Y3322085D01*
X522256Y3623919D01*
X26749500Y3623919D01*
X26749500Y3476082D01*
X26778342Y3331086D01*
X26811722Y3250500D01*
X26834916Y3194505D01*
X26917049Y3071584D01*
X27021584Y2967049D01*
X27144505Y2884916D01*
X27281087Y2828342D01*
X27426082Y2799500D01*
X27426083Y2799500D01*
X27573917Y2799500D01*
X27573918Y2799500D01*
X27718913Y2828342D01*
X27742735Y2838210D01*
X27751800Y2841964D01*
X27789685Y2849500D01*
X29310315Y2849500D01*
X29348200Y2841964D01*
X29366782Y2834268D01*
X29381087Y2828342D01*
X29526082Y2799500D01*
X29526083Y2799500D01*
X29673917Y2799500D01*
X29673918Y2799500D01*
X29818913Y2828342D01*
X29955495Y2884916D01*
X30078416Y2967049D01*
X30182951Y3071584D01*
X30265084Y3194505D01*
X30321658Y3331087D01*
X30350500Y3476082D01*
X30350500Y3623918D01*
X30321658Y3768913D01*
X30265084Y3905495D01*
X30182951Y4028416D01*
X30078416Y4132951D01*
X29955495Y4215084D01*
X29955493Y4215085D01*
X29818914Y4271658D01*
X29673918Y4300500D01*
X29526082Y4300500D01*
X29526081Y4300500D01*
X29381085Y4271658D01*
X29348200Y4258036D01*
X29310315Y4250500D01*
X27789685Y4250500D01*
X27751800Y4258036D01*
X27718914Y4271658D01*
X27573918Y4300500D01*
X27426082Y4300500D01*
X27426081Y4300500D01*
X27281085Y4271658D01*
X27144506Y4215085D01*
X27021585Y4132952D01*
X26917048Y4028415D01*
X26834915Y3905494D01*
X26778342Y3768915D01*
X26749500Y3623919D01*
X522256Y3623919D01*
X518060Y3652205D01*
X517113Y3661827D01*
X500619Y3997579D01*
X500500Y4002436D01*
X500500Y6323918D01*
X35249500Y6323918D01*
X35249500Y6176082D01*
X35278342Y6031087D01*
X35334916Y5894505D01*
X35417049Y5771584D01*
X35521584Y5667049D01*
X35644505Y5584916D01*
X35781087Y5528342D01*
X35926082Y5499500D01*
X35926083Y5499500D01*
X36073917Y5499500D01*
X36073918Y5499500D01*
X36218913Y5528342D01*
X36355495Y5584916D01*
X36478416Y5667049D01*
X36582951Y5771584D01*
X36665084Y5894505D01*
X36721658Y6031087D01*
X36750500Y6176082D01*
X36750500Y6323918D01*
X36721680Y6468802D01*
X36728872Y6529562D01*
X36748771Y6558116D01*
X38594114Y8403457D01*
X38670775Y8518189D01*
X38723580Y8645672D01*
X38750500Y8781006D01*
X38750500Y8918994D01*
X38750500Y10362315D01*
X38758036Y10400200D01*
X38761790Y10409265D01*
X38771658Y10433087D01*
X38800500Y10578082D01*
X38800500Y10725918D01*
X38771658Y10870913D01*
X38715084Y11007495D01*
X38632951Y11130416D01*
X38528416Y11234951D01*
X38405495Y11317084D01*
X38369147Y11332140D01*
X38268914Y11373658D01*
X38123918Y11402500D01*
X37976082Y11402500D01*
X37976081Y11402500D01*
X37831085Y11373658D01*
X37694506Y11317085D01*
X37571585Y11234952D01*
X37467048Y11130415D01*
X37384915Y11007494D01*
X37328342Y10870915D01*
X37299500Y10725919D01*
X37299500Y10578082D01*
X37328342Y10433086D01*
X37341964Y10400200D01*
X37349500Y10362315D01*
X37349500Y9181165D01*
X37330593Y9122974D01*
X37320504Y9111161D01*
X35455883Y7246540D01*
X35379223Y7131809D01*
X35326420Y7004330D01*
X35326420Y7004328D01*
X35299500Y6868996D01*
X35299500Y6539686D01*
X35291965Y6501804D01*
X35278342Y6468913D01*
X35249500Y6323918D01*
X500500Y6323918D01*
X500500Y9830000D01*
X990143Y9830000D01*
X1465192Y9830000D01*
X1445444Y9795796D01*
X1425000Y9719496D01*
X1425000Y9640504D01*
X1445444Y9564204D01*
X1465192Y9530000D01*
X990143Y9530000D01*
X1003822Y9461233D01*
X1060358Y9324743D01*
X1142434Y9201907D01*
X1246906Y9097435D01*
X1369742Y9015359D01*
X1506229Y8958824D01*
X1506235Y8958822D01*
X1651128Y8930001D01*
X1651132Y8930000D01*
X1974999Y8930000D01*
X1975000Y8930001D01*
X1975000Y9380000D01*
X2275000Y9380000D01*
X2275000Y8930001D01*
X2275001Y8930000D01*
X2598868Y8930000D01*
X2598871Y8930001D01*
X2743764Y8958822D01*
X2743770Y8958824D01*
X2880257Y9015359D01*
X3003093Y9097435D01*
X3107565Y9201907D01*
X3189641Y9324743D01*
X3246177Y9461233D01*
X3259857Y9530000D01*
X2784808Y9530000D01*
X2804556Y9564204D01*
X2825000Y9640504D01*
X2825000Y9719496D01*
X2804556Y9795796D01*
X2784808Y9830000D01*
X3259857Y9830000D01*
X5020143Y9830000D01*
X5495192Y9830000D01*
X5475444Y9795796D01*
X5455000Y9719496D01*
X5455000Y9640504D01*
X5475444Y9564204D01*
X5495192Y9530000D01*
X5020143Y9530000D01*
X5033822Y9461233D01*
X5090358Y9324743D01*
X5172434Y9201907D01*
X5276906Y9097435D01*
X5399742Y9015359D01*
X5536229Y8958824D01*
X5536235Y8958822D01*
X5681128Y8930001D01*
X5681132Y8930000D01*
X6154999Y8930000D01*
X6155000Y8930001D01*
X6155000Y9380000D01*
X6455000Y9380000D01*
X6455000Y8930001D01*
X6455001Y8930000D01*
X6928868Y8930000D01*
X6928871Y8930001D01*
X7073764Y8958822D01*
X7073770Y8958824D01*
X7210257Y9015359D01*
X7333093Y9097435D01*
X7437565Y9201907D01*
X7519641Y9324743D01*
X7576177Y9461233D01*
X7589857Y9530000D01*
X7114808Y9530000D01*
X7134556Y9564204D01*
X7155000Y9640504D01*
X7155000Y9719496D01*
X7134556Y9795796D01*
X7114808Y9830000D01*
X7589857Y9830000D01*
X7576177Y9898768D01*
X7519641Y10035258D01*
X7437565Y10158094D01*
X7333093Y10262566D01*
X7210257Y10344642D01*
X7073770Y10401177D01*
X7073764Y10401179D01*
X6928871Y10430000D01*
X6455001Y10430000D01*
X6455000Y10429999D01*
X6455000Y9980000D01*
X6155000Y9980000D01*
X6155000Y10429999D01*
X6154999Y10430000D01*
X6147680Y10430000D01*
X6089489Y10448907D01*
X6053525Y10498407D01*
X6053525Y10559593D01*
X6089489Y10609093D01*
X6098180Y10614736D01*
X6158360Y10649482D01*
X6158360Y10649483D01*
X6158365Y10649485D01*
X6265515Y10756635D01*
X6341281Y10887865D01*
X6380500Y11034234D01*
X6380500Y11185766D01*
X6341281Y11332135D01*
X6341279Y11332138D01*
X6341279Y11332140D01*
X6265518Y11463361D01*
X6265516Y11463363D01*
X6265515Y11463365D01*
X6158365Y11570515D01*
X6158362Y11570517D01*
X6158360Y11570519D01*
X6153765Y11573172D01*
X42522050Y11573172D01*
X42522050Y11346829D01*
X42557456Y11123284D01*
X42627400Y10908019D01*
X42720184Y10725918D01*
X42730155Y10706350D01*
X42863193Y10523239D01*
X43023239Y10363193D01*
X43206350Y10230155D01*
X43408019Y10127400D01*
X43623279Y10057458D01*
X43623280Y10057458D01*
X43623283Y10057457D01*
X43846828Y10022050D01*
X43846831Y10022050D01*
X44073172Y10022050D01*
X44296716Y10057457D01*
X44296717Y10057458D01*
X44296721Y10057458D01*
X44511981Y10127400D01*
X44713650Y10230155D01*
X44896761Y10363193D01*
X45056807Y10523239D01*
X45189845Y10706350D01*
X45292600Y10908019D01*
X45362542Y11123279D01*
X45363672Y11130415D01*
X45397950Y11346829D01*
X45397950Y11573172D01*
X45697050Y11573172D01*
X45697050Y11346829D01*
X45732456Y11123284D01*
X45802400Y10908019D01*
X45895184Y10725918D01*
X45905155Y10706350D01*
X46038193Y10523239D01*
X46198239Y10363193D01*
X46381350Y10230155D01*
X46583019Y10127400D01*
X46798279Y10057458D01*
X46798280Y10057458D01*
X46798283Y10057457D01*
X47021828Y10022050D01*
X47021831Y10022050D01*
X47248172Y10022050D01*
X47471716Y10057457D01*
X47471717Y10057458D01*
X47471721Y10057458D01*
X47686981Y10127400D01*
X47888650Y10230155D01*
X48071761Y10363193D01*
X48231807Y10523239D01*
X48364845Y10706350D01*
X48467600Y10908019D01*
X48537542Y11123279D01*
X48538672Y11130415D01*
X48572950Y11346829D01*
X48572950Y11573172D01*
X48537543Y11796717D01*
X48537542Y11796721D01*
X48467600Y12011981D01*
X48364845Y12213650D01*
X48231807Y12396761D01*
X48071761Y12556807D01*
X47888650Y12689845D01*
X47888649Y12689846D01*
X47888647Y12689847D01*
X47686981Y12792600D01*
X47471716Y12862544D01*
X47248172Y12897950D01*
X47248169Y12897950D01*
X47021831Y12897950D01*
X47021828Y12897950D01*
X46798283Y12862544D01*
X46583018Y12792600D01*
X46381352Y12689847D01*
X46198240Y12556808D01*
X46038192Y12396760D01*
X45905153Y12213648D01*
X45802400Y12011982D01*
X45732456Y11796717D01*
X45697050Y11573172D01*
X45397950Y11573172D01*
X45362543Y11796717D01*
X45362542Y11796721D01*
X45292600Y12011981D01*
X45189845Y12213650D01*
X45056807Y12396761D01*
X44896761Y12556807D01*
X44713650Y12689845D01*
X44713649Y12689846D01*
X44713647Y12689847D01*
X44511981Y12792600D01*
X44296716Y12862544D01*
X44073172Y12897950D01*
X44073169Y12897950D01*
X43846831Y12897950D01*
X43846828Y12897950D01*
X43623283Y12862544D01*
X43408018Y12792600D01*
X43206352Y12689847D01*
X43023240Y12556808D01*
X42863192Y12396760D01*
X42730153Y12213648D01*
X42627400Y12011982D01*
X42557456Y11796717D01*
X42522050Y11573172D01*
X6153765Y11573172D01*
X6027138Y11646280D01*
X6027140Y11646280D01*
X5970347Y11661497D01*
X5880766Y11685500D01*
X5729234Y11685500D01*
X5639652Y11661497D01*
X5582860Y11646280D01*
X5451639Y11570519D01*
X5344481Y11463361D01*
X5268720Y11332140D01*
X5268719Y11332135D01*
X5229500Y11185766D01*
X5229500Y11034234D01*
X5236665Y11007495D01*
X5268720Y10887861D01*
X5344481Y10756640D01*
X5344483Y10756638D01*
X5344485Y10756635D01*
X5451635Y10649485D01*
X5565391Y10583808D01*
X5606331Y10538339D01*
X5612727Y10477489D01*
X5582134Y10424501D01*
X5540565Y10403657D01*
X5540889Y10402590D01*
X5536229Y10401177D01*
X5399742Y10344642D01*
X5276906Y10262566D01*
X5172434Y10158094D01*
X5090358Y10035258D01*
X5033822Y9898768D01*
X5020143Y9830000D01*
X3259857Y9830000D01*
X3246177Y9898768D01*
X3189641Y10035258D01*
X3107565Y10158094D01*
X3003093Y10262566D01*
X2880257Y10344642D01*
X2743770Y10401177D01*
X2743764Y10401179D01*
X2598871Y10430000D01*
X2275001Y10430000D01*
X2275000Y10429999D01*
X2275000Y9980000D01*
X1975000Y9980000D01*
X1975000Y10429999D01*
X1974999Y10430000D01*
X1651128Y10430000D01*
X1506235Y10401179D01*
X1506229Y10401177D01*
X1369742Y10344642D01*
X1246906Y10262566D01*
X1142434Y10158094D01*
X1060358Y10035258D01*
X1003822Y9898768D01*
X990143Y9830000D01*
X500500Y9830000D01*
X500500Y13057458D01*
X48294200Y13057458D01*
X48294200Y12910543D01*
X48322860Y12766459D01*
X48322860Y12766457D01*
X48379078Y12630734D01*
X48379078Y12630733D01*
X48419749Y12569866D01*
X48460699Y12508580D01*
X48564580Y12404699D01*
X48686731Y12323080D01*
X48822458Y12266860D01*
X48966545Y12238200D01*
X48966547Y12238200D01*
X49113453Y12238200D01*
X49113455Y12238200D01*
X49257542Y12266860D01*
X49393269Y12323080D01*
X49515420Y12404699D01*
X49619301Y12508580D01*
X49700920Y12630731D01*
X49757140Y12766458D01*
X49785800Y12910545D01*
X49785800Y13057455D01*
X49757140Y13201542D01*
X49700921Y13337267D01*
X49700921Y13337268D01*
X49680585Y13367702D01*
X49619301Y13459420D01*
X49515420Y13563301D01*
X49393269Y13644920D01*
X49393268Y13644921D01*
X49393266Y13644922D01*
X49257542Y13701140D01*
X49113457Y13729800D01*
X49113455Y13729800D01*
X48966545Y13729800D01*
X48966542Y13729800D01*
X48822458Y13701140D01*
X48822456Y13701140D01*
X48686733Y13644922D01*
X48686732Y13644922D01*
X48564580Y13563301D01*
X48564576Y13563298D01*
X48460702Y13459424D01*
X48460699Y13459420D01*
X48379078Y13337268D01*
X48379078Y13337267D01*
X48322860Y13201544D01*
X48322860Y13201542D01*
X48294200Y13057458D01*
X500500Y13057458D01*
X500500Y14073458D01*
X43214200Y14073458D01*
X43214200Y13926543D01*
X43242860Y13782459D01*
X43242860Y13782457D01*
X43299078Y13646734D01*
X43299078Y13646733D01*
X43339749Y13585866D01*
X43380699Y13524580D01*
X43484580Y13420699D01*
X43606731Y13339080D01*
X43606732Y13339080D01*
X43606733Y13339079D01*
X43611108Y13337267D01*
X43742458Y13282860D01*
X43886545Y13254200D01*
X43886547Y13254200D01*
X44033453Y13254200D01*
X44033455Y13254200D01*
X44177542Y13282860D01*
X44313269Y13339080D01*
X44435420Y13420699D01*
X44539301Y13524580D01*
X44620920Y13646731D01*
X44677140Y13782458D01*
X44705800Y13926545D01*
X44705800Y14073455D01*
X44677140Y14217542D01*
X44620921Y14353267D01*
X44620921Y14353268D01*
X44600585Y14383702D01*
X44539301Y14475420D01*
X44435420Y14579301D01*
X44313269Y14660920D01*
X44313268Y14660921D01*
X44313266Y14660922D01*
X44177542Y14717140D01*
X44033457Y14745800D01*
X44033455Y14745800D01*
X43886545Y14745800D01*
X43886542Y14745800D01*
X43742458Y14717140D01*
X43742456Y14717140D01*
X43606733Y14660922D01*
X43606732Y14660922D01*
X43484580Y14579301D01*
X43484576Y14579298D01*
X43380702Y14475424D01*
X43380699Y14475420D01*
X43299078Y14353268D01*
X43299078Y14353267D01*
X43242860Y14217544D01*
X43242860Y14217542D01*
X43214200Y14073458D01*
X500500Y14073458D01*
X500500Y14912885D01*
X3988466Y14912885D01*
X3988466Y14765048D01*
X4017308Y14620052D01*
X4050228Y14540577D01*
X4073882Y14483471D01*
X4156015Y14360550D01*
X4260550Y14256015D01*
X4383471Y14173882D01*
X4520053Y14117308D01*
X4665048Y14088466D01*
X4665049Y14088466D01*
X4812883Y14088466D01*
X4812884Y14088466D01*
X4957879Y14117308D01*
X5094461Y14173882D01*
X5217382Y14256015D01*
X5321917Y14360550D01*
X5404050Y14483471D01*
X5460624Y14620053D01*
X5489466Y14765048D01*
X5489466Y14799758D01*
X5508373Y14857949D01*
X5518456Y14869755D01*
X5738158Y15089458D01*
X48294200Y15089458D01*
X48294200Y14942543D01*
X48300100Y14912884D01*
X48322601Y14799758D01*
X48322860Y14798459D01*
X48322860Y14798457D01*
X48379078Y14662734D01*
X48379078Y14662733D01*
X48407597Y14620052D01*
X48460699Y14540580D01*
X48564580Y14436699D01*
X48686731Y14355080D01*
X48686732Y14355080D01*
X48686733Y14355079D01*
X48691108Y14353267D01*
X48822458Y14298860D01*
X48966545Y14270200D01*
X48966547Y14270200D01*
X49113453Y14270200D01*
X49113455Y14270200D01*
X49257542Y14298860D01*
X49393269Y14355080D01*
X49515420Y14436699D01*
X49619301Y14540580D01*
X49700920Y14662731D01*
X49757140Y14798458D01*
X49785800Y14942545D01*
X49785800Y15089455D01*
X49757140Y15233542D01*
X49700921Y15369267D01*
X49700921Y15369268D01*
X49628039Y15478342D01*
X49619301Y15491420D01*
X49515420Y15595301D01*
X49393269Y15676920D01*
X49393268Y15676921D01*
X49393266Y15676922D01*
X49257542Y15733140D01*
X49113457Y15761800D01*
X49113455Y15761800D01*
X48966545Y15761800D01*
X48966542Y15761800D01*
X48822458Y15733140D01*
X48822456Y15733140D01*
X48686733Y15676922D01*
X48686732Y15676922D01*
X48564580Y15595301D01*
X48564576Y15595298D01*
X48460702Y15491424D01*
X48460699Y15491420D01*
X48379078Y15369268D01*
X48379078Y15369267D01*
X48322860Y15233544D01*
X48322860Y15233542D01*
X48294200Y15089458D01*
X5738158Y15089458D01*
X5868085Y15219385D01*
X5911018Y15242322D01*
X5910410Y15244328D01*
X5915055Y15245738D01*
X5915067Y15245740D01*
X6051649Y15302314D01*
X6174570Y15384447D01*
X6279105Y15488982D01*
X6361238Y15611903D01*
X6417812Y15748485D01*
X6446654Y15893480D01*
X6446654Y16041316D01*
X6417812Y16186311D01*
X6361238Y16322893D01*
X6279105Y16445814D01*
X6279103Y16445816D01*
X6277887Y16447636D01*
X6261278Y16506524D01*
X6274466Y16552138D01*
X6341279Y16667861D01*
X6341279Y16667863D01*
X6341281Y16667865D01*
X6380500Y16814234D01*
X6380500Y16965766D01*
X6341281Y17112135D01*
X6341279Y17112138D01*
X6341279Y17112140D01*
X6265518Y17243361D01*
X6265516Y17243363D01*
X6265515Y17243365D01*
X6158365Y17350515D01*
X6158362Y17350517D01*
X6158360Y17350519D01*
X6098180Y17385264D01*
X6057239Y17430734D01*
X6050843Y17491584D01*
X6081436Y17544572D01*
X6137332Y17569458D01*
X6147680Y17570000D01*
X6154999Y17570000D01*
X6155000Y17570001D01*
X6155000Y18020000D01*
X6455000Y18020000D01*
X6455000Y17570001D01*
X6455001Y17570000D01*
X6928868Y17570000D01*
X6928871Y17570001D01*
X7073764Y17598822D01*
X7073770Y17598824D01*
X7210257Y17655359D01*
X7333093Y17737435D01*
X7437565Y17841907D01*
X7519641Y17964743D01*
X7576177Y18101233D01*
X7589857Y18170000D01*
X7114808Y18170000D01*
X7117071Y18173919D01*
X24749500Y18173919D01*
X24749500Y18026082D01*
X24778342Y17881086D01*
X24834914Y17744508D01*
X24837207Y17740219D01*
X24835362Y17739233D01*
X24849500Y17692648D01*
X24849500Y16607353D01*
X24835369Y16560767D01*
X24837208Y16559784D01*
X24834915Y16555496D01*
X24778342Y16418915D01*
X24749500Y16273919D01*
X24749500Y16126082D01*
X24766361Y16041315D01*
X24778342Y15981087D01*
X24834916Y15844505D01*
X24917049Y15721584D01*
X25021584Y15617049D01*
X25144505Y15534916D01*
X25281087Y15478342D01*
X25426082Y15449500D01*
X25426083Y15449500D01*
X25573917Y15449500D01*
X25573918Y15449500D01*
X25718913Y15478342D01*
X25855495Y15534916D01*
X25978416Y15617049D01*
X26082951Y15721584D01*
X26165084Y15844505D01*
X26221658Y15981087D01*
X26250500Y16126082D01*
X26250500Y16273918D01*
X26221658Y16418913D01*
X26188891Y16498020D01*
X26165084Y16555496D01*
X26162792Y16559784D01*
X26164630Y16560767D01*
X26150500Y16607353D01*
X26150500Y16653172D01*
X42522050Y16653172D01*
X42522050Y16426829D01*
X42557456Y16203284D01*
X42627400Y15988019D01*
X42700523Y15844505D01*
X42730155Y15786350D01*
X42863193Y15603239D01*
X43023239Y15443193D01*
X43206350Y15310155D01*
X43408019Y15207400D01*
X43623279Y15137458D01*
X43623280Y15137458D01*
X43623283Y15137457D01*
X43846828Y15102050D01*
X43846831Y15102050D01*
X44073172Y15102050D01*
X44296716Y15137457D01*
X44296717Y15137458D01*
X44296721Y15137458D01*
X44511981Y15207400D01*
X44713650Y15310155D01*
X44896761Y15443193D01*
X45056807Y15603239D01*
X45189845Y15786350D01*
X45292600Y15988019D01*
X45362542Y16203279D01*
X45373730Y16273917D01*
X45397950Y16426829D01*
X45397950Y16653172D01*
X45697050Y16653172D01*
X45697050Y16426829D01*
X45732456Y16203284D01*
X45802400Y15988019D01*
X45875523Y15844505D01*
X45905155Y15786350D01*
X46038193Y15603239D01*
X46198239Y15443193D01*
X46381350Y15310155D01*
X46583019Y15207400D01*
X46798279Y15137458D01*
X46798280Y15137458D01*
X46798283Y15137457D01*
X47021828Y15102050D01*
X47021831Y15102050D01*
X47248172Y15102050D01*
X47471716Y15137457D01*
X47471717Y15137458D01*
X47471721Y15137458D01*
X47686981Y15207400D01*
X47888650Y15310155D01*
X48071761Y15443193D01*
X48231807Y15603239D01*
X48364845Y15786350D01*
X48467600Y15988019D01*
X48537542Y16203279D01*
X48548730Y16273917D01*
X48572950Y16426829D01*
X48572950Y16653172D01*
X48537543Y16876717D01*
X48537542Y16876721D01*
X48467600Y17091981D01*
X48364845Y17293650D01*
X48231807Y17476761D01*
X48071761Y17636807D01*
X47888650Y17769845D01*
X47888649Y17769846D01*
X47888647Y17769847D01*
X47686981Y17872600D01*
X47471716Y17942544D01*
X47248172Y17977950D01*
X47248169Y17977950D01*
X47021831Y17977950D01*
X47021828Y17977950D01*
X46798283Y17942544D01*
X46583018Y17872600D01*
X46381352Y17769847D01*
X46198240Y17636808D01*
X46038192Y17476760D01*
X45905153Y17293648D01*
X45802400Y17091982D01*
X45732456Y16876717D01*
X45697050Y16653172D01*
X45397950Y16653172D01*
X45362543Y16876717D01*
X45362542Y16876721D01*
X45292600Y17091981D01*
X45189845Y17293650D01*
X45056807Y17476761D01*
X44896761Y17636807D01*
X44713650Y17769845D01*
X44713649Y17769846D01*
X44713647Y17769847D01*
X44511981Y17872600D01*
X44296716Y17942544D01*
X44073172Y17977950D01*
X44073169Y17977950D01*
X43846831Y17977950D01*
X43846828Y17977950D01*
X43623283Y17942544D01*
X43408018Y17872600D01*
X43206352Y17769847D01*
X43023240Y17636808D01*
X42863192Y17476760D01*
X42730153Y17293648D01*
X42627400Y17091982D01*
X42557456Y16876717D01*
X42522050Y16653172D01*
X26150500Y16653172D01*
X26150500Y17692648D01*
X26164637Y17739233D01*
X26162793Y17740219D01*
X26165080Y17744501D01*
X26165084Y17744505D01*
X26221658Y17881087D01*
X26250500Y18026082D01*
X26250500Y18173918D01*
X26221658Y18318913D01*
X26165084Y18455495D01*
X26082951Y18578416D01*
X25978416Y18682951D01*
X25855495Y18765084D01*
X25775802Y18798094D01*
X25718914Y18821658D01*
X25573918Y18850500D01*
X25426082Y18850500D01*
X25426081Y18850500D01*
X25281085Y18821658D01*
X25144506Y18765085D01*
X25021585Y18682952D01*
X24917048Y18578415D01*
X24834915Y18455494D01*
X24778342Y18318915D01*
X24749500Y18173919D01*
X7117071Y18173919D01*
X7134556Y18204204D01*
X7155000Y18280504D01*
X7155000Y18359496D01*
X7134556Y18435796D01*
X7114808Y18470000D01*
X7589857Y18470000D01*
X7576177Y18538768D01*
X7519641Y18675258D01*
X7437565Y18798094D01*
X7333093Y18902566D01*
X7210257Y18984642D01*
X7073770Y19041177D01*
X7073764Y19041179D01*
X6928871Y19070000D01*
X6455001Y19070000D01*
X6455000Y19069999D01*
X6455000Y18620000D01*
X6155000Y18620000D01*
X6155000Y19069999D01*
X6154999Y19070000D01*
X5681128Y19070000D01*
X5536235Y19041179D01*
X5536229Y19041177D01*
X5399742Y18984642D01*
X5276906Y18902566D01*
X5172434Y18798094D01*
X5090358Y18675258D01*
X5033822Y18538768D01*
X5020143Y18470000D01*
X5495192Y18470000D01*
X5475444Y18435796D01*
X5455000Y18359496D01*
X5455000Y18280504D01*
X5475444Y18204204D01*
X5495192Y18170000D01*
X5020143Y18170000D01*
X5033822Y18101233D01*
X5090358Y17964743D01*
X5172434Y17841907D01*
X5276906Y17737435D01*
X5399742Y17655359D01*
X5536229Y17598824D01*
X5540889Y17597410D01*
X5540482Y17596070D01*
X5588586Y17569133D01*
X5614203Y17513569D01*
X5602269Y17453558D01*
X5565390Y17416193D01*
X5451639Y17350519D01*
X5344481Y17243361D01*
X5268720Y17112140D01*
X5268719Y17112135D01*
X5229500Y16965766D01*
X5229500Y16814234D01*
X5268719Y16667865D01*
X5269323Y16665611D01*
X5266120Y16604509D01*
X5228700Y16557674D01*
X5217734Y16550347D01*
X5113204Y16445816D01*
X5031070Y16322894D01*
X4974497Y16186315D01*
X4973086Y16181661D01*
X4971109Y16182261D01*
X4948140Y16139333D01*
X4233688Y15424879D01*
X4184961Y15351952D01*
X4184958Y15351947D01*
X4179052Y15343109D01*
X4166748Y15328116D01*
X4156013Y15317381D01*
X4073880Y15194459D01*
X4017308Y15057881D01*
X3988466Y14912885D01*
X500500Y14912885D01*
X500500Y18470000D01*
X990143Y18470000D01*
X1465192Y18470000D01*
X1445444Y18435796D01*
X1425000Y18359496D01*
X1425000Y18280504D01*
X1445444Y18204204D01*
X1465192Y18170000D01*
X990143Y18170000D01*
X1003822Y18101233D01*
X1060358Y17964743D01*
X1142434Y17841907D01*
X1246906Y17737435D01*
X1369742Y17655359D01*
X1506229Y17598824D01*
X1506235Y17598822D01*
X1651128Y17570001D01*
X1651132Y17570000D01*
X1974999Y17570000D01*
X1975000Y17570001D01*
X1975000Y18020000D01*
X2275000Y18020000D01*
X2275000Y17570001D01*
X2275001Y17570000D01*
X2598868Y17570000D01*
X2598871Y17570001D01*
X2743764Y17598822D01*
X2743770Y17598824D01*
X2880257Y17655359D01*
X3003093Y17737435D01*
X3107565Y17841907D01*
X3189641Y17964743D01*
X3246177Y18101233D01*
X3259857Y18170000D01*
X2784808Y18170000D01*
X2804556Y18204204D01*
X2825000Y18280504D01*
X2825000Y18359496D01*
X2804556Y18435796D01*
X2784808Y18470000D01*
X3259857Y18470000D01*
X3246177Y18538768D01*
X3189641Y18675258D01*
X3107565Y18798094D01*
X3003093Y18902566D01*
X2880257Y18984642D01*
X2743770Y19041177D01*
X2743764Y19041179D01*
X2598871Y19070000D01*
X2275001Y19070000D01*
X2275000Y19069999D01*
X2275000Y18620000D01*
X1975000Y18620000D01*
X1975000Y19069999D01*
X1974999Y19070000D01*
X1651128Y19070000D01*
X1506235Y19041179D01*
X1506229Y19041177D01*
X1369742Y18984642D01*
X1246906Y18902566D01*
X1142434Y18798094D01*
X1060358Y18675258D01*
X1003822Y18538768D01*
X990143Y18470000D01*
X500500Y18470000D01*
X500500Y23997565D01*
X500619Y24002422D01*
X510153Y24196496D01*
X517113Y24338176D01*
X518063Y24347814D01*
X567029Y24677920D01*
X568918Y24687418D01*
X650009Y25011151D01*
X652818Y25020410D01*
X765249Y25334633D01*
X768958Y25343588D01*
X911644Y25645272D01*
X916211Y25653815D01*
X1087780Y25940062D01*
X1093163Y25948117D01*
X1291957Y26216159D01*
X1298107Y26223654D01*
X1522228Y26470933D01*
X1529067Y26477772D01*
X1776346Y26701893D01*
X1783841Y26708043D01*
X2051883Y26906837D01*
X2059938Y26912220D01*
X2346185Y27083789D01*
X2354728Y27088356D01*
X2656412Y27231042D01*
X2665367Y27234751D01*
X2979590Y27347182D01*
X2988849Y27349991D01*
X3312582Y27431082D01*
X3322080Y27432971D01*
X3652186Y27481937D01*
X3661824Y27482887D01*
X3970606Y27498056D01*
X3997579Y27499381D01*
X4002436Y27499500D01*
X4065892Y27499500D01*
X48934108Y27499500D01*
X48997564Y27499500D01*
X49002421Y27499381D01*
G37*
%TD.AperFunction*%
%TD*%
M02*
