%TF.GenerationSoftware,KiCad,Pcbnew,9.0.7*%
%TF.CreationDate,2026-02-10T20:50:10+08:00*%
%TF.ProjectId,260209-MSPM0-phil165,32363032-3039-42d4-9d53-504d302d7068,v0.1*%
%TF.SameCoordinates,PX2bde780PY4692680*%
%TF.FileFunction,Soldermask,Bot*%
%TF.FilePolarity,Negative*%
%FSLAX46Y46*%
G04 Gerber Fmt 4.6, Leading zero omitted, Abs format (unit mm)*
G04 Created by KiCad (PCBNEW 9.0.7) date 2026-02-10 20:50:10*
%MOMM*%
%LPD*%
G01*
G04 APERTURE LIST*
G04 APERTURE END LIST*
G36*
X4484211Y7264282D02*
G01*
X4801835Y7201103D01*
X5111737Y7107095D01*
X5410932Y6983165D01*
X5696539Y6830504D01*
X5965808Y6650585D01*
X6216145Y6445139D01*
X6445139Y6216145D01*
X6650585Y5965808D01*
X6830504Y5696539D01*
X6983165Y5410932D01*
X7107095Y5111737D01*
X7201103Y4801835D01*
X7264282Y4484211D01*
X7296025Y4161923D01*
X7296025Y3838077D01*
X7264282Y3515789D01*
X7201103Y3198165D01*
X7107095Y2888263D01*
X6983165Y2589068D01*
X6830504Y2303461D01*
X6650585Y2034192D01*
X6445139Y1783855D01*
X6216145Y1554861D01*
X5965808Y1349415D01*
X5696539Y1169496D01*
X5410932Y1016835D01*
X5111737Y892905D01*
X4801835Y798897D01*
X4484211Y735718D01*
X4161923Y703975D01*
X3838077Y703975D01*
X3515789Y735718D01*
X3198165Y798897D01*
X2888263Y892905D01*
X2589068Y1016835D01*
X2303461Y1169496D01*
X2034192Y1349415D01*
X1783855Y1554861D01*
X1554861Y1783855D01*
X1349415Y2034192D01*
X1169496Y2303461D01*
X1016835Y2589068D01*
X892905Y2888263D01*
X798897Y3198165D01*
X735718Y3515789D01*
X703975Y3838077D01*
X703975Y4161923D01*
X735718Y4484211D01*
X798897Y4801835D01*
X892905Y5111737D01*
X1016835Y5410932D01*
X1169496Y5696539D01*
X1349415Y5965808D01*
X1554861Y6216145D01*
X1783855Y6445139D01*
X2034192Y6650585D01*
X2303461Y6830504D01*
X2589068Y6983165D01*
X2888263Y7107095D01*
X3198165Y7201103D01*
X3515789Y7264282D01*
X3838077Y7296025D01*
X4161923Y7296025D01*
X4484211Y7264282D01*
G37*
G36*
X49484211Y7264282D02*
G01*
X49801835Y7201103D01*
X50111737Y7107095D01*
X50410932Y6983165D01*
X50696539Y6830504D01*
X50965808Y6650585D01*
X51216145Y6445139D01*
X51445139Y6216145D01*
X51650585Y5965808D01*
X51830504Y5696539D01*
X51983165Y5410932D01*
X52107095Y5111737D01*
X52201103Y4801835D01*
X52264282Y4484211D01*
X52296025Y4161923D01*
X52296025Y3838077D01*
X52264282Y3515789D01*
X52201103Y3198165D01*
X52107095Y2888263D01*
X51983165Y2589068D01*
X51830504Y2303461D01*
X51650585Y2034192D01*
X51445139Y1783855D01*
X51216145Y1554861D01*
X50965808Y1349415D01*
X50696539Y1169496D01*
X50410932Y1016835D01*
X50111737Y892905D01*
X49801835Y798897D01*
X49484211Y735718D01*
X49161923Y703975D01*
X48838077Y703975D01*
X48515789Y735718D01*
X48198165Y798897D01*
X47888263Y892905D01*
X47589068Y1016835D01*
X47303461Y1169496D01*
X47034192Y1349415D01*
X46783855Y1554861D01*
X46554861Y1783855D01*
X46349415Y2034192D01*
X46169496Y2303461D01*
X46016835Y2589068D01*
X45892905Y2888263D01*
X45798897Y3198165D01*
X45735718Y3515789D01*
X45703975Y3838077D01*
X45703975Y4161923D01*
X45735718Y4484211D01*
X45798897Y4801835D01*
X45892905Y5111737D01*
X46016835Y5410932D01*
X46169496Y5696539D01*
X46349415Y5965808D01*
X46554861Y6216145D01*
X46783855Y6445139D01*
X47034192Y6650585D01*
X47303461Y6830504D01*
X47589068Y6983165D01*
X47888263Y7107095D01*
X48198165Y7201103D01*
X48515789Y7264282D01*
X48838077Y7296025D01*
X49161923Y7296025D01*
X49484211Y7264282D01*
G37*
G36*
X2528686Y10279759D02*
G01*
X2582577Y10277111D01*
X2589210Y10275792D01*
X2603316Y10274867D01*
X2630562Y10267567D01*
X2699099Y10253934D01*
X2731448Y10240535D01*
X2754610Y10234328D01*
X2775377Y10222338D01*
X2807722Y10208940D01*
X2865816Y10170123D01*
X2890257Y10156012D01*
X2896946Y10149323D01*
X2905481Y10143620D01*
X2988619Y10060482D01*
X2994321Y10051948D01*
X3001012Y10045257D01*
X3015124Y10020814D01*
X3053939Y9962723D01*
X3067335Y9930382D01*
X3079328Y9909610D01*
X3085535Y9886445D01*
X3098933Y9854100D01*
X3112565Y9785567D01*
X3119867Y9758316D01*
X3119867Y9748859D01*
X3121870Y9738789D01*
X3121870Y9621212D01*
X3119867Y9611143D01*
X3119867Y9601684D01*
X3112564Y9574431D01*
X3098933Y9505901D01*
X3085535Y9473559D01*
X3079328Y9450390D01*
X3067334Y9429617D01*
X3053939Y9397278D01*
X3015128Y9339195D01*
X3001012Y9314743D01*
X2994319Y9308051D01*
X2988619Y9299519D01*
X2905481Y9216381D01*
X2896949Y9210681D01*
X2890257Y9203988D01*
X2865805Y9189872D01*
X2807722Y9151061D01*
X2775383Y9137666D01*
X2754610Y9125672D01*
X2731441Y9119465D01*
X2699099Y9106067D01*
X2630576Y9092438D01*
X2603316Y9085133D01*
X2589203Y9084209D01*
X2582577Y9082890D01*
X2528691Y9080242D01*
X2525000Y9080000D01*
X2523768Y9080000D01*
X1726232Y9080000D01*
X1725000Y9080000D01*
X1721308Y9080242D01*
X1667422Y9082890D01*
X1660795Y9084209D01*
X1646684Y9085133D01*
X1619426Y9092437D01*
X1550900Y9106067D01*
X1518555Y9119465D01*
X1495390Y9125672D01*
X1474618Y9137665D01*
X1442277Y9151061D01*
X1384186Y9189876D01*
X1359743Y9203988D01*
X1353052Y9210679D01*
X1344518Y9216381D01*
X1261380Y9299519D01*
X1255677Y9308054D01*
X1248988Y9314743D01*
X1234877Y9339184D01*
X1196060Y9397278D01*
X1182662Y9429623D01*
X1170672Y9450390D01*
X1164465Y9473552D01*
X1151066Y9505901D01*
X1137433Y9574437D01*
X1130133Y9601684D01*
X1130133Y9611142D01*
X1128130Y9621212D01*
X1128130Y9738789D01*
X1130133Y9748860D01*
X1130133Y9758316D01*
X1137433Y9785561D01*
X1151066Y9854100D01*
X1164466Y9886452D01*
X1170672Y9909610D01*
X1182660Y9930376D01*
X1196060Y9962723D01*
X1234881Y10020825D01*
X1248988Y10045257D01*
X1255675Y10051945D01*
X1261380Y10060482D01*
X1344518Y10143620D01*
X1353055Y10149325D01*
X1359743Y10156012D01*
X1384175Y10170119D01*
X1442277Y10208940D01*
X1474624Y10222340D01*
X1495390Y10234328D01*
X1518548Y10240534D01*
X1550900Y10253934D01*
X1619440Y10267568D01*
X1646684Y10274867D01*
X1660787Y10275792D01*
X1667422Y10277111D01*
X1721313Y10279759D01*
X1725000Y10280000D01*
X2525000Y10280000D01*
X2528686Y10279759D01*
G37*
G36*
X6858686Y10279759D02*
G01*
X6912577Y10277111D01*
X6919210Y10275792D01*
X6933316Y10274867D01*
X6960562Y10267567D01*
X7029099Y10253934D01*
X7061448Y10240535D01*
X7084610Y10234328D01*
X7105377Y10222338D01*
X7137722Y10208940D01*
X7195816Y10170123D01*
X7220257Y10156012D01*
X7226946Y10149323D01*
X7235481Y10143620D01*
X7318619Y10060482D01*
X7324321Y10051948D01*
X7331012Y10045257D01*
X7345124Y10020814D01*
X7383939Y9962723D01*
X7397335Y9930382D01*
X7409328Y9909610D01*
X7415535Y9886445D01*
X7428933Y9854100D01*
X7442565Y9785567D01*
X7449867Y9758316D01*
X7449867Y9748859D01*
X7451870Y9738789D01*
X7451870Y9621212D01*
X7449867Y9611143D01*
X7449867Y9601684D01*
X7442564Y9574431D01*
X7428933Y9505901D01*
X7415535Y9473559D01*
X7409328Y9450390D01*
X7397334Y9429617D01*
X7383939Y9397278D01*
X7345128Y9339195D01*
X7331012Y9314743D01*
X7324319Y9308051D01*
X7318619Y9299519D01*
X7235481Y9216381D01*
X7226949Y9210681D01*
X7220257Y9203988D01*
X7195805Y9189872D01*
X7137722Y9151061D01*
X7105383Y9137666D01*
X7084610Y9125672D01*
X7061441Y9119465D01*
X7029099Y9106067D01*
X6960576Y9092438D01*
X6933316Y9085133D01*
X6919203Y9084209D01*
X6912577Y9082890D01*
X6858691Y9080242D01*
X6855000Y9080000D01*
X6853768Y9080000D01*
X5756232Y9080000D01*
X5755000Y9080000D01*
X5751308Y9080242D01*
X5697422Y9082890D01*
X5690795Y9084209D01*
X5676684Y9085133D01*
X5649426Y9092437D01*
X5580900Y9106067D01*
X5548555Y9119465D01*
X5525390Y9125672D01*
X5504618Y9137665D01*
X5472277Y9151061D01*
X5414186Y9189876D01*
X5389743Y9203988D01*
X5383052Y9210679D01*
X5374518Y9216381D01*
X5291380Y9299519D01*
X5285677Y9308054D01*
X5278988Y9314743D01*
X5264877Y9339184D01*
X5226060Y9397278D01*
X5212662Y9429623D01*
X5200672Y9450390D01*
X5194465Y9473552D01*
X5181066Y9505901D01*
X5167433Y9574437D01*
X5160133Y9601684D01*
X5160133Y9611142D01*
X5158130Y9621212D01*
X5158130Y9738789D01*
X5160133Y9748860D01*
X5160133Y9758316D01*
X5167433Y9785561D01*
X5181066Y9854100D01*
X5194466Y9886452D01*
X5200672Y9909610D01*
X5212660Y9930376D01*
X5226060Y9962723D01*
X5264881Y10020825D01*
X5278988Y10045257D01*
X5285675Y10051945D01*
X5291380Y10060482D01*
X5374518Y10143620D01*
X5383055Y10149325D01*
X5389743Y10156012D01*
X5414175Y10170119D01*
X5472277Y10208940D01*
X5504624Y10222340D01*
X5525390Y10234328D01*
X5548548Y10240534D01*
X5580900Y10253934D01*
X5649440Y10267568D01*
X5676684Y10274867D01*
X5690787Y10275792D01*
X5697422Y10277111D01*
X5751313Y10279759D01*
X5755000Y10280000D01*
X6855000Y10280000D01*
X6858686Y10279759D01*
G37*
G36*
X44260549Y12711878D02*
G01*
X44452686Y12649449D01*
X44632691Y12557732D01*
X44796132Y12438985D01*
X44938985Y12296132D01*
X45057732Y12132691D01*
X45149449Y11952686D01*
X45211878Y11760549D01*
X45243481Y11561012D01*
X45243481Y11358988D01*
X45211878Y11159451D01*
X45149449Y10967314D01*
X45057732Y10787309D01*
X44938985Y10623868D01*
X44796132Y10481015D01*
X44632691Y10362268D01*
X44452686Y10270551D01*
X44260549Y10208122D01*
X44061012Y10176519D01*
X43858988Y10176519D01*
X43659451Y10208122D01*
X43467314Y10270551D01*
X43287309Y10362268D01*
X43123868Y10481015D01*
X42981015Y10623868D01*
X42862268Y10787309D01*
X42770551Y10967314D01*
X42708122Y11159451D01*
X42676519Y11358988D01*
X42676519Y11561012D01*
X42708122Y11760549D01*
X42770551Y11952686D01*
X42862268Y12132691D01*
X42981015Y12296132D01*
X43123868Y12438985D01*
X43287309Y12557732D01*
X43467314Y12649449D01*
X43659451Y12711878D01*
X43858988Y12743481D01*
X44061012Y12743481D01*
X44260549Y12711878D01*
G37*
G36*
X47435549Y12711878D02*
G01*
X47627686Y12649449D01*
X47807691Y12557732D01*
X47971132Y12438985D01*
X48113985Y12296132D01*
X48232732Y12132691D01*
X48324449Y11952686D01*
X48386878Y11760549D01*
X48418481Y11561012D01*
X48418481Y11358988D01*
X48386878Y11159451D01*
X48324449Y10967314D01*
X48232732Y10787309D01*
X48113985Y10623868D01*
X47971132Y10481015D01*
X47807691Y10362268D01*
X47627686Y10270551D01*
X47435549Y10208122D01*
X47236012Y10176519D01*
X47033988Y10176519D01*
X46834451Y10208122D01*
X46642314Y10270551D01*
X46462309Y10362268D01*
X46298868Y10481015D01*
X46156015Y10623868D01*
X46037268Y10787309D01*
X45945551Y10967314D01*
X45883122Y11159451D01*
X45851519Y11358988D01*
X45851519Y11561012D01*
X45883122Y11760549D01*
X45945551Y11952686D01*
X46037268Y12132691D01*
X46156015Y12296132D01*
X46298868Y12438985D01*
X46462309Y12557732D01*
X46642314Y12649449D01*
X46834451Y12711878D01*
X47033988Y12743481D01*
X47236012Y12743481D01*
X47435549Y12711878D01*
G37*
G36*
X5967640Y11502649D02*
G01*
X6063724Y11447175D01*
X6142175Y11368724D01*
X6197649Y11272640D01*
X6226364Y11165474D01*
X6226364Y11054526D01*
X6197649Y10947360D01*
X6142175Y10851276D01*
X6063724Y10772825D01*
X5967640Y10717351D01*
X5860474Y10688636D01*
X5749526Y10688636D01*
X5642360Y10717351D01*
X5546276Y10772825D01*
X5467825Y10851276D01*
X5412351Y10947360D01*
X5383636Y11054526D01*
X5383636Y11165474D01*
X5412351Y11272640D01*
X5467825Y11368724D01*
X5546276Y11447175D01*
X5642360Y11502649D01*
X5749526Y11531364D01*
X5860474Y11531364D01*
X5967640Y11502649D01*
G37*
G36*
X49108312Y13574207D02*
G01*
X49117702Y13574207D01*
X49144752Y13566959D01*
X49212734Y13553437D01*
X49244827Y13540144D01*
X49267811Y13533985D01*
X49288417Y13522088D01*
X49320507Y13508796D01*
X49378130Y13470293D01*
X49402396Y13456283D01*
X49409039Y13449640D01*
X49417499Y13443987D01*
X49499986Y13361500D01*
X49505638Y13353041D01*
X49512283Y13346396D01*
X49526294Y13322128D01*
X49564795Y13264508D01*
X49578085Y13232422D01*
X49589985Y13211811D01*
X49596144Y13188824D01*
X49609436Y13156735D01*
X49622958Y13088756D01*
X49630207Y13061702D01*
X49630207Y13052313D01*
X49632193Y13042328D01*
X49632193Y12925673D01*
X49630207Y12915689D01*
X49630207Y12906298D01*
X49622957Y12879242D01*
X49609436Y12811266D01*
X49596145Y12779180D01*
X49589985Y12756189D01*
X49578084Y12735577D01*
X49564795Y12703493D01*
X49526298Y12645881D01*
X49512283Y12621604D01*
X49505636Y12614958D01*
X49499986Y12606501D01*
X49417499Y12524014D01*
X49409042Y12518364D01*
X49402396Y12511717D01*
X49378119Y12497702D01*
X49320507Y12459205D01*
X49288423Y12445916D01*
X49267811Y12434015D01*
X49244820Y12427855D01*
X49212734Y12414564D01*
X49144758Y12401043D01*
X49117702Y12393793D01*
X49108311Y12393793D01*
X49098327Y12391807D01*
X48981673Y12391807D01*
X48971689Y12393793D01*
X48962298Y12393793D01*
X48935243Y12401043D01*
X48867265Y12414564D01*
X48835176Y12427856D01*
X48812189Y12434015D01*
X48791578Y12445915D01*
X48759492Y12459205D01*
X48701872Y12497706D01*
X48677604Y12511717D01*
X48670959Y12518362D01*
X48662500Y12524014D01*
X48580013Y12606501D01*
X48574360Y12614961D01*
X48567717Y12621604D01*
X48553707Y12645870D01*
X48515204Y12703493D01*
X48501912Y12735583D01*
X48490015Y12756189D01*
X48483856Y12779173D01*
X48470563Y12811266D01*
X48457041Y12879248D01*
X48449793Y12906298D01*
X48449793Y12915689D01*
X48447807Y12925673D01*
X48447807Y13042328D01*
X48449793Y13052313D01*
X48449793Y13061702D01*
X48457040Y13088750D01*
X48470563Y13156735D01*
X48483857Y13188831D01*
X48490015Y13211811D01*
X48501910Y13232416D01*
X48515204Y13264508D01*
X48553711Y13322139D01*
X48567717Y13346396D01*
X48574358Y13353038D01*
X48580013Y13361500D01*
X48662500Y13443987D01*
X48670962Y13449642D01*
X48677604Y13456283D01*
X48701861Y13470289D01*
X48759492Y13508796D01*
X48791584Y13522090D01*
X48812189Y13533985D01*
X48835169Y13540143D01*
X48867265Y13553437D01*
X48935248Y13566960D01*
X48962298Y13574207D01*
X48971688Y13574207D01*
X48981673Y13576193D01*
X49098327Y13576193D01*
X49108312Y13574207D01*
G37*
G36*
X44028312Y14590207D02*
G01*
X44037702Y14590207D01*
X44064752Y14582959D01*
X44132734Y14569437D01*
X44164827Y14556144D01*
X44187811Y14549985D01*
X44208417Y14538088D01*
X44240507Y14524796D01*
X44298130Y14486293D01*
X44322396Y14472283D01*
X44329039Y14465640D01*
X44337499Y14459987D01*
X44419986Y14377500D01*
X44425638Y14369041D01*
X44432283Y14362396D01*
X44446294Y14338128D01*
X44484795Y14280508D01*
X44498085Y14248422D01*
X44509985Y14227811D01*
X44516144Y14204824D01*
X44529436Y14172735D01*
X44542958Y14104756D01*
X44550207Y14077702D01*
X44550207Y14068313D01*
X44552193Y14058328D01*
X44552193Y13941673D01*
X44550207Y13931689D01*
X44550207Y13922298D01*
X44542957Y13895242D01*
X44529436Y13827266D01*
X44516145Y13795180D01*
X44509985Y13772189D01*
X44498084Y13751577D01*
X44484795Y13719493D01*
X44446298Y13661881D01*
X44432283Y13637604D01*
X44425636Y13630958D01*
X44419986Y13622501D01*
X44337499Y13540014D01*
X44329042Y13534364D01*
X44322396Y13527717D01*
X44298119Y13513702D01*
X44240507Y13475205D01*
X44208423Y13461916D01*
X44187811Y13450015D01*
X44164820Y13443855D01*
X44132734Y13430564D01*
X44064758Y13417043D01*
X44037702Y13409793D01*
X44028311Y13409793D01*
X44018327Y13407807D01*
X43901673Y13407807D01*
X43891689Y13409793D01*
X43882298Y13409793D01*
X43855243Y13417043D01*
X43787265Y13430564D01*
X43755176Y13443856D01*
X43732189Y13450015D01*
X43711578Y13461915D01*
X43679492Y13475205D01*
X43621872Y13513706D01*
X43597604Y13527717D01*
X43590959Y13534362D01*
X43582500Y13540014D01*
X43500013Y13622501D01*
X43494360Y13630961D01*
X43487717Y13637604D01*
X43473707Y13661870D01*
X43435204Y13719493D01*
X43421912Y13751583D01*
X43410015Y13772189D01*
X43403856Y13795173D01*
X43390563Y13827266D01*
X43377041Y13895248D01*
X43369793Y13922298D01*
X43369793Y13931689D01*
X43367807Y13941673D01*
X43367807Y14058328D01*
X43369793Y14068313D01*
X43369793Y14077702D01*
X43377040Y14104750D01*
X43390563Y14172735D01*
X43403857Y14204831D01*
X43410015Y14227811D01*
X43421910Y14248416D01*
X43435204Y14280508D01*
X43473711Y14338139D01*
X43487717Y14362396D01*
X43494358Y14369038D01*
X43500013Y14377500D01*
X43582500Y14459987D01*
X43590962Y14465642D01*
X43597604Y14472283D01*
X43621861Y14486289D01*
X43679492Y14524796D01*
X43711584Y14538090D01*
X43732189Y14549985D01*
X43755169Y14556143D01*
X43787265Y14569437D01*
X43855248Y14582960D01*
X43882298Y14590207D01*
X43891688Y14590207D01*
X43901673Y14592193D01*
X44018327Y14592193D01*
X44028312Y14590207D01*
G37*
G36*
X49108312Y15606207D02*
G01*
X49117702Y15606207D01*
X49144752Y15598959D01*
X49212734Y15585437D01*
X49244827Y15572144D01*
X49267811Y15565985D01*
X49288417Y15554088D01*
X49320507Y15540796D01*
X49378130Y15502293D01*
X49402396Y15488283D01*
X49409039Y15481640D01*
X49417499Y15475987D01*
X49499986Y15393500D01*
X49505638Y15385041D01*
X49512283Y15378396D01*
X49526294Y15354128D01*
X49564795Y15296508D01*
X49578085Y15264422D01*
X49589985Y15243811D01*
X49596144Y15220824D01*
X49609436Y15188735D01*
X49622958Y15120756D01*
X49630207Y15093702D01*
X49630207Y15084313D01*
X49632193Y15074328D01*
X49632193Y14957673D01*
X49630207Y14947689D01*
X49630207Y14938298D01*
X49622957Y14911242D01*
X49609436Y14843266D01*
X49596145Y14811180D01*
X49589985Y14788189D01*
X49578084Y14767577D01*
X49564795Y14735493D01*
X49526298Y14677881D01*
X49512283Y14653604D01*
X49505636Y14646958D01*
X49499986Y14638501D01*
X49417499Y14556014D01*
X49409042Y14550364D01*
X49402396Y14543717D01*
X49378119Y14529702D01*
X49320507Y14491205D01*
X49288423Y14477916D01*
X49267811Y14466015D01*
X49244820Y14459855D01*
X49212734Y14446564D01*
X49144758Y14433043D01*
X49117702Y14425793D01*
X49108311Y14425793D01*
X49098327Y14423807D01*
X48981673Y14423807D01*
X48971689Y14425793D01*
X48962298Y14425793D01*
X48935243Y14433043D01*
X48867265Y14446564D01*
X48835176Y14459856D01*
X48812189Y14466015D01*
X48791578Y14477915D01*
X48759492Y14491205D01*
X48701872Y14529706D01*
X48677604Y14543717D01*
X48670959Y14550362D01*
X48662500Y14556014D01*
X48580013Y14638501D01*
X48574360Y14646961D01*
X48567717Y14653604D01*
X48553707Y14677870D01*
X48515204Y14735493D01*
X48501912Y14767583D01*
X48490015Y14788189D01*
X48483856Y14811173D01*
X48470563Y14843266D01*
X48457041Y14911248D01*
X48449793Y14938298D01*
X48449793Y14947689D01*
X48447807Y14957673D01*
X48447807Y15074328D01*
X48449793Y15084313D01*
X48449793Y15093702D01*
X48457040Y15120750D01*
X48470563Y15188735D01*
X48483857Y15220831D01*
X48490015Y15243811D01*
X48501910Y15264416D01*
X48515204Y15296508D01*
X48553711Y15354139D01*
X48567717Y15378396D01*
X48574358Y15385038D01*
X48580013Y15393500D01*
X48662500Y15475987D01*
X48670962Y15481642D01*
X48677604Y15488283D01*
X48701861Y15502289D01*
X48759492Y15540796D01*
X48791584Y15554090D01*
X48812189Y15565985D01*
X48835169Y15572143D01*
X48867265Y15585437D01*
X48935248Y15598960D01*
X48962298Y15606207D01*
X48971688Y15606207D01*
X48981673Y15608193D01*
X49098327Y15608193D01*
X49108312Y15606207D01*
G37*
G36*
X44260549Y17791878D02*
G01*
X44452686Y17729449D01*
X44632691Y17637732D01*
X44796132Y17518985D01*
X44938985Y17376132D01*
X45057732Y17212691D01*
X45149449Y17032686D01*
X45211878Y16840549D01*
X45243481Y16641012D01*
X45243481Y16438988D01*
X45211878Y16239451D01*
X45149449Y16047314D01*
X45057732Y15867309D01*
X44938985Y15703868D01*
X44796132Y15561015D01*
X44632691Y15442268D01*
X44452686Y15350551D01*
X44260549Y15288122D01*
X44061012Y15256519D01*
X43858988Y15256519D01*
X43659451Y15288122D01*
X43467314Y15350551D01*
X43287309Y15442268D01*
X43123868Y15561015D01*
X42981015Y15703868D01*
X42862268Y15867309D01*
X42770551Y16047314D01*
X42708122Y16239451D01*
X42676519Y16438988D01*
X42676519Y16641012D01*
X42708122Y16840549D01*
X42770551Y17032686D01*
X42862268Y17212691D01*
X42981015Y17376132D01*
X43123868Y17518985D01*
X43287309Y17637732D01*
X43467314Y17729449D01*
X43659451Y17791878D01*
X43858988Y17823481D01*
X44061012Y17823481D01*
X44260549Y17791878D01*
G37*
G36*
X47435549Y17791878D02*
G01*
X47627686Y17729449D01*
X47807691Y17637732D01*
X47971132Y17518985D01*
X48113985Y17376132D01*
X48232732Y17212691D01*
X48324449Y17032686D01*
X48386878Y16840549D01*
X48418481Y16641012D01*
X48418481Y16438988D01*
X48386878Y16239451D01*
X48324449Y16047314D01*
X48232732Y15867309D01*
X48113985Y15703868D01*
X47971132Y15561015D01*
X47807691Y15442268D01*
X47627686Y15350551D01*
X47435549Y15288122D01*
X47236012Y15256519D01*
X47033988Y15256519D01*
X46834451Y15288122D01*
X46642314Y15350551D01*
X46462309Y15442268D01*
X46298868Y15561015D01*
X46156015Y15703868D01*
X46037268Y15867309D01*
X45945551Y16047314D01*
X45883122Y16239451D01*
X45851519Y16438988D01*
X45851519Y16641012D01*
X45883122Y16840549D01*
X45945551Y17032686D01*
X46037268Y17212691D01*
X46156015Y17376132D01*
X46298868Y17518985D01*
X46462309Y17637732D01*
X46642314Y17729449D01*
X46834451Y17791878D01*
X47033988Y17823481D01*
X47236012Y17823481D01*
X47435549Y17791878D01*
G37*
G36*
X5967640Y17282649D02*
G01*
X6063724Y17227175D01*
X6142175Y17148724D01*
X6197649Y17052640D01*
X6226364Y16945474D01*
X6226364Y16834526D01*
X6197649Y16727360D01*
X6142175Y16631276D01*
X6063724Y16552825D01*
X5967640Y16497351D01*
X5860474Y16468636D01*
X5749526Y16468636D01*
X5642360Y16497351D01*
X5546276Y16552825D01*
X5467825Y16631276D01*
X5412351Y16727360D01*
X5383636Y16834526D01*
X5383636Y16945474D01*
X5412351Y17052640D01*
X5467825Y17148724D01*
X5546276Y17227175D01*
X5642360Y17282649D01*
X5749526Y17311364D01*
X5860474Y17311364D01*
X5967640Y17282649D01*
G37*
G36*
X2528686Y18919759D02*
G01*
X2582577Y18917111D01*
X2589210Y18915792D01*
X2603316Y18914867D01*
X2630562Y18907567D01*
X2699099Y18893934D01*
X2731448Y18880535D01*
X2754610Y18874328D01*
X2775377Y18862338D01*
X2807722Y18848940D01*
X2865816Y18810123D01*
X2890257Y18796012D01*
X2896946Y18789323D01*
X2905481Y18783620D01*
X2988619Y18700482D01*
X2994321Y18691948D01*
X3001012Y18685257D01*
X3015124Y18660814D01*
X3053939Y18602723D01*
X3067335Y18570382D01*
X3079328Y18549610D01*
X3085535Y18526445D01*
X3098933Y18494100D01*
X3112565Y18425567D01*
X3119867Y18398316D01*
X3119867Y18388859D01*
X3121870Y18378789D01*
X3121870Y18261212D01*
X3119867Y18251143D01*
X3119867Y18241684D01*
X3112564Y18214431D01*
X3098933Y18145901D01*
X3085535Y18113559D01*
X3079328Y18090390D01*
X3067334Y18069617D01*
X3053939Y18037278D01*
X3015128Y17979195D01*
X3001012Y17954743D01*
X2994319Y17948051D01*
X2988619Y17939519D01*
X2905481Y17856381D01*
X2896949Y17850681D01*
X2890257Y17843988D01*
X2865805Y17829872D01*
X2807722Y17791061D01*
X2775383Y17777666D01*
X2754610Y17765672D01*
X2731441Y17759465D01*
X2699099Y17746067D01*
X2630576Y17732438D01*
X2603316Y17725133D01*
X2589203Y17724209D01*
X2582577Y17722890D01*
X2528691Y17720242D01*
X2525000Y17720000D01*
X2523768Y17720000D01*
X1726232Y17720000D01*
X1725000Y17720000D01*
X1721308Y17720242D01*
X1667422Y17722890D01*
X1660795Y17724209D01*
X1646684Y17725133D01*
X1619426Y17732437D01*
X1550900Y17746067D01*
X1518555Y17759465D01*
X1495390Y17765672D01*
X1474618Y17777665D01*
X1442277Y17791061D01*
X1384186Y17829876D01*
X1359743Y17843988D01*
X1353052Y17850679D01*
X1344518Y17856381D01*
X1261380Y17939519D01*
X1255677Y17948054D01*
X1248988Y17954743D01*
X1234877Y17979184D01*
X1196060Y18037278D01*
X1182662Y18069623D01*
X1170672Y18090390D01*
X1164465Y18113552D01*
X1151066Y18145901D01*
X1137433Y18214437D01*
X1130133Y18241684D01*
X1130133Y18251142D01*
X1128130Y18261212D01*
X1128130Y18378789D01*
X1130133Y18388860D01*
X1130133Y18398316D01*
X1137433Y18425561D01*
X1151066Y18494100D01*
X1164466Y18526452D01*
X1170672Y18549610D01*
X1182660Y18570376D01*
X1196060Y18602723D01*
X1234881Y18660825D01*
X1248988Y18685257D01*
X1255675Y18691945D01*
X1261380Y18700482D01*
X1344518Y18783620D01*
X1353055Y18789325D01*
X1359743Y18796012D01*
X1384175Y18810119D01*
X1442277Y18848940D01*
X1474624Y18862340D01*
X1495390Y18874328D01*
X1518548Y18880534D01*
X1550900Y18893934D01*
X1619440Y18907568D01*
X1646684Y18914867D01*
X1660787Y18915792D01*
X1667422Y18917111D01*
X1721313Y18919759D01*
X1725000Y18920000D01*
X2525000Y18920000D01*
X2528686Y18919759D01*
G37*
G36*
X6858686Y18919759D02*
G01*
X6912577Y18917111D01*
X6919210Y18915792D01*
X6933316Y18914867D01*
X6960562Y18907567D01*
X7029099Y18893934D01*
X7061448Y18880535D01*
X7084610Y18874328D01*
X7105377Y18862338D01*
X7137722Y18848940D01*
X7195816Y18810123D01*
X7220257Y18796012D01*
X7226946Y18789323D01*
X7235481Y18783620D01*
X7318619Y18700482D01*
X7324321Y18691948D01*
X7331012Y18685257D01*
X7345124Y18660814D01*
X7383939Y18602723D01*
X7397335Y18570382D01*
X7409328Y18549610D01*
X7415535Y18526445D01*
X7428933Y18494100D01*
X7442565Y18425567D01*
X7449867Y18398316D01*
X7449867Y18388859D01*
X7451870Y18378789D01*
X7451870Y18261212D01*
X7449867Y18251143D01*
X7449867Y18241684D01*
X7442564Y18214431D01*
X7428933Y18145901D01*
X7415535Y18113559D01*
X7409328Y18090390D01*
X7397334Y18069617D01*
X7383939Y18037278D01*
X7345128Y17979195D01*
X7331012Y17954743D01*
X7324319Y17948051D01*
X7318619Y17939519D01*
X7235481Y17856381D01*
X7226949Y17850681D01*
X7220257Y17843988D01*
X7195805Y17829872D01*
X7137722Y17791061D01*
X7105383Y17777666D01*
X7084610Y17765672D01*
X7061441Y17759465D01*
X7029099Y17746067D01*
X6960576Y17732438D01*
X6933316Y17725133D01*
X6919203Y17724209D01*
X6912577Y17722890D01*
X6858691Y17720242D01*
X6855000Y17720000D01*
X6853768Y17720000D01*
X5756232Y17720000D01*
X5755000Y17720000D01*
X5751308Y17720242D01*
X5697422Y17722890D01*
X5690795Y17724209D01*
X5676684Y17725133D01*
X5649426Y17732437D01*
X5580900Y17746067D01*
X5548555Y17759465D01*
X5525390Y17765672D01*
X5504618Y17777665D01*
X5472277Y17791061D01*
X5414186Y17829876D01*
X5389743Y17843988D01*
X5383052Y17850679D01*
X5374518Y17856381D01*
X5291380Y17939519D01*
X5285677Y17948054D01*
X5278988Y17954743D01*
X5264877Y17979184D01*
X5226060Y18037278D01*
X5212662Y18069623D01*
X5200672Y18090390D01*
X5194465Y18113552D01*
X5181066Y18145901D01*
X5167433Y18214437D01*
X5160133Y18241684D01*
X5160133Y18251142D01*
X5158130Y18261212D01*
X5158130Y18378789D01*
X5160133Y18388860D01*
X5160133Y18398316D01*
X5167433Y18425561D01*
X5181066Y18494100D01*
X5194466Y18526452D01*
X5200672Y18549610D01*
X5212660Y18570376D01*
X5226060Y18602723D01*
X5264881Y18660825D01*
X5278988Y18685257D01*
X5285675Y18691945D01*
X5291380Y18700482D01*
X5374518Y18783620D01*
X5383055Y18789325D01*
X5389743Y18796012D01*
X5414175Y18810119D01*
X5472277Y18848940D01*
X5504624Y18862340D01*
X5525390Y18874328D01*
X5548548Y18880534D01*
X5580900Y18893934D01*
X5649440Y18907568D01*
X5676684Y18914867D01*
X5690787Y18915792D01*
X5697422Y18917111D01*
X5751313Y18919759D01*
X5755000Y18920000D01*
X6855000Y18920000D01*
X6858686Y18919759D01*
G37*
G36*
X4434211Y27264282D02*
G01*
X4751835Y27201103D01*
X5061737Y27107095D01*
X5360932Y26983165D01*
X5646539Y26830504D01*
X5915808Y26650585D01*
X6166145Y26445139D01*
X6395139Y26216145D01*
X6600585Y25965808D01*
X6780504Y25696539D01*
X6933165Y25410932D01*
X7057095Y25111737D01*
X7151103Y24801835D01*
X7214282Y24484211D01*
X7246025Y24161923D01*
X7246025Y23838077D01*
X7214282Y23515789D01*
X7151103Y23198165D01*
X7057095Y22888263D01*
X6933165Y22589068D01*
X6780504Y22303461D01*
X6600585Y22034192D01*
X6395139Y21783855D01*
X6166145Y21554861D01*
X5915808Y21349415D01*
X5646539Y21169496D01*
X5360932Y21016835D01*
X5061737Y20892905D01*
X4751835Y20798897D01*
X4434211Y20735718D01*
X4111923Y20703975D01*
X3788077Y20703975D01*
X3465789Y20735718D01*
X3148165Y20798897D01*
X2838263Y20892905D01*
X2539068Y21016835D01*
X2253461Y21169496D01*
X1984192Y21349415D01*
X1733855Y21554861D01*
X1504861Y21783855D01*
X1299415Y22034192D01*
X1119496Y22303461D01*
X966835Y22589068D01*
X842905Y22888263D01*
X748897Y23198165D01*
X685718Y23515789D01*
X653975Y23838077D01*
X653975Y24161923D01*
X685718Y24484211D01*
X748897Y24801835D01*
X842905Y25111737D01*
X966835Y25410932D01*
X1119496Y25696539D01*
X1299415Y25965808D01*
X1504861Y26216145D01*
X1733855Y26445139D01*
X1984192Y26650585D01*
X2253461Y26830504D01*
X2539068Y26983165D01*
X2838263Y27107095D01*
X3148165Y27201103D01*
X3465789Y27264282D01*
X3788077Y27296025D01*
X4111923Y27296025D01*
X4434211Y27264282D01*
G37*
G36*
X49484211Y27264282D02*
G01*
X49801835Y27201103D01*
X50111737Y27107095D01*
X50410932Y26983165D01*
X50696539Y26830504D01*
X50965808Y26650585D01*
X51216145Y26445139D01*
X51445139Y26216145D01*
X51650585Y25965808D01*
X51830504Y25696539D01*
X51983165Y25410932D01*
X52107095Y25111737D01*
X52201103Y24801835D01*
X52264282Y24484211D01*
X52296025Y24161923D01*
X52296025Y23838077D01*
X52264282Y23515789D01*
X52201103Y23198165D01*
X52107095Y22888263D01*
X51983165Y22589068D01*
X51830504Y22303461D01*
X51650585Y22034192D01*
X51445139Y21783855D01*
X51216145Y21554861D01*
X50965808Y21349415D01*
X50696539Y21169496D01*
X50410932Y21016835D01*
X50111737Y20892905D01*
X49801835Y20798897D01*
X49484211Y20735718D01*
X49161923Y20703975D01*
X48838077Y20703975D01*
X48515789Y20735718D01*
X48198165Y20798897D01*
X47888263Y20892905D01*
X47589068Y21016835D01*
X47303461Y21169496D01*
X47034192Y21349415D01*
X46783855Y21554861D01*
X46554861Y21783855D01*
X46349415Y22034192D01*
X46169496Y22303461D01*
X46016835Y22589068D01*
X45892905Y22888263D01*
X45798897Y23198165D01*
X45735718Y23515789D01*
X45703975Y23838077D01*
X45703975Y24161923D01*
X45735718Y24484211D01*
X45798897Y24801835D01*
X45892905Y25111737D01*
X46016835Y25410932D01*
X46169496Y25696539D01*
X46349415Y25965808D01*
X46554861Y26216145D01*
X46783855Y26445139D01*
X47034192Y26650585D01*
X47303461Y26830504D01*
X47589068Y26983165D01*
X47888263Y27107095D01*
X48198165Y27201103D01*
X48515789Y27264282D01*
X48838077Y27296025D01*
X49161923Y27296025D01*
X49484211Y27264282D01*
G37*
M02*
